G04 #@! TF.GenerationSoftware,KiCad,Pcbnew,(5.1.7)-1*
G04 #@! TF.CreationDate,2021-03-21T19:43:21+09:00*
G04 #@! TF.ProjectId,Beryl32,42657279-6c33-4322-9e6b-696361645f70,rev?*
G04 #@! TF.SameCoordinates,Original*
G04 #@! TF.FileFunction,Soldermask,Top*
G04 #@! TF.FilePolarity,Negative*
%FSLAX46Y46*%
G04 Gerber Fmt 4.6, Leading zero omitted, Abs format (unit mm)*
G04 Created by KiCad (PCBNEW (5.1.7)-1) date 2021-03-21 19:43:21*
%MOMM*%
%LPD*%
G01*
G04 APERTURE LIST*
%ADD10C,0.300000*%
%ADD11C,4.100000*%
%ADD12C,1.900000*%
%ADD13C,3.000000*%
%ADD14C,2.000000*%
%ADD15C,1.524000*%
G04 APERTURE END LIST*
D10*
X202928571Y-171617857D02*
X203142857Y-171689285D01*
X203214285Y-171760714D01*
X203285714Y-171903571D01*
X203285714Y-172117857D01*
X203214285Y-172260714D01*
X203142857Y-172332142D01*
X203000000Y-172403571D01*
X202428571Y-172403571D01*
X202428571Y-170903571D01*
X202928571Y-170903571D01*
X203071428Y-170975000D01*
X203142857Y-171046428D01*
X203214285Y-171189285D01*
X203214285Y-171332142D01*
X203142857Y-171475000D01*
X203071428Y-171546428D01*
X202928571Y-171617857D01*
X202428571Y-171617857D01*
X204500000Y-172332142D02*
X204357142Y-172403571D01*
X204071428Y-172403571D01*
X203928571Y-172332142D01*
X203857142Y-172189285D01*
X203857142Y-171617857D01*
X203928571Y-171475000D01*
X204071428Y-171403571D01*
X204357142Y-171403571D01*
X204500000Y-171475000D01*
X204571428Y-171617857D01*
X204571428Y-171760714D01*
X203857142Y-171903571D01*
X205214285Y-172403571D02*
X205214285Y-171403571D01*
X205214285Y-171689285D02*
X205285714Y-171546428D01*
X205357142Y-171475000D01*
X205500000Y-171403571D01*
X205642857Y-171403571D01*
X206000000Y-171403571D02*
X206357142Y-172403571D01*
X206714285Y-171403571D02*
X206357142Y-172403571D01*
X206214285Y-172760714D01*
X206142857Y-172832142D01*
X206000000Y-172903571D01*
X207500000Y-172403571D02*
X207357142Y-172332142D01*
X207285714Y-172189285D01*
X207285714Y-170903571D01*
X207928571Y-170903571D02*
X208857142Y-170903571D01*
X208357142Y-171475000D01*
X208571428Y-171475000D01*
X208714285Y-171546428D01*
X208785714Y-171617857D01*
X208857142Y-171760714D01*
X208857142Y-172117857D01*
X208785714Y-172260714D01*
X208714285Y-172332142D01*
X208571428Y-172403571D01*
X208142857Y-172403571D01*
X208000000Y-172332142D01*
X207928571Y-172260714D01*
X209428571Y-171046428D02*
X209500000Y-170975000D01*
X209642857Y-170903571D01*
X210000000Y-170903571D01*
X210142857Y-170975000D01*
X210214285Y-171046428D01*
X210285714Y-171189285D01*
X210285714Y-171332142D01*
X210214285Y-171546428D01*
X209357142Y-172403571D01*
X210285714Y-172403571D01*
X211928571Y-171403571D02*
X212285714Y-172403571D01*
X212642857Y-171403571D01*
X214000000Y-172403571D02*
X213142857Y-172403571D01*
X213571428Y-172403571D02*
X213571428Y-170903571D01*
X213428571Y-171117857D01*
X213285714Y-171260714D01*
X213142857Y-171332142D01*
X214642857Y-172260714D02*
X214714285Y-172332142D01*
X214642857Y-172403571D01*
X214571428Y-172332142D01*
X214642857Y-172260714D01*
X214642857Y-172403571D01*
X215642857Y-170903571D02*
X215785714Y-170903571D01*
X215928571Y-170975000D01*
X216000000Y-171046428D01*
X216071428Y-171189285D01*
X216142857Y-171475000D01*
X216142857Y-171832142D01*
X216071428Y-172117857D01*
X216000000Y-172260714D01*
X215928571Y-172332142D01*
X215785714Y-172403571D01*
X215642857Y-172403571D01*
X215500000Y-172332142D01*
X215428571Y-172260714D01*
X215357142Y-172117857D01*
X215285714Y-171832142D01*
X215285714Y-171475000D01*
X215357142Y-171189285D01*
X215428571Y-171046428D01*
X215500000Y-170975000D01*
X215642857Y-170903571D01*
X194857142Y-174953571D02*
X194857142Y-173453571D01*
X195428571Y-173453571D01*
X195571428Y-173525000D01*
X195642857Y-173596428D01*
X195714285Y-173739285D01*
X195714285Y-173953571D01*
X195642857Y-174096428D01*
X195571428Y-174167857D01*
X195428571Y-174239285D01*
X194857142Y-174239285D01*
X197214285Y-174810714D02*
X197142857Y-174882142D01*
X196928571Y-174953571D01*
X196785714Y-174953571D01*
X196571428Y-174882142D01*
X196428571Y-174739285D01*
X196357142Y-174596428D01*
X196285714Y-174310714D01*
X196285714Y-174096428D01*
X196357142Y-173810714D01*
X196428571Y-173667857D01*
X196571428Y-173525000D01*
X196785714Y-173453571D01*
X196928571Y-173453571D01*
X197142857Y-173525000D01*
X197214285Y-173596428D01*
X198357142Y-174167857D02*
X198571428Y-174239285D01*
X198642857Y-174310714D01*
X198714285Y-174453571D01*
X198714285Y-174667857D01*
X198642857Y-174810714D01*
X198571428Y-174882142D01*
X198428571Y-174953571D01*
X197857142Y-174953571D01*
X197857142Y-173453571D01*
X198357142Y-173453571D01*
X198500000Y-173525000D01*
X198571428Y-173596428D01*
X198642857Y-173739285D01*
X198642857Y-173882142D01*
X198571428Y-174025000D01*
X198500000Y-174096428D01*
X198357142Y-174167857D01*
X197857142Y-174167857D01*
X200500000Y-174953571D02*
X200500000Y-173453571D01*
X200857142Y-173453571D01*
X201071428Y-173525000D01*
X201214285Y-173667857D01*
X201285714Y-173810714D01*
X201357142Y-174096428D01*
X201357142Y-174310714D01*
X201285714Y-174596428D01*
X201214285Y-174739285D01*
X201071428Y-174882142D01*
X200857142Y-174953571D01*
X200500000Y-174953571D01*
X202571428Y-174882142D02*
X202428571Y-174953571D01*
X202142857Y-174953571D01*
X202000000Y-174882142D01*
X201928571Y-174739285D01*
X201928571Y-174167857D01*
X202000000Y-174025000D01*
X202142857Y-173953571D01*
X202428571Y-173953571D01*
X202571428Y-174025000D01*
X202642857Y-174167857D01*
X202642857Y-174310714D01*
X201928571Y-174453571D01*
X203214285Y-174882142D02*
X203357142Y-174953571D01*
X203642857Y-174953571D01*
X203785714Y-174882142D01*
X203857142Y-174739285D01*
X203857142Y-174667857D01*
X203785714Y-174525000D01*
X203642857Y-174453571D01*
X203428571Y-174453571D01*
X203285714Y-174382142D01*
X203214285Y-174239285D01*
X203214285Y-174167857D01*
X203285714Y-174025000D01*
X203428571Y-173953571D01*
X203642857Y-173953571D01*
X203785714Y-174025000D01*
X204500000Y-174953571D02*
X204500000Y-173953571D01*
X204500000Y-173453571D02*
X204428571Y-173525000D01*
X204500000Y-173596428D01*
X204571428Y-173525000D01*
X204500000Y-173453571D01*
X204500000Y-173596428D01*
X205857142Y-173953571D02*
X205857142Y-175167857D01*
X205785714Y-175310714D01*
X205714285Y-175382142D01*
X205571428Y-175453571D01*
X205357142Y-175453571D01*
X205214285Y-175382142D01*
X205857142Y-174882142D02*
X205714285Y-174953571D01*
X205428571Y-174953571D01*
X205285714Y-174882142D01*
X205214285Y-174810714D01*
X205142857Y-174667857D01*
X205142857Y-174239285D01*
X205214285Y-174096428D01*
X205285714Y-174025000D01*
X205428571Y-173953571D01*
X205714285Y-173953571D01*
X205857142Y-174025000D01*
X206571428Y-173953571D02*
X206571428Y-174953571D01*
X206571428Y-174096428D02*
X206642857Y-174025000D01*
X206785714Y-173953571D01*
X207000000Y-173953571D01*
X207142857Y-174025000D01*
X207214285Y-174167857D01*
X207214285Y-174953571D01*
X208500000Y-174882142D02*
X208357142Y-174953571D01*
X208071428Y-174953571D01*
X207928571Y-174882142D01*
X207857142Y-174739285D01*
X207857142Y-174167857D01*
X207928571Y-174025000D01*
X208071428Y-173953571D01*
X208357142Y-173953571D01*
X208500000Y-174025000D01*
X208571428Y-174167857D01*
X208571428Y-174310714D01*
X207857142Y-174453571D01*
X209857142Y-174953571D02*
X209857142Y-173453571D01*
X209857142Y-174882142D02*
X209714285Y-174953571D01*
X209428571Y-174953571D01*
X209285714Y-174882142D01*
X209214285Y-174810714D01*
X209142857Y-174667857D01*
X209142857Y-174239285D01*
X209214285Y-174096428D01*
X209285714Y-174025000D01*
X209428571Y-173953571D01*
X209714285Y-173953571D01*
X209857142Y-174025000D01*
X211714285Y-174953571D02*
X211714285Y-173453571D01*
X211714285Y-174025000D02*
X211857142Y-173953571D01*
X212142857Y-173953571D01*
X212285714Y-174025000D01*
X212357142Y-174096428D01*
X212428571Y-174239285D01*
X212428571Y-174667857D01*
X212357142Y-174810714D01*
X212285714Y-174882142D01*
X212142857Y-174953571D01*
X211857142Y-174953571D01*
X211714285Y-174882142D01*
X212928571Y-173953571D02*
X213285714Y-174953571D01*
X213642857Y-173953571D02*
X213285714Y-174953571D01*
X213142857Y-175310714D01*
X213071428Y-175382142D01*
X212928571Y-175453571D01*
X215214285Y-173953571D02*
X215571428Y-174953571D01*
X215928571Y-173953571D02*
X215571428Y-174953571D01*
X215428571Y-175310714D01*
X215357142Y-175382142D01*
X215214285Y-175453571D01*
X216285714Y-173953571D02*
X216857142Y-173953571D01*
X216500000Y-173453571D02*
X216500000Y-174739285D01*
X216571428Y-174882142D01*
X216714285Y-174953571D01*
X216857142Y-174953571D01*
X217214285Y-173453571D02*
X218142857Y-173453571D01*
X217642857Y-174025000D01*
X217857142Y-174025000D01*
X218000000Y-174096428D01*
X218071428Y-174167857D01*
X218142857Y-174310714D01*
X218142857Y-174667857D01*
X218071428Y-174810714D01*
X218000000Y-174882142D01*
X217857142Y-174953571D01*
X217428571Y-174953571D01*
X217285714Y-174882142D01*
X217214285Y-174810714D01*
X218571428Y-173953571D02*
X219142857Y-173953571D01*
X218785714Y-173453571D02*
X218785714Y-174739285D01*
X218857142Y-174882142D01*
X219000000Y-174953571D01*
X219142857Y-174953571D01*
X219642857Y-174953571D02*
X219642857Y-173953571D01*
X219642857Y-174239285D02*
X219714285Y-174096428D01*
X219785714Y-174025000D01*
X219928571Y-173953571D01*
X220071428Y-173953571D01*
X221142857Y-174882142D02*
X221000000Y-174953571D01*
X220714285Y-174953571D01*
X220571428Y-174882142D01*
X220500000Y-174739285D01*
X220500000Y-174167857D01*
X220571428Y-174025000D01*
X220714285Y-173953571D01*
X221000000Y-173953571D01*
X221142857Y-174025000D01*
X221214285Y-174167857D01*
X221214285Y-174310714D01*
X220500000Y-174453571D01*
X222428571Y-174882142D02*
X222285714Y-174953571D01*
X222000000Y-174953571D01*
X221857142Y-174882142D01*
X221785714Y-174739285D01*
X221785714Y-174167857D01*
X221857142Y-174025000D01*
X222000000Y-173953571D01*
X222285714Y-173953571D01*
X222428571Y-174025000D01*
X222500000Y-174167857D01*
X222500000Y-174310714D01*
X221785714Y-174453571D01*
X223071428Y-174882142D02*
X223214285Y-174953571D01*
X223500000Y-174953571D01*
X223642857Y-174882142D01*
X223714285Y-174739285D01*
X223714285Y-174667857D01*
X223642857Y-174525000D01*
X223500000Y-174453571D01*
X223285714Y-174453571D01*
X223142857Y-174382142D01*
X223071428Y-174239285D01*
X223071428Y-174167857D01*
X223142857Y-174025000D01*
X223285714Y-173953571D01*
X223500000Y-173953571D01*
X223642857Y-174025000D01*
D11*
X250571000Y-145923000D03*
D12*
X255631669Y-145480249D03*
X245510331Y-146365751D03*
D13*
X246554123Y-143724729D03*
X252658583Y-140640955D03*
D14*
X212165000Y-145542000D03*
X205665000Y-145542000D03*
D11*
X238506000Y-167894000D03*
D12*
X243566669Y-167451249D03*
X233445331Y-168336751D03*
D13*
X234489123Y-165695729D03*
X240593583Y-162611955D03*
D11*
X167200000Y-145923000D03*
D12*
X172260669Y-146365751D03*
X162139331Y-145480249D03*
D13*
X163625874Y-143060602D03*
X170173086Y-141083707D03*
D11*
X179324000Y-167894000D03*
D12*
X184384669Y-168336751D03*
X174263331Y-167451249D03*
D13*
X175749874Y-165031602D03*
X182297086Y-163054707D03*
X188973086Y-144660707D03*
X182425874Y-146637602D03*
D12*
X180939331Y-149057249D03*
X191060669Y-149942751D03*
D11*
X186000000Y-149500000D03*
D13*
X233862583Y-144196955D03*
X227758123Y-147280729D03*
D12*
X226714331Y-149921751D03*
X236835669Y-149036249D03*
D11*
X231775000Y-149479000D03*
X111887000Y-121920000D03*
D12*
X116947669Y-122362751D03*
X106826331Y-121477249D03*
D13*
X108312874Y-119057602D03*
X114860086Y-117080707D03*
X113173086Y-136060707D03*
X106625874Y-138037602D03*
D12*
X105139331Y-140457249D03*
X115260669Y-141342751D03*
D11*
X110200000Y-140900000D03*
D13*
X111558086Y-155053707D03*
X105010874Y-157030602D03*
D12*
X103524331Y-159450249D03*
X113645669Y-160335751D03*
D11*
X108585000Y-159893000D03*
D13*
X135473086Y-99760707D03*
X128925874Y-101737602D03*
D12*
X127439331Y-104157249D03*
X137560669Y-105042751D03*
D11*
X132500000Y-104600000D03*
D13*
X133858000Y-118745000D03*
X127310788Y-120721895D03*
D12*
X125824245Y-123141542D03*
X135945583Y-124027044D03*
D11*
X130884914Y-123584293D03*
X129200000Y-142600000D03*
D12*
X134260669Y-143042751D03*
X124139331Y-142157249D03*
D13*
X125625874Y-139737602D03*
X132173086Y-137760707D03*
D11*
X151700000Y-104394000D03*
D12*
X156760669Y-104836751D03*
X146639331Y-103951249D03*
D13*
X148125874Y-101531602D03*
X154673086Y-99554707D03*
D11*
X150000000Y-123400000D03*
D12*
X155060669Y-123842751D03*
X144939331Y-122957249D03*
D13*
X146425874Y-120537602D03*
X152973086Y-118560707D03*
X151309086Y-137527707D03*
X144761874Y-139504602D03*
D12*
X143275331Y-141924249D03*
X153396669Y-142809751D03*
D11*
X148336000Y-142367000D03*
D13*
X173473086Y-103060707D03*
X166925874Y-105037602D03*
D12*
X165439331Y-107457249D03*
X175560669Y-108342751D03*
D11*
X170500000Y-107900000D03*
X168800000Y-126900000D03*
D12*
X173860669Y-127342751D03*
X163739331Y-126457249D03*
D13*
X165225874Y-124037602D03*
X171773086Y-122060707D03*
D11*
X189357000Y-111506000D03*
D12*
X194417669Y-111948751D03*
X184296331Y-111063249D03*
D13*
X185782874Y-108643602D03*
X192330086Y-106666707D03*
D11*
X187600000Y-130500000D03*
D12*
X192660669Y-130942751D03*
X182539331Y-130057249D03*
D13*
X184025874Y-127637602D03*
X190573086Y-125660707D03*
X230560583Y-106223955D03*
X224456123Y-109307729D03*
D12*
X223412331Y-111948751D03*
X233533669Y-111063249D03*
D11*
X228473000Y-111506000D03*
X230124000Y-130429000D03*
D12*
X235184669Y-129986249D03*
X225063331Y-130871751D03*
D13*
X226107123Y-128230729D03*
X232211583Y-125146955D03*
X249356583Y-102667955D03*
X243252123Y-105751729D03*
D12*
X242208331Y-108392751D03*
X252329669Y-107507249D03*
D11*
X247269000Y-107950000D03*
D13*
X251087583Y-121617955D03*
X244983123Y-124701729D03*
D12*
X243939331Y-127342751D03*
X254060669Y-126457249D03*
D11*
X249000000Y-126900000D03*
D13*
X268187583Y-99111955D03*
X262083123Y-102195729D03*
D12*
X261039331Y-104836751D03*
X271160669Y-103951249D03*
D11*
X266100000Y-104394000D03*
X267800000Y-123317000D03*
D12*
X272860669Y-122874249D03*
X262739331Y-123759751D03*
D13*
X263783123Y-121118729D03*
X269887583Y-118034955D03*
X271581583Y-137084955D03*
X265477123Y-140168729D03*
D12*
X264433331Y-142809751D03*
X274554669Y-141924249D03*
D11*
X269494000Y-142367000D03*
X285242000Y-104648000D03*
D12*
X290302669Y-104205249D03*
X280181331Y-105090751D03*
D13*
X281225123Y-102449729D03*
X287329583Y-99365955D03*
X288980583Y-118288955D03*
X282876123Y-121372729D03*
D12*
X281832331Y-124013751D03*
X291953669Y-123128249D03*
D11*
X286893000Y-123571000D03*
X288544000Y-142621000D03*
D12*
X293604669Y-142178249D03*
X283483331Y-143063751D03*
D13*
X284527123Y-140422729D03*
X290631583Y-137338955D03*
X308030583Y-116637955D03*
X301926123Y-119721729D03*
D12*
X300882331Y-122362751D03*
X311003669Y-121477249D03*
D11*
X305943000Y-121920000D03*
X307594000Y-140900000D03*
D12*
X312654669Y-140457249D03*
X302533331Y-141342751D03*
D13*
X303577123Y-138701729D03*
X309681583Y-135617955D03*
X311332583Y-154610955D03*
X305228123Y-157694729D03*
D12*
X304184331Y-160335751D03*
X314305669Y-159450249D03*
D11*
X309245000Y-159893000D03*
D15*
X216478600Y-106934000D03*
X216478600Y-109474000D03*
X216478600Y-112014000D03*
X216478600Y-114554000D03*
X216478600Y-117094000D03*
X216478600Y-119634000D03*
X216478600Y-122174000D03*
X216478600Y-124714000D03*
X216478600Y-127254000D03*
X216478600Y-129794000D03*
X216478600Y-132334000D03*
X216478600Y-134874000D03*
X201258600Y-134874000D03*
X201258600Y-132334000D03*
X201258600Y-129794000D03*
X201258600Y-127254000D03*
X201258600Y-124714000D03*
X201258600Y-122174000D03*
X201258600Y-119634000D03*
X201258600Y-117094000D03*
X201258600Y-114554000D03*
X201258600Y-112014000D03*
X201258600Y-109474000D03*
X201258600Y-106934000D03*
M02*
