G04 #@! TF.GenerationSoftware,KiCad,Pcbnew,(5.1.7)-1*
G04 #@! TF.CreationDate,2021-03-21T19:43:21+09:00*
G04 #@! TF.ProjectId,Beryl32,42657279-6c33-4322-9e6b-696361645f70,rev?*
G04 #@! TF.SameCoordinates,Original*
G04 #@! TF.FileFunction,Profile,NP*
%FSLAX46Y46*%
G04 Gerber Fmt 4.6, Leading zero omitted, Abs format (unit mm)*
G04 Created by KiCad (PCBNEW (5.1.7)-1) date 2021-03-21 19:43:21*
%MOMM*%
%LPD*%
G01*
G04 APERTURE LIST*
G04 #@! TA.AperFunction,Profile*
%ADD10C,0.200000*%
G04 #@! TD*
G04 APERTURE END LIST*
D10*
X246363620Y-155301400D02*
X247581440Y-169221440D01*
X247581440Y-169221440D02*
X248189880Y-176176050D01*
X197041710Y-103167836D02*
X220749170Y-103167833D01*
X298153250Y-113606234D02*
X314065640Y-112213973D01*
X246363620Y-155301400D02*
X260360080Y-154077060D01*
X248189880Y-176176050D02*
X220559970Y-178594370D01*
X169601190Y-176176090D02*
X197231100Y-178594410D01*
X171427454Y-155301441D02*
X170209630Y-169221480D01*
X170209630Y-169221477D02*
X169601194Y-176176092D01*
X171427454Y-155301441D02*
X157430797Y-154077058D01*
X157430789Y-154077060D02*
X157605200Y-152084700D01*
X197231100Y-178594410D02*
X220559780Y-178594410D01*
X181303890Y-99783211D02*
X164310539Y-98391972D01*
X181129480Y-101775571D02*
X181303890Y-99783211D01*
X183121850Y-101949993D02*
X181129480Y-101775571D01*
X197041710Y-103167836D02*
X183121850Y-101949993D01*
X162492589Y-96225191D02*
X142442440Y-94471268D01*
X162318170Y-98217551D02*
X164310539Y-98391973D01*
X140275660Y-96289207D02*
X142268010Y-96463628D01*
X126355610Y-95071356D02*
X140275660Y-96289207D01*
X162318170Y-98217551D02*
X162492580Y-96225191D01*
X142268010Y-96463628D02*
X142442420Y-94471268D01*
X124363240Y-94896935D02*
X122703120Y-113874449D01*
X122703120Y-113874449D02*
X119637630Y-113606233D01*
X124363240Y-94896935D02*
X126355610Y-95071357D01*
X119637630Y-113606235D02*
X103725240Y-112213974D01*
X103550830Y-114206332D02*
X103725240Y-112213972D01*
X137380720Y-152323140D02*
X121468250Y-150930860D01*
X157605200Y-152084700D02*
X137555130Y-150330780D01*
X121468250Y-150930860D02*
X118403220Y-150662780D01*
X118403220Y-150662790D02*
X118135030Y-153727750D01*
X118135030Y-153727750D02*
X116742770Y-169640130D01*
X116742770Y-169640130D02*
X114750400Y-169465710D01*
X100830410Y-168247860D02*
X98838040Y-168073440D01*
X137380710Y-152323140D02*
X137555120Y-150330780D01*
X114750400Y-169465710D02*
X100830410Y-168247860D01*
X103550830Y-114206332D02*
X99012380Y-166081130D01*
X98837970Y-168073490D02*
X99012380Y-166081130D01*
X236486990Y-99783210D02*
X253480340Y-98391971D01*
X236661400Y-101775570D02*
X236486990Y-99783210D01*
X234669030Y-101949992D02*
X236661400Y-101775570D01*
X220749170Y-103167835D02*
X234669030Y-101949992D01*
X255298290Y-96225190D02*
X275348440Y-94471267D01*
X255472710Y-98217550D02*
X253480340Y-98391972D01*
X277515220Y-96289206D02*
X275522870Y-96463627D01*
X291435270Y-95071355D02*
X277515220Y-96289206D01*
X255472710Y-98217550D02*
X255298300Y-96225190D01*
X275522870Y-96463627D02*
X275348460Y-94471267D01*
X293427640Y-94896934D02*
X295087760Y-113874448D01*
X295087760Y-113874448D02*
X298153250Y-113606232D01*
X293427640Y-94896934D02*
X291435270Y-95071356D01*
X314240050Y-114206331D02*
X314065640Y-112213971D01*
X280410160Y-152323140D02*
X296322630Y-150930860D01*
X260185670Y-152084700D02*
X280235750Y-150330780D01*
X260360080Y-154077060D02*
X260185670Y-152084700D01*
X296322630Y-150930860D02*
X299387660Y-150662780D01*
X299387660Y-150662790D02*
X299655850Y-153727750D01*
X299655850Y-153727750D02*
X301048110Y-169640130D01*
X301048110Y-169640130D02*
X303040480Y-169465710D01*
X316960470Y-168247860D02*
X318952840Y-168073440D01*
X280410170Y-152323140D02*
X280235760Y-150330780D01*
X303040480Y-169465710D02*
X316960470Y-168247860D01*
X314240050Y-114206331D02*
X318778500Y-166081130D01*
X318952910Y-168073490D02*
X318778500Y-166081130D01*
M02*
