G04 #@! TF.GenerationSoftware,KiCad,Pcbnew,(5.1.7)-1*
G04 #@! TF.CreationDate,2021-03-21T19:43:21+09:00*
G04 #@! TF.ProjectId,Beryl32,42657279-6c33-4322-9e6b-696361645f70,rev?*
G04 #@! TF.SameCoordinates,Original*
G04 #@! TF.FileFunction,Soldermask,Bot*
G04 #@! TF.FilePolarity,Negative*
%FSLAX46Y46*%
G04 Gerber Fmt 4.6, Leading zero omitted, Abs format (unit mm)*
G04 Created by KiCad (PCBNEW (5.1.7)-1) date 2021-03-21 19:43:21*
%MOMM*%
%LPD*%
G01*
G04 APERTURE LIST*
%ADD10C,0.300000*%
%ADD11C,0.100000*%
%ADD12C,4.100000*%
%ADD13C,1.900000*%
%ADD14C,3.000000*%
%ADD15C,2.000000*%
G04 APERTURE END LIST*
D10*
X215571428Y-171617857D02*
X215357142Y-171689285D01*
X215285714Y-171760714D01*
X215214285Y-171903571D01*
X215214285Y-172117857D01*
X215285714Y-172260714D01*
X215357142Y-172332142D01*
X215500000Y-172403571D01*
X216071428Y-172403571D01*
X216071428Y-170903571D01*
X215571428Y-170903571D01*
X215428571Y-170975000D01*
X215357142Y-171046428D01*
X215285714Y-171189285D01*
X215285714Y-171332142D01*
X215357142Y-171475000D01*
X215428571Y-171546428D01*
X215571428Y-171617857D01*
X216071428Y-171617857D01*
X214000000Y-172332142D02*
X214142857Y-172403571D01*
X214428571Y-172403571D01*
X214571428Y-172332142D01*
X214642857Y-172189285D01*
X214642857Y-171617857D01*
X214571428Y-171475000D01*
X214428571Y-171403571D01*
X214142857Y-171403571D01*
X214000000Y-171475000D01*
X213928571Y-171617857D01*
X213928571Y-171760714D01*
X214642857Y-171903571D01*
X213285714Y-172403571D02*
X213285714Y-171403571D01*
X213285714Y-171689285D02*
X213214285Y-171546428D01*
X213142857Y-171475000D01*
X213000000Y-171403571D01*
X212857142Y-171403571D01*
X212500000Y-171403571D02*
X212142857Y-172403571D01*
X211785714Y-171403571D02*
X212142857Y-172403571D01*
X212285714Y-172760714D01*
X212357142Y-172832142D01*
X212500000Y-172903571D01*
X211000000Y-172403571D02*
X211142857Y-172332142D01*
X211214285Y-172189285D01*
X211214285Y-170903571D01*
X210571428Y-170903571D02*
X209642857Y-170903571D01*
X210142857Y-171475000D01*
X209928571Y-171475000D01*
X209785714Y-171546428D01*
X209714285Y-171617857D01*
X209642857Y-171760714D01*
X209642857Y-172117857D01*
X209714285Y-172260714D01*
X209785714Y-172332142D01*
X209928571Y-172403571D01*
X210357142Y-172403571D01*
X210500000Y-172332142D01*
X210571428Y-172260714D01*
X209071428Y-171046428D02*
X209000000Y-170975000D01*
X208857142Y-170903571D01*
X208500000Y-170903571D01*
X208357142Y-170975000D01*
X208285714Y-171046428D01*
X208214285Y-171189285D01*
X208214285Y-171332142D01*
X208285714Y-171546428D01*
X209142857Y-172403571D01*
X208214285Y-172403571D01*
X206571428Y-171403571D02*
X206214285Y-172403571D01*
X205857142Y-171403571D01*
X204500000Y-172403571D02*
X205357142Y-172403571D01*
X204928571Y-172403571D02*
X204928571Y-170903571D01*
X205071428Y-171117857D01*
X205214285Y-171260714D01*
X205357142Y-171332142D01*
X203857142Y-172260714D02*
X203785714Y-172332142D01*
X203857142Y-172403571D01*
X203928571Y-172332142D01*
X203857142Y-172260714D01*
X203857142Y-172403571D01*
X202857142Y-170903571D02*
X202714285Y-170903571D01*
X202571428Y-170975000D01*
X202500000Y-171046428D01*
X202428571Y-171189285D01*
X202357142Y-171475000D01*
X202357142Y-171832142D01*
X202428571Y-172117857D01*
X202500000Y-172260714D01*
X202571428Y-172332142D01*
X202714285Y-172403571D01*
X202857142Y-172403571D01*
X203000000Y-172332142D01*
X203071428Y-172260714D01*
X203142857Y-172117857D01*
X203214285Y-171832142D01*
X203214285Y-171475000D01*
X203142857Y-171189285D01*
X203071428Y-171046428D01*
X203000000Y-170975000D01*
X202857142Y-170903571D01*
X223642857Y-174953571D02*
X223642857Y-173453571D01*
X223071428Y-173453571D01*
X222928571Y-173525000D01*
X222857142Y-173596428D01*
X222785714Y-173739285D01*
X222785714Y-173953571D01*
X222857142Y-174096428D01*
X222928571Y-174167857D01*
X223071428Y-174239285D01*
X223642857Y-174239285D01*
X221285714Y-174810714D02*
X221357142Y-174882142D01*
X221571428Y-174953571D01*
X221714285Y-174953571D01*
X221928571Y-174882142D01*
X222071428Y-174739285D01*
X222142857Y-174596428D01*
X222214285Y-174310714D01*
X222214285Y-174096428D01*
X222142857Y-173810714D01*
X222071428Y-173667857D01*
X221928571Y-173525000D01*
X221714285Y-173453571D01*
X221571428Y-173453571D01*
X221357142Y-173525000D01*
X221285714Y-173596428D01*
X220142857Y-174167857D02*
X219928571Y-174239285D01*
X219857142Y-174310714D01*
X219785714Y-174453571D01*
X219785714Y-174667857D01*
X219857142Y-174810714D01*
X219928571Y-174882142D01*
X220071428Y-174953571D01*
X220642857Y-174953571D01*
X220642857Y-173453571D01*
X220142857Y-173453571D01*
X220000000Y-173525000D01*
X219928571Y-173596428D01*
X219857142Y-173739285D01*
X219857142Y-173882142D01*
X219928571Y-174025000D01*
X220000000Y-174096428D01*
X220142857Y-174167857D01*
X220642857Y-174167857D01*
X218000000Y-174953571D02*
X218000000Y-173453571D01*
X217642857Y-173453571D01*
X217428571Y-173525000D01*
X217285714Y-173667857D01*
X217214285Y-173810714D01*
X217142857Y-174096428D01*
X217142857Y-174310714D01*
X217214285Y-174596428D01*
X217285714Y-174739285D01*
X217428571Y-174882142D01*
X217642857Y-174953571D01*
X218000000Y-174953571D01*
X215928571Y-174882142D02*
X216071428Y-174953571D01*
X216357142Y-174953571D01*
X216500000Y-174882142D01*
X216571428Y-174739285D01*
X216571428Y-174167857D01*
X216500000Y-174025000D01*
X216357142Y-173953571D01*
X216071428Y-173953571D01*
X215928571Y-174025000D01*
X215857142Y-174167857D01*
X215857142Y-174310714D01*
X216571428Y-174453571D01*
X215285714Y-174882142D02*
X215142857Y-174953571D01*
X214857142Y-174953571D01*
X214714285Y-174882142D01*
X214642857Y-174739285D01*
X214642857Y-174667857D01*
X214714285Y-174525000D01*
X214857142Y-174453571D01*
X215071428Y-174453571D01*
X215214285Y-174382142D01*
X215285714Y-174239285D01*
X215285714Y-174167857D01*
X215214285Y-174025000D01*
X215071428Y-173953571D01*
X214857142Y-173953571D01*
X214714285Y-174025000D01*
X214000000Y-174953571D02*
X214000000Y-173953571D01*
X214000000Y-173453571D02*
X214071428Y-173525000D01*
X214000000Y-173596428D01*
X213928571Y-173525000D01*
X214000000Y-173453571D01*
X214000000Y-173596428D01*
X212642857Y-173953571D02*
X212642857Y-175167857D01*
X212714285Y-175310714D01*
X212785714Y-175382142D01*
X212928571Y-175453571D01*
X213142857Y-175453571D01*
X213285714Y-175382142D01*
X212642857Y-174882142D02*
X212785714Y-174953571D01*
X213071428Y-174953571D01*
X213214285Y-174882142D01*
X213285714Y-174810714D01*
X213357142Y-174667857D01*
X213357142Y-174239285D01*
X213285714Y-174096428D01*
X213214285Y-174025000D01*
X213071428Y-173953571D01*
X212785714Y-173953571D01*
X212642857Y-174025000D01*
X211928571Y-173953571D02*
X211928571Y-174953571D01*
X211928571Y-174096428D02*
X211857142Y-174025000D01*
X211714285Y-173953571D01*
X211500000Y-173953571D01*
X211357142Y-174025000D01*
X211285714Y-174167857D01*
X211285714Y-174953571D01*
X210000000Y-174882142D02*
X210142857Y-174953571D01*
X210428571Y-174953571D01*
X210571428Y-174882142D01*
X210642857Y-174739285D01*
X210642857Y-174167857D01*
X210571428Y-174025000D01*
X210428571Y-173953571D01*
X210142857Y-173953571D01*
X210000000Y-174025000D01*
X209928571Y-174167857D01*
X209928571Y-174310714D01*
X210642857Y-174453571D01*
X208642857Y-174953571D02*
X208642857Y-173453571D01*
X208642857Y-174882142D02*
X208785714Y-174953571D01*
X209071428Y-174953571D01*
X209214285Y-174882142D01*
X209285714Y-174810714D01*
X209357142Y-174667857D01*
X209357142Y-174239285D01*
X209285714Y-174096428D01*
X209214285Y-174025000D01*
X209071428Y-173953571D01*
X208785714Y-173953571D01*
X208642857Y-174025000D01*
X206785714Y-174953571D02*
X206785714Y-173453571D01*
X206785714Y-174025000D02*
X206642857Y-173953571D01*
X206357142Y-173953571D01*
X206214285Y-174025000D01*
X206142857Y-174096428D01*
X206071428Y-174239285D01*
X206071428Y-174667857D01*
X206142857Y-174810714D01*
X206214285Y-174882142D01*
X206357142Y-174953571D01*
X206642857Y-174953571D01*
X206785714Y-174882142D01*
X205571428Y-173953571D02*
X205214285Y-174953571D01*
X204857142Y-173953571D02*
X205214285Y-174953571D01*
X205357142Y-175310714D01*
X205428571Y-175382142D01*
X205571428Y-175453571D01*
X203285714Y-173953571D02*
X202928571Y-174953571D01*
X202571428Y-173953571D02*
X202928571Y-174953571D01*
X203071428Y-175310714D01*
X203142857Y-175382142D01*
X203285714Y-175453571D01*
X202214285Y-173953571D02*
X201642857Y-173953571D01*
X202000000Y-173453571D02*
X202000000Y-174739285D01*
X201928571Y-174882142D01*
X201785714Y-174953571D01*
X201642857Y-174953571D01*
X201285714Y-173453571D02*
X200357142Y-173453571D01*
X200857142Y-174025000D01*
X200642857Y-174025000D01*
X200500000Y-174096428D01*
X200428571Y-174167857D01*
X200357142Y-174310714D01*
X200357142Y-174667857D01*
X200428571Y-174810714D01*
X200500000Y-174882142D01*
X200642857Y-174953571D01*
X201071428Y-174953571D01*
X201214285Y-174882142D01*
X201285714Y-174810714D01*
X199928571Y-173953571D02*
X199357142Y-173953571D01*
X199714285Y-173453571D02*
X199714285Y-174739285D01*
X199642857Y-174882142D01*
X199500000Y-174953571D01*
X199357142Y-174953571D01*
X198857142Y-174953571D02*
X198857142Y-173953571D01*
X198857142Y-174239285D02*
X198785714Y-174096428D01*
X198714285Y-174025000D01*
X198571428Y-173953571D01*
X198428571Y-173953571D01*
X197357142Y-174882142D02*
X197500000Y-174953571D01*
X197785714Y-174953571D01*
X197928571Y-174882142D01*
X198000000Y-174739285D01*
X198000000Y-174167857D01*
X197928571Y-174025000D01*
X197785714Y-173953571D01*
X197500000Y-173953571D01*
X197357142Y-174025000D01*
X197285714Y-174167857D01*
X197285714Y-174310714D01*
X198000000Y-174453571D01*
X196071428Y-174882142D02*
X196214285Y-174953571D01*
X196500000Y-174953571D01*
X196642857Y-174882142D01*
X196714285Y-174739285D01*
X196714285Y-174167857D01*
X196642857Y-174025000D01*
X196500000Y-173953571D01*
X196214285Y-173953571D01*
X196071428Y-174025000D01*
X196000000Y-174167857D01*
X196000000Y-174310714D01*
X196714285Y-174453571D01*
X195428571Y-174882142D02*
X195285714Y-174953571D01*
X195000000Y-174953571D01*
X194857142Y-174882142D01*
X194785714Y-174739285D01*
X194785714Y-174667857D01*
X194857142Y-174525000D01*
X195000000Y-174453571D01*
X195214285Y-174453571D01*
X195357142Y-174382142D01*
X195428571Y-174239285D01*
X195428571Y-174167857D01*
X195357142Y-174025000D01*
X195214285Y-173953571D01*
X195000000Y-173953571D01*
X194857142Y-174025000D01*
D11*
G36*
X244452789Y-142653797D02*
G01*
X244670678Y-145144284D01*
X242130381Y-145366531D01*
X241912492Y-142876044D01*
X244452789Y-142653797D01*
G37*
D12*
X250571000Y-145923000D03*
D13*
X255631669Y-145480249D03*
X245510331Y-146365751D03*
D11*
G36*
X257109222Y-138996800D02*
G01*
X257327111Y-141487287D01*
X254786814Y-141709534D01*
X254568925Y-139219047D01*
X257109222Y-138996800D01*
G37*
D14*
X246554123Y-143724729D03*
X252658583Y-140640955D03*
D15*
X212165000Y-145542000D03*
X205665000Y-145542000D03*
D11*
G36*
X232387789Y-164624797D02*
G01*
X232605678Y-167115284D01*
X230065381Y-167337531D01*
X229847492Y-164847044D01*
X232387789Y-164624797D01*
G37*
D12*
X238506000Y-167894000D03*
D13*
X243566669Y-167451249D03*
X233445331Y-168336751D03*
D11*
G36*
X245044222Y-160967800D02*
G01*
X245262111Y-163458287D01*
X242721814Y-163680534D01*
X242503925Y-161190047D01*
X245044222Y-160967800D01*
G37*
D14*
X234489123Y-165695729D03*
X240593583Y-162611955D03*
D11*
G36*
X161742429Y-141641047D02*
G01*
X161524540Y-144131534D01*
X158984243Y-143909287D01*
X159202132Y-141418800D01*
X161742429Y-141641047D01*
G37*
D12*
X167200000Y-145923000D03*
D13*
X172260669Y-146365751D03*
X162139331Y-145480249D03*
D11*
G36*
X174841614Y-140237375D02*
G01*
X174623725Y-142727862D01*
X172083428Y-142505615D01*
X172301317Y-140015128D01*
X174841614Y-140237375D01*
G37*
D14*
X163625874Y-143060602D03*
X170173086Y-141083707D03*
D11*
G36*
X173866429Y-163612047D02*
G01*
X173648540Y-166102534D01*
X171108243Y-165880287D01*
X171326132Y-163389800D01*
X173866429Y-163612047D01*
G37*
D12*
X179324000Y-167894000D03*
D13*
X184384669Y-168336751D03*
X174263331Y-167451249D03*
D11*
G36*
X186965614Y-162208375D02*
G01*
X186747725Y-164698862D01*
X184207428Y-164476615D01*
X184425317Y-161986128D01*
X186965614Y-162208375D01*
G37*
D14*
X175749874Y-165031602D03*
X182297086Y-163054707D03*
X188973086Y-144660707D03*
X182425874Y-146637602D03*
D11*
G36*
X193641614Y-143814375D02*
G01*
X193423725Y-146304862D01*
X190883428Y-146082615D01*
X191101317Y-143592128D01*
X193641614Y-143814375D01*
G37*
D13*
X180939331Y-149057249D03*
X191060669Y-149942751D03*
D12*
X186000000Y-149500000D03*
D11*
G36*
X180542429Y-145218047D02*
G01*
X180324540Y-147708534D01*
X177784243Y-147486287D01*
X178002132Y-144995800D01*
X180542429Y-145218047D01*
G37*
D14*
X233862583Y-144196955D03*
X227758123Y-147280729D03*
D11*
G36*
X238313222Y-142552800D02*
G01*
X238531111Y-145043287D01*
X235990814Y-145265534D01*
X235772925Y-142775047D01*
X238313222Y-142552800D01*
G37*
D13*
X226714331Y-149921751D03*
X236835669Y-149036249D03*
D12*
X231775000Y-149479000D03*
D11*
G36*
X225656789Y-146209797D02*
G01*
X225874678Y-148700284D01*
X223334381Y-148922531D01*
X223116492Y-146432044D01*
X225656789Y-146209797D01*
G37*
G36*
X106429429Y-117638047D02*
G01*
X106211540Y-120128534D01*
X103671243Y-119906287D01*
X103889132Y-117415800D01*
X106429429Y-117638047D01*
G37*
D12*
X111887000Y-121920000D03*
D13*
X116947669Y-122362751D03*
X106826331Y-121477249D03*
D11*
G36*
X119528614Y-116234375D02*
G01*
X119310725Y-118724862D01*
X116770428Y-118502615D01*
X116988317Y-116012128D01*
X119528614Y-116234375D01*
G37*
D14*
X108312874Y-119057602D03*
X114860086Y-117080707D03*
X113173086Y-136060707D03*
X106625874Y-138037602D03*
D11*
G36*
X117841614Y-135214375D02*
G01*
X117623725Y-137704862D01*
X115083428Y-137482615D01*
X115301317Y-134992128D01*
X117841614Y-135214375D01*
G37*
D13*
X105139331Y-140457249D03*
X115260669Y-141342751D03*
D12*
X110200000Y-140900000D03*
D11*
G36*
X104742429Y-136618047D02*
G01*
X104524540Y-139108534D01*
X101984243Y-138886287D01*
X102202132Y-136395800D01*
X104742429Y-136618047D01*
G37*
D14*
X111558086Y-155053707D03*
X105010874Y-157030602D03*
D11*
G36*
X116226614Y-154207375D02*
G01*
X116008725Y-156697862D01*
X113468428Y-156475615D01*
X113686317Y-153985128D01*
X116226614Y-154207375D01*
G37*
D13*
X103524331Y-159450249D03*
X113645669Y-160335751D03*
D12*
X108585000Y-159893000D03*
D11*
G36*
X103127429Y-155611047D02*
G01*
X102909540Y-158101534D01*
X100369243Y-157879287D01*
X100587132Y-155388800D01*
X103127429Y-155611047D01*
G37*
D14*
X135473086Y-99760707D03*
X128925874Y-101737602D03*
D11*
G36*
X140141614Y-98914375D02*
G01*
X139923725Y-101404862D01*
X137383428Y-101182615D01*
X137601317Y-98692128D01*
X140141614Y-98914375D01*
G37*
D13*
X127439331Y-104157249D03*
X137560669Y-105042751D03*
D12*
X132500000Y-104600000D03*
D11*
G36*
X127042429Y-100318047D02*
G01*
X126824540Y-102808534D01*
X124284243Y-102586287D01*
X124502132Y-100095800D01*
X127042429Y-100318047D01*
G37*
D14*
X133858000Y-118745000D03*
X127310788Y-120721895D03*
D11*
G36*
X138526528Y-117898668D02*
G01*
X138308639Y-120389155D01*
X135768342Y-120166908D01*
X135986231Y-117676421D01*
X138526528Y-117898668D01*
G37*
D13*
X125824245Y-123141542D03*
X135945583Y-124027044D03*
D12*
X130884914Y-123584293D03*
D11*
G36*
X125427343Y-119302340D02*
G01*
X125209454Y-121792827D01*
X122669157Y-121570580D01*
X122887046Y-119080093D01*
X125427343Y-119302340D01*
G37*
G36*
X123742429Y-138318047D02*
G01*
X123524540Y-140808534D01*
X120984243Y-140586287D01*
X121202132Y-138095800D01*
X123742429Y-138318047D01*
G37*
D12*
X129200000Y-142600000D03*
D13*
X134260669Y-143042751D03*
X124139331Y-142157249D03*
D11*
G36*
X136841614Y-136914375D02*
G01*
X136623725Y-139404862D01*
X134083428Y-139182615D01*
X134301317Y-136692128D01*
X136841614Y-136914375D01*
G37*
D14*
X125625874Y-139737602D03*
X132173086Y-137760707D03*
D11*
G36*
X146242429Y-100112047D02*
G01*
X146024540Y-102602534D01*
X143484243Y-102380287D01*
X143702132Y-99889800D01*
X146242429Y-100112047D01*
G37*
D12*
X151700000Y-104394000D03*
D13*
X156760669Y-104836751D03*
X146639331Y-103951249D03*
D11*
G36*
X159341614Y-98708375D02*
G01*
X159123725Y-101198862D01*
X156583428Y-100976615D01*
X156801317Y-98486128D01*
X159341614Y-98708375D01*
G37*
D14*
X148125874Y-101531602D03*
X154673086Y-99554707D03*
D11*
G36*
X144542429Y-119118047D02*
G01*
X144324540Y-121608534D01*
X141784243Y-121386287D01*
X142002132Y-118895800D01*
X144542429Y-119118047D01*
G37*
D12*
X150000000Y-123400000D03*
D13*
X155060669Y-123842751D03*
X144939331Y-122957249D03*
D11*
G36*
X157641614Y-117714375D02*
G01*
X157423725Y-120204862D01*
X154883428Y-119982615D01*
X155101317Y-117492128D01*
X157641614Y-117714375D01*
G37*
D14*
X146425874Y-120537602D03*
X152973086Y-118560707D03*
X151309086Y-137527707D03*
X144761874Y-139504602D03*
D11*
G36*
X155977614Y-136681375D02*
G01*
X155759725Y-139171862D01*
X153219428Y-138949615D01*
X153437317Y-136459128D01*
X155977614Y-136681375D01*
G37*
D13*
X143275331Y-141924249D03*
X153396669Y-142809751D03*
D12*
X148336000Y-142367000D03*
D11*
G36*
X142878429Y-138085047D02*
G01*
X142660540Y-140575534D01*
X140120243Y-140353287D01*
X140338132Y-137862800D01*
X142878429Y-138085047D01*
G37*
D14*
X173473086Y-103060707D03*
X166925874Y-105037602D03*
D11*
G36*
X178141614Y-102214375D02*
G01*
X177923725Y-104704862D01*
X175383428Y-104482615D01*
X175601317Y-101992128D01*
X178141614Y-102214375D01*
G37*
D13*
X165439331Y-107457249D03*
X175560669Y-108342751D03*
D12*
X170500000Y-107900000D03*
D11*
G36*
X165042429Y-103618047D02*
G01*
X164824540Y-106108534D01*
X162284243Y-105886287D01*
X162502132Y-103395800D01*
X165042429Y-103618047D01*
G37*
G36*
X163342429Y-122618047D02*
G01*
X163124540Y-125108534D01*
X160584243Y-124886287D01*
X160802132Y-122395800D01*
X163342429Y-122618047D01*
G37*
D12*
X168800000Y-126900000D03*
D13*
X173860669Y-127342751D03*
X163739331Y-126457249D03*
D11*
G36*
X176441614Y-121214375D02*
G01*
X176223725Y-123704862D01*
X173683428Y-123482615D01*
X173901317Y-120992128D01*
X176441614Y-121214375D01*
G37*
D14*
X165225874Y-124037602D03*
X171773086Y-122060707D03*
D11*
G36*
X183899429Y-107224047D02*
G01*
X183681540Y-109714534D01*
X181141243Y-109492287D01*
X181359132Y-107001800D01*
X183899429Y-107224047D01*
G37*
D12*
X189357000Y-111506000D03*
D13*
X194417669Y-111948751D03*
X184296331Y-111063249D03*
D11*
G36*
X196998614Y-105820375D02*
G01*
X196780725Y-108310862D01*
X194240428Y-108088615D01*
X194458317Y-105598128D01*
X196998614Y-105820375D01*
G37*
D14*
X185782874Y-108643602D03*
X192330086Y-106666707D03*
D11*
G36*
X182142429Y-126218047D02*
G01*
X181924540Y-128708534D01*
X179384243Y-128486287D01*
X179602132Y-125995800D01*
X182142429Y-126218047D01*
G37*
D12*
X187600000Y-130500000D03*
D13*
X192660669Y-130942751D03*
X182539331Y-130057249D03*
D11*
G36*
X195241614Y-124814375D02*
G01*
X195023725Y-127304862D01*
X192483428Y-127082615D01*
X192701317Y-124592128D01*
X195241614Y-124814375D01*
G37*
D14*
X184025874Y-127637602D03*
X190573086Y-125660707D03*
X230560583Y-106223955D03*
X224456123Y-109307729D03*
D11*
G36*
X235011222Y-104579800D02*
G01*
X235229111Y-107070287D01*
X232688814Y-107292534D01*
X232470925Y-104802047D01*
X235011222Y-104579800D01*
G37*
D13*
X223412331Y-111948751D03*
X233533669Y-111063249D03*
D12*
X228473000Y-111506000D03*
D11*
G36*
X222354789Y-108236797D02*
G01*
X222572678Y-110727284D01*
X220032381Y-110949531D01*
X219814492Y-108459044D01*
X222354789Y-108236797D01*
G37*
G36*
X224005789Y-127159797D02*
G01*
X224223678Y-129650284D01*
X221683381Y-129872531D01*
X221465492Y-127382044D01*
X224005789Y-127159797D01*
G37*
D12*
X230124000Y-130429000D03*
D13*
X235184669Y-129986249D03*
X225063331Y-130871751D03*
D11*
G36*
X236662222Y-123502800D02*
G01*
X236880111Y-125993287D01*
X234339814Y-126215534D01*
X234121925Y-123725047D01*
X236662222Y-123502800D01*
G37*
D14*
X226107123Y-128230729D03*
X232211583Y-125146955D03*
X249356583Y-102667955D03*
X243252123Y-105751729D03*
D11*
G36*
X253807222Y-101023800D02*
G01*
X254025111Y-103514287D01*
X251484814Y-103736534D01*
X251266925Y-101246047D01*
X253807222Y-101023800D01*
G37*
D13*
X242208331Y-108392751D03*
X252329669Y-107507249D03*
D12*
X247269000Y-107950000D03*
D11*
G36*
X241150789Y-104680797D02*
G01*
X241368678Y-107171284D01*
X238828381Y-107393531D01*
X238610492Y-104903044D01*
X241150789Y-104680797D01*
G37*
D14*
X251087583Y-121617955D03*
X244983123Y-124701729D03*
D11*
G36*
X255538222Y-119973800D02*
G01*
X255756111Y-122464287D01*
X253215814Y-122686534D01*
X252997925Y-120196047D01*
X255538222Y-119973800D01*
G37*
D13*
X243939331Y-127342751D03*
X254060669Y-126457249D03*
D12*
X249000000Y-126900000D03*
D11*
G36*
X242881789Y-123630797D02*
G01*
X243099678Y-126121284D01*
X240559381Y-126343531D01*
X240341492Y-123853044D01*
X242881789Y-123630797D01*
G37*
D14*
X268187583Y-99111955D03*
X262083123Y-102195729D03*
D11*
G36*
X272638222Y-97467800D02*
G01*
X272856111Y-99958287D01*
X270315814Y-100180534D01*
X270097925Y-97690047D01*
X272638222Y-97467800D01*
G37*
D13*
X261039331Y-104836751D03*
X271160669Y-103951249D03*
D12*
X266100000Y-104394000D03*
D11*
G36*
X259981789Y-101124797D02*
G01*
X260199678Y-103615284D01*
X257659381Y-103837531D01*
X257441492Y-101347044D01*
X259981789Y-101124797D01*
G37*
G36*
X261681789Y-120047797D02*
G01*
X261899678Y-122538284D01*
X259359381Y-122760531D01*
X259141492Y-120270044D01*
X261681789Y-120047797D01*
G37*
D12*
X267800000Y-123317000D03*
D13*
X272860669Y-122874249D03*
X262739331Y-123759751D03*
D11*
G36*
X274338222Y-116390800D02*
G01*
X274556111Y-118881287D01*
X272015814Y-119103534D01*
X271797925Y-116613047D01*
X274338222Y-116390800D01*
G37*
D14*
X263783123Y-121118729D03*
X269887583Y-118034955D03*
X271581583Y-137084955D03*
X265477123Y-140168729D03*
D11*
G36*
X276032222Y-135440800D02*
G01*
X276250111Y-137931287D01*
X273709814Y-138153534D01*
X273491925Y-135663047D01*
X276032222Y-135440800D01*
G37*
D13*
X264433331Y-142809751D03*
X274554669Y-141924249D03*
D12*
X269494000Y-142367000D03*
D11*
G36*
X263375789Y-139097797D02*
G01*
X263593678Y-141588284D01*
X261053381Y-141810531D01*
X260835492Y-139320044D01*
X263375789Y-139097797D01*
G37*
G36*
X279123789Y-101378797D02*
G01*
X279341678Y-103869284D01*
X276801381Y-104091531D01*
X276583492Y-101601044D01*
X279123789Y-101378797D01*
G37*
D12*
X285242000Y-104648000D03*
D13*
X290302669Y-104205249D03*
X280181331Y-105090751D03*
D11*
G36*
X291780222Y-97721800D02*
G01*
X291998111Y-100212287D01*
X289457814Y-100434534D01*
X289239925Y-97944047D01*
X291780222Y-97721800D01*
G37*
D14*
X281225123Y-102449729D03*
X287329583Y-99365955D03*
X288980583Y-118288955D03*
X282876123Y-121372729D03*
D11*
G36*
X293431222Y-116644800D02*
G01*
X293649111Y-119135287D01*
X291108814Y-119357534D01*
X290890925Y-116867047D01*
X293431222Y-116644800D01*
G37*
D13*
X281832331Y-124013751D03*
X291953669Y-123128249D03*
D12*
X286893000Y-123571000D03*
D11*
G36*
X280774789Y-120301797D02*
G01*
X280992678Y-122792284D01*
X278452381Y-123014531D01*
X278234492Y-120524044D01*
X280774789Y-120301797D01*
G37*
G36*
X282425789Y-139351797D02*
G01*
X282643678Y-141842284D01*
X280103381Y-142064531D01*
X279885492Y-139574044D01*
X282425789Y-139351797D01*
G37*
D12*
X288544000Y-142621000D03*
D13*
X293604669Y-142178249D03*
X283483331Y-143063751D03*
D11*
G36*
X295082222Y-135694800D02*
G01*
X295300111Y-138185287D01*
X292759814Y-138407534D01*
X292541925Y-135917047D01*
X295082222Y-135694800D01*
G37*
D14*
X284527123Y-140422729D03*
X290631583Y-137338955D03*
X308030583Y-116637955D03*
X301926123Y-119721729D03*
D11*
G36*
X312481222Y-114993800D02*
G01*
X312699111Y-117484287D01*
X310158814Y-117706534D01*
X309940925Y-115216047D01*
X312481222Y-114993800D01*
G37*
D13*
X300882331Y-122362751D03*
X311003669Y-121477249D03*
D12*
X305943000Y-121920000D03*
D11*
G36*
X299824789Y-118650797D02*
G01*
X300042678Y-121141284D01*
X297502381Y-121363531D01*
X297284492Y-118873044D01*
X299824789Y-118650797D01*
G37*
G36*
X301475789Y-137630797D02*
G01*
X301693678Y-140121284D01*
X299153381Y-140343531D01*
X298935492Y-137853044D01*
X301475789Y-137630797D01*
G37*
D12*
X307594000Y-140900000D03*
D13*
X312654669Y-140457249D03*
X302533331Y-141342751D03*
D11*
G36*
X314132222Y-133973800D02*
G01*
X314350111Y-136464287D01*
X311809814Y-136686534D01*
X311591925Y-134196047D01*
X314132222Y-133973800D01*
G37*
D14*
X303577123Y-138701729D03*
X309681583Y-135617955D03*
X311332583Y-154610955D03*
X305228123Y-157694729D03*
D11*
G36*
X315783222Y-152966800D02*
G01*
X316001111Y-155457287D01*
X313460814Y-155679534D01*
X313242925Y-153189047D01*
X315783222Y-152966800D01*
G37*
D13*
X304184331Y-160335751D03*
X314305669Y-159450249D03*
D12*
X309245000Y-159893000D03*
D11*
G36*
X303126789Y-156623797D02*
G01*
X303344678Y-159114284D01*
X300804381Y-159336531D01*
X300586492Y-156846044D01*
X303126789Y-156623797D01*
G37*
G36*
X109379320Y-114171242D02*
G01*
X109462118Y-113224857D01*
X110757172Y-113338160D01*
X110674374Y-114284545D01*
X109379320Y-114171242D01*
G37*
G36*
X105842828Y-113861840D02*
G01*
X105925626Y-112915455D01*
X107220680Y-113028758D01*
X107137882Y-113975143D01*
X105842828Y-113861840D01*
G37*
G36*
X107896074Y-133032242D02*
G01*
X107978872Y-132085857D01*
X109273926Y-132199160D01*
X109191128Y-133145545D01*
X107896074Y-133032242D01*
G37*
G36*
X104359582Y-132722840D02*
G01*
X104442380Y-131776455D01*
X105737434Y-131889758D01*
X105654636Y-132836143D01*
X104359582Y-132722840D01*
G37*
G36*
X100774758Y-150812320D02*
G01*
X101721143Y-150895118D01*
X101607840Y-152190172D01*
X100661455Y-152107374D01*
X100774758Y-150812320D01*
G37*
G36*
X101084160Y-147275828D02*
G01*
X102030545Y-147358626D01*
X101917242Y-148653680D01*
X100970857Y-148570882D01*
X101084160Y-147275828D01*
G37*
G36*
X126574828Y-96527840D02*
G01*
X126657626Y-95581455D01*
X127952680Y-95694758D01*
X127869882Y-96641143D01*
X126574828Y-96527840D01*
G37*
G36*
X130111320Y-96837242D02*
G01*
X130194118Y-95890857D01*
X131489172Y-96004160D01*
X131406374Y-96950545D01*
X130111320Y-96837242D01*
G37*
G36*
X124923828Y-115450840D02*
G01*
X125006626Y-114504455D01*
X126301680Y-114617758D01*
X126218882Y-115564143D01*
X124923828Y-115450840D01*
G37*
G36*
X128460320Y-115760242D02*
G01*
X128543118Y-114813857D01*
X129838172Y-114927160D01*
X129755374Y-115873545D01*
X128460320Y-115760242D01*
G37*
G36*
X123145828Y-134500840D02*
G01*
X123228626Y-133554455D01*
X124523680Y-133667758D01*
X124440882Y-134614143D01*
X123145828Y-134500840D01*
G37*
G36*
X126682320Y-134810242D02*
G01*
X126765118Y-133863857D01*
X128060172Y-133977160D01*
X127977374Y-134923545D01*
X126682320Y-134810242D01*
G37*
G36*
X149161320Y-96583242D02*
G01*
X149244118Y-95636857D01*
X150539172Y-95750160D01*
X150456374Y-96696545D01*
X149161320Y-96583242D01*
G37*
G36*
X145624828Y-96273840D02*
G01*
X145707626Y-95327455D01*
X147002680Y-95440758D01*
X146919882Y-96387143D01*
X145624828Y-96273840D01*
G37*
G36*
X147627566Y-115660943D02*
G01*
X147710364Y-114714558D01*
X149005418Y-114827861D01*
X148922620Y-115774246D01*
X147627566Y-115660943D01*
G37*
G36*
X144091074Y-115351541D02*
G01*
X144173872Y-114405156D01*
X145468926Y-114518459D01*
X145386128Y-115464844D01*
X144091074Y-115351541D01*
G37*
G36*
X145859320Y-134556242D02*
G01*
X145942118Y-133609857D01*
X147237172Y-133723160D01*
X147154374Y-134669545D01*
X145859320Y-134556242D01*
G37*
G36*
X142322828Y-134246840D02*
G01*
X142405626Y-133300455D01*
X143700680Y-133413758D01*
X143617882Y-134360143D01*
X142322828Y-134246840D01*
G37*
G36*
X164547828Y-99829840D02*
G01*
X164630626Y-98883455D01*
X165925680Y-98996758D01*
X165842882Y-99943143D01*
X164547828Y-99829840D01*
G37*
G36*
X168084320Y-100139242D02*
G01*
X168167118Y-99192857D01*
X169462172Y-99306160D01*
X169379374Y-100252545D01*
X168084320Y-100139242D01*
G37*
G36*
X166306320Y-119189242D02*
G01*
X166389118Y-118242857D01*
X167684172Y-118356160D01*
X167601374Y-119302545D01*
X166306320Y-119189242D01*
G37*
G36*
X162769828Y-118879840D02*
G01*
X162852626Y-117933455D01*
X164147680Y-118046758D01*
X164064882Y-118993143D01*
X162769828Y-118879840D01*
G37*
G36*
X164655320Y-138112242D02*
G01*
X164738118Y-137165857D01*
X166033172Y-137279160D01*
X165950374Y-138225545D01*
X164655320Y-138112242D01*
G37*
G36*
X161118828Y-137802840D02*
G01*
X161201626Y-136856455D01*
X162496680Y-136969758D01*
X162413882Y-137916143D01*
X161118828Y-137802840D01*
G37*
G36*
X186880320Y-103695242D02*
G01*
X186963118Y-102748857D01*
X188258172Y-102862160D01*
X188175374Y-103808545D01*
X186880320Y-103695242D01*
G37*
G36*
X183343828Y-103385840D02*
G01*
X183426626Y-102439455D01*
X184721680Y-102552758D01*
X184638882Y-103499143D01*
X183343828Y-103385840D01*
G37*
G36*
X181692828Y-122308840D02*
G01*
X181775626Y-121362455D01*
X183070680Y-121475758D01*
X182987882Y-122422143D01*
X181692828Y-122308840D01*
G37*
G36*
X185229320Y-122618242D02*
G01*
X185312118Y-121671857D01*
X186607172Y-121785160D01*
X186524374Y-122731545D01*
X185229320Y-122618242D01*
G37*
G36*
X180041828Y-141358840D02*
G01*
X180124626Y-140412455D01*
X181419680Y-140525758D01*
X181336882Y-141472143D01*
X180041828Y-141358840D01*
G37*
G36*
X183578320Y-141668242D02*
G01*
X183661118Y-140721857D01*
X184956172Y-140835160D01*
X184873374Y-141781545D01*
X183578320Y-141668242D01*
G37*
G36*
X173310828Y-159646840D02*
G01*
X173393626Y-158700455D01*
X174688680Y-158813758D01*
X174605882Y-159760143D01*
X173310828Y-159646840D01*
G37*
G36*
X176847320Y-159956242D02*
G01*
X176930118Y-159009857D01*
X178225172Y-159123160D01*
X178142374Y-160069545D01*
X176847320Y-159956242D01*
G37*
G36*
X221145626Y-104570545D02*
G01*
X221062828Y-103624160D01*
X222357882Y-103510857D01*
X222440680Y-104457242D01*
X221145626Y-104570545D01*
G37*
G36*
X224682118Y-104261143D02*
G01*
X224599320Y-103314758D01*
X225894374Y-103201455D01*
X225977172Y-104147840D01*
X224682118Y-104261143D01*
G37*
G36*
X222669626Y-123493545D02*
G01*
X222586828Y-122547160D01*
X223881882Y-122433857D01*
X223964680Y-123380242D01*
X222669626Y-123493545D01*
G37*
G36*
X226206118Y-123184143D02*
G01*
X226123320Y-122237758D01*
X227418374Y-122124455D01*
X227501172Y-123070840D01*
X226206118Y-123184143D01*
G37*
G36*
X227857118Y-142234143D02*
G01*
X227774320Y-141287758D01*
X229069374Y-141174455D01*
X229152172Y-142120840D01*
X227857118Y-142234143D01*
G37*
G36*
X224320626Y-142543545D02*
G01*
X224237828Y-141597160D01*
X225532882Y-141483857D01*
X225615680Y-142430242D01*
X224320626Y-142543545D01*
G37*
G36*
X230924626Y-160958545D02*
G01*
X230841828Y-160012160D01*
X232136882Y-159898857D01*
X232219680Y-160845242D01*
X230924626Y-160958545D01*
G37*
G36*
X234461118Y-160649143D02*
G01*
X234378320Y-159702758D01*
X235673374Y-159589455D01*
X235756172Y-160535840D01*
X234461118Y-160649143D01*
G37*
G36*
X243478118Y-100705143D02*
G01*
X243395320Y-99758758D01*
X244690374Y-99645455D01*
X244773172Y-100591840D01*
X243478118Y-100705143D01*
G37*
G36*
X239941626Y-101014545D02*
G01*
X239858828Y-100068160D01*
X241153882Y-99954857D01*
X241236680Y-100901242D01*
X239941626Y-101014545D01*
G37*
G36*
X245256118Y-119628143D02*
G01*
X245173320Y-118681758D01*
X246468374Y-118568455D01*
X246551172Y-119514840D01*
X245256118Y-119628143D01*
G37*
G36*
X241719626Y-119937545D02*
G01*
X241636828Y-118991160D01*
X242931882Y-118877857D01*
X243014680Y-119824242D01*
X241719626Y-119937545D01*
G37*
G36*
X243370626Y-138987545D02*
G01*
X243287828Y-138041160D01*
X244582882Y-137927857D01*
X244665680Y-138874242D01*
X243370626Y-138987545D01*
G37*
G36*
X246907118Y-138678143D02*
G01*
X246824320Y-137731758D01*
X248119374Y-137618455D01*
X248202172Y-138564840D01*
X246907118Y-138678143D01*
G37*
G36*
X258737626Y-97458545D02*
G01*
X258654828Y-96512160D01*
X259949882Y-96398857D01*
X260032680Y-97345242D01*
X258737626Y-97458545D01*
G37*
G36*
X262274118Y-97149143D02*
G01*
X262191320Y-96202758D01*
X263486374Y-96089455D01*
X263569172Y-97035840D01*
X262274118Y-97149143D01*
G37*
G36*
X260515626Y-116381545D02*
G01*
X260432828Y-115435160D01*
X261727882Y-115321857D01*
X261810680Y-116268242D01*
X260515626Y-116381545D01*
G37*
G36*
X264052118Y-116072143D02*
G01*
X263969320Y-115125758D01*
X265264374Y-115012455D01*
X265347172Y-115958840D01*
X264052118Y-116072143D01*
G37*
G36*
X265576118Y-135122143D02*
G01*
X265493320Y-134175758D01*
X266788374Y-134062455D01*
X266871172Y-135008840D01*
X265576118Y-135122143D01*
G37*
G36*
X262039626Y-135431545D02*
G01*
X261956828Y-134485160D01*
X263251882Y-134371857D01*
X263334680Y-135318242D01*
X262039626Y-135431545D01*
G37*
G36*
X281451118Y-97403143D02*
G01*
X281368320Y-96456758D01*
X282663374Y-96343455D01*
X282746172Y-97289840D01*
X281451118Y-97403143D01*
G37*
G36*
X277914626Y-97712545D02*
G01*
X277831828Y-96766160D01*
X279126882Y-96652857D01*
X279209680Y-97599242D01*
X277914626Y-97712545D01*
G37*
G36*
X279565626Y-116635545D02*
G01*
X279482828Y-115689160D01*
X280777882Y-115575857D01*
X280860680Y-116522242D01*
X279565626Y-116635545D01*
G37*
G36*
X283102118Y-116326143D02*
G01*
X283019320Y-115379758D01*
X284314374Y-115266455D01*
X284397172Y-116212840D01*
X283102118Y-116326143D01*
G37*
G36*
X281216626Y-135558545D02*
G01*
X281133828Y-134612160D01*
X282428882Y-134498857D01*
X282511680Y-135445242D01*
X281216626Y-135558545D01*
G37*
G36*
X284753118Y-135249143D02*
G01*
X284670320Y-134302758D01*
X285965374Y-134189455D01*
X286048172Y-135135840D01*
X284753118Y-135249143D01*
G37*
G36*
X298498380Y-115111545D02*
G01*
X298415582Y-114165160D01*
X299710636Y-114051857D01*
X299793434Y-114998242D01*
X298498380Y-115111545D01*
G37*
G36*
X302034872Y-114802143D02*
G01*
X301952074Y-113855758D01*
X303247128Y-113742455D01*
X303329926Y-114688840D01*
X302034872Y-114802143D01*
G37*
G36*
X303803118Y-133598143D02*
G01*
X303720320Y-132651758D01*
X305015374Y-132538455D01*
X305098172Y-133484840D01*
X303803118Y-133598143D01*
G37*
G36*
X300266626Y-133907545D02*
G01*
X300183828Y-132961160D01*
X301478882Y-132847857D01*
X301561680Y-133794242D01*
X300266626Y-133907545D01*
G37*
G36*
X315981857Y-150895118D02*
G01*
X316928242Y-150812320D01*
X317041545Y-152107374D01*
X316095160Y-152190172D01*
X315981857Y-150895118D01*
G37*
G36*
X315672455Y-147358626D02*
G01*
X316618840Y-147275828D01*
X316732143Y-148570882D01*
X315785758Y-148653680D01*
X315672455Y-147358626D01*
G37*
G36*
X204852762Y-157910981D02*
G01*
X204719937Y-159429182D01*
X203201736Y-159296357D01*
X203334561Y-157778156D01*
X204852762Y-157910981D01*
G37*
G36*
X205074137Y-155380647D02*
G01*
X204941312Y-156898848D01*
X203423111Y-156766023D01*
X203555936Y-155247822D01*
X205074137Y-155380647D01*
G37*
G36*
X205295513Y-152850312D02*
G01*
X205162688Y-154368513D01*
X203644487Y-154235688D01*
X203777312Y-152717487D01*
X205295513Y-152850312D01*
G37*
G36*
X213048312Y-159448513D02*
G01*
X212915487Y-157930312D01*
X214433688Y-157797487D01*
X214566513Y-159315688D01*
X213048312Y-159448513D01*
G37*
G36*
X212826936Y-156918178D02*
G01*
X212694111Y-155399977D01*
X214212312Y-155267152D01*
X214345137Y-156785353D01*
X212826936Y-156918178D01*
G37*
G36*
X212605561Y-154387844D02*
G01*
X212472736Y-152869643D01*
X213990937Y-152736818D01*
X214123762Y-154255019D01*
X212605561Y-154387844D01*
G37*
M02*
