M48
; DRILL file {KiCad (5.1.7)-1} date 03/21/21 19:43:56
; FORMAT={-:-/ absolute / metric / decimal}
; #@! TF.CreationDate,2021-03-21T19:43:56+09:00
; #@! TF.GenerationSoftware,Kicad,Pcbnew,(5.1.7)-1
; #@! TF.FileFunction,Plated,1,2,PTH
FMAT,2
METRIC
T1C0.400
T2C0.813
T3C1.300
%
G90
G05
T1
X102.87Y-152.4
X103.505Y-142.24
X103.886Y-147.828
X105.537Y-146.05
X105.537Y-149.225
X107.188Y-130.175
X107.569Y-147.828
X108.077Y-126.619
X109.601Y-128.069
X113.919Y-114.554
X117.856Y-114.681
X118.491Y-121.793
X119.761Y-120.015
X120.523Y-136.652
X120.523Y-141.605
X121.793Y-121.158
X123.952Y-111.76
X125.73Y-106.426
X125.73Y-108.839
X126.111Y-111.125
X127.254Y-128.069
X129.413Y-129.54
X129.54Y-104.14
X131.953Y-97.79
X135.509Y-96.52
X137.795Y-114.427
X138.938Y-128.27
X138.938Y-135.128
X139.7Y-98.044
X145.325Y-114.39
X145.796Y-125.73
X148.082Y-131.699
X150.241Y-129.921
X153.797Y-96.901
X156.337Y-96.647
X158.369Y-136.906
X160.528Y-119.888
X161.671Y-114.173
X161.925Y-131.953
X163.835Y-132.466
X171.831Y-100.457
X172.212Y-129.921
X173.228Y-151.511
X173.736Y-132.461
X174.879Y-100.203
X175.514Y-129.196
X176.276Y-148.082
X177.927Y-140.716
X178.308Y-125.984
X178.43Y-130.646
X178.689Y-134.62
X178.816Y-133.17
X179.578Y-120.396
X179.578Y-123.698
X179.578Y-126.873
X180.594Y-113.284
X180.848Y-131.953
X184.023Y-121.031
X185.166Y-157.988
X185.547Y-124.841
X187.833Y-137.414
X187.96Y-134.239
X190.411Y-152.796
X191.008Y-104.013
X191.262Y-133.514
X194.183Y-103.759
X194.183Y-137.414
X194.564Y-129.413
X195.707Y-144.907
X197.612Y-121.031
X197.993Y-131.953
X198.12Y-136.144
X201.93Y-142.875
X203.708Y-131.191
X204.216Y-138.557
X204.216Y-141.351
X204.815Y-121.031
X206.248Y-153.412
X206.756Y-121.031
X206.756Y-139.573
X206.756Y-157.226
X207.005Y-116.073
X207.264Y-128.016
X207.481Y-117.983
X208.407Y-112.014
X209.296Y-155.194
X209.931Y-114.173
X211.201Y-113.03
X211.543Y-152.654
X211.582Y-154.813
X211.709Y-115.57
X212.217Y-137.795
X212.217Y-143.129
X212.979Y-114.427
X213.487Y-136.398
X213.995Y-113.411
X216.027Y-155.829
X217.805Y-158.115
X218.567Y-155.321
X218.567Y-161.29
X219.71Y-158.242
X221.107Y-116.713
X221.615Y-163.195
X221.742Y-160.909
X222.123Y-126.238
X222.504Y-142.748
X222.504Y-159.766
X222.631Y-133.35
X222.885Y-153.67
X223.393Y-105.283
X225.044Y-162.433
X226.187Y-165.354
X228.092Y-157.861
X228.727Y-161.154
X230.251Y-162.433
X232.283Y-108.458
X233.299Y-154.813
X234.569Y-158.75
X236.093Y-107.188
X237.998Y-155.702
X238.125Y-102.616
X238.887Y-126.873
X239.99Y-106.037
X240.411Y-132.969
X241.173Y-140.843
X241.427Y-146.685
X254.254Y-150.495
X254.889Y-103.124
X256.794Y-99.187
X257.81Y-123.952
X258.821Y-102.481
X259.461Y-137.033
X259.588Y-129.413
X260.985Y-98.044
X263.398Y-149.606
X265.684Y-99.822
X269.494Y-133.35
X270.764Y-100.965
X276.225Y-99.187
X276.352Y-114.427
X276.352Y-121.031
X276.352Y-145.796
X277.749Y-133.477
X279.019Y-136.652
X279.019Y-143.256
X279.146Y-129.54
X286.893Y-149.479
X290.703Y-106.807
X292.608Y-107.823
X295.783Y-128.524
X296.164Y-142.494
X297.561Y-124.714
X299.466Y-145.923
X300.482Y-149.352
X302.387Y-147.32
X313.436Y-148.082
T2
X201.259Y-106.934
X201.259Y-109.474
X201.259Y-112.014
X201.259Y-114.554
X201.259Y-117.094
X201.259Y-119.634
X201.259Y-122.174
X201.259Y-124.714
X201.259Y-127.254
X201.259Y-129.794
X201.259Y-132.334
X201.259Y-134.874
X216.479Y-106.934
X216.479Y-109.474
X216.479Y-112.014
X216.479Y-114.554
X216.479Y-117.094
X216.479Y-119.634
X216.479Y-122.174
X216.479Y-124.714
X216.479Y-127.254
X216.479Y-129.794
X216.479Y-132.334
X216.479Y-134.874
T3
X205.665Y-145.542
X212.165Y-145.542
T0
M30
