G04 #@! TF.GenerationSoftware,KiCad,Pcbnew,(5.1.7)-1*
G04 #@! TF.CreationDate,2021-03-21T19:43:21+09:00*
G04 #@! TF.ProjectId,Beryl32,42657279-6c33-4322-9e6b-696361645f70,rev?*
G04 #@! TF.SameCoordinates,Original*
G04 #@! TF.FileFunction,Legend,Bot*
G04 #@! TF.FilePolarity,Positive*
%FSLAX46Y46*%
G04 Gerber Fmt 4.6, Leading zero omitted, Abs format (unit mm)*
G04 Created by KiCad (PCBNEW (5.1.7)-1) date 2021-03-21 19:43:21*
%MOMM*%
%LPD*%
G01*
G04 APERTURE LIST*
%ADD10C,0.150000*%
%ADD11C,0.500000*%
%ADD12C,0.400000*%
%ADD13C,3.500000*%
%ADD14C,1.000000*%
%ADD15C,3.000000*%
%ADD16C,0.800000*%
%ADD17C,0.300000*%
%ADD18C,0.125000*%
G04 APERTURE END LIST*
D10*
X207802344Y-158437957D02*
X207383124Y-159405100D01*
X207138214Y-158379853D01*
X206158040Y-159202317D02*
X206201328Y-159253905D01*
X206339491Y-159313794D01*
X206434367Y-159322094D01*
X206580831Y-159287107D01*
X206684007Y-159200532D01*
X206739745Y-159109807D01*
X206803784Y-158924206D01*
X206816235Y-158781892D01*
X206785398Y-158587990D01*
X206746261Y-158488964D01*
X206659686Y-158385788D01*
X206521522Y-158325900D01*
X206426647Y-158317599D01*
X206280183Y-158352586D01*
X206228595Y-158395874D01*
X205161846Y-159115161D02*
X205205133Y-159166749D01*
X205343296Y-159226638D01*
X205438172Y-159234939D01*
X205584636Y-159199952D01*
X205687812Y-159113376D01*
X205743550Y-159022651D01*
X205807589Y-158837050D01*
X205820040Y-158694736D01*
X205789203Y-158500835D01*
X205750066Y-158401809D01*
X205663491Y-158298633D01*
X205525328Y-158238744D01*
X205430452Y-158230443D01*
X205283988Y-158265430D01*
X205232400Y-158308718D01*
X207648177Y-153501438D02*
X207747203Y-153462300D01*
X207889516Y-153474751D01*
X208027680Y-153534640D01*
X208114255Y-153637816D01*
X208153392Y-153736842D01*
X208184229Y-153930744D01*
X208171778Y-154073057D01*
X208107739Y-154258658D01*
X208052001Y-154349384D01*
X207948824Y-154435959D01*
X207802361Y-154470946D01*
X207707485Y-154462645D01*
X207569322Y-154402757D01*
X207526034Y-154351168D01*
X207555086Y-154019104D01*
X207744837Y-154035705D01*
X207090793Y-154408692D02*
X207177949Y-153412497D01*
X206521539Y-154358888D01*
X206608695Y-153362694D01*
X206047160Y-154317386D02*
X206134316Y-153321191D01*
X205897127Y-153300440D01*
X205750663Y-153335427D01*
X205647487Y-153422002D01*
X205591749Y-153512727D01*
X205527710Y-153698328D01*
X205515259Y-153840642D01*
X205546096Y-154034543D01*
X205585233Y-154133569D01*
X205671808Y-154236746D01*
X205809971Y-154296634D01*
X206047160Y-154317386D01*
X207235577Y-156970154D02*
X207709955Y-157011656D01*
X207797111Y-156015462D01*
X206949165Y-156419286D02*
X206617100Y-156390234D01*
X206429133Y-156899599D02*
X206903512Y-156941102D01*
X206990668Y-155944907D01*
X206516289Y-155903404D01*
X206002193Y-156862247D02*
X206089349Y-155866052D01*
X205852159Y-155845301D01*
X205705696Y-155880288D01*
X205602519Y-155966863D01*
X205546781Y-156057588D01*
X205482742Y-156243189D01*
X205470291Y-156385503D01*
X205501128Y-156579404D01*
X205540265Y-156678430D01*
X205626840Y-156781607D01*
X205765004Y-156841495D01*
X206002193Y-156862247D01*
X211993284Y-158302783D02*
X212084010Y-158247044D01*
X212226323Y-158234594D01*
X212372787Y-158269581D01*
X212475963Y-158356156D01*
X212531701Y-158446881D01*
X212595740Y-158632482D01*
X212608191Y-158774796D01*
X212577354Y-158968697D01*
X212538217Y-159067723D01*
X212451642Y-159170900D01*
X212313479Y-159230788D01*
X212218603Y-159239089D01*
X212072139Y-159204102D01*
X212020551Y-159160814D01*
X211991499Y-158828749D01*
X212181251Y-158812148D01*
X211601911Y-159293042D02*
X211514755Y-158296848D01*
X211032657Y-159342846D01*
X210945501Y-158346651D01*
X210558279Y-159384348D02*
X210471123Y-158388154D01*
X210233934Y-158408905D01*
X210095770Y-158468794D01*
X210009195Y-158571970D01*
X209970058Y-158670996D01*
X209939221Y-158864898D01*
X209951672Y-159007211D01*
X210015711Y-159192812D01*
X210071449Y-159283538D01*
X210174626Y-159370113D01*
X210321089Y-159405100D01*
X210558279Y-159384348D01*
X212139343Y-153271388D02*
X211894434Y-154296634D01*
X211475213Y-153329491D01*
X210652749Y-154309666D02*
X210704337Y-154352953D01*
X210850801Y-154387940D01*
X210945677Y-154379640D01*
X211083840Y-154319751D01*
X211170415Y-154216575D01*
X211209553Y-154117549D01*
X211240389Y-153923647D01*
X211227939Y-153781334D01*
X211163900Y-153595733D01*
X211108161Y-153505007D01*
X211004985Y-153418432D01*
X210858521Y-153383445D01*
X210763646Y-153391746D01*
X210625482Y-153451634D01*
X210582195Y-153503222D01*
X209656555Y-154396821D02*
X209708143Y-154440109D01*
X209854607Y-154475096D01*
X209949482Y-154466795D01*
X210087645Y-154406907D01*
X210174221Y-154303731D01*
X210213358Y-154204705D01*
X210244195Y-154010803D01*
X210231744Y-153868489D01*
X210167705Y-153682888D01*
X210111967Y-153592163D01*
X210008790Y-153505588D01*
X209862326Y-153470601D01*
X209767451Y-153478901D01*
X209629288Y-153538790D01*
X209586000Y-153590378D01*
X211757923Y-156858096D02*
X212232301Y-156816594D01*
X212145146Y-155820399D01*
X211380205Y-156365332D02*
X211048140Y-156394384D01*
X210951480Y-156928651D02*
X211425858Y-156887148D01*
X211338702Y-155890954D01*
X210864324Y-155932456D01*
X210524539Y-156966003D02*
X210437383Y-155969809D01*
X210200194Y-155990560D01*
X210062031Y-156050449D01*
X209975456Y-156153625D01*
X209936318Y-156252651D01*
X209905482Y-156446553D01*
X209917932Y-156588866D01*
X209981971Y-156774467D01*
X210037710Y-156865193D01*
X210140886Y-156951768D01*
X210287350Y-156986755D01*
X210524539Y-156966003D01*
D11*
X221285714Y-165142857D02*
X224333333Y-166285714D01*
X221285714Y-167428571D01*
X218047619Y-165714285D02*
X217476190Y-165904761D01*
X217285714Y-166095238D01*
X217095238Y-166476190D01*
X217095238Y-167047619D01*
X217285714Y-167428571D01*
X217476190Y-167619047D01*
X217857142Y-167809523D01*
X219380952Y-167809523D01*
X219380952Y-163809523D01*
X218047619Y-163809523D01*
X217666666Y-164000000D01*
X217476190Y-164190476D01*
X217285714Y-164571428D01*
X217285714Y-164952380D01*
X217476190Y-165333333D01*
X217666666Y-165523809D01*
X218047619Y-165714285D01*
X219380952Y-165714285D01*
X213857142Y-167619047D02*
X214238095Y-167809523D01*
X215000000Y-167809523D01*
X215380952Y-167619047D01*
X215571428Y-167238095D01*
X215571428Y-165714285D01*
X215380952Y-165333333D01*
X215000000Y-165142857D01*
X214238095Y-165142857D01*
X213857142Y-165333333D01*
X213666666Y-165714285D01*
X213666666Y-166095238D01*
X215571428Y-166476190D01*
X211952380Y-167809523D02*
X211952380Y-165142857D01*
X211952380Y-165904761D02*
X211761904Y-165523809D01*
X211571428Y-165333333D01*
X211190476Y-165142857D01*
X210809523Y-165142857D01*
X209857142Y-165142857D02*
X208904761Y-167809523D01*
X207952380Y-165142857D02*
X208904761Y-167809523D01*
X209285714Y-168761904D01*
X209476190Y-168952380D01*
X209857142Y-169142857D01*
X205857142Y-167809523D02*
X206238095Y-167619047D01*
X206428571Y-167238095D01*
X206428571Y-163809523D01*
X204714285Y-163809523D02*
X202238095Y-163809523D01*
X203571428Y-165333333D01*
X203000000Y-165333333D01*
X202619047Y-165523809D01*
X202428571Y-165714285D01*
X202238095Y-166095238D01*
X202238095Y-167047619D01*
X202428571Y-167428571D01*
X202619047Y-167619047D01*
X203000000Y-167809523D01*
X204142857Y-167809523D01*
X204523809Y-167619047D01*
X204714285Y-167428571D01*
X200714285Y-164190476D02*
X200523809Y-164000000D01*
X200142857Y-163809523D01*
X199190476Y-163809523D01*
X198809523Y-164000000D01*
X198619047Y-164190476D01*
X198428571Y-164571428D01*
X198428571Y-164952380D01*
X198619047Y-165523809D01*
X200904761Y-167809523D01*
X198428571Y-167809523D01*
X196714285Y-165142857D02*
X193666666Y-166285714D01*
X196714285Y-167428571D01*
D12*
X254247031Y-139176942D02*
X253001787Y-139285887D01*
D11*
X245028436Y-145102946D02*
X247469113Y-144889414D01*
D10*
X254379029Y-138964630D02*
X246210231Y-139679307D01*
X249911055Y-142969278D02*
X254692789Y-142550931D01*
X244846629Y-145319616D02*
X247865099Y-145055534D01*
X244283819Y-141755104D02*
X244349186Y-142502250D01*
X244458786Y-140886549D02*
X244846629Y-145319616D01*
X244349186Y-142502250D02*
X244548425Y-142484819D01*
X254585710Y-141556479D02*
X254389609Y-139315041D01*
X254692789Y-142550931D02*
X254379029Y-138964630D01*
D13*
X252742759Y-140914661D02*
X246068254Y-141498604D01*
D14*
X253933225Y-139605924D02*
X254151114Y-142096411D01*
D11*
X254471762Y-142319313D02*
X253172351Y-142382806D01*
D15*
X245972374Y-141205846D02*
X246167603Y-143437323D01*
D16*
X245151719Y-144791014D02*
X244994839Y-142997864D01*
D17*
X244440090Y-142393915D02*
X244383439Y-141746388D01*
D14*
X247433555Y-144670208D02*
G75*
G02*
X249477715Y-142605663I2168535J-102862D01*
G01*
D10*
X244283819Y-141755105D02*
G75*
G02*
X246210231Y-139679307I2001105J74693D01*
G01*
X247866894Y-145033824D02*
G75*
G02*
X249911055Y-142969278I2168536J-102862D01*
G01*
X211915000Y-147042000D02*
X211915000Y-147292000D01*
X211915000Y-147292000D02*
X205915000Y-147292000D01*
X205915000Y-147292000D02*
X205915000Y-147042000D01*
X205915000Y-144042000D02*
X205915000Y-143792000D01*
X205915000Y-143792000D02*
X211915000Y-143792000D01*
X211915000Y-143792000D02*
X211915000Y-144042000D01*
D12*
X242182031Y-161147942D02*
X240936787Y-161256887D01*
D11*
X232963436Y-167073946D02*
X235404113Y-166860414D01*
D10*
X242314029Y-160935630D02*
X234145231Y-161650307D01*
X237846055Y-164940278D02*
X242627789Y-164521931D01*
X232781629Y-167290616D02*
X235800099Y-167026534D01*
X232218819Y-163726104D02*
X232284186Y-164473250D01*
X232393786Y-162857549D02*
X232781629Y-167290616D01*
X232284186Y-164473250D02*
X232483425Y-164455819D01*
X242520710Y-163527479D02*
X242324609Y-161286041D01*
X242627789Y-164521931D02*
X242314029Y-160935630D01*
D13*
X240677759Y-162885661D02*
X234003254Y-163469604D01*
D14*
X241868225Y-161576924D02*
X242086114Y-164067411D01*
D11*
X242406762Y-164290313D02*
X241107351Y-164353806D01*
D15*
X233907374Y-163176846D02*
X234102603Y-165408323D01*
D16*
X233086719Y-166762014D02*
X232929839Y-164968864D01*
D17*
X232375090Y-164364915D02*
X232318439Y-163717388D01*
D14*
X235368555Y-166641208D02*
G75*
G02*
X237412715Y-164576663I2168535J-102862D01*
G01*
D10*
X232218819Y-163726105D02*
G75*
G02*
X234145231Y-161650307I2001105J74693D01*
G01*
X235801894Y-167004824D02*
G75*
G02*
X237846055Y-164940278I2168536J-102862D01*
G01*
D12*
X171991624Y-139917766D02*
X170746381Y-139808821D01*
D11*
X161884041Y-144152948D02*
X164324718Y-144366480D01*
D10*
X172158485Y-139731600D02*
X163989687Y-139016923D01*
X167062989Y-142899554D02*
X171844724Y-143317901D01*
X161667371Y-144334756D02*
X164685841Y-144598838D01*
X161732083Y-140726666D02*
X161666716Y-141473812D01*
X162055214Y-139901689D02*
X161667371Y-144334756D01*
X161666716Y-141473812D02*
X161865955Y-141491243D01*
X171911956Y-142319963D02*
X172108056Y-140078525D01*
X171844724Y-143317901D02*
X172158485Y-139731600D01*
D13*
X170208454Y-141367870D02*
X163533949Y-140783927D01*
D14*
X171608094Y-140285739D02*
X171390204Y-142776226D01*
D11*
X171667274Y-143051421D02*
X170376579Y-142888309D01*
D15*
X163490362Y-140478968D02*
X163295134Y-142710444D01*
D16*
X162059617Y-143867163D02*
X162216498Y-142074014D01*
D17*
X161775052Y-141382908D02*
X161831703Y-140735382D01*
D14*
X164327764Y-144144429D02*
G75*
G02*
X166699374Y-142466213I2117729J-477862D01*
G01*
D10*
X161732083Y-140726667D02*
G75*
G02*
X163989687Y-139016923I1983674J-273930D01*
G01*
X164691381Y-144577770D02*
G75*
G02*
X167062989Y-142899554I2117728J-477861D01*
G01*
D12*
X184115624Y-161888766D02*
X182870381Y-161779821D01*
D11*
X174008041Y-166123948D02*
X176448718Y-166337480D01*
D10*
X184282485Y-161702600D02*
X176113687Y-160987923D01*
X179186989Y-164870554D02*
X183968724Y-165288901D01*
X173791371Y-166305756D02*
X176809841Y-166569838D01*
X173856083Y-162697666D02*
X173790716Y-163444812D01*
X174179214Y-161872689D02*
X173791371Y-166305756D01*
X173790716Y-163444812D02*
X173989955Y-163462243D01*
X184035956Y-164290963D02*
X184232056Y-162049525D01*
X183968724Y-165288901D02*
X184282485Y-161702600D01*
D13*
X182332454Y-163338870D02*
X175657949Y-162754927D01*
D14*
X183732094Y-162256739D02*
X183514204Y-164747226D01*
D11*
X183791274Y-165022421D02*
X182500579Y-164859309D01*
D15*
X175614362Y-162449968D02*
X175419134Y-164681444D01*
D16*
X174183617Y-165838163D02*
X174340498Y-164045014D01*
D17*
X173899052Y-163353908D02*
X173955703Y-162706382D01*
D14*
X176451764Y-166115429D02*
G75*
G02*
X178823374Y-164437213I2117729J-477862D01*
G01*
D10*
X173856083Y-162697667D02*
G75*
G02*
X176113687Y-160987923I1983674J-273930D01*
G01*
X176815381Y-166548770D02*
G75*
G02*
X179186989Y-164870554I2117728J-477861D01*
G01*
D17*
X180575052Y-144959908D02*
X180631703Y-144312382D01*
D16*
X180859617Y-147444163D02*
X181016498Y-145651014D01*
D15*
X182290362Y-144055968D02*
X182095134Y-146287444D01*
D11*
X190467274Y-146628421D02*
X189176579Y-146465309D01*
D14*
X190408094Y-143862739D02*
X190190204Y-146353226D01*
D13*
X189008454Y-144944870D02*
X182333949Y-144360927D01*
D10*
X190644724Y-146894901D02*
X190958485Y-143308600D01*
X190711956Y-145896963D02*
X190908056Y-143655525D01*
X180466716Y-145050812D02*
X180665955Y-145068243D01*
X180855214Y-143478689D02*
X180467371Y-147911756D01*
X180532083Y-144303666D02*
X180466716Y-145050812D01*
X180467371Y-147911756D02*
X183485841Y-148175838D01*
X185862989Y-146476554D02*
X190644724Y-146894901D01*
X190958485Y-143308600D02*
X182789687Y-142593923D01*
D11*
X180684041Y-147729948D02*
X183124718Y-147943480D01*
D12*
X190791624Y-143494766D02*
X189546381Y-143385821D01*
D10*
X183491381Y-148154770D02*
G75*
G02*
X185862989Y-146476554I2117728J-477861D01*
G01*
X180532083Y-144303667D02*
G75*
G02*
X182789687Y-142593923I1983674J-273930D01*
G01*
D14*
X183127764Y-147721429D02*
G75*
G02*
X185499374Y-146043213I2117729J-477862D01*
G01*
D17*
X225644090Y-145949915D02*
X225587439Y-145302388D01*
D16*
X226355719Y-148347014D02*
X226198839Y-146553864D01*
D15*
X227176374Y-144761846D02*
X227371603Y-146993323D01*
D11*
X235675762Y-145875313D02*
X234376351Y-145938806D01*
D14*
X235137225Y-143161924D02*
X235355114Y-145652411D01*
D13*
X233946759Y-144470661D02*
X227272254Y-145054604D01*
D10*
X235896789Y-146106931D02*
X235583029Y-142520630D01*
X235789710Y-145112479D02*
X235593609Y-142871041D01*
X225553186Y-146058250D02*
X225752425Y-146040819D01*
X225662786Y-144442549D02*
X226050629Y-148875616D01*
X225487819Y-145311104D02*
X225553186Y-146058250D01*
X226050629Y-148875616D02*
X229069099Y-148611534D01*
X231115055Y-146525278D02*
X235896789Y-146106931D01*
X235583029Y-142520630D02*
X227414231Y-143235307D01*
D11*
X226232436Y-148658946D02*
X228673113Y-148445414D01*
D12*
X235451031Y-142732942D02*
X234205787Y-142841887D01*
D10*
X229070894Y-148589824D02*
G75*
G02*
X231115055Y-146525278I2168536J-102862D01*
G01*
X225487819Y-145311105D02*
G75*
G02*
X227414231Y-143235307I2001105J74693D01*
G01*
D14*
X228637555Y-148226208D02*
G75*
G02*
X230681715Y-146161663I2168535J-102862D01*
G01*
D12*
X116678624Y-115914766D02*
X115433381Y-115805821D01*
D11*
X106571041Y-120149948D02*
X109011718Y-120363480D01*
D10*
X116845485Y-115728600D02*
X108676687Y-115013923D01*
X111749989Y-118896554D02*
X116531724Y-119314901D01*
X106354371Y-120331756D02*
X109372841Y-120595838D01*
X106419083Y-116723666D02*
X106353716Y-117470812D01*
X106742214Y-115898689D02*
X106354371Y-120331756D01*
X106353716Y-117470812D02*
X106552955Y-117488243D01*
X116598956Y-118316963D02*
X116795056Y-116075525D01*
X116531724Y-119314901D02*
X116845485Y-115728600D01*
D13*
X114895454Y-117364870D02*
X108220949Y-116780927D01*
D14*
X116295094Y-116282739D02*
X116077204Y-118773226D01*
D11*
X116354274Y-119048421D02*
X115063579Y-118885309D01*
D15*
X108177362Y-116475968D02*
X107982134Y-118707444D01*
D16*
X106746617Y-119864163D02*
X106903498Y-118071014D01*
D17*
X106462052Y-117379908D02*
X106518703Y-116732382D01*
D14*
X109014764Y-120141429D02*
G75*
G02*
X111386374Y-118463213I2117729J-477862D01*
G01*
D10*
X106419083Y-116723667D02*
G75*
G02*
X108676687Y-115013923I1983674J-273930D01*
G01*
X109378381Y-120574770D02*
G75*
G02*
X111749989Y-118896554I2117728J-477861D01*
G01*
D17*
X104775052Y-136359908D02*
X104831703Y-135712382D01*
D16*
X105059617Y-138844163D02*
X105216498Y-137051014D01*
D15*
X106490362Y-135455968D02*
X106295134Y-137687444D01*
D11*
X114667274Y-138028421D02*
X113376579Y-137865309D01*
D14*
X114608094Y-135262739D02*
X114390204Y-137753226D01*
D13*
X113208454Y-136344870D02*
X106533949Y-135760927D01*
D10*
X114844724Y-138294901D02*
X115158485Y-134708600D01*
X114911956Y-137296963D02*
X115108056Y-135055525D01*
X104666716Y-136450812D02*
X104865955Y-136468243D01*
X105055214Y-134878689D02*
X104667371Y-139311756D01*
X104732083Y-135703666D02*
X104666716Y-136450812D01*
X104667371Y-139311756D02*
X107685841Y-139575838D01*
X110062989Y-137876554D02*
X114844724Y-138294901D01*
X115158485Y-134708600D02*
X106989687Y-133993923D01*
D11*
X104884041Y-139129948D02*
X107324718Y-139343480D01*
D12*
X114991624Y-134894766D02*
X113746381Y-134785821D01*
D10*
X107691381Y-139554770D02*
G75*
G02*
X110062989Y-137876554I2117728J-477861D01*
G01*
X104732083Y-135703667D02*
G75*
G02*
X106989687Y-133993923I1983674J-273930D01*
G01*
D14*
X107327764Y-139121429D02*
G75*
G02*
X109699374Y-137443213I2117729J-477862D01*
G01*
D17*
X103160052Y-155352908D02*
X103216703Y-154705382D01*
D16*
X103444617Y-157837163D02*
X103601498Y-156044014D01*
D15*
X104875362Y-154448968D02*
X104680134Y-156680444D01*
D11*
X113052274Y-157021421D02*
X111761579Y-156858309D01*
D14*
X112993094Y-154255739D02*
X112775204Y-156746226D01*
D13*
X111593454Y-155337870D02*
X104918949Y-154753927D01*
D10*
X113229724Y-157287901D02*
X113543485Y-153701600D01*
X113296956Y-156289963D02*
X113493056Y-154048525D01*
X103051716Y-155443812D02*
X103250955Y-155461243D01*
X103440214Y-153871689D02*
X103052371Y-158304756D01*
X103117083Y-154696666D02*
X103051716Y-155443812D01*
X103052371Y-158304756D02*
X106070841Y-158568838D01*
X108447989Y-156869554D02*
X113229724Y-157287901D01*
X113543485Y-153701600D02*
X105374687Y-152986923D01*
D11*
X103269041Y-158122948D02*
X105709718Y-158336480D01*
D12*
X113376624Y-153887766D02*
X112131381Y-153778821D01*
D10*
X106076381Y-158547770D02*
G75*
G02*
X108447989Y-156869554I2117728J-477861D01*
G01*
X103117083Y-154696667D02*
G75*
G02*
X105374687Y-152986923I1983674J-273930D01*
G01*
D14*
X105712764Y-158114429D02*
G75*
G02*
X108084374Y-156436213I2117729J-477862D01*
G01*
D17*
X127075052Y-100059908D02*
X127131703Y-99412382D01*
D16*
X127359617Y-102544163D02*
X127516498Y-100751014D01*
D15*
X128790362Y-99155968D02*
X128595134Y-101387444D01*
D11*
X136967274Y-101728421D02*
X135676579Y-101565309D01*
D14*
X136908094Y-98962739D02*
X136690204Y-101453226D01*
D13*
X135508454Y-100044870D02*
X128833949Y-99460927D01*
D10*
X137144724Y-101994901D02*
X137458485Y-98408600D01*
X137211956Y-100996963D02*
X137408056Y-98755525D01*
X126966716Y-100150812D02*
X127165955Y-100168243D01*
X127355214Y-98578689D02*
X126967371Y-103011756D01*
X127032083Y-99403666D02*
X126966716Y-100150812D01*
X126967371Y-103011756D02*
X129985841Y-103275838D01*
X132362989Y-101576554D02*
X137144724Y-101994901D01*
X137458485Y-98408600D02*
X129289687Y-97693923D01*
D11*
X127184041Y-102829948D02*
X129624718Y-103043480D01*
D12*
X137291624Y-98594766D02*
X136046381Y-98485821D01*
D10*
X129991381Y-103254770D02*
G75*
G02*
X132362989Y-101576554I2117728J-477861D01*
G01*
X127032083Y-99403667D02*
G75*
G02*
X129289687Y-97693923I1983674J-273930D01*
G01*
D14*
X129627764Y-102821429D02*
G75*
G02*
X131999374Y-101143213I2117729J-477862D01*
G01*
D17*
X125459966Y-119044201D02*
X125516617Y-118396675D01*
D16*
X125744531Y-121528456D02*
X125901412Y-119735307D01*
D15*
X127175276Y-118140261D02*
X126980048Y-120371737D01*
D11*
X135352188Y-120712714D02*
X134061493Y-120549602D01*
D14*
X135293008Y-117947032D02*
X135075118Y-120437519D01*
D13*
X133893368Y-119029163D02*
X127218863Y-118445220D01*
D10*
X135529638Y-120979194D02*
X135843399Y-117392893D01*
X135596870Y-119981256D02*
X135792970Y-117739818D01*
X125351630Y-119135105D02*
X125550869Y-119152536D01*
X125740128Y-117562982D02*
X125352285Y-121996049D01*
X125416997Y-118387959D02*
X125351630Y-119135105D01*
X125352285Y-121996049D02*
X128370755Y-122260131D01*
X130747903Y-120560847D02*
X135529638Y-120979194D01*
X135843399Y-117392893D02*
X127674601Y-116678216D01*
D11*
X125568955Y-121814241D02*
X128009632Y-122027773D01*
D12*
X135676538Y-117579059D02*
X134431295Y-117470114D01*
D10*
X128376295Y-122239063D02*
G75*
G02*
X130747903Y-120560847I2117728J-477861D01*
G01*
X125416997Y-118387960D02*
G75*
G02*
X127674601Y-116678216I1983674J-273930D01*
G01*
D14*
X128012678Y-121805722D02*
G75*
G02*
X130384288Y-120127506I2117729J-477862D01*
G01*
D12*
X133991624Y-136594766D02*
X132746381Y-136485821D01*
D11*
X123884041Y-140829948D02*
X126324718Y-141043480D01*
D10*
X134158485Y-136408600D02*
X125989687Y-135693923D01*
X129062989Y-139576554D02*
X133844724Y-139994901D01*
X123667371Y-141011756D02*
X126685841Y-141275838D01*
X123732083Y-137403666D02*
X123666716Y-138150812D01*
X124055214Y-136578689D02*
X123667371Y-141011756D01*
X123666716Y-138150812D02*
X123865955Y-138168243D01*
X133911956Y-138996963D02*
X134108056Y-136755525D01*
X133844724Y-139994901D02*
X134158485Y-136408600D01*
D13*
X132208454Y-138044870D02*
X125533949Y-137460927D01*
D14*
X133608094Y-136962739D02*
X133390204Y-139453226D01*
D11*
X133667274Y-139728421D02*
X132376579Y-139565309D01*
D15*
X125490362Y-137155968D02*
X125295134Y-139387444D01*
D16*
X124059617Y-140544163D02*
X124216498Y-138751014D01*
D17*
X123775052Y-138059908D02*
X123831703Y-137412382D01*
D14*
X126327764Y-140821429D02*
G75*
G02*
X128699374Y-139143213I2117729J-477862D01*
G01*
D10*
X123732083Y-137403667D02*
G75*
G02*
X125989687Y-135693923I1983674J-273930D01*
G01*
X126691381Y-141254770D02*
G75*
G02*
X129062989Y-139576554I2117728J-477861D01*
G01*
D12*
X156491624Y-98388766D02*
X155246381Y-98279821D01*
D11*
X146384041Y-102623948D02*
X148824718Y-102837480D01*
D10*
X156658485Y-98202600D02*
X148489687Y-97487923D01*
X151562989Y-101370554D02*
X156344724Y-101788901D01*
X146167371Y-102805756D02*
X149185841Y-103069838D01*
X146232083Y-99197666D02*
X146166716Y-99944812D01*
X146555214Y-98372689D02*
X146167371Y-102805756D01*
X146166716Y-99944812D02*
X146365955Y-99962243D01*
X156411956Y-100790963D02*
X156608056Y-98549525D01*
X156344724Y-101788901D02*
X156658485Y-98202600D01*
D13*
X154708454Y-99838870D02*
X148033949Y-99254927D01*
D14*
X156108094Y-98756739D02*
X155890204Y-101247226D01*
D11*
X156167274Y-101522421D02*
X154876579Y-101359309D01*
D15*
X147990362Y-98949968D02*
X147795134Y-101181444D01*
D16*
X146559617Y-102338163D02*
X146716498Y-100545014D01*
D17*
X146275052Y-99853908D02*
X146331703Y-99206382D01*
D14*
X148827764Y-102615429D02*
G75*
G02*
X151199374Y-100937213I2117729J-477862D01*
G01*
D10*
X146232083Y-99197667D02*
G75*
G02*
X148489687Y-97487923I1983674J-273930D01*
G01*
X149191381Y-103048770D02*
G75*
G02*
X151562989Y-101370554I2117728J-477861D01*
G01*
D12*
X154791624Y-117394766D02*
X153546381Y-117285821D01*
D11*
X144684041Y-121629948D02*
X147124718Y-121843480D01*
D10*
X154958485Y-117208600D02*
X146789687Y-116493923D01*
X149862989Y-120376554D02*
X154644724Y-120794901D01*
X144467371Y-121811756D02*
X147485841Y-122075838D01*
X144532083Y-118203666D02*
X144466716Y-118950812D01*
X144855214Y-117378689D02*
X144467371Y-121811756D01*
X144466716Y-118950812D02*
X144665955Y-118968243D01*
X154711956Y-119796963D02*
X154908056Y-117555525D01*
X154644724Y-120794901D02*
X154958485Y-117208600D01*
D13*
X153008454Y-118844870D02*
X146333949Y-118260927D01*
D14*
X154408094Y-117762739D02*
X154190204Y-120253226D01*
D11*
X154467274Y-120528421D02*
X153176579Y-120365309D01*
D15*
X146290362Y-117955968D02*
X146095134Y-120187444D01*
D16*
X144859617Y-121344163D02*
X145016498Y-119551014D01*
D17*
X144575052Y-118859908D02*
X144631703Y-118212382D01*
D14*
X147127764Y-121621429D02*
G75*
G02*
X149499374Y-119943213I2117729J-477862D01*
G01*
D10*
X144532083Y-118203667D02*
G75*
G02*
X146789687Y-116493923I1983674J-273930D01*
G01*
X147491381Y-122054770D02*
G75*
G02*
X149862989Y-120376554I2117728J-477861D01*
G01*
D17*
X142911052Y-137826908D02*
X142967703Y-137179382D01*
D16*
X143195617Y-140311163D02*
X143352498Y-138518014D01*
D15*
X144626362Y-136922968D02*
X144431134Y-139154444D01*
D11*
X152803274Y-139495421D02*
X151512579Y-139332309D01*
D14*
X152744094Y-136729739D02*
X152526204Y-139220226D01*
D13*
X151344454Y-137811870D02*
X144669949Y-137227927D01*
D10*
X152980724Y-139761901D02*
X153294485Y-136175600D01*
X153047956Y-138763963D02*
X153244056Y-136522525D01*
X142802716Y-137917812D02*
X143001955Y-137935243D01*
X143191214Y-136345689D02*
X142803371Y-140778756D01*
X142868083Y-137170666D02*
X142802716Y-137917812D01*
X142803371Y-140778756D02*
X145821841Y-141042838D01*
X148198989Y-139343554D02*
X152980724Y-139761901D01*
X153294485Y-136175600D02*
X145125687Y-135460923D01*
D11*
X143020041Y-140596948D02*
X145460718Y-140810480D01*
D12*
X153127624Y-136361766D02*
X151882381Y-136252821D01*
D10*
X145827381Y-141021770D02*
G75*
G02*
X148198989Y-139343554I2117728J-477861D01*
G01*
X142868083Y-137170667D02*
G75*
G02*
X145125687Y-135460923I1983674J-273930D01*
G01*
D14*
X145463764Y-140588429D02*
G75*
G02*
X147835374Y-138910213I2117729J-477862D01*
G01*
D17*
X165075052Y-103359908D02*
X165131703Y-102712382D01*
D16*
X165359617Y-105844163D02*
X165516498Y-104051014D01*
D15*
X166790362Y-102455968D02*
X166595134Y-104687444D01*
D11*
X174967274Y-105028421D02*
X173676579Y-104865309D01*
D14*
X174908094Y-102262739D02*
X174690204Y-104753226D01*
D13*
X173508454Y-103344870D02*
X166833949Y-102760927D01*
D10*
X175144724Y-105294901D02*
X175458485Y-101708600D01*
X175211956Y-104296963D02*
X175408056Y-102055525D01*
X164966716Y-103450812D02*
X165165955Y-103468243D01*
X165355214Y-101878689D02*
X164967371Y-106311756D01*
X165032083Y-102703666D02*
X164966716Y-103450812D01*
X164967371Y-106311756D02*
X167985841Y-106575838D01*
X170362989Y-104876554D02*
X175144724Y-105294901D01*
X175458485Y-101708600D02*
X167289687Y-100993923D01*
D11*
X165184041Y-106129948D02*
X167624718Y-106343480D01*
D12*
X175291624Y-101894766D02*
X174046381Y-101785821D01*
D10*
X167991381Y-106554770D02*
G75*
G02*
X170362989Y-104876554I2117728J-477861D01*
G01*
X165032083Y-102703667D02*
G75*
G02*
X167289687Y-100993923I1983674J-273930D01*
G01*
D14*
X167627764Y-106121429D02*
G75*
G02*
X169999374Y-104443213I2117729J-477862D01*
G01*
D12*
X173591624Y-120894766D02*
X172346381Y-120785821D01*
D11*
X163484041Y-125129948D02*
X165924718Y-125343480D01*
D10*
X173758485Y-120708600D02*
X165589687Y-119993923D01*
X168662989Y-123876554D02*
X173444724Y-124294901D01*
X163267371Y-125311756D02*
X166285841Y-125575838D01*
X163332083Y-121703666D02*
X163266716Y-122450812D01*
X163655214Y-120878689D02*
X163267371Y-125311756D01*
X163266716Y-122450812D02*
X163465955Y-122468243D01*
X173511956Y-123296963D02*
X173708056Y-121055525D01*
X173444724Y-124294901D02*
X173758485Y-120708600D01*
D13*
X171808454Y-122344870D02*
X165133949Y-121760927D01*
D14*
X173208094Y-121262739D02*
X172990204Y-123753226D01*
D11*
X173267274Y-124028421D02*
X171976579Y-123865309D01*
D15*
X165090362Y-121455968D02*
X164895134Y-123687444D01*
D16*
X163659617Y-124844163D02*
X163816498Y-123051014D01*
D17*
X163375052Y-122359908D02*
X163431703Y-121712382D01*
D14*
X165927764Y-125121429D02*
G75*
G02*
X168299374Y-123443213I2117729J-477862D01*
G01*
D10*
X163332083Y-121703667D02*
G75*
G02*
X165589687Y-119993923I1983674J-273930D01*
G01*
X166291381Y-125554770D02*
G75*
G02*
X168662989Y-123876554I2117728J-477861D01*
G01*
D12*
X194148624Y-105500766D02*
X192903381Y-105391821D01*
D11*
X184041041Y-109735948D02*
X186481718Y-109949480D01*
D10*
X194315485Y-105314600D02*
X186146687Y-104599923D01*
X189219989Y-108482554D02*
X194001724Y-108900901D01*
X183824371Y-109917756D02*
X186842841Y-110181838D01*
X183889083Y-106309666D02*
X183823716Y-107056812D01*
X184212214Y-105484689D02*
X183824371Y-109917756D01*
X183823716Y-107056812D02*
X184022955Y-107074243D01*
X194068956Y-107902963D02*
X194265056Y-105661525D01*
X194001724Y-108900901D02*
X194315485Y-105314600D01*
D13*
X192365454Y-106950870D02*
X185690949Y-106366927D01*
D14*
X193765094Y-105868739D02*
X193547204Y-108359226D01*
D11*
X193824274Y-108634421D02*
X192533579Y-108471309D01*
D15*
X185647362Y-106061968D02*
X185452134Y-108293444D01*
D16*
X184216617Y-109450163D02*
X184373498Y-107657014D01*
D17*
X183932052Y-106965908D02*
X183988703Y-106318382D01*
D14*
X186484764Y-109727429D02*
G75*
G02*
X188856374Y-108049213I2117729J-477862D01*
G01*
D10*
X183889083Y-106309667D02*
G75*
G02*
X186146687Y-104599923I1983674J-273930D01*
G01*
X186848381Y-110160770D02*
G75*
G02*
X189219989Y-108482554I2117728J-477861D01*
G01*
D12*
X192391624Y-124494766D02*
X191146381Y-124385821D01*
D11*
X182284041Y-128729948D02*
X184724718Y-128943480D01*
D10*
X192558485Y-124308600D02*
X184389687Y-123593923D01*
X187462989Y-127476554D02*
X192244724Y-127894901D01*
X182067371Y-128911756D02*
X185085841Y-129175838D01*
X182132083Y-125303666D02*
X182066716Y-126050812D01*
X182455214Y-124478689D02*
X182067371Y-128911756D01*
X182066716Y-126050812D02*
X182265955Y-126068243D01*
X192311956Y-126896963D02*
X192508056Y-124655525D01*
X192244724Y-127894901D02*
X192558485Y-124308600D01*
D13*
X190608454Y-125944870D02*
X183933949Y-125360927D01*
D14*
X192008094Y-124862739D02*
X191790204Y-127353226D01*
D11*
X192067274Y-127628421D02*
X190776579Y-127465309D01*
D15*
X183890362Y-125055968D02*
X183695134Y-127287444D01*
D16*
X182459617Y-128444163D02*
X182616498Y-126651014D01*
D17*
X182175052Y-125959908D02*
X182231703Y-125312382D01*
D14*
X184727764Y-128721429D02*
G75*
G02*
X187099374Y-127043213I2117729J-477862D01*
G01*
D10*
X182132083Y-125303667D02*
G75*
G02*
X184389687Y-123593923I1983674J-273930D01*
G01*
X185091381Y-129154770D02*
G75*
G02*
X187462989Y-127476554I2117728J-477861D01*
G01*
D17*
X222342090Y-107976915D02*
X222285439Y-107329388D01*
D16*
X223053719Y-110374014D02*
X222896839Y-108580864D01*
D15*
X223874374Y-106788846D02*
X224069603Y-109020323D01*
D11*
X232373762Y-107902313D02*
X231074351Y-107965806D01*
D14*
X231835225Y-105188924D02*
X232053114Y-107679411D01*
D13*
X230644759Y-106497661D02*
X223970254Y-107081604D01*
D10*
X232594789Y-108133931D02*
X232281029Y-104547630D01*
X232487710Y-107139479D02*
X232291609Y-104898041D01*
X222251186Y-108085250D02*
X222450425Y-108067819D01*
X222360786Y-106469549D02*
X222748629Y-110902616D01*
X222185819Y-107338104D02*
X222251186Y-108085250D01*
X222748629Y-110902616D02*
X225767099Y-110638534D01*
X227813055Y-108552278D02*
X232594789Y-108133931D01*
X232281029Y-104547630D02*
X224112231Y-105262307D01*
D11*
X222930436Y-110685946D02*
X225371113Y-110472414D01*
D12*
X232149031Y-104759942D02*
X230903787Y-104868887D01*
D10*
X225768894Y-110616824D02*
G75*
G02*
X227813055Y-108552278I2168536J-102862D01*
G01*
X222185819Y-107338105D02*
G75*
G02*
X224112231Y-105262307I2001105J74693D01*
G01*
D14*
X225335555Y-110253208D02*
G75*
G02*
X227379715Y-108188663I2168535J-102862D01*
G01*
D12*
X233800031Y-123682942D02*
X232554787Y-123791887D01*
D11*
X224581436Y-129608946D02*
X227022113Y-129395414D01*
D10*
X233932029Y-123470630D02*
X225763231Y-124185307D01*
X229464055Y-127475278D02*
X234245789Y-127056931D01*
X224399629Y-129825616D02*
X227418099Y-129561534D01*
X223836819Y-126261104D02*
X223902186Y-127008250D01*
X224011786Y-125392549D02*
X224399629Y-129825616D01*
X223902186Y-127008250D02*
X224101425Y-126990819D01*
X234138710Y-126062479D02*
X233942609Y-123821041D01*
X234245789Y-127056931D02*
X233932029Y-123470630D01*
D13*
X232295759Y-125420661D02*
X225621254Y-126004604D01*
D14*
X233486225Y-124111924D02*
X233704114Y-126602411D01*
D11*
X234024762Y-126825313D02*
X232725351Y-126888806D01*
D15*
X225525374Y-125711846D02*
X225720603Y-127943323D01*
D16*
X224704719Y-129297014D02*
X224547839Y-127503864D01*
D17*
X223993090Y-126899915D02*
X223936439Y-126252388D01*
D14*
X226986555Y-129176208D02*
G75*
G02*
X229030715Y-127111663I2168535J-102862D01*
G01*
D10*
X223836819Y-126261105D02*
G75*
G02*
X225763231Y-124185307I2001105J74693D01*
G01*
X227419894Y-129539824D02*
G75*
G02*
X229464055Y-127475278I2168536J-102862D01*
G01*
D17*
X241138090Y-104420915D02*
X241081439Y-103773388D01*
D16*
X241849719Y-106818014D02*
X241692839Y-105024864D01*
D15*
X242670374Y-103232846D02*
X242865603Y-105464323D01*
D11*
X251169762Y-104346313D02*
X249870351Y-104409806D01*
D14*
X250631225Y-101632924D02*
X250849114Y-104123411D01*
D13*
X249440759Y-102941661D02*
X242766254Y-103525604D01*
D10*
X251390789Y-104577931D02*
X251077029Y-100991630D01*
X251283710Y-103583479D02*
X251087609Y-101342041D01*
X241047186Y-104529250D02*
X241246425Y-104511819D01*
X241156786Y-102913549D02*
X241544629Y-107346616D01*
X240981819Y-103782104D02*
X241047186Y-104529250D01*
X241544629Y-107346616D02*
X244563099Y-107082534D01*
X246609055Y-104996278D02*
X251390789Y-104577931D01*
X251077029Y-100991630D02*
X242908231Y-101706307D01*
D11*
X241726436Y-107129946D02*
X244167113Y-106916414D01*
D12*
X250945031Y-101203942D02*
X249699787Y-101312887D01*
D10*
X244564894Y-107060824D02*
G75*
G02*
X246609055Y-104996278I2168536J-102862D01*
G01*
X240981819Y-103782105D02*
G75*
G02*
X242908231Y-101706307I2001105J74693D01*
G01*
D14*
X244131555Y-106697208D02*
G75*
G02*
X246175715Y-104632663I2168535J-102862D01*
G01*
D17*
X242869090Y-123370915D02*
X242812439Y-122723388D01*
D16*
X243580719Y-125768014D02*
X243423839Y-123974864D01*
D15*
X244401374Y-122182846D02*
X244596603Y-124414323D01*
D11*
X252900762Y-123296313D02*
X251601351Y-123359806D01*
D14*
X252362225Y-120582924D02*
X252580114Y-123073411D01*
D13*
X251171759Y-121891661D02*
X244497254Y-122475604D01*
D10*
X253121789Y-123527931D02*
X252808029Y-119941630D01*
X253014710Y-122533479D02*
X252818609Y-120292041D01*
X242778186Y-123479250D02*
X242977425Y-123461819D01*
X242887786Y-121863549D02*
X243275629Y-126296616D01*
X242712819Y-122732104D02*
X242778186Y-123479250D01*
X243275629Y-126296616D02*
X246294099Y-126032534D01*
X248340055Y-123946278D02*
X253121789Y-123527931D01*
X252808029Y-119941630D02*
X244639231Y-120656307D01*
D11*
X243457436Y-126079946D02*
X245898113Y-125866414D01*
D12*
X252676031Y-120153942D02*
X251430787Y-120262887D01*
D10*
X246295894Y-126010824D02*
G75*
G02*
X248340055Y-123946278I2168536J-102862D01*
G01*
X242712819Y-122732105D02*
G75*
G02*
X244639231Y-120656307I2001105J74693D01*
G01*
D14*
X245862555Y-125647208D02*
G75*
G02*
X247906715Y-123582663I2168535J-102862D01*
G01*
D17*
X259969090Y-100864915D02*
X259912439Y-100217388D01*
D16*
X260680719Y-103262014D02*
X260523839Y-101468864D01*
D15*
X261501374Y-99676846D02*
X261696603Y-101908323D01*
D11*
X270000762Y-100790313D02*
X268701351Y-100853806D01*
D14*
X269462225Y-98076924D02*
X269680114Y-100567411D01*
D13*
X268271759Y-99385661D02*
X261597254Y-99969604D01*
D10*
X270221789Y-101021931D02*
X269908029Y-97435630D01*
X270114710Y-100027479D02*
X269918609Y-97786041D01*
X259878186Y-100973250D02*
X260077425Y-100955819D01*
X259987786Y-99357549D02*
X260375629Y-103790616D01*
X259812819Y-100226104D02*
X259878186Y-100973250D01*
X260375629Y-103790616D02*
X263394099Y-103526534D01*
X265440055Y-101440278D02*
X270221789Y-101021931D01*
X269908029Y-97435630D02*
X261739231Y-98150307D01*
D11*
X260557436Y-103573946D02*
X262998113Y-103360414D01*
D12*
X269776031Y-97647942D02*
X268530787Y-97756887D01*
D10*
X263395894Y-103504824D02*
G75*
G02*
X265440055Y-101440278I2168536J-102862D01*
G01*
X259812819Y-100226105D02*
G75*
G02*
X261739231Y-98150307I2001105J74693D01*
G01*
D14*
X262962555Y-103141208D02*
G75*
G02*
X265006715Y-101076663I2168535J-102862D01*
G01*
D12*
X271476031Y-116570942D02*
X270230787Y-116679887D01*
D11*
X262257436Y-122496946D02*
X264698113Y-122283414D01*
D10*
X271608029Y-116358630D02*
X263439231Y-117073307D01*
X267140055Y-120363278D02*
X271921789Y-119944931D01*
X262075629Y-122713616D02*
X265094099Y-122449534D01*
X261512819Y-119149104D02*
X261578186Y-119896250D01*
X261687786Y-118280549D02*
X262075629Y-122713616D01*
X261578186Y-119896250D02*
X261777425Y-119878819D01*
X271814710Y-118950479D02*
X271618609Y-116709041D01*
X271921789Y-119944931D02*
X271608029Y-116358630D01*
D13*
X269971759Y-118308661D02*
X263297254Y-118892604D01*
D14*
X271162225Y-116999924D02*
X271380114Y-119490411D01*
D11*
X271700762Y-119713313D02*
X270401351Y-119776806D01*
D15*
X263201374Y-118599846D02*
X263396603Y-120831323D01*
D16*
X262380719Y-122185014D02*
X262223839Y-120391864D01*
D17*
X261669090Y-119787915D02*
X261612439Y-119140388D01*
D14*
X264662555Y-122064208D02*
G75*
G02*
X266706715Y-119999663I2168535J-102862D01*
G01*
D10*
X261512819Y-119149105D02*
G75*
G02*
X263439231Y-117073307I2001105J74693D01*
G01*
X265095894Y-122427824D02*
G75*
G02*
X267140055Y-120363278I2168536J-102862D01*
G01*
D17*
X263363090Y-138837915D02*
X263306439Y-138190388D01*
D16*
X264074719Y-141235014D02*
X263917839Y-139441864D01*
D15*
X264895374Y-137649846D02*
X265090603Y-139881323D01*
D11*
X273394762Y-138763313D02*
X272095351Y-138826806D01*
D14*
X272856225Y-136049924D02*
X273074114Y-138540411D01*
D13*
X271665759Y-137358661D02*
X264991254Y-137942604D01*
D10*
X273615789Y-138994931D02*
X273302029Y-135408630D01*
X273508710Y-138000479D02*
X273312609Y-135759041D01*
X263272186Y-138946250D02*
X263471425Y-138928819D01*
X263381786Y-137330549D02*
X263769629Y-141763616D01*
X263206819Y-138199104D02*
X263272186Y-138946250D01*
X263769629Y-141763616D02*
X266788099Y-141499534D01*
X268834055Y-139413278D02*
X273615789Y-138994931D01*
X273302029Y-135408630D02*
X265133231Y-136123307D01*
D11*
X263951436Y-141546946D02*
X266392113Y-141333414D01*
D12*
X273170031Y-135620942D02*
X271924787Y-135729887D01*
D10*
X266789894Y-141477824D02*
G75*
G02*
X268834055Y-139413278I2168536J-102862D01*
G01*
X263206819Y-138199105D02*
G75*
G02*
X265133231Y-136123307I2001105J74693D01*
G01*
D14*
X266356555Y-141114208D02*
G75*
G02*
X268400715Y-139049663I2168535J-102862D01*
G01*
D12*
X288918031Y-97901942D02*
X287672787Y-98010887D01*
D11*
X279699436Y-103827946D02*
X282140113Y-103614414D01*
D10*
X289050029Y-97689630D02*
X280881231Y-98404307D01*
X284582055Y-101694278D02*
X289363789Y-101275931D01*
X279517629Y-104044616D02*
X282536099Y-103780534D01*
X278954819Y-100480104D02*
X279020186Y-101227250D01*
X279129786Y-99611549D02*
X279517629Y-104044616D01*
X279020186Y-101227250D02*
X279219425Y-101209819D01*
X289256710Y-100281479D02*
X289060609Y-98040041D01*
X289363789Y-101275931D02*
X289050029Y-97689630D01*
D13*
X287413759Y-99639661D02*
X280739254Y-100223604D01*
D14*
X288604225Y-98330924D02*
X288822114Y-100821411D01*
D11*
X289142762Y-101044313D02*
X287843351Y-101107806D01*
D15*
X280643374Y-99930846D02*
X280838603Y-102162323D01*
D16*
X279822719Y-103516014D02*
X279665839Y-101722864D01*
D17*
X279111090Y-101118915D02*
X279054439Y-100471388D01*
D14*
X282104555Y-103395208D02*
G75*
G02*
X284148715Y-101330663I2168535J-102862D01*
G01*
D10*
X278954819Y-100480105D02*
G75*
G02*
X280881231Y-98404307I2001105J74693D01*
G01*
X282537894Y-103758824D02*
G75*
G02*
X284582055Y-101694278I2168536J-102862D01*
G01*
D17*
X280762090Y-120041915D02*
X280705439Y-119394388D01*
D16*
X281473719Y-122439014D02*
X281316839Y-120645864D01*
D15*
X282294374Y-118853846D02*
X282489603Y-121085323D01*
D11*
X290793762Y-119967313D02*
X289494351Y-120030806D01*
D14*
X290255225Y-117253924D02*
X290473114Y-119744411D01*
D13*
X289064759Y-118562661D02*
X282390254Y-119146604D01*
D10*
X291014789Y-120198931D02*
X290701029Y-116612630D01*
X290907710Y-119204479D02*
X290711609Y-116963041D01*
X280671186Y-120150250D02*
X280870425Y-120132819D01*
X280780786Y-118534549D02*
X281168629Y-122967616D01*
X280605819Y-119403104D02*
X280671186Y-120150250D01*
X281168629Y-122967616D02*
X284187099Y-122703534D01*
X286233055Y-120617278D02*
X291014789Y-120198931D01*
X290701029Y-116612630D02*
X282532231Y-117327307D01*
D11*
X281350436Y-122750946D02*
X283791113Y-122537414D01*
D12*
X290569031Y-116824942D02*
X289323787Y-116933887D01*
D10*
X284188894Y-122681824D02*
G75*
G02*
X286233055Y-120617278I2168536J-102862D01*
G01*
X280605819Y-119403105D02*
G75*
G02*
X282532231Y-117327307I2001105J74693D01*
G01*
D14*
X283755555Y-122318208D02*
G75*
G02*
X285799715Y-120253663I2168535J-102862D01*
G01*
D12*
X292220031Y-135874942D02*
X290974787Y-135983887D01*
D11*
X283001436Y-141800946D02*
X285442113Y-141587414D01*
D10*
X292352029Y-135662630D02*
X284183231Y-136377307D01*
X287884055Y-139667278D02*
X292665789Y-139248931D01*
X282819629Y-142017616D02*
X285838099Y-141753534D01*
X282256819Y-138453104D02*
X282322186Y-139200250D01*
X282431786Y-137584549D02*
X282819629Y-142017616D01*
X282322186Y-139200250D02*
X282521425Y-139182819D01*
X292558710Y-138254479D02*
X292362609Y-136013041D01*
X292665789Y-139248931D02*
X292352029Y-135662630D01*
D13*
X290715759Y-137612661D02*
X284041254Y-138196604D01*
D14*
X291906225Y-136303924D02*
X292124114Y-138794411D01*
D11*
X292444762Y-139017313D02*
X291145351Y-139080806D01*
D15*
X283945374Y-137903846D02*
X284140603Y-140135323D01*
D16*
X283124719Y-141489014D02*
X282967839Y-139695864D01*
D17*
X282413090Y-139091915D02*
X282356439Y-138444388D01*
D14*
X285406555Y-141368208D02*
G75*
G02*
X287450715Y-139303663I2168535J-102862D01*
G01*
D10*
X282256819Y-138453105D02*
G75*
G02*
X284183231Y-136377307I2001105J74693D01*
G01*
X285839894Y-141731824D02*
G75*
G02*
X287884055Y-139667278I2168536J-102862D01*
G01*
D17*
X299812090Y-118390915D02*
X299755439Y-117743388D01*
D16*
X300523719Y-120788014D02*
X300366839Y-118994864D01*
D15*
X301344374Y-117202846D02*
X301539603Y-119434323D01*
D11*
X309843762Y-118316313D02*
X308544351Y-118379806D01*
D14*
X309305225Y-115602924D02*
X309523114Y-118093411D01*
D13*
X308114759Y-116911661D02*
X301440254Y-117495604D01*
D10*
X310064789Y-118547931D02*
X309751029Y-114961630D01*
X309957710Y-117553479D02*
X309761609Y-115312041D01*
X299721186Y-118499250D02*
X299920425Y-118481819D01*
X299830786Y-116883549D02*
X300218629Y-121316616D01*
X299655819Y-117752104D02*
X299721186Y-118499250D01*
X300218629Y-121316616D02*
X303237099Y-121052534D01*
X305283055Y-118966278D02*
X310064789Y-118547931D01*
X309751029Y-114961630D02*
X301582231Y-115676307D01*
D11*
X300400436Y-121099946D02*
X302841113Y-120886414D01*
D12*
X309619031Y-115173942D02*
X308373787Y-115282887D01*
D10*
X303238894Y-121030824D02*
G75*
G02*
X305283055Y-118966278I2168536J-102862D01*
G01*
X299655819Y-117752105D02*
G75*
G02*
X301582231Y-115676307I2001105J74693D01*
G01*
D14*
X302805555Y-120667208D02*
G75*
G02*
X304849715Y-118602663I2168535J-102862D01*
G01*
D12*
X311270031Y-134153942D02*
X310024787Y-134262887D01*
D11*
X302051436Y-140079946D02*
X304492113Y-139866414D01*
D10*
X311402029Y-133941630D02*
X303233231Y-134656307D01*
X306934055Y-137946278D02*
X311715789Y-137527931D01*
X301869629Y-140296616D02*
X304888099Y-140032534D01*
X301306819Y-136732104D02*
X301372186Y-137479250D01*
X301481786Y-135863549D02*
X301869629Y-140296616D01*
X301372186Y-137479250D02*
X301571425Y-137461819D01*
X311608710Y-136533479D02*
X311412609Y-134292041D01*
X311715789Y-137527931D02*
X311402029Y-133941630D01*
D13*
X309765759Y-135891661D02*
X303091254Y-136475604D01*
D14*
X310956225Y-134582924D02*
X311174114Y-137073411D01*
D11*
X311494762Y-137296313D02*
X310195351Y-137359806D01*
D15*
X302995374Y-136182846D02*
X303190603Y-138414323D01*
D16*
X302174719Y-139768014D02*
X302017839Y-137974864D01*
D17*
X301463090Y-137370915D02*
X301406439Y-136723388D01*
D14*
X304456555Y-139647208D02*
G75*
G02*
X306500715Y-137582663I2168535J-102862D01*
G01*
D10*
X301306819Y-136732105D02*
G75*
G02*
X303233231Y-134656307I2001105J74693D01*
G01*
X304889894Y-140010824D02*
G75*
G02*
X306934055Y-137946278I2168536J-102862D01*
G01*
D17*
X303114090Y-156363915D02*
X303057439Y-155716388D01*
D16*
X303825719Y-158761014D02*
X303668839Y-156967864D01*
D15*
X304646374Y-155175846D02*
X304841603Y-157407323D01*
D11*
X313145762Y-156289313D02*
X311846351Y-156352806D01*
D14*
X312607225Y-153575924D02*
X312825114Y-156066411D01*
D13*
X311416759Y-154884661D02*
X304742254Y-155468604D01*
D10*
X313366789Y-156520931D02*
X313053029Y-152934630D01*
X313259710Y-155526479D02*
X313063609Y-153285041D01*
X303023186Y-156472250D02*
X303222425Y-156454819D01*
X303132786Y-154856549D02*
X303520629Y-159289616D01*
X302957819Y-155725104D02*
X303023186Y-156472250D01*
X303520629Y-159289616D02*
X306539099Y-159025534D01*
X308585055Y-156939278D02*
X313366789Y-156520931D01*
X313053029Y-152934630D02*
X304884231Y-153649307D01*
D11*
X303702436Y-159072946D02*
X306143113Y-158859414D01*
D12*
X312921031Y-153146942D02*
X311675787Y-153255887D01*
D10*
X306540894Y-159003824D02*
G75*
G02*
X308585055Y-156939278I2168536J-102862D01*
G01*
X302957819Y-155725105D02*
G75*
G02*
X304884231Y-153649307I2001105J74693D01*
G01*
D14*
X306107555Y-158640208D02*
G75*
G02*
X308151715Y-156575663I2168535J-102862D01*
G01*
D10*
X202528600Y-136144000D02*
X202528600Y-105664000D01*
X199988600Y-136144000D02*
X202528600Y-136144000D01*
X199988600Y-105664000D02*
X199988600Y-136144000D01*
X202528600Y-105664000D02*
X199988600Y-105664000D01*
X217748600Y-136144000D02*
X217748600Y-105664000D01*
X215208600Y-136144000D02*
X217748600Y-136144000D01*
X215208600Y-105664000D02*
X215208600Y-136144000D01*
X217748600Y-105664000D02*
X215208600Y-105664000D01*
X107758325Y-114054519D02*
X107845481Y-113058325D01*
X107901522Y-113565138D02*
X108754519Y-114141675D01*
X108841675Y-113145481D02*
X107901522Y-113565138D01*
X108754519Y-114141675D02*
X108841675Y-113145481D01*
X110924359Y-114582467D02*
X111055092Y-113088174D01*
X105544908Y-114111826D02*
X105675641Y-112617533D01*
X110924359Y-114582467D02*
X105544908Y-114111826D01*
X105675641Y-112617533D02*
X111055092Y-113088174D01*
X106275079Y-132915519D02*
X106362235Y-131919325D01*
X106418276Y-132426138D02*
X107271273Y-133002675D01*
X107358429Y-132006481D02*
X106418276Y-132426138D01*
X107271273Y-133002675D02*
X107358429Y-132006481D01*
X109441113Y-133443467D02*
X109571846Y-131949174D01*
X104061662Y-132972826D02*
X104192395Y-131478533D01*
X109441113Y-133443467D02*
X104061662Y-132972826D01*
X104192395Y-131478533D02*
X109571846Y-131949174D01*
X100891481Y-149191325D02*
X101887675Y-149278481D01*
X101380862Y-149334522D02*
X100804325Y-150187519D01*
X101800519Y-150274675D02*
X101380862Y-149334522D01*
X100804325Y-150187519D02*
X101800519Y-150274675D01*
X100363533Y-152357359D02*
X101857826Y-152488092D01*
X100834174Y-146977908D02*
X102328467Y-147108641D01*
X100363533Y-152357359D02*
X100834174Y-146977908D01*
X102328467Y-147108641D02*
X101857826Y-152488092D01*
X126407641Y-95283533D02*
X131787092Y-95754174D01*
X131656359Y-97248467D02*
X126276908Y-96777826D01*
X126276908Y-96777826D02*
X126407641Y-95283533D01*
X131656359Y-97248467D02*
X131787092Y-95754174D01*
X129486519Y-96807675D02*
X129573675Y-95811481D01*
X129573675Y-95811481D02*
X128633522Y-96231138D01*
X128633522Y-96231138D02*
X129486519Y-96807675D01*
X128490325Y-96720519D02*
X128577481Y-95724325D01*
X124756641Y-114206533D02*
X130136092Y-114677174D01*
X130005359Y-116171467D02*
X124625908Y-115700826D01*
X124625908Y-115700826D02*
X124756641Y-114206533D01*
X130005359Y-116171467D02*
X130136092Y-114677174D01*
X127835519Y-115730675D02*
X127922675Y-114734481D01*
X127922675Y-114734481D02*
X126982522Y-115154138D01*
X126982522Y-115154138D02*
X127835519Y-115730675D01*
X126839325Y-115643519D02*
X126926481Y-114647325D01*
X122978641Y-133256533D02*
X128358092Y-133727174D01*
X128227359Y-135221467D02*
X122847908Y-134750826D01*
X122847908Y-134750826D02*
X122978641Y-133256533D01*
X128227359Y-135221467D02*
X128358092Y-133727174D01*
X126057519Y-134780675D02*
X126144675Y-133784481D01*
X126144675Y-133784481D02*
X125204522Y-134204138D01*
X125204522Y-134204138D02*
X126057519Y-134780675D01*
X125061325Y-134693519D02*
X125148481Y-133697325D01*
X147540325Y-96466519D02*
X147627481Y-95470325D01*
X147683522Y-95977138D02*
X148536519Y-96553675D01*
X148623675Y-95557481D02*
X147683522Y-95977138D01*
X148536519Y-96553675D02*
X148623675Y-95557481D01*
X150706359Y-96994467D02*
X150837092Y-95500174D01*
X145326908Y-96523826D02*
X145457641Y-95029533D01*
X150706359Y-96994467D02*
X145326908Y-96523826D01*
X145457641Y-95029533D02*
X150837092Y-95500174D01*
X146006571Y-115544220D02*
X146093727Y-114548026D01*
X146149768Y-115054839D02*
X147002765Y-115631376D01*
X147089921Y-114635182D02*
X146149768Y-115054839D01*
X147002765Y-115631376D02*
X147089921Y-114635182D01*
X149172605Y-116072168D02*
X149303338Y-114577875D01*
X143793154Y-115601527D02*
X143923887Y-114107234D01*
X149172605Y-116072168D02*
X143793154Y-115601527D01*
X143923887Y-114107234D02*
X149303338Y-114577875D01*
X144238325Y-134439519D02*
X144325481Y-133443325D01*
X144381522Y-133950138D02*
X145234519Y-134526675D01*
X145321675Y-133530481D02*
X144381522Y-133950138D01*
X145234519Y-134526675D02*
X145321675Y-133530481D01*
X147404359Y-134967467D02*
X147535092Y-133473174D01*
X142024908Y-134496826D02*
X142155641Y-133002533D01*
X147404359Y-134967467D02*
X142024908Y-134496826D01*
X142155641Y-133002533D02*
X147535092Y-133473174D01*
X164380641Y-98585533D02*
X169760092Y-99056174D01*
X169629359Y-100550467D02*
X164249908Y-100079826D01*
X164249908Y-100079826D02*
X164380641Y-98585533D01*
X169629359Y-100550467D02*
X169760092Y-99056174D01*
X167459519Y-100109675D02*
X167546675Y-99113481D01*
X167546675Y-99113481D02*
X166606522Y-99533138D01*
X166606522Y-99533138D02*
X167459519Y-100109675D01*
X166463325Y-100022519D02*
X166550481Y-99026325D01*
X164685325Y-119072519D02*
X164772481Y-118076325D01*
X164828522Y-118583138D02*
X165681519Y-119159675D01*
X165768675Y-118163481D02*
X164828522Y-118583138D01*
X165681519Y-119159675D02*
X165768675Y-118163481D01*
X167851359Y-119600467D02*
X167982092Y-118106174D01*
X162471908Y-119129826D02*
X162602641Y-117635533D01*
X167851359Y-119600467D02*
X162471908Y-119129826D01*
X162602641Y-117635533D02*
X167982092Y-118106174D01*
X163034325Y-137995519D02*
X163121481Y-136999325D01*
X163177522Y-137506138D02*
X164030519Y-138082675D01*
X164117675Y-137086481D02*
X163177522Y-137506138D01*
X164030519Y-138082675D02*
X164117675Y-137086481D01*
X166200359Y-138523467D02*
X166331092Y-137029174D01*
X160820908Y-138052826D02*
X160951641Y-136558533D01*
X166200359Y-138523467D02*
X160820908Y-138052826D01*
X160951641Y-136558533D02*
X166331092Y-137029174D01*
X185259325Y-103578519D02*
X185346481Y-102582325D01*
X185402522Y-103089138D02*
X186255519Y-103665675D01*
X186342675Y-102669481D02*
X185402522Y-103089138D01*
X186255519Y-103665675D02*
X186342675Y-102669481D01*
X188425359Y-104106467D02*
X188556092Y-102612174D01*
X183045908Y-103635826D02*
X183176641Y-102141533D01*
X188425359Y-104106467D02*
X183045908Y-103635826D01*
X183176641Y-102141533D02*
X188556092Y-102612174D01*
X181525641Y-121064533D02*
X186905092Y-121535174D01*
X186774359Y-123029467D02*
X181394908Y-122558826D01*
X181394908Y-122558826D02*
X181525641Y-121064533D01*
X186774359Y-123029467D02*
X186905092Y-121535174D01*
X184604519Y-122588675D02*
X184691675Y-121592481D01*
X184691675Y-121592481D02*
X183751522Y-122012138D01*
X183751522Y-122012138D02*
X184604519Y-122588675D01*
X183608325Y-122501519D02*
X183695481Y-121505325D01*
X179874641Y-140114533D02*
X185254092Y-140585174D01*
X185123359Y-142079467D02*
X179743908Y-141608826D01*
X179743908Y-141608826D02*
X179874641Y-140114533D01*
X185123359Y-142079467D02*
X185254092Y-140585174D01*
X182953519Y-141638675D02*
X183040675Y-140642481D01*
X183040675Y-140642481D02*
X182100522Y-141062138D01*
X182100522Y-141062138D02*
X182953519Y-141638675D01*
X181957325Y-141551519D02*
X182044481Y-140555325D01*
X173143641Y-158402533D02*
X178523092Y-158873174D01*
X178392359Y-160367467D02*
X173012908Y-159896826D01*
X173012908Y-159896826D02*
X173143641Y-158402533D01*
X178392359Y-160367467D02*
X178523092Y-158873174D01*
X176222519Y-159926675D02*
X176309675Y-158930481D01*
X176309675Y-158930481D02*
X175369522Y-159350138D01*
X175369522Y-159350138D02*
X176222519Y-159926675D01*
X175226325Y-159839519D02*
X175313481Y-158843325D01*
X220764908Y-103374174D02*
X226144359Y-102903533D01*
X226275092Y-104397826D02*
X220895641Y-104868467D01*
X220895641Y-104868467D02*
X220764908Y-103374174D01*
X226275092Y-104397826D02*
X226144359Y-102903533D01*
X224061675Y-104340519D02*
X223974519Y-103344325D01*
X223974519Y-103344325D02*
X223121522Y-103920862D01*
X223121522Y-103920862D02*
X224061675Y-104340519D01*
X223065481Y-104427675D02*
X222978325Y-103431481D01*
X222288908Y-122297174D02*
X227668359Y-121826533D01*
X227799092Y-123320826D02*
X222419641Y-123791467D01*
X222419641Y-123791467D02*
X222288908Y-122297174D01*
X227799092Y-123320826D02*
X227668359Y-121826533D01*
X225585675Y-123263519D02*
X225498519Y-122267325D01*
X225498519Y-122267325D02*
X224645522Y-122843862D01*
X224645522Y-122843862D02*
X225585675Y-123263519D01*
X224589481Y-123350675D02*
X224502325Y-122354481D01*
X226240481Y-142400675D02*
X226153325Y-141404481D01*
X226296522Y-141893862D02*
X227236675Y-142313519D01*
X227149519Y-141317325D02*
X226296522Y-141893862D01*
X227236675Y-142313519D02*
X227149519Y-141317325D01*
X229450092Y-142370826D02*
X229319359Y-140876533D01*
X224070641Y-142841467D02*
X223939908Y-141347174D01*
X229450092Y-142370826D02*
X224070641Y-142841467D01*
X223939908Y-141347174D02*
X229319359Y-140876533D01*
X230543908Y-159762174D02*
X235923359Y-159291533D01*
X236054092Y-160785826D02*
X230674641Y-161256467D01*
X230674641Y-161256467D02*
X230543908Y-159762174D01*
X236054092Y-160785826D02*
X235923359Y-159291533D01*
X233840675Y-160728519D02*
X233753519Y-159732325D01*
X233753519Y-159732325D02*
X232900522Y-160308862D01*
X232900522Y-160308862D02*
X233840675Y-160728519D01*
X232844481Y-160815675D02*
X232757325Y-159819481D01*
X241861481Y-100871675D02*
X241774325Y-99875481D01*
X241917522Y-100364862D02*
X242857675Y-100784519D01*
X242770519Y-99788325D02*
X241917522Y-100364862D01*
X242857675Y-100784519D02*
X242770519Y-99788325D01*
X245071092Y-100841826D02*
X244940359Y-99347533D01*
X239691641Y-101312467D02*
X239560908Y-99818174D01*
X245071092Y-100841826D02*
X239691641Y-101312467D01*
X239560908Y-99818174D02*
X244940359Y-99347533D01*
X243639481Y-119794675D02*
X243552325Y-118798481D01*
X243695522Y-119287862D02*
X244635675Y-119707519D01*
X244548519Y-118711325D02*
X243695522Y-119287862D01*
X244635675Y-119707519D02*
X244548519Y-118711325D01*
X246849092Y-119764826D02*
X246718359Y-118270533D01*
X241469641Y-120235467D02*
X241338908Y-118741174D01*
X246849092Y-119764826D02*
X241469641Y-120235467D01*
X241338908Y-118741174D02*
X246718359Y-118270533D01*
X242989908Y-137791174D02*
X248369359Y-137320533D01*
X248500092Y-138814826D02*
X243120641Y-139285467D01*
X243120641Y-139285467D02*
X242989908Y-137791174D01*
X248500092Y-138814826D02*
X248369359Y-137320533D01*
X246286675Y-138757519D02*
X246199519Y-137761325D01*
X246199519Y-137761325D02*
X245346522Y-138337862D01*
X245346522Y-138337862D02*
X246286675Y-138757519D01*
X245290481Y-138844675D02*
X245203325Y-137848481D01*
X258356908Y-96262174D02*
X263736359Y-95791533D01*
X263867092Y-97285826D02*
X258487641Y-97756467D01*
X258487641Y-97756467D02*
X258356908Y-96262174D01*
X263867092Y-97285826D02*
X263736359Y-95791533D01*
X261653675Y-97228519D02*
X261566519Y-96232325D01*
X261566519Y-96232325D02*
X260713522Y-96808862D01*
X260713522Y-96808862D02*
X261653675Y-97228519D01*
X260657481Y-97315675D02*
X260570325Y-96319481D01*
X260134908Y-115185174D02*
X265514359Y-114714533D01*
X265645092Y-116208826D02*
X260265641Y-116679467D01*
X260265641Y-116679467D02*
X260134908Y-115185174D01*
X265645092Y-116208826D02*
X265514359Y-114714533D01*
X263431675Y-116151519D02*
X263344519Y-115155325D01*
X263344519Y-115155325D02*
X262491522Y-115731862D01*
X262491522Y-115731862D02*
X263431675Y-116151519D01*
X262435481Y-116238675D02*
X262348325Y-115242481D01*
X263959481Y-135288675D02*
X263872325Y-134292481D01*
X264015522Y-134781862D02*
X264955675Y-135201519D01*
X264868519Y-134205325D02*
X264015522Y-134781862D01*
X264955675Y-135201519D02*
X264868519Y-134205325D01*
X267169092Y-135258826D02*
X267038359Y-133764533D01*
X261789641Y-135729467D02*
X261658908Y-134235174D01*
X267169092Y-135258826D02*
X261789641Y-135729467D01*
X261658908Y-134235174D02*
X267038359Y-133764533D01*
X279834481Y-97569675D02*
X279747325Y-96573481D01*
X279890522Y-97062862D02*
X280830675Y-97482519D01*
X280743519Y-96486325D02*
X279890522Y-97062862D01*
X280830675Y-97482519D02*
X280743519Y-96486325D01*
X283044092Y-97539826D02*
X282913359Y-96045533D01*
X277664641Y-98010467D02*
X277533908Y-96516174D01*
X283044092Y-97539826D02*
X277664641Y-98010467D01*
X277533908Y-96516174D02*
X282913359Y-96045533D01*
X279184908Y-115439174D02*
X284564359Y-114968533D01*
X284695092Y-116462826D02*
X279315641Y-116933467D01*
X279315641Y-116933467D02*
X279184908Y-115439174D01*
X284695092Y-116462826D02*
X284564359Y-114968533D01*
X282481675Y-116405519D02*
X282394519Y-115409325D01*
X282394519Y-115409325D02*
X281541522Y-115985862D01*
X281541522Y-115985862D02*
X282481675Y-116405519D01*
X281485481Y-116492675D02*
X281398325Y-115496481D01*
X280835908Y-134362174D02*
X286215359Y-133891533D01*
X286346092Y-135385826D02*
X280966641Y-135856467D01*
X280966641Y-135856467D02*
X280835908Y-134362174D01*
X286346092Y-135385826D02*
X286215359Y-133891533D01*
X284132675Y-135328519D02*
X284045519Y-134332325D01*
X284045519Y-134332325D02*
X283192522Y-134908862D01*
X283192522Y-134908862D02*
X284132675Y-135328519D01*
X283136481Y-135415675D02*
X283049325Y-134419481D01*
X298117662Y-113915174D02*
X303497113Y-113444533D01*
X303627846Y-114938826D02*
X298248395Y-115409467D01*
X298248395Y-115409467D02*
X298117662Y-113915174D01*
X303627846Y-114938826D02*
X303497113Y-113444533D01*
X301414429Y-114881519D02*
X301327273Y-113885325D01*
X301327273Y-113885325D02*
X300474276Y-114461862D01*
X300474276Y-114461862D02*
X301414429Y-114881519D01*
X300418235Y-114968675D02*
X300331079Y-113972481D01*
X302186481Y-133764675D02*
X302099325Y-132768481D01*
X302242522Y-133257862D02*
X303182675Y-133677519D01*
X303095519Y-132681325D02*
X302242522Y-133257862D01*
X303182675Y-133677519D02*
X303095519Y-132681325D01*
X305396092Y-133734826D02*
X305265359Y-132240533D01*
X300016641Y-134205467D02*
X299885908Y-132711174D01*
X305396092Y-133734826D02*
X300016641Y-134205467D01*
X299885908Y-132711174D02*
X305265359Y-132240533D01*
X315815325Y-149278481D02*
X316811519Y-149191325D01*
X316322138Y-149334522D02*
X315902481Y-150274675D01*
X316898675Y-150187519D02*
X316322138Y-149334522D01*
X315902481Y-150274675D02*
X316898675Y-150187519D01*
X315845174Y-152488092D02*
X317339467Y-152357359D01*
X315374533Y-147108641D02*
X316868826Y-146977908D01*
X315845174Y-152488092D02*
X315374533Y-147108641D01*
X316868826Y-146977908D02*
X317339467Y-152357359D01*
X210494380Y-145994380D02*
X210827714Y-145518190D01*
X211065809Y-145994380D02*
X211065809Y-144994380D01*
X210684857Y-144994380D01*
X210589619Y-145042000D01*
X210542000Y-145089619D01*
X210494380Y-145184857D01*
X210494380Y-145327714D01*
X210542000Y-145422952D01*
X210589619Y-145470571D01*
X210684857Y-145518190D01*
X211065809Y-145518190D01*
X210065809Y-145470571D02*
X209732476Y-145470571D01*
X209589619Y-145994380D02*
X210065809Y-145994380D01*
X210065809Y-144994380D01*
X209589619Y-144994380D01*
X209208666Y-145946761D02*
X209065809Y-145994380D01*
X208827714Y-145994380D01*
X208732476Y-145946761D01*
X208684857Y-145899142D01*
X208637238Y-145803904D01*
X208637238Y-145708666D01*
X208684857Y-145613428D01*
X208732476Y-145565809D01*
X208827714Y-145518190D01*
X209018190Y-145470571D01*
X209113428Y-145422952D01*
X209161047Y-145375333D01*
X209208666Y-145280095D01*
X209208666Y-145184857D01*
X209161047Y-145089619D01*
X209113428Y-145042000D01*
X209018190Y-144994380D01*
X208780095Y-144994380D01*
X208637238Y-145042000D01*
X208208666Y-145470571D02*
X207875333Y-145470571D01*
X207732476Y-145994380D02*
X208208666Y-145994380D01*
X208208666Y-144994380D01*
X207732476Y-144994380D01*
X207446761Y-144994380D02*
X206875333Y-144994380D01*
X207161047Y-145994380D02*
X207161047Y-144994380D01*
D18*
X204295952Y-125053285D02*
X204462619Y-124696142D01*
X204581666Y-125053285D02*
X204581666Y-124303285D01*
X204391190Y-124303285D01*
X204343571Y-124339000D01*
X204319761Y-124374714D01*
X204295952Y-124446142D01*
X204295952Y-124553285D01*
X204319761Y-124624714D01*
X204343571Y-124660428D01*
X204391190Y-124696142D01*
X204581666Y-124696142D01*
X203986428Y-124303285D02*
X203891190Y-124303285D01*
X203843571Y-124339000D01*
X203795952Y-124410428D01*
X203772142Y-124553285D01*
X203772142Y-124803285D01*
X203795952Y-124946142D01*
X203843571Y-125017571D01*
X203891190Y-125053285D01*
X203986428Y-125053285D01*
X204034047Y-125017571D01*
X204081666Y-124946142D01*
X204105476Y-124803285D01*
X204105476Y-124553285D01*
X204081666Y-124410428D01*
X204034047Y-124339000D01*
X203986428Y-124303285D01*
X203605476Y-124303285D02*
X203486428Y-125053285D01*
X203391190Y-124517571D01*
X203295952Y-125053285D01*
X203176904Y-124303285D01*
X202724523Y-125053285D02*
X203010238Y-125053285D01*
X202867380Y-125053285D02*
X202867380Y-124303285D01*
X202915000Y-124410428D01*
X202962619Y-124481857D01*
X203010238Y-124517571D01*
X219412619Y-127529857D02*
X219436428Y-127565571D01*
X219507857Y-127601285D01*
X219555476Y-127601285D01*
X219626904Y-127565571D01*
X219674523Y-127494142D01*
X219698333Y-127422714D01*
X219722142Y-127279857D01*
X219722142Y-127172714D01*
X219698333Y-127029857D01*
X219674523Y-126958428D01*
X219626904Y-126887000D01*
X219555476Y-126851285D01*
X219507857Y-126851285D01*
X219436428Y-126887000D01*
X219412619Y-126922714D01*
X219103095Y-126851285D02*
X219007857Y-126851285D01*
X218960238Y-126887000D01*
X218912619Y-126958428D01*
X218888809Y-127101285D01*
X218888809Y-127351285D01*
X218912619Y-127494142D01*
X218960238Y-127565571D01*
X219007857Y-127601285D01*
X219103095Y-127601285D01*
X219150714Y-127565571D01*
X219198333Y-127494142D01*
X219222142Y-127351285D01*
X219222142Y-127101285D01*
X219198333Y-126958428D01*
X219150714Y-126887000D01*
X219103095Y-126851285D01*
X218436428Y-127601285D02*
X218674523Y-127601285D01*
X218674523Y-126851285D01*
X218055476Y-127101285D02*
X218055476Y-127601285D01*
X218174523Y-126815571D02*
X218293571Y-127351285D01*
X217984047Y-127351285D01*
X204345952Y-127601285D02*
X204512619Y-127244142D01*
X204631666Y-127601285D02*
X204631666Y-126851285D01*
X204441190Y-126851285D01*
X204393571Y-126887000D01*
X204369761Y-126922714D01*
X204345952Y-126994142D01*
X204345952Y-127101285D01*
X204369761Y-127172714D01*
X204393571Y-127208428D01*
X204441190Y-127244142D01*
X204631666Y-127244142D01*
X204036428Y-126851285D02*
X203941190Y-126851285D01*
X203893571Y-126887000D01*
X203845952Y-126958428D01*
X203822142Y-127101285D01*
X203822142Y-127351285D01*
X203845952Y-127494142D01*
X203893571Y-127565571D01*
X203941190Y-127601285D01*
X204036428Y-127601285D01*
X204084047Y-127565571D01*
X204131666Y-127494142D01*
X204155476Y-127351285D01*
X204155476Y-127101285D01*
X204131666Y-126958428D01*
X204084047Y-126887000D01*
X204036428Y-126851285D01*
X203655476Y-126851285D02*
X203536428Y-127601285D01*
X203441190Y-127065571D01*
X203345952Y-127601285D01*
X203226904Y-126851285D01*
X203060238Y-126922714D02*
X203036428Y-126887000D01*
X202988809Y-126851285D01*
X202869761Y-126851285D01*
X202822142Y-126887000D01*
X202798333Y-126922714D01*
X202774523Y-126994142D01*
X202774523Y-127065571D01*
X202798333Y-127172714D01*
X203084047Y-127601285D01*
X202774523Y-127601285D01*
X219412619Y-130125357D02*
X219436428Y-130161071D01*
X219507857Y-130196785D01*
X219555476Y-130196785D01*
X219626904Y-130161071D01*
X219674523Y-130089642D01*
X219698333Y-130018214D01*
X219722142Y-129875357D01*
X219722142Y-129768214D01*
X219698333Y-129625357D01*
X219674523Y-129553928D01*
X219626904Y-129482500D01*
X219555476Y-129446785D01*
X219507857Y-129446785D01*
X219436428Y-129482500D01*
X219412619Y-129518214D01*
X219103095Y-129446785D02*
X219007857Y-129446785D01*
X218960238Y-129482500D01*
X218912619Y-129553928D01*
X218888809Y-129696785D01*
X218888809Y-129946785D01*
X218912619Y-130089642D01*
X218960238Y-130161071D01*
X219007857Y-130196785D01*
X219103095Y-130196785D01*
X219150714Y-130161071D01*
X219198333Y-130089642D01*
X219222142Y-129946785D01*
X219222142Y-129696785D01*
X219198333Y-129553928D01*
X219150714Y-129482500D01*
X219103095Y-129446785D01*
X218436428Y-130196785D02*
X218674523Y-130196785D01*
X218674523Y-129446785D01*
X218031666Y-129446785D02*
X218269761Y-129446785D01*
X218293571Y-129803928D01*
X218269761Y-129768214D01*
X218222142Y-129732500D01*
X218103095Y-129732500D01*
X218055476Y-129768214D01*
X218031666Y-129803928D01*
X218007857Y-129875357D01*
X218007857Y-130053928D01*
X218031666Y-130125357D01*
X218055476Y-130161071D01*
X218103095Y-130196785D01*
X218222142Y-130196785D01*
X218269761Y-130161071D01*
X218293571Y-130125357D01*
X204345952Y-130196785D02*
X204512619Y-129839642D01*
X204631666Y-130196785D02*
X204631666Y-129446785D01*
X204441190Y-129446785D01*
X204393571Y-129482500D01*
X204369761Y-129518214D01*
X204345952Y-129589642D01*
X204345952Y-129696785D01*
X204369761Y-129768214D01*
X204393571Y-129803928D01*
X204441190Y-129839642D01*
X204631666Y-129839642D01*
X204036428Y-129446785D02*
X203941190Y-129446785D01*
X203893571Y-129482500D01*
X203845952Y-129553928D01*
X203822142Y-129696785D01*
X203822142Y-129946785D01*
X203845952Y-130089642D01*
X203893571Y-130161071D01*
X203941190Y-130196785D01*
X204036428Y-130196785D01*
X204084047Y-130161071D01*
X204131666Y-130089642D01*
X204155476Y-129946785D01*
X204155476Y-129696785D01*
X204131666Y-129553928D01*
X204084047Y-129482500D01*
X204036428Y-129446785D01*
X203655476Y-129446785D02*
X203536428Y-130196785D01*
X203441190Y-129661071D01*
X203345952Y-130196785D01*
X203226904Y-129446785D01*
X203084047Y-129446785D02*
X202774523Y-129446785D01*
X202941190Y-129732500D01*
X202869761Y-129732500D01*
X202822142Y-129768214D01*
X202798333Y-129803928D01*
X202774523Y-129875357D01*
X202774523Y-130053928D01*
X202798333Y-130125357D01*
X202822142Y-130161071D01*
X202869761Y-130196785D01*
X203012619Y-130196785D01*
X203060238Y-130161071D01*
X203084047Y-130125357D01*
X219067380Y-132308428D02*
X218995952Y-132344142D01*
X218972142Y-132379857D01*
X218948333Y-132451285D01*
X218948333Y-132558428D01*
X218972142Y-132629857D01*
X218995952Y-132665571D01*
X219043571Y-132701285D01*
X219234047Y-132701285D01*
X219234047Y-131951285D01*
X219067380Y-131951285D01*
X219019761Y-131987000D01*
X218995952Y-132022714D01*
X218972142Y-132094142D01*
X218972142Y-132165571D01*
X218995952Y-132237000D01*
X219019761Y-132272714D01*
X219067380Y-132308428D01*
X219234047Y-132308428D01*
X218757857Y-132022714D02*
X218734047Y-131987000D01*
X218686428Y-131951285D01*
X218567380Y-131951285D01*
X218519761Y-131987000D01*
X218495952Y-132022714D01*
X218472142Y-132094142D01*
X218472142Y-132165571D01*
X218495952Y-132272714D01*
X218781666Y-132701285D01*
X218472142Y-132701285D01*
X203917380Y-132280428D02*
X203845952Y-132316142D01*
X203822142Y-132351857D01*
X203798333Y-132423285D01*
X203798333Y-132530428D01*
X203822142Y-132601857D01*
X203845952Y-132637571D01*
X203893571Y-132673285D01*
X204084047Y-132673285D01*
X204084047Y-131923285D01*
X203917380Y-131923285D01*
X203869761Y-131959000D01*
X203845952Y-131994714D01*
X203822142Y-132066142D01*
X203822142Y-132137571D01*
X203845952Y-132209000D01*
X203869761Y-132244714D01*
X203917380Y-132280428D01*
X204084047Y-132280428D01*
X203369761Y-132173285D02*
X203369761Y-132673285D01*
X203488809Y-131887571D02*
X203607857Y-132423285D01*
X203298333Y-132423285D01*
X203917380Y-134883928D02*
X203845952Y-134919642D01*
X203822142Y-134955357D01*
X203798333Y-135026785D01*
X203798333Y-135133928D01*
X203822142Y-135205357D01*
X203845952Y-135241071D01*
X203893571Y-135276785D01*
X204084047Y-135276785D01*
X204084047Y-134526785D01*
X203917380Y-134526785D01*
X203869761Y-134562500D01*
X203845952Y-134598214D01*
X203822142Y-134669642D01*
X203822142Y-134741071D01*
X203845952Y-134812500D01*
X203869761Y-134848214D01*
X203917380Y-134883928D01*
X204084047Y-134883928D01*
X203345952Y-134526785D02*
X203584047Y-134526785D01*
X203607857Y-134883928D01*
X203584047Y-134848214D01*
X203536428Y-134812500D01*
X203417380Y-134812500D01*
X203369761Y-134848214D01*
X203345952Y-134883928D01*
X203322142Y-134955357D01*
X203322142Y-135133928D01*
X203345952Y-135205357D01*
X203369761Y-135241071D01*
X203417380Y-135276785D01*
X203536428Y-135276785D01*
X203584047Y-135241071D01*
X203607857Y-135205357D01*
X219167380Y-134858428D02*
X219095952Y-134894142D01*
X219072142Y-134929857D01*
X219048333Y-135001285D01*
X219048333Y-135108428D01*
X219072142Y-135179857D01*
X219095952Y-135215571D01*
X219143571Y-135251285D01*
X219334047Y-135251285D01*
X219334047Y-134501285D01*
X219167380Y-134501285D01*
X219119761Y-134537000D01*
X219095952Y-134572714D01*
X219072142Y-134644142D01*
X219072142Y-134715571D01*
X219095952Y-134787000D01*
X219119761Y-134822714D01*
X219167380Y-134858428D01*
X219334047Y-134858428D01*
X218619761Y-134501285D02*
X218715000Y-134501285D01*
X218762619Y-134537000D01*
X218786428Y-134572714D01*
X218834047Y-134679857D01*
X218857857Y-134822714D01*
X218857857Y-135108428D01*
X218834047Y-135179857D01*
X218810238Y-135215571D01*
X218762619Y-135251285D01*
X218667380Y-135251285D01*
X218619761Y-135215571D01*
X218595952Y-135179857D01*
X218572142Y-135108428D01*
X218572142Y-134929857D01*
X218595952Y-134858428D01*
X218619761Y-134822714D01*
X218667380Y-134787000D01*
X218762619Y-134787000D01*
X218810238Y-134822714D01*
X218834047Y-134858428D01*
X218857857Y-134929857D01*
X219362619Y-117379857D02*
X219386428Y-117415571D01*
X219457857Y-117451285D01*
X219505476Y-117451285D01*
X219576904Y-117415571D01*
X219624523Y-117344142D01*
X219648333Y-117272714D01*
X219672142Y-117129857D01*
X219672142Y-117022714D01*
X219648333Y-116879857D01*
X219624523Y-116808428D01*
X219576904Y-116737000D01*
X219505476Y-116701285D01*
X219457857Y-116701285D01*
X219386428Y-116737000D01*
X219362619Y-116772714D01*
X219053095Y-116701285D02*
X218957857Y-116701285D01*
X218910238Y-116737000D01*
X218862619Y-116808428D01*
X218838809Y-116951285D01*
X218838809Y-117201285D01*
X218862619Y-117344142D01*
X218910238Y-117415571D01*
X218957857Y-117451285D01*
X219053095Y-117451285D01*
X219100714Y-117415571D01*
X219148333Y-117344142D01*
X219172142Y-117201285D01*
X219172142Y-116951285D01*
X219148333Y-116808428D01*
X219100714Y-116737000D01*
X219053095Y-116701285D01*
X218386428Y-117451285D02*
X218624523Y-117451285D01*
X218624523Y-116701285D01*
X218124523Y-116701285D02*
X218076904Y-116701285D01*
X218029285Y-116737000D01*
X218005476Y-116772714D01*
X217981666Y-116844142D01*
X217957857Y-116987000D01*
X217957857Y-117165571D01*
X217981666Y-117308428D01*
X218005476Y-117379857D01*
X218029285Y-117415571D01*
X218076904Y-117451285D01*
X218124523Y-117451285D01*
X218172142Y-117415571D01*
X218195952Y-117379857D01*
X218219761Y-117308428D01*
X218243571Y-117165571D01*
X218243571Y-116987000D01*
X218219761Y-116844142D01*
X218195952Y-116772714D01*
X218172142Y-116737000D01*
X218124523Y-116701285D01*
X204061142Y-117397571D02*
X203989714Y-117433285D01*
X203870666Y-117433285D01*
X203823047Y-117397571D01*
X203799238Y-117361857D01*
X203775428Y-117290428D01*
X203775428Y-117219000D01*
X203799238Y-117147571D01*
X203823047Y-117111857D01*
X203870666Y-117076142D01*
X203965904Y-117040428D01*
X204013523Y-117004714D01*
X204037333Y-116969000D01*
X204061142Y-116897571D01*
X204061142Y-116826142D01*
X204037333Y-116754714D01*
X204013523Y-116719000D01*
X203965904Y-116683285D01*
X203846857Y-116683285D01*
X203775428Y-116719000D01*
X203561142Y-117433285D02*
X203561142Y-116683285D01*
X203442095Y-116683285D01*
X203370666Y-116719000D01*
X203323047Y-116790428D01*
X203299238Y-116861857D01*
X203275428Y-117004714D01*
X203275428Y-117111857D01*
X203299238Y-117254714D01*
X203323047Y-117326142D01*
X203370666Y-117397571D01*
X203442095Y-117433285D01*
X203561142Y-117433285D01*
X203084952Y-117219000D02*
X202846857Y-117219000D01*
X203132571Y-117433285D02*
X202965904Y-116683285D01*
X202799238Y-117433285D01*
X219312619Y-119901857D02*
X219336428Y-119937571D01*
X219407857Y-119973285D01*
X219455476Y-119973285D01*
X219526904Y-119937571D01*
X219574523Y-119866142D01*
X219598333Y-119794714D01*
X219622142Y-119651857D01*
X219622142Y-119544714D01*
X219598333Y-119401857D01*
X219574523Y-119330428D01*
X219526904Y-119259000D01*
X219455476Y-119223285D01*
X219407857Y-119223285D01*
X219336428Y-119259000D01*
X219312619Y-119294714D01*
X219003095Y-119223285D02*
X218907857Y-119223285D01*
X218860238Y-119259000D01*
X218812619Y-119330428D01*
X218788809Y-119473285D01*
X218788809Y-119723285D01*
X218812619Y-119866142D01*
X218860238Y-119937571D01*
X218907857Y-119973285D01*
X219003095Y-119973285D01*
X219050714Y-119937571D01*
X219098333Y-119866142D01*
X219122142Y-119723285D01*
X219122142Y-119473285D01*
X219098333Y-119330428D01*
X219050714Y-119259000D01*
X219003095Y-119223285D01*
X218336428Y-119973285D02*
X218574523Y-119973285D01*
X218574523Y-119223285D01*
X217907857Y-119973285D02*
X218193571Y-119973285D01*
X218050714Y-119973285D02*
X218050714Y-119223285D01*
X218098333Y-119330428D01*
X218145952Y-119401857D01*
X218193571Y-119437571D01*
X204049238Y-119937571D02*
X203977809Y-119973285D01*
X203858761Y-119973285D01*
X203811142Y-119937571D01*
X203787333Y-119901857D01*
X203763523Y-119830428D01*
X203763523Y-119759000D01*
X203787333Y-119687571D01*
X203811142Y-119651857D01*
X203858761Y-119616142D01*
X203954000Y-119580428D01*
X204001619Y-119544714D01*
X204025428Y-119509000D01*
X204049238Y-119437571D01*
X204049238Y-119366142D01*
X204025428Y-119294714D01*
X204001619Y-119259000D01*
X203954000Y-119223285D01*
X203834952Y-119223285D01*
X203763523Y-119259000D01*
X203263523Y-119901857D02*
X203287333Y-119937571D01*
X203358761Y-119973285D01*
X203406380Y-119973285D01*
X203477809Y-119937571D01*
X203525428Y-119866142D01*
X203549238Y-119794714D01*
X203573047Y-119651857D01*
X203573047Y-119544714D01*
X203549238Y-119401857D01*
X203525428Y-119330428D01*
X203477809Y-119259000D01*
X203406380Y-119223285D01*
X203358761Y-119223285D01*
X203287333Y-119259000D01*
X203263523Y-119294714D01*
X202811142Y-119973285D02*
X203049238Y-119973285D01*
X203049238Y-119223285D01*
X219362619Y-122441857D02*
X219386428Y-122477571D01*
X219457857Y-122513285D01*
X219505476Y-122513285D01*
X219576904Y-122477571D01*
X219624523Y-122406142D01*
X219648333Y-122334714D01*
X219672142Y-122191857D01*
X219672142Y-122084714D01*
X219648333Y-121941857D01*
X219624523Y-121870428D01*
X219576904Y-121799000D01*
X219505476Y-121763285D01*
X219457857Y-121763285D01*
X219386428Y-121799000D01*
X219362619Y-121834714D01*
X219053095Y-121763285D02*
X218957857Y-121763285D01*
X218910238Y-121799000D01*
X218862619Y-121870428D01*
X218838809Y-122013285D01*
X218838809Y-122263285D01*
X218862619Y-122406142D01*
X218910238Y-122477571D01*
X218957857Y-122513285D01*
X219053095Y-122513285D01*
X219100714Y-122477571D01*
X219148333Y-122406142D01*
X219172142Y-122263285D01*
X219172142Y-122013285D01*
X219148333Y-121870428D01*
X219100714Y-121799000D01*
X219053095Y-121763285D01*
X218386428Y-122513285D02*
X218624523Y-122513285D01*
X218624523Y-121763285D01*
X218243571Y-121834714D02*
X218219761Y-121799000D01*
X218172142Y-121763285D01*
X218053095Y-121763285D01*
X218005476Y-121799000D01*
X217981666Y-121834714D01*
X217957857Y-121906142D01*
X217957857Y-121977571D01*
X217981666Y-122084714D01*
X218267380Y-122513285D01*
X217957857Y-122513285D01*
X204345952Y-122551285D02*
X204512619Y-122194142D01*
X204631666Y-122551285D02*
X204631666Y-121801285D01*
X204441190Y-121801285D01*
X204393571Y-121837000D01*
X204369761Y-121872714D01*
X204345952Y-121944142D01*
X204345952Y-122051285D01*
X204369761Y-122122714D01*
X204393571Y-122158428D01*
X204441190Y-122194142D01*
X204631666Y-122194142D01*
X204036428Y-121801285D02*
X203941190Y-121801285D01*
X203893571Y-121837000D01*
X203845952Y-121908428D01*
X203822142Y-122051285D01*
X203822142Y-122301285D01*
X203845952Y-122444142D01*
X203893571Y-122515571D01*
X203941190Y-122551285D01*
X204036428Y-122551285D01*
X204084047Y-122515571D01*
X204131666Y-122444142D01*
X204155476Y-122301285D01*
X204155476Y-122051285D01*
X204131666Y-121908428D01*
X204084047Y-121837000D01*
X204036428Y-121801285D01*
X203655476Y-121801285D02*
X203536428Y-122551285D01*
X203441190Y-122015571D01*
X203345952Y-122551285D01*
X203226904Y-121801285D01*
X202941190Y-121801285D02*
X202893571Y-121801285D01*
X202845952Y-121837000D01*
X202822142Y-121872714D01*
X202798333Y-121944142D01*
X202774523Y-122087000D01*
X202774523Y-122265571D01*
X202798333Y-122408428D01*
X202822142Y-122479857D01*
X202845952Y-122515571D01*
X202893571Y-122551285D01*
X202941190Y-122551285D01*
X202988809Y-122515571D01*
X203012619Y-122479857D01*
X203036428Y-122408428D01*
X203060238Y-122265571D01*
X203060238Y-122087000D01*
X203036428Y-121944142D01*
X203012619Y-121872714D01*
X202988809Y-121837000D01*
X202941190Y-121801285D01*
X219462619Y-125029857D02*
X219486428Y-125065571D01*
X219557857Y-125101285D01*
X219605476Y-125101285D01*
X219676904Y-125065571D01*
X219724523Y-124994142D01*
X219748333Y-124922714D01*
X219772142Y-124779857D01*
X219772142Y-124672714D01*
X219748333Y-124529857D01*
X219724523Y-124458428D01*
X219676904Y-124387000D01*
X219605476Y-124351285D01*
X219557857Y-124351285D01*
X219486428Y-124387000D01*
X219462619Y-124422714D01*
X219153095Y-124351285D02*
X219057857Y-124351285D01*
X219010238Y-124387000D01*
X218962619Y-124458428D01*
X218938809Y-124601285D01*
X218938809Y-124851285D01*
X218962619Y-124994142D01*
X219010238Y-125065571D01*
X219057857Y-125101285D01*
X219153095Y-125101285D01*
X219200714Y-125065571D01*
X219248333Y-124994142D01*
X219272142Y-124851285D01*
X219272142Y-124601285D01*
X219248333Y-124458428D01*
X219200714Y-124387000D01*
X219153095Y-124351285D01*
X218486428Y-125101285D02*
X218724523Y-125101285D01*
X218724523Y-124351285D01*
X218367380Y-124351285D02*
X218057857Y-124351285D01*
X218224523Y-124637000D01*
X218153095Y-124637000D01*
X218105476Y-124672714D01*
X218081666Y-124708428D01*
X218057857Y-124779857D01*
X218057857Y-124958428D01*
X218081666Y-125029857D01*
X218105476Y-125065571D01*
X218153095Y-125101285D01*
X218295952Y-125101285D01*
X218343571Y-125065571D01*
X218367380Y-125029857D01*
X203834952Y-114242500D02*
X203882571Y-114206785D01*
X203954000Y-114206785D01*
X204025428Y-114242500D01*
X204073047Y-114313928D01*
X204096857Y-114385357D01*
X204120666Y-114528214D01*
X204120666Y-114635357D01*
X204096857Y-114778214D01*
X204073047Y-114849642D01*
X204025428Y-114921071D01*
X203954000Y-114956785D01*
X203906380Y-114956785D01*
X203834952Y-114921071D01*
X203811142Y-114885357D01*
X203811142Y-114635357D01*
X203906380Y-114635357D01*
X203596857Y-114956785D02*
X203596857Y-114206785D01*
X203311142Y-114956785D01*
X203311142Y-114206785D01*
X203073047Y-114956785D02*
X203073047Y-114206785D01*
X202954000Y-114206785D01*
X202882571Y-114242500D01*
X202834952Y-114313928D01*
X202811142Y-114385357D01*
X202787333Y-114528214D01*
X202787333Y-114635357D01*
X202811142Y-114778214D01*
X202834952Y-114849642D01*
X202882571Y-114921071D01*
X202954000Y-114956785D01*
X203073047Y-114956785D01*
X219297166Y-114143285D02*
X219130500Y-114893285D01*
X218963833Y-114143285D01*
X218511452Y-114821857D02*
X218535261Y-114857571D01*
X218606690Y-114893285D01*
X218654309Y-114893285D01*
X218725738Y-114857571D01*
X218773357Y-114786142D01*
X218797166Y-114714714D01*
X218820976Y-114571857D01*
X218820976Y-114464714D01*
X218797166Y-114321857D01*
X218773357Y-114250428D01*
X218725738Y-114179000D01*
X218654309Y-114143285D01*
X218606690Y-114143285D01*
X218535261Y-114179000D01*
X218511452Y-114214714D01*
X218011452Y-114821857D02*
X218035261Y-114857571D01*
X218106690Y-114893285D01*
X218154309Y-114893285D01*
X218225738Y-114857571D01*
X218273357Y-114786142D01*
X218297166Y-114714714D01*
X218320976Y-114571857D01*
X218320976Y-114464714D01*
X218297166Y-114321857D01*
X218273357Y-114250428D01*
X218225738Y-114179000D01*
X218154309Y-114143285D01*
X218106690Y-114143285D01*
X218035261Y-114179000D01*
X218011452Y-114214714D01*
X203771452Y-111702500D02*
X203819071Y-111666785D01*
X203890500Y-111666785D01*
X203961928Y-111702500D01*
X204009547Y-111773928D01*
X204033357Y-111845357D01*
X204057166Y-111988214D01*
X204057166Y-112095357D01*
X204033357Y-112238214D01*
X204009547Y-112309642D01*
X203961928Y-112381071D01*
X203890500Y-112416785D01*
X203842880Y-112416785D01*
X203771452Y-112381071D01*
X203747642Y-112345357D01*
X203747642Y-112095357D01*
X203842880Y-112095357D01*
X203533357Y-112416785D02*
X203533357Y-111666785D01*
X203247642Y-112416785D01*
X203247642Y-111666785D01*
X203009547Y-112416785D02*
X203009547Y-111666785D01*
X202890500Y-111666785D01*
X202819071Y-111702500D01*
X202771452Y-111773928D01*
X202747642Y-111845357D01*
X202723833Y-111988214D01*
X202723833Y-112095357D01*
X202747642Y-112238214D01*
X202771452Y-112309642D01*
X202819071Y-112381071D01*
X202890500Y-112416785D01*
X203009547Y-112416785D01*
X218904309Y-112416785D02*
X219070976Y-112059642D01*
X219190023Y-112416785D02*
X219190023Y-111666785D01*
X218999547Y-111666785D01*
X218951928Y-111702500D01*
X218928119Y-111738214D01*
X218904309Y-111809642D01*
X218904309Y-111916785D01*
X218928119Y-111988214D01*
X218951928Y-112023928D01*
X218999547Y-112059642D01*
X219190023Y-112059642D01*
X218713833Y-112381071D02*
X218642404Y-112416785D01*
X218523357Y-112416785D01*
X218475738Y-112381071D01*
X218451928Y-112345357D01*
X218428119Y-112273928D01*
X218428119Y-112202500D01*
X218451928Y-112131071D01*
X218475738Y-112095357D01*
X218523357Y-112059642D01*
X218618595Y-112023928D01*
X218666214Y-111988214D01*
X218690023Y-111952500D01*
X218713833Y-111881071D01*
X218713833Y-111809642D01*
X218690023Y-111738214D01*
X218666214Y-111702500D01*
X218618595Y-111666785D01*
X218499547Y-111666785D01*
X218428119Y-111702500D01*
X218285261Y-111666785D02*
X217999547Y-111666785D01*
X218142404Y-112416785D02*
X218142404Y-111666785D01*
X204315000Y-109801285D02*
X204315000Y-109051285D01*
X204195952Y-109051285D01*
X204124523Y-109087000D01*
X204076904Y-109158428D01*
X204053095Y-109229857D01*
X204029285Y-109372714D01*
X204029285Y-109479857D01*
X204053095Y-109622714D01*
X204076904Y-109694142D01*
X204124523Y-109765571D01*
X204195952Y-109801285D01*
X204315000Y-109801285D01*
X203838809Y-109587000D02*
X203600714Y-109587000D01*
X203886428Y-109801285D02*
X203719761Y-109051285D01*
X203553095Y-109801285D01*
X203457857Y-109051285D02*
X203172142Y-109051285D01*
X203315000Y-109801285D02*
X203315000Y-109051285D01*
X203029285Y-109587000D02*
X202791190Y-109587000D01*
X203076904Y-109801285D02*
X202910238Y-109051285D01*
X202743571Y-109801285D01*
X219011452Y-109099000D02*
X219059071Y-109063285D01*
X219130500Y-109063285D01*
X219201928Y-109099000D01*
X219249547Y-109170428D01*
X219273357Y-109241857D01*
X219297166Y-109384714D01*
X219297166Y-109491857D01*
X219273357Y-109634714D01*
X219249547Y-109706142D01*
X219201928Y-109777571D01*
X219130500Y-109813285D01*
X219082880Y-109813285D01*
X219011452Y-109777571D01*
X218987642Y-109741857D01*
X218987642Y-109491857D01*
X219082880Y-109491857D01*
X218773357Y-109813285D02*
X218773357Y-109063285D01*
X218487642Y-109813285D01*
X218487642Y-109063285D01*
X218249547Y-109813285D02*
X218249547Y-109063285D01*
X218130500Y-109063285D01*
X218059071Y-109099000D01*
X218011452Y-109170428D01*
X217987642Y-109241857D01*
X217963833Y-109384714D01*
X217963833Y-109491857D01*
X217987642Y-109634714D01*
X218011452Y-109706142D01*
X218059071Y-109777571D01*
X218130500Y-109813285D01*
X218249547Y-109813285D01*
X203736428Y-107273285D02*
X203974523Y-107273285D01*
X203974523Y-106523285D01*
X203569761Y-106880428D02*
X203403095Y-106880428D01*
X203331666Y-107273285D02*
X203569761Y-107273285D01*
X203569761Y-106523285D01*
X203331666Y-106523285D01*
X203117380Y-107273285D02*
X203117380Y-106523285D01*
X202998333Y-106523285D01*
X202926904Y-106559000D01*
X202879285Y-106630428D01*
X202855476Y-106701857D01*
X202831666Y-106844714D01*
X202831666Y-106951857D01*
X202855476Y-107094714D01*
X202879285Y-107166142D01*
X202926904Y-107237571D01*
X202998333Y-107273285D01*
X203117380Y-107273285D01*
X218975738Y-107273285D02*
X219142404Y-106916142D01*
X219261452Y-107273285D02*
X219261452Y-106523285D01*
X219070976Y-106523285D01*
X219023357Y-106559000D01*
X218999547Y-106594714D01*
X218975738Y-106666142D01*
X218975738Y-106773285D01*
X218999547Y-106844714D01*
X219023357Y-106880428D01*
X219070976Y-106916142D01*
X219261452Y-106916142D01*
X218785261Y-107059000D02*
X218547166Y-107059000D01*
X218832880Y-107273285D02*
X218666214Y-106523285D01*
X218499547Y-107273285D01*
X218380500Y-106523285D02*
X218261452Y-107273285D01*
X218166214Y-106737571D01*
X218070976Y-107273285D01*
X217951928Y-106523285D01*
D10*
M02*
