M48
; DRILL file {KiCad (5.1.7)-1} date 03/21/21 19:43:56
; FORMAT={-:-/ absolute / metric / decimal}
; #@! TF.CreationDate,2021-03-21T19:43:56+09:00
; #@! TF.GenerationSoftware,Kicad,Pcbnew,(5.1.7)-1
; #@! TF.FileFunction,NonPlated,1,2,NPTH
FMAT,2
METRIC
T1C1.900
T2C3.000
T3C4.100
%
G90
G05
T1
X283.483Y-143.064
X293.605Y-142.178
X264.433Y-142.81
X274.555Y-141.924
X124.139Y-142.157
X134.261Y-143.043
X304.184Y-160.336
X314.306Y-159.45
X184.296Y-111.063
X194.418Y-111.949
X280.181Y-105.091
X290.303Y-104.205
X243.939Y-127.343
X254.061Y-126.457
X174.263Y-167.451
X184.385Y-168.337
X180.939Y-149.057
X191.061Y-149.943
X163.739Y-126.457
X173.861Y-127.343
X242.208Y-108.393
X252.33Y-107.507
X182.539Y-130.057
X192.661Y-130.943
X162.139Y-145.48
X172.261Y-146.366
X106.826Y-121.477
X116.948Y-122.363
X300.882Y-122.363
X311.004Y-121.477
X223.412Y-111.949
X233.534Y-111.063
X143.275Y-141.924
X153.397Y-142.81
X226.714Y-149.922
X236.836Y-149.036
X245.51Y-146.366
X255.632Y-145.48
X262.739Y-123.76
X272.861Y-122.874
X144.939Y-122.957
X155.061Y-123.843
X302.533Y-141.343
X312.655Y-140.457
X125.824Y-123.142
X135.946Y-124.027
X225.063Y-130.872
X235.185Y-129.986
X261.039Y-104.837
X271.161Y-103.951
X103.524Y-159.45
X113.646Y-160.336
X127.439Y-104.157
X137.561Y-105.043
X105.139Y-140.457
X115.261Y-141.343
X281.832Y-124.014
X291.954Y-123.128
X165.439Y-107.457
X175.561Y-108.343
X146.639Y-103.951
X156.761Y-104.837
X233.445Y-168.337
X243.567Y-167.451
T2
X284.527Y-140.423
X290.632Y-137.339
X265.477Y-140.169
X271.582Y-137.085
X125.626Y-139.738
X132.173Y-137.761
X305.228Y-157.695
X311.333Y-154.611
X185.783Y-108.644
X192.33Y-106.667
X281.225Y-102.45
X287.33Y-99.366
X244.983Y-124.702
X251.088Y-121.618
X175.75Y-165.032
X182.297Y-163.055
X182.426Y-146.638
X188.973Y-144.661
X165.226Y-124.038
X171.773Y-122.061
X243.252Y-105.752
X249.357Y-102.668
X184.026Y-127.638
X190.573Y-125.661
X163.626Y-143.061
X170.173Y-141.084
X108.313Y-119.058
X114.86Y-117.081
X301.926Y-119.722
X308.031Y-116.638
X224.456Y-109.308
X230.561Y-106.224
X144.762Y-139.505
X151.309Y-137.528
X227.758Y-147.281
X233.863Y-144.197
X246.554Y-143.725
X252.659Y-140.641
X263.783Y-121.119
X269.888Y-118.035
X146.426Y-120.538
X152.973Y-118.561
X303.577Y-138.702
X309.682Y-135.618
X127.311Y-120.722
X133.858Y-118.745
X226.107Y-128.231
X232.212Y-125.147
X262.083Y-102.196
X268.188Y-99.112
X105.011Y-157.031
X111.558Y-155.054
X128.926Y-101.738
X135.473Y-99.761
X106.626Y-138.038
X113.173Y-136.061
X282.876Y-121.373
X288.981Y-118.289
X166.926Y-105.038
X173.473Y-103.061
X148.126Y-101.532
X154.673Y-99.555
X234.489Y-165.696
X240.594Y-162.612
T3
X150.0Y-123.4
X307.594Y-140.9
X130.885Y-123.584
X230.124Y-130.429
X266.1Y-104.394
X108.585Y-159.893
X132.5Y-104.6
X110.2Y-140.9
X286.893Y-123.571
X170.5Y-107.9
X151.7Y-104.394
X238.506Y-167.894
X288.544Y-142.621
X269.494Y-142.367
X129.2Y-142.6
X309.245Y-159.893
X189.357Y-111.506
X285.242Y-104.648
X249.0Y-126.9
X179.324Y-167.894
X186.0Y-149.5
X168.8Y-126.9
X247.269Y-107.95
X187.6Y-130.5
X167.2Y-145.923
X111.887Y-121.92
X305.943Y-121.92
X228.473Y-111.506
X148.336Y-142.367
X231.775Y-149.479
X250.571Y-145.923
X267.8Y-123.317
T0
M30
