  0
SECTION
  2
HEADER
  9
$ACADVER
  1
AC1014
  9
$HANDSEED
  5
FFFF
  9
$MEASUREMENT
 70
     1
  0
ENDSEC
  0
SECTION
  2
TABLES
  0
TABLE
  2
VPORT
  5
8
330
0
100
AcDbSymbolTable
 70
     4
  0
VPORT
  5
2E
330
8
100
AcDbSymbolTableRecord
100
AcDbViewportTableRecord
  2
*ACTIVE
 70
     0
 10
0.0
 20
0.0
 11
1.0
 21
1.0
 12
210.0
 22
148.5
 13
0.0
 23
0.0
 14
10.0
 24
10.0
 15
10.0
 25
10.0
 16
0.0
 26
0.0
 36
1.0
 17
0.0
 27
0.0
 37
0.0
 40
341.0
 41
1.24
 42
50.0
 43
0.0
 44
0.0
 50
0.0
 51
0.0
 71
     0
 72
   100
 73
     1
 74
     3
 75
     0
 76
     0
 77
     0
 78
     0
  0
ENDTAB
  0
TABLE
  2
LTYPE
  5
5
330
0
100
AcDbSymbolTable
 70
     1
  0
LTYPE
  5
14
330
5
100
AcDbSymbolTableRecord
100
AcDbLinetypeTableRecord
  2
BYBLOCK
 70
     0
  3

 72
    65
 73
     0
 40
0.0
  0
LTYPE
  5
15
330
5
100
AcDbSymbolTableRecord
100
AcDbLinetypeTableRecord
  2
BYLAYER
 70
     0
  3

 72
    65
 73
     0
 40
0.0
  0
LTYPE
  5
16
330
5
100
AcDbSymbolTableRecord
100
AcDbLinetypeTableRecord
  2
CONTINUOUS
 70
     0
  3
Solid line
 72
    65
 73
     0
 40
0.0
  0
ENDTAB
  0
TABLE
  2
LAYER
  5
2
100
AcDbSymbolTable
 70
2
  0
LAYER
  5
50
100
AcDbSymbolTableRecord
100
AcDbLayerTableRecord
  2
0
 70
0
  6
CONTINUOUS
  0
LAYER
  5
51
100
AcDbSymbolTableRecord
100
AcDbLayerTableRecord
  2
レイヤー_1
 70
0
  6
CONTINUOUS
  0
ENDTAB
  0
TABLE
  2
STYLE
  5
3
330
0
100
AcDbSymbolTable
 70
     1
  0
STYLE
  5
11
330
3
100
AcDbSymbolTableRecord
100
AcDbTextStyleTableRecord
  2
STANDARD
 70
     0
 40
0.0
 41
1.0
 50
0.0
 71
     0
 42
2.5
  3
txt
  4

  0
ENDTAB
  0
TABLE
  2
VIEW
  5
6
330
0
100
AcDbSymbolTable
 70
     0
  0
ENDTAB
  0
TABLE
  2
UCS
  5
7
330
0
100
AcDbSymbolTable
 70
     0
  0
ENDTAB
  0
TABLE
  2
APPID
  5
9
330
0
100
AcDbSymbolTable
 70
     2
  0
APPID
  5
12
330
9
100
AcDbSymbolTableRecord
100
AcDbRegAppTableRecord
  2
ACAD
 70
     0
  0
ENDTAB
  0
TABLE
  2
DIMSTYLE
  5
A
330
0
100
AcDbSymbolTable
 70
     1
  0
DIMSTYLE
105
27
330
A
100
AcDbSymbolTableRecord
100
AcDbDimStyleTableRecord
  2
ISO-25
 70
     0
  3

  4

  5

  6

  7

 40
1.0
 41
2.5
 42
0.625
 43
3.75
 44
1.25
 45
0.0
 46
0.0
 47
0.0
 48
0.0
140
2.5
141
2.5
142
0.0
143
0.03937007874016
144
1.0
145
0.0
146
1.0
147
0.625
 71
     0
 72
     0
 73
     0
 74
     0
 75
     0
 76
     0
 77
     1
 78
     8
170
     0
171
     3
172
     1
173
     0
174
     0
175
     0
176
     0
177
     0
178
     0
270
     2
271
     2
272
     2
273
     2
274
     3
340
11
275
     0
280
     0
281
     0
282
     0
283
     0
284
     8
285
     0
286
     0
287
     3
288
     0
  0
ENDTAB
  0
TABLE
  2
BLOCK_RECORD
  5
1
330
0
100
AcDbSymbolTable
 70
     1
  0
BLOCK_RECORD
  5
1F
330
1
100
AcDbSymbolTableRecord
100
AcDbBlockTableRecord
  2
*MODEL_SPACE
  0
BLOCK_RECORD
  5
1B
330
1
100
AcDbSymbolTableRecord
100
AcDbBlockTableRecord
  2
*PAPER_SPACE
  0
ENDTAB
  0
ENDSEC
  0
SECTION
  2
BLOCKS
  0
BLOCK
  5
20
330
1F
100
AcDbEntity
  8
0
100
AcDbBlockBegin
  2
*MODEL_SPACE
 70
     0
 10
0.0
 20
0.0
 30
0.0
  3
*MODEL_SPACE
  1

  0
ENDBLK
  5
21
330
1F
100
AcDbEntity
  8
0
100
AcDbBlockEnd
  0
BLOCK
  5
1C
330
1B
100
AcDbEntity
 67
     1
  8
0
100
AcDbBlockBegin
  2
*PAPER_SPACE
  1

  0
ENDBLK
  5
1D
330
1B
100
AcDbEntity
 67
     1
  8
0
100
AcDbBlockEnd
  0
ENDSEC
  0
SECTION
  2
ENTITIES
  0
LWPOLYLINE
  5
100
100
AcDbEntity
  8
レイヤー_1
 62
1
100
AcDbPolyline
 90
2
 70
0
 10
58.403094
 20
152.498360
 30
0.0
 10
59.966874
 20
149.777830
 30
0.0
  0
LWPOLYLINE
  5
101
100
AcDbEntity
  8
レイヤー_1
 62
1
100
AcDbPolyline
 90
2
 70
0
 10
53.904614
 20
160.295760
 30
0.0
 10
55.468384
 20
157.575230
 30
0.0
  0
LWPOLYLINE
  5
102
100
AcDbEntity
  8
レイヤー_1
 62
1
100
AcDbPolyline
 90
2
 70
0
 10
46.311128
 20
145.521410
 30
0.0
 10
47.896338
 20
142.800880
 30
0.0
  0
LWPOLYLINE
  5
103
100
AcDbEntity
  8
レイヤー_1
 62
1
100
AcDbPolyline
 90
3
 70
1
 10
41.812658
 20
153.318780
 30
0.0
 10
43.376418
 20
150.598280
 30
0.0
 10
43.376418
 20
150.598280
 30
0.0
  0
LWPOLYLINE
  5
104
100
AcDbEntity
  8
レイヤー_1
 62
1
100
AcDbPolyline
 90
2
 70
0
 10
53.454754
 20
161.088330
 30
0.0
 10
53.904604
 20
160.295760
 30
0.0
  0
LWPOLYLINE
  5
105
100
AcDbEntity
  8
レイヤー_1
 62
1
100
AcDbPolyline
 90
2
 70
0
 10
41.362798
 20
154.111370
 30
0.0
 10
53.454734
 20
161.088340
 30
0.0
  0
LWPOLYLINE
  5
106
100
AcDbEntity
  8
レイヤー_1
 62
1
100
AcDbPolyline
 90
2
 70
0
 10
41.812648
 20
153.318790
 30
0.0
 10
41.362788
 20
154.111380
 30
0.0
  0
LWPOLYLINE
  5
107
100
AcDbEntity
  8
レイヤー_1
 62
1
100
AcDbPolyline
 90
2
 70
0
 10
46.311118
 20
145.521420
 30
0.0
 10
43.376348
 20
150.598250
 30
0.0
  0
LWPOLYLINE
  5
108
100
AcDbEntity
  8
レイヤー_1
 62
1
100
AcDbPolyline
 90
2
 70
0
 10
48.346108
 20
142.008290
 30
0.0
 10
47.896258
 20
142.800860
 30
0.0
  0
LWPOLYLINE
  5
109
100
AcDbEntity
  8
レイヤー_1
 62
1
100
AcDbPolyline
 90
2
 70
0
 10
60.416694
 20
148.985250
 30
0.0
 10
48.346108
 20
142.008310
 30
0.0
  0
LWPOLYLINE
  5
10a
100
AcDbEntity
  8
レイヤー_1
 62
1
100
AcDbPolyline
 90
2
 70
0
 10
59.966814
 20
149.777840
 30
0.0
 10
60.416674
 20
148.985270
 30
0.0
  0
LWPOLYLINE
  5
10b
100
AcDbEntity
  8
レイヤー_1
 62
1
100
AcDbPolyline
 90
2
 70
0
 10
55.468294
 20
157.575230
 30
0.0
 10
58.403074
 20
152.498400
 30
0.0
  0
LWPOLYLINE
  5
10c
100
AcDbEntity
  8
レイヤー_1
 62
1
100
AcDbPolyline
 90
2
 70
0
 10
77.853634
 20
158.912760
 30
0.0
 10
78.667404
 20
155.871640
 30
0.0
  0
LWPOLYLINE
  5
10d
100
AcDbEntity
  8
レイヤー_1
 62
1
100
AcDbPolyline
 90
2
 70
0
 10
75.519054
 20
167.607690
 30
0.0
 10
76.332824
 20
164.566570
 30
0.0
  0
LWPOLYLINE
  5
10e
100
AcDbEntity
  8
レイヤー_1
 62
1
100
AcDbPolyline
 90
2
 70
0
 10
62.059734
 20
163.991420
 30
0.0
 10
62.873504
 20
160.950300
 30
0.0
  0
LWPOLYLINE
  5
10f
100
AcDbEntity
  8
レイヤー_1
 62
1
100
AcDbPolyline
 90
2
 70
0
 10
64.372644
 20
155.296430
 30
0.0
 10
65.207854
 20
152.255310
 30
0.0
  0
LWPOLYLINE
  5
110
100
AcDbEntity
  8
レイヤー_1
 62
1
100
AcDbPolyline
 90
2
 70
0
 10
75.304744
 20
168.485720
 30
0.0
 10
75.518944
 20
167.607660
 30
0.0
  0
LWPOLYLINE
  5
111
100
AcDbEntity
  8
レイヤー_1
 62
1
100
AcDbPolyline
 90
2
 70
0
 10
61.824104
 20
164.869480
 30
0.0
 10
75.304774
 20
168.485700
 30
0.0
  0
LWPOLYLINE
  5
112
100
AcDbEntity
  8
レイヤー_1
 62
1
100
AcDbPolyline
 90
2
 70
0
 10
62.059694
 20
163.991380
 30
0.0
 10
61.824114
 20
164.869460
 30
0.0
  0
LWPOLYLINE
  5
113
100
AcDbEntity
  8
レイヤー_1
 62
1
100
AcDbPolyline
 90
2
 70
0
 10
64.372654
 20
155.296410
 30
0.0
 10
62.873524
 20
160.950280
 30
0.0
  0
LWPOLYLINE
  5
114
100
AcDbEntity
  8
レイヤー_1
 62
1
100
AcDbPolyline
 90
2
 70
0
 10
65.443474
 20
151.377220
 30
0.0
 10
65.207894
 20
152.255300
 30
0.0
  0
LWPOLYLINE
  5
115
100
AcDbEntity
  8
レイヤー_1
 62
1
100
AcDbPolyline
 90
2
 70
0
 10
78.902734
 20
154.993480
 30
0.0
 10
65.443474
 20
151.377220
 30
0.0
  0
LWPOLYLINE
  5
116
100
AcDbEntity
  8
レイヤー_1
 62
1
100
AcDbPolyline
 90
2
 70
0
 10
78.667154
 20
155.871550
 30
0.0
 10
78.902734
 20
154.993470
 30
0.0
  0
LWPOLYLINE
  5
117
100
AcDbEntity
  8
レイヤー_1
 62
1
100
AcDbPolyline
 90
2
 70
0
 10
76.332824
 20
164.566540
 30
0.0
 10
77.853394
 20
158.912660
 30
0.0
  0
LWPOLYLINE
  5
118
100
AcDbEntity
  8
レイヤー_1
 62
1
100
AcDbPolyline
 90
2
 70
0
 10
85.518004
 20
159.651960
 30
0.0
 10
85.518004
 20
156.501560
 30
0.0
  0
LWPOLYLINE
  5
119
100
AcDbEntity
  8
レイヤー_1
 62
1
100
AcDbPolyline
 90
2
 70
0
 10
85.518004
 20
168.674530
 30
0.0
 10
85.518004
 20
165.524130
 30
0.0
  0
LWPOLYLINE
  5
11a
100
AcDbEntity
  8
レイヤー_1
 62
1
100
AcDbPolyline
 90
2
 70
0
 10
99.491214
 20
159.651960
 30
0.0
 10
99.491214
 20
156.501560
 30
0.0
  0
LWPOLYLINE
  5
11b
100
AcDbEntity
  8
レイヤー_1
 62
1
100
AcDbPolyline
 90
2
 70
0
 10
99.491214
 20
168.674530
 30
0.0
 10
99.491214
 20
165.524130
 30
0.0
  0
LWPOLYLINE
  5
11c
100
AcDbEntity
  8
レイヤー_1
 62
1
100
AcDbPolyline
 90
2
 70
0
 10
85.518004
 20
169.574650
 30
0.0
 10
99.491214
 20
169.574650
 30
0.0
  0
LWPOLYLINE
  5
11d
100
AcDbEntity
  8
レイヤー_1
 62
1
100
AcDbPolyline
 90
2
 70
0
 10
85.518004
 20
168.674530
 30
0.0
 10
85.518004
 20
169.574650
 30
0.0
  0
LWPOLYLINE
  5
11e
100
AcDbEntity
  8
レイヤー_1
 62
1
100
AcDbPolyline
 90
2
 70
0
 10
85.518004
 20
159.651960
 30
0.0
 10
85.518004
 20
165.524130
 30
0.0
  0
LWPOLYLINE
  5
11f
100
AcDbEntity
  8
レイヤー_1
 62
1
100
AcDbPolyline
 90
2
 70
0
 10
85.518004
 20
155.601440
 30
0.0
 10
85.518004
 20
156.501560
 30
0.0
  0
LWPOLYLINE
  5
120
100
AcDbEntity
  8
レイヤー_1
 62
1
100
AcDbPolyline
 90
2
 70
0
 10
99.491214
 20
155.601440
 30
0.0
 10
85.518004
 20
155.601440
 30
0.0
  0
LWPOLYLINE
  5
121
100
AcDbEntity
  8
レイヤー_1
 62
1
100
AcDbPolyline
 90
2
 70
0
 10
99.491214
 20
156.501560
 30
0.0
 10
99.491214
 20
155.601440
 30
0.0
  0
LWPOLYLINE
  5
122
100
AcDbEntity
  8
レイヤー_1
 62
1
100
AcDbPolyline
 90
2
 70
0
 10
99.491214
 20
165.524130
 30
0.0
 10
99.491214
 20
159.651960
 30
0.0
  0
LWPOLYLINE
  5
123
100
AcDbEntity
  8
レイヤー_1
 62
1
100
AcDbPolyline
 90
2
 70
0
 10
99.491214
 20
169.574650
 30
0.0
 10
99.491214
 20
168.674530
 30
0.0
  0
LWPOLYLINE
  5
124
100
AcDbEntity
  8
レイヤー_1
 62
1
100
AcDbPolyline
 90
2
 70
0
 10
152.192500
 20
167.271910
 30
0.0
 10
152.192500
 20
164.121480
 30
0.0
  0
LWPOLYLINE
  5
125
100
AcDbEntity
  8
レイヤー_1
 62
1
100
AcDbPolyline
 90
2
 70
0
 10
152.192500
 20
176.294480
 30
0.0
 10
152.192500
 20
173.144070
 30
0.0
  0
LWPOLYLINE
  5
126
100
AcDbEntity
  8
レイヤー_1
 62
1
100
AcDbPolyline
 90
2
 70
0
 10
166.165720
 20
167.271910
 30
0.0
 10
166.165720
 20
164.121480
 30
0.0
  0
LWPOLYLINE
  5
127
100
AcDbEntity
  8
レイヤー_1
 62
1
100
AcDbPolyline
 90
2
 70
0
 10
166.165720
 20
176.294480
 30
0.0
 10
166.165720
 20
173.144070
 30
0.0
  0
LWPOLYLINE
  5
128
100
AcDbEntity
  8
レイヤー_1
 62
1
100
AcDbPolyline
 90
2
 70
0
 10
152.192500
 20
177.194600
 30
0.0
 10
166.165720
 20
177.194600
 30
0.0
  0
LWPOLYLINE
  5
129
100
AcDbEntity
  8
レイヤー_1
 62
1
100
AcDbPolyline
 90
2
 70
0
 10
152.192500
 20
176.294480
 30
0.0
 10
152.192500
 20
177.194600
 30
0.0
  0
LWPOLYLINE
  5
12a
100
AcDbEntity
  8
レイヤー_1
 62
1
100
AcDbPolyline
 90
2
 70
0
 10
152.192500
 20
167.271910
 30
0.0
 10
152.192500
 20
173.144070
 30
0.0
  0
LWPOLYLINE
  5
12b
100
AcDbEntity
  8
レイヤー_1
 62
1
100
AcDbPolyline
 90
2
 70
0
 10
152.192500
 20
163.221390
 30
0.0
 10
152.192500
 20
164.121480
 30
0.0
  0
LWPOLYLINE
  5
12c
100
AcDbEntity
  8
レイヤー_1
 62
1
100
AcDbPolyline
 90
2
 70
0
 10
166.165720
 20
163.221390
 30
0.0
 10
152.192500
 20
163.221390
 30
0.0
  0
LWPOLYLINE
  5
12d
100
AcDbEntity
  8
レイヤー_1
 62
1
100
AcDbPolyline
 90
2
 70
0
 10
166.165720
 20
164.121480
 30
0.0
 10
166.165720
 20
163.221390
 30
0.0
  0
LWPOLYLINE
  5
12e
100
AcDbEntity
  8
レイヤー_1
 62
1
100
AcDbPolyline
 90
2
 70
0
 10
166.165720
 20
173.144070
 30
0.0
 10
166.165720
 20
167.271910
 30
0.0
  0
LWPOLYLINE
  5
12f
100
AcDbEntity
  8
レイヤー_1
 62
1
100
AcDbPolyline
 90
2
 70
0
 10
166.165720
 20
177.194600
 30
0.0
 10
166.165720
 20
176.294480
 30
0.0
  0
LWPOLYLINE
  5
130
100
AcDbEntity
  8
レイヤー_1
 62
1
100
AcDbPolyline
 90
2
 70
0
 10
133.142640
 20
167.271910
 30
0.0
 10
133.142640
 20
164.121480
 30
0.0
  0
LWPOLYLINE
  5
131
100
AcDbEntity
  8
レイヤー_1
 62
1
100
AcDbPolyline
 90
2
 70
0
 10
133.142640
 20
176.294480
 30
0.0
 10
133.142640
 20
173.144070
 30
0.0
  0
LWPOLYLINE
  5
132
100
AcDbEntity
  8
レイヤー_1
 62
1
100
AcDbPolyline
 90
2
 70
0
 10
147.115850
 20
167.271910
 30
0.0
 10
147.115850
 20
164.121480
 30
0.0
  0
LWPOLYLINE
  5
133
100
AcDbEntity
  8
レイヤー_1
 62
1
100
AcDbPolyline
 90
2
 70
0
 10
147.115850
 20
176.294480
 30
0.0
 10
147.115850
 20
173.144070
 30
0.0
  0
LWPOLYLINE
  5
134
100
AcDbEntity
  8
レイヤー_1
 62
1
100
AcDbPolyline
 90
2
 70
0
 10
133.142640
 20
177.194600
 30
0.0
 10
147.115850
 20
177.194600
 30
0.0
  0
LWPOLYLINE
  5
135
100
AcDbEntity
  8
レイヤー_1
 62
1
100
AcDbPolyline
 90
2
 70
0
 10
133.142640
 20
176.294480
 30
0.0
 10
133.142640
 20
177.194600
 30
0.0
  0
LWPOLYLINE
  5
136
100
AcDbEntity
  8
レイヤー_1
 62
1
100
AcDbPolyline
 90
2
 70
0
 10
133.142640
 20
167.271910
 30
0.0
 10
133.142640
 20
173.144070
 30
0.0
  0
LWPOLYLINE
  5
137
100
AcDbEntity
  8
レイヤー_1
 62
1
100
AcDbPolyline
 90
2
 70
0
 10
133.142640
 20
163.221390
 30
0.0
 10
133.142640
 20
164.121480
 30
0.0
  0
LWPOLYLINE
  5
138
100
AcDbEntity
  8
レイヤー_1
 62
1
100
AcDbPolyline
 90
2
 70
0
 10
147.115850
 20
163.221390
 30
0.0
 10
133.142640
 20
163.221390
 30
0.0
  0
LWPOLYLINE
  5
139
100
AcDbEntity
  8
レイヤー_1
 62
1
100
AcDbPolyline
 90
2
 70
0
 10
147.115850
 20
164.121480
 30
0.0
 10
147.115850
 20
163.221390
 30
0.0
  0
LWPOLYLINE
  5
13a
100
AcDbEntity
  8
レイヤー_1
 62
1
100
AcDbPolyline
 90
2
 70
0
 10
147.115850
 20
173.144070
 30
0.0
 10
147.115850
 20
167.271910
 30
0.0
  0
LWPOLYLINE
  5
13b
100
AcDbEntity
  8
レイヤー_1
 62
1
100
AcDbPolyline
 90
2
 70
0
 10
147.115850
 20
177.194600
 30
0.0
 10
147.115850
 20
176.294480
 30
0.0
  0
LWPOLYLINE
  5
13c
100
AcDbEntity
  8
レイヤー_1
 62
1
100
AcDbPolyline
 90
2
 70
0
 10
152.192500
 20
186.321750
 30
0.0
 10
152.192500
 20
183.171350
 30
0.0
  0
LWPOLYLINE
  5
13d
100
AcDbEntity
  8
レイヤー_1
 62
1
100
AcDbPolyline
 90
2
 70
0
 10
152.192500
 20
195.344350
 30
0.0
 10
152.192500
 20
192.193950
 30
0.0
  0
LWPOLYLINE
  5
13e
100
AcDbEntity
  8
レイヤー_1
 62
1
100
AcDbPolyline
 90
2
 70
0
 10
166.165720
 20
186.321750
 30
0.0
 10
166.165720
 20
183.171350
 30
0.0
  0
LWPOLYLINE
  5
13f
100
AcDbEntity
  8
レイヤー_1
 62
1
100
AcDbPolyline
 90
2
 70
0
 10
166.165720
 20
195.344350
 30
0.0
 10
166.165720
 20
192.193950
 30
0.0
  0
LWPOLYLINE
  5
140
100
AcDbEntity
  8
レイヤー_1
 62
1
100
AcDbPolyline
 90
2
 70
0
 10
152.192500
 20
196.244440
 30
0.0
 10
166.165720
 20
196.244440
 30
0.0
  0
LWPOLYLINE
  5
141
100
AcDbEntity
  8
レイヤー_1
 62
1
100
AcDbPolyline
 90
2
 70
0
 10
152.192500
 20
195.344350
 30
0.0
 10
152.192500
 20
196.244440
 30
0.0
  0
LWPOLYLINE
  5
142
100
AcDbEntity
  8
レイヤー_1
 62
1
100
AcDbPolyline
 90
2
 70
0
 10
152.192500
 20
186.321750
 30
0.0
 10
152.192500
 20
192.193950
 30
0.0
  0
LWPOLYLINE
  5
143
100
AcDbEntity
  8
レイヤー_1
 62
1
100
AcDbPolyline
 90
2
 70
0
 10
152.192500
 20
182.271230
 30
0.0
 10
152.192500
 20
183.171350
 30
0.0
  0
LWPOLYLINE
  5
144
100
AcDbEntity
  8
レイヤー_1
 62
1
100
AcDbPolyline
 90
2
 70
0
 10
166.165720
 20
182.271230
 30
0.0
 10
152.192500
 20
182.271230
 30
0.0
  0
LWPOLYLINE
  5
145
100
AcDbEntity
  8
レイヤー_1
 62
1
100
AcDbPolyline
 90
2
 70
0
 10
166.165720
 20
183.171350
 30
0.0
 10
166.165720
 20
182.271230
 30
0.0
  0
LWPOLYLINE
  5
146
100
AcDbEntity
  8
レイヤー_1
 62
1
100
AcDbPolyline
 90
2
 70
0
 10
166.165720
 20
192.193950
 30
0.0
 10
166.165720
 20
186.321750
 30
0.0
  0
LWPOLYLINE
  5
147
100
AcDbEntity
  8
レイヤー_1
 62
1
100
AcDbPolyline
 90
2
 70
0
 10
166.165720
 20
196.244440
 30
0.0
 10
166.165720
 20
195.344350
 30
0.0
  0
LWPOLYLINE
  5
148
100
AcDbEntity
  8
レイヤー_1
 62
1
100
AcDbPolyline
 90
2
 70
0
 10
133.142640
 20
186.321750
 30
0.0
 10
133.142640
 20
183.171350
 30
0.0
  0
LWPOLYLINE
  5
149
100
AcDbEntity
  8
レイヤー_1
 62
1
100
AcDbPolyline
 90
2
 70
0
 10
133.142640
 20
195.344350
 30
0.0
 10
133.142640
 20
192.193950
 30
0.0
  0
LWPOLYLINE
  5
14a
100
AcDbEntity
  8
レイヤー_1
 62
1
100
AcDbPolyline
 90
2
 70
0
 10
147.115850
 20
186.321750
 30
0.0
 10
147.115850
 20
183.171350
 30
0.0
  0
LWPOLYLINE
  5
14b
100
AcDbEntity
  8
レイヤー_1
 62
1
100
AcDbPolyline
 90
2
 70
0
 10
147.115850
 20
195.344350
 30
0.0
 10
147.115850
 20
192.193950
 30
0.0
  0
LWPOLYLINE
  5
14c
100
AcDbEntity
  8
レイヤー_1
 62
1
100
AcDbPolyline
 90
2
 70
0
 10
133.142640
 20
196.244440
 30
0.0
 10
147.115850
 20
196.244440
 30
0.0
  0
LWPOLYLINE
  5
14d
100
AcDbEntity
  8
レイヤー_1
 62
1
100
AcDbPolyline
 90
2
 70
0
 10
133.142640
 20
195.344350
 30
0.0
 10
133.142640
 20
196.244440
 30
0.0
  0
LWPOLYLINE
  5
14e
100
AcDbEntity
  8
レイヤー_1
 62
1
100
AcDbPolyline
 90
2
 70
0
 10
133.142640
 20
186.321750
 30
0.0
 10
133.142640
 20
192.193950
 30
0.0
  0
LWPOLYLINE
  5
14f
100
AcDbEntity
  8
レイヤー_1
 62
1
100
AcDbPolyline
 90
2
 70
0
 10
133.142640
 20
182.271230
 30
0.0
 10
133.142640
 20
183.171350
 30
0.0
  0
LWPOLYLINE
  5
150
100
AcDbEntity
  8
レイヤー_1
 62
1
100
AcDbPolyline
 90
2
 70
0
 10
147.115850
 20
182.271230
 30
0.0
 10
133.142640
 20
182.271230
 30
0.0
  0
LWPOLYLINE
  5
151
100
AcDbEntity
  8
レイヤー_1
 62
1
100
AcDbPolyline
 90
2
 70
0
 10
147.115850
 20
183.171350
 30
0.0
 10
147.115850
 20
182.271230
 30
0.0
  0
LWPOLYLINE
  5
152
100
AcDbEntity
  8
レイヤー_1
 62
1
100
AcDbPolyline
 90
2
 70
0
 10
147.115850
 20
192.193950
 30
0.0
 10
147.115850
 20
186.321750
 30
0.0
  0
LWPOLYLINE
  5
153
100
AcDbEntity
  8
レイヤー_1
 62
1
100
AcDbPolyline
 90
2
 70
0
 10
147.115850
 20
196.244440
 30
0.0
 10
147.115850
 20
195.344350
 30
0.0
  0
LWPOLYLINE
  5
154
100
AcDbEntity
  8
レイヤー_1
 62
1
100
AcDbPolyline
 90
2
 70
0
 10
152.192500
 20
205.371616
 30
0.0
 10
152.192500
 20
202.221226
 30
0.0
  0
LWPOLYLINE
  5
155
100
AcDbEntity
  8
レイヤー_1
 62
1
100
AcDbPolyline
 90
2
 70
0
 10
152.192500
 20
214.394196
 30
0.0
 10
152.192500
 20
211.243806
 30
0.0
  0
LWPOLYLINE
  5
156
100
AcDbEntity
  8
レイヤー_1
 62
1
100
AcDbPolyline
 90
2
 70
0
 10
166.165720
 20
205.371616
 30
0.0
 10
166.165720
 20
202.221226
 30
0.0
  0
LWPOLYLINE
  5
157
100
AcDbEntity
  8
レイヤー_1
 62
1
100
AcDbPolyline
 90
2
 70
0
 10
166.165720
 20
214.394196
 30
0.0
 10
166.165720
 20
211.243806
 30
0.0
  0
LWPOLYLINE
  5
158
100
AcDbEntity
  8
レイヤー_1
 62
1
100
AcDbPolyline
 90
2
 70
0
 10
152.192500
 20
215.294316
 30
0.0
 10
166.165720
 20
215.294316
 30
0.0
  0
LWPOLYLINE
  5
159
100
AcDbEntity
  8
レイヤー_1
 62
1
100
AcDbPolyline
 90
2
 70
0
 10
152.192500
 20
214.394196
 30
0.0
 10
152.192500
 20
215.294316
 30
0.0
  0
LWPOLYLINE
  5
15a
100
AcDbEntity
  8
レイヤー_1
 62
1
100
AcDbPolyline
 90
2
 70
0
 10
152.192500
 20
205.371616
 30
0.0
 10
152.192500
 20
211.243806
 30
0.0
  0
LWPOLYLINE
  5
15b
100
AcDbEntity
  8
レイヤー_1
 62
1
100
AcDbPolyline
 90
2
 70
0
 10
152.192500
 20
201.321106
 30
0.0
 10
152.192500
 20
202.221226
 30
0.0
  0
LWPOLYLINE
  5
15c
100
AcDbEntity
  8
レイヤー_1
 62
1
100
AcDbPolyline
 90
2
 70
0
 10
166.165720
 20
201.321106
 30
0.0
 10
152.192500
 20
201.321106
 30
0.0
  0
LWPOLYLINE
  5
15d
100
AcDbEntity
  8
レイヤー_1
 62
1
100
AcDbPolyline
 90
2
 70
0
 10
166.165720
 20
202.221226
 30
0.0
 10
166.165720
 20
201.321106
 30
0.0
  0
LWPOLYLINE
  5
15e
100
AcDbEntity
  8
レイヤー_1
 62
1
100
AcDbPolyline
 90
2
 70
0
 10
166.165720
 20
211.243806
 30
0.0
 10
166.165720
 20
205.371616
 30
0.0
  0
LWPOLYLINE
  5
15f
100
AcDbEntity
  8
レイヤー_1
 62
1
100
AcDbPolyline
 90
2
 70
0
 10
166.165720
 20
215.294316
 30
0.0
 10
166.165720
 20
214.394196
 30
0.0
  0
LWPOLYLINE
  5
160
100
AcDbEntity
  8
レイヤー_1
 62
1
100
AcDbPolyline
 90
2
 70
0
 10
133.142640
 20
205.371616
 30
0.0
 10
133.142640
 20
202.221226
 30
0.0
  0
LWPOLYLINE
  5
161
100
AcDbEntity
  8
レイヤー_1
 62
1
100
AcDbPolyline
 90
2
 70
0
 10
133.142640
 20
214.394196
 30
0.0
 10
133.142640
 20
211.243806
 30
0.0
  0
LWPOLYLINE
  5
162
100
AcDbEntity
  8
レイヤー_1
 62
1
100
AcDbPolyline
 90
2
 70
0
 10
147.115850
 20
205.371616
 30
0.0
 10
147.115850
 20
202.221226
 30
0.0
  0
LWPOLYLINE
  5
163
100
AcDbEntity
  8
レイヤー_1
 62
1
100
AcDbPolyline
 90
2
 70
0
 10
147.115850
 20
214.394196
 30
0.0
 10
147.115850
 20
211.243806
 30
0.0
  0
LWPOLYLINE
  5
164
100
AcDbEntity
  8
レイヤー_1
 62
1
100
AcDbPolyline
 90
2
 70
0
 10
133.142640
 20
215.294316
 30
0.0
 10
147.115850
 20
215.294316
 30
0.0
  0
LWPOLYLINE
  5
165
100
AcDbEntity
  8
レイヤー_1
 62
1
100
AcDbPolyline
 90
2
 70
0
 10
133.142640
 20
214.394196
 30
0.0
 10
133.142640
 20
215.294316
 30
0.0
  0
LWPOLYLINE
  5
166
100
AcDbEntity
  8
レイヤー_1
 62
1
100
AcDbPolyline
 90
2
 70
0
 10
133.142640
 20
205.371616
 30
0.0
 10
133.142640
 20
211.243806
 30
0.0
  0
LWPOLYLINE
  5
167
100
AcDbEntity
  8
レイヤー_1
 62
1
100
AcDbPolyline
 90
2
 70
0
 10
133.142640
 20
201.321106
 30
0.0
 10
133.142640
 20
202.221226
 30
0.0
  0
LWPOLYLINE
  5
168
100
AcDbEntity
  8
レイヤー_1
 62
1
100
AcDbPolyline
 90
2
 70
0
 10
147.115850
 20
201.321106
 30
0.0
 10
133.142640
 20
201.321106
 30
0.0
  0
LWPOLYLINE
  5
169
100
AcDbEntity
  8
レイヤー_1
 62
1
100
AcDbPolyline
 90
2
 70
0
 10
147.115850
 20
202.221226
 30
0.0
 10
147.115850
 20
201.321106
 30
0.0
  0
LWPOLYLINE
  5
16a
100
AcDbEntity
  8
レイヤー_1
 62
1
100
AcDbPolyline
 90
2
 70
0
 10
147.115850
 20
211.243806
 30
0.0
 10
147.115850
 20
205.371616
 30
0.0
  0
LWPOLYLINE
  5
16b
100
AcDbEntity
  8
レイヤー_1
 62
1
100
AcDbPolyline
 90
2
 70
0
 10
147.115850
 20
215.294316
 30
0.0
 10
147.115850
 20
214.394196
 30
0.0
  0
LWPOLYLINE
  5
16c
100
AcDbEntity
  8
レイヤー_1
 62
1
100
AcDbPolyline
 90
2
 70
0
 10
114.092790
 20
218.706536
 30
0.0
 10
114.092790
 20
215.556136
 30
0.0
  0
LWPOLYLINE
  5
16d
100
AcDbEntity
  8
レイヤー_1
 62
1
100
AcDbPolyline
 90
2
 70
0
 10
114.092790
 20
227.729141
 30
0.0
 10
114.092790
 20
224.578741
 30
0.0
  0
LWPOLYLINE
  5
16e
100
AcDbEntity
  8
レイヤー_1
 62
1
100
AcDbPolyline
 90
2
 70
0
 10
128.066000
 20
218.706536
 30
0.0
 10
128.066000
 20
215.556136
 30
0.0
  0
LWPOLYLINE
  5
16f
100
AcDbEntity
  8
レイヤー_1
 62
1
100
AcDbPolyline
 90
2
 70
0
 10
128.066000
 20
227.729141
 30
0.0
 10
128.066000
 20
224.578741
 30
0.0
  0
LWPOLYLINE
  5
170
100
AcDbEntity
  8
レイヤー_1
 62
1
100
AcDbPolyline
 90
2
 70
0
 10
114.092790
 20
228.629231
 30
0.0
 10
128.066000
 20
228.629231
 30
0.0
  0
LWPOLYLINE
  5
171
100
AcDbEntity
  8
レイヤー_1
 62
1
100
AcDbPolyline
 90
2
 70
0
 10
114.092790
 20
227.729141
 30
0.0
 10
114.092790
 20
228.629231
 30
0.0
  0
LWPOLYLINE
  5
172
100
AcDbEntity
  8
レイヤー_1
 62
1
100
AcDbPolyline
 90
2
 70
0
 10
114.092790
 20
218.706536
 30
0.0
 10
114.092790
 20
224.578741
 30
0.0
  0
LWPOLYLINE
  5
173
100
AcDbEntity
  8
レイヤー_1
 62
1
100
AcDbPolyline
 90
2
 70
0
 10
114.092790
 20
214.656016
 30
0.0
 10
114.092790
 20
215.556136
 30
0.0
  0
LWPOLYLINE
  5
174
100
AcDbEntity
  8
レイヤー_1
 62
1
100
AcDbPolyline
 90
2
 70
0
 10
128.066000
 20
214.656016
 30
0.0
 10
114.092790
 20
214.656016
 30
0.0
  0
LWPOLYLINE
  5
175
100
AcDbEntity
  8
レイヤー_1
 62
1
100
AcDbPolyline
 90
2
 70
0
 10
128.066000
 20
215.556136
 30
0.0
 10
128.066000
 20
214.656016
 30
0.0
  0
LWPOLYLINE
  5
176
100
AcDbEntity
  8
レイヤー_1
 62
1
100
AcDbPolyline
 90
2
 70
0
 10
128.066000
 20
224.578741
 30
0.0
 10
128.066000
 20
218.706536
 30
0.0
  0
LWPOLYLINE
  5
177
100
AcDbEntity
  8
レイヤー_1
 62
1
100
AcDbPolyline
 90
2
 70
0
 10
128.066000
 20
228.629231
 30
0.0
 10
128.066000
 20
227.729141
 30
0.0
  0
LWPOLYLINE
  5
178
100
AcDbEntity
  8
レイヤー_1
 62
1
100
AcDbPolyline
 90
2
 70
0
 10
95.042934
 20
220.611536
 30
0.0
 10
95.042934
 20
217.461106
 30
0.0
  0
LWPOLYLINE
  5
179
100
AcDbEntity
  8
レイヤー_1
 62
1
100
AcDbPolyline
 90
2
 70
0
 10
95.042934
 20
229.634111
 30
0.0
 10
95.042934
 20
226.483711
 30
0.0
  0
LWPOLYLINE
  5
17a
100
AcDbEntity
  8
レイヤー_1
 62
1
100
AcDbPolyline
 90
2
 70
0
 10
109.016140
 20
220.611536
 30
0.0
 10
109.016140
 20
217.461106
 30
0.0
  0
LWPOLYLINE
  5
17b
100
AcDbEntity
  8
レイヤー_1
 62
1
100
AcDbPolyline
 90
2
 70
0
 10
109.016140
 20
229.634111
 30
0.0
 10
109.016140
 20
226.483711
 30
0.0
  0
LWPOLYLINE
  5
17c
100
AcDbEntity
  8
レイヤー_1
 62
1
100
AcDbPolyline
 90
2
 70
0
 10
95.042934
 20
230.534231
 30
0.0
 10
109.016140
 20
230.534231
 30
0.0
  0
LWPOLYLINE
  5
17d
100
AcDbEntity
  8
レイヤー_1
 62
1
100
AcDbPolyline
 90
2
 70
0
 10
95.042934
 20
229.634111
 30
0.0
 10
95.042934
 20
230.534231
 30
0.0
  0
LWPOLYLINE
  5
17e
100
AcDbEntity
  8
レイヤー_1
 62
1
100
AcDbPolyline
 90
2
 70
0
 10
95.042934
 20
220.611536
 30
0.0
 10
95.042934
 20
226.483711
 30
0.0
  0
LWPOLYLINE
  5
17f
100
AcDbEntity
  8
レイヤー_1
 62
1
100
AcDbPolyline
 90
2
 70
0
 10
95.042934
 20
216.561016
 30
0.0
 10
95.042934
 20
217.461106
 30
0.0
  0
LWPOLYLINE
  5
180
100
AcDbEntity
  8
レイヤー_1
 62
1
100
AcDbPolyline
 90
2
 70
0
 10
109.016140
 20
216.561016
 30
0.0
 10
95.042934
 20
216.561016
 30
0.0
  0
LWPOLYLINE
  5
181
100
AcDbEntity
  8
レイヤー_1
 62
1
100
AcDbPolyline
 90
2
 70
0
 10
109.016140
 20
217.461106
 30
0.0
 10
109.016140
 20
216.561016
 30
0.0
  0
LWPOLYLINE
  5
182
100
AcDbEntity
  8
レイヤー_1
 62
1
100
AcDbPolyline
 90
2
 70
0
 10
109.016140
 20
226.483711
 30
0.0
 10
109.016140
 20
220.611536
 30
0.0
  0
LWPOLYLINE
  5
183
100
AcDbEntity
  8
レイヤー_1
 62
1
100
AcDbPolyline
 90
2
 70
0
 10
109.016140
 20
230.534231
 30
0.0
 10
109.016140
 20
229.634111
 30
0.0
  0
LWPOLYLINE
  5
184
100
AcDbEntity
  8
レイヤー_1
 62
1
100
AcDbPolyline
 90
2
 70
0
 10
75.993064
 20
218.706536
 30
0.0
 10
75.993064
 20
215.556136
 30
0.0
  0
LWPOLYLINE
  5
185
100
AcDbEntity
  8
レイヤー_1
 62
1
100
AcDbPolyline
 90
2
 70
0
 10
75.993064
 20
227.729141
 30
0.0
 10
75.993064
 20
224.578741
 30
0.0
  0
LWPOLYLINE
  5
186
100
AcDbEntity
  8
レイヤー_1
 62
1
100
AcDbPolyline
 90
2
 70
0
 10
89.966274
 20
218.706536
 30
0.0
 10
89.966274
 20
215.556136
 30
0.0
  0
LWPOLYLINE
  5
187
100
AcDbEntity
  8
レイヤー_1
 62
1
100
AcDbPolyline
 90
2
 70
0
 10
89.966274
 20
227.729141
 30
0.0
 10
89.966274
 20
224.578741
 30
0.0
  0
LWPOLYLINE
  5
188
100
AcDbEntity
  8
レイヤー_1
 62
1
100
AcDbPolyline
 90
2
 70
0
 10
75.993064
 20
228.629231
 30
0.0
 10
89.966274
 20
228.629231
 30
0.0
  0
LWPOLYLINE
  5
189
100
AcDbEntity
  8
レイヤー_1
 62
1
100
AcDbPolyline
 90
2
 70
0
 10
75.993064
 20
227.729141
 30
0.0
 10
75.993064
 20
228.629231
 30
0.0
  0
LWPOLYLINE
  5
18a
100
AcDbEntity
  8
レイヤー_1
 62
1
100
AcDbPolyline
 90
2
 70
0
 10
75.993064
 20
218.706536
 30
0.0
 10
75.993064
 20
224.578741
 30
0.0
  0
LWPOLYLINE
  5
18b
100
AcDbEntity
  8
レイヤー_1
 62
1
100
AcDbPolyline
 90
2
 70
0
 10
75.993064
 20
214.656016
 30
0.0
 10
75.993064
 20
215.556136
 30
0.0
  0
LWPOLYLINE
  5
18c
100
AcDbEntity
  8
レイヤー_1
 62
1
100
AcDbPolyline
 90
2
 70
0
 10
89.966274
 20
214.656016
 30
0.0
 10
75.993064
 20
214.656016
 30
0.0
  0
LWPOLYLINE
  5
18d
100
AcDbEntity
  8
レイヤー_1
 62
1
100
AcDbPolyline
 90
2
 70
0
 10
89.966274
 20
215.556136
 30
0.0
 10
89.966274
 20
214.656016
 30
0.0
  0
LWPOLYLINE
  5
18e
100
AcDbEntity
  8
レイヤー_1
 62
1
100
AcDbPolyline
 90
2
 70
0
 10
89.966274
 20
224.578741
 30
0.0
 10
89.966274
 20
218.706536
 30
0.0
  0
LWPOLYLINE
  5
18f
100
AcDbEntity
  8
レイヤー_1
 62
1
100
AcDbPolyline
 90
2
 70
0
 10
89.966274
 20
228.629231
 30
0.0
 10
89.966274
 20
227.729141
 30
0.0
  0
LWPOLYLINE
  5
190
100
AcDbEntity
  8
レイヤー_1
 62
1
100
AcDbPolyline
 90
2
 70
0
 10
56.943214
 20
216.801566
 30
0.0
 10
56.943214
 20
213.651166
 30
0.0
  0
LWPOLYLINE
  5
191
100
AcDbEntity
  8
レイヤー_1
 62
1
100
AcDbPolyline
 90
2
 70
0
 10
56.943214
 20
225.824141
 30
0.0
 10
56.943214
 20
222.673726
 30
0.0
  0
LWPOLYLINE
  5
192
100
AcDbEntity
  8
レイヤー_1
 62
1
100
AcDbPolyline
 90
2
 70
0
 10
70.916424
 20
216.801566
 30
0.0
 10
70.916424
 20
213.651166
 30
0.0
  0
LWPOLYLINE
  5
193
100
AcDbEntity
  8
レイヤー_1
 62
1
100
AcDbPolyline
 90
2
 70
0
 10
70.916424
 20
225.824141
 30
0.0
 10
70.916424
 20
222.673726
 30
0.0
  0
LWPOLYLINE
  5
194
100
AcDbEntity
  8
レイヤー_1
 62
1
100
AcDbPolyline
 90
2
 70
0
 10
56.943214
 20
226.724261
 30
0.0
 10
70.916424
 20
226.724261
 30
0.0
  0
LWPOLYLINE
  5
195
100
AcDbEntity
  8
レイヤー_1
 62
1
100
AcDbPolyline
 90
2
 70
0
 10
56.943214
 20
225.824141
 30
0.0
 10
56.943214
 20
226.724261
 30
0.0
  0
LWPOLYLINE
  5
196
100
AcDbEntity
  8
レイヤー_1
 62
1
100
AcDbPolyline
 90
2
 70
0
 10
56.943214
 20
216.801566
 30
0.0
 10
56.943214
 20
222.673726
 30
0.0
  0
LWPOLYLINE
  5
197
100
AcDbEntity
  8
レイヤー_1
 62
1
100
AcDbPolyline
 90
2
 70
0
 10
56.943214
 20
212.751046
 30
0.0
 10
56.943214
 20
213.651166
 30
0.0
  0
LWPOLYLINE
  5
198
100
AcDbEntity
  8
レイヤー_1
 62
1
100
AcDbPolyline
 90
2
 70
0
 10
70.916424
 20
212.751046
 30
0.0
 10
56.943214
 20
212.751046
 30
0.0
  0
LWPOLYLINE
  5
199
100
AcDbEntity
  8
レイヤー_1
 62
1
100
AcDbPolyline
 90
2
 70
0
 10
70.916424
 20
213.651166
 30
0.0
 10
70.916424
 20
212.751046
 30
0.0
  0
LWPOLYLINE
  5
19a
100
AcDbEntity
  8
レイヤー_1
 62
1
100
AcDbPolyline
 90
2
 70
0
 10
70.916424
 20
222.673726
 30
0.0
 10
70.916424
 20
216.801566
 30
0.0
  0
LWPOLYLINE
  5
19b
100
AcDbEntity
  8
レイヤー_1
 62
1
100
AcDbPolyline
 90
2
 70
0
 10
70.916424
 20
226.724261
 30
0.0
 10
70.916424
 20
225.824141
 30
0.0
  0
LWPOLYLINE
  5
19c
100
AcDbEntity
  8
レイヤー_1
 62
1
100
AcDbPolyline
 90
2
 70
0
 10
70.916424
 20
197.751676
 30
0.0
 10
70.916424
 20
194.601280
 30
0.0
  0
LWPOLYLINE
  5
19d
100
AcDbEntity
  8
レイヤー_1
 62
1
100
AcDbPolyline
 90
2
 70
0
 10
70.916424
 20
206.774276
 30
0.0
 10
70.916424
 20
203.623826
 30
0.0
  0
LWPOLYLINE
  5
19e
100
AcDbEntity
  8
レイヤー_1
 62
1
100
AcDbPolyline
 90
2
 70
0
 10
56.943214
 20
197.751676
 30
0.0
 10
56.943214
 20
194.601280
 30
0.0
  0
LWPOLYLINE
  5
19f
100
AcDbEntity
  8
レイヤー_1
 62
1
100
AcDbPolyline
 90
2
 70
0
 10
56.943214
 20
206.774276
 30
0.0
 10
56.943214
 20
203.623826
 30
0.0
  0
LWPOLYLINE
  5
1a0
100
AcDbEntity
  8
レイヤー_1
 62
1
100
AcDbPolyline
 90
3
 70
0
 10
56.943214
 20
206.774276
 30
0.0
 10
56.943214
 20
207.674376
 30
0.0
 10
70.916424
 20
207.674376
 30
0.0
  0
LWPOLYLINE
  5
1a1
100
AcDbEntity
  8
レイヤー_1
 62
1
100
AcDbPolyline
 90
2
 70
0
 10
56.943214
 20
197.751676
 30
0.0
 10
56.943214
 20
203.623826
 30
0.0
  0
LWPOLYLINE
  5
1a2
100
AcDbEntity
  8
レイヤー_1
 62
1
100
AcDbPolyline
 90
2
 70
0
 10
56.943214
 20
193.701170
 30
0.0
 10
56.943214
 20
194.601280
 30
0.0
  0
LWPOLYLINE
  5
1a3
100
AcDbEntity
  8
レイヤー_1
 62
1
100
AcDbPolyline
 90
2
 70
0
 10
70.916424
 20
193.701170
 30
0.0
 10
56.943214
 20
193.701170
 30
0.0
  0
LWPOLYLINE
  5
1a4
100
AcDbEntity
  8
レイヤー_1
 62
1
100
AcDbPolyline
 90
2
 70
0
 10
70.916424
 20
194.601280
 30
0.0
 10
70.916424
 20
193.701170
 30
0.0
  0
LWPOLYLINE
  5
1a5
100
AcDbEntity
  8
レイヤー_1
 62
1
100
AcDbPolyline
 90
2
 70
0
 10
70.916424
 20
203.623826
 30
0.0
 10
70.916424
 20
197.751676
 30
0.0
  0
LWPOLYLINE
  5
1a6
100
AcDbEntity
  8
レイヤー_1
 62
1
100
AcDbPolyline
 90
2
 70
0
 10
70.916424
 20
207.674376
 30
0.0
 10
70.916424
 20
206.774276
 30
0.0
  0
LWPOLYLINE
  5
1a7
100
AcDbEntity
  8
レイヤー_1
 62
1
100
AcDbPolyline
 90
2
 70
0
 10
89.966274
 20
199.656646
 30
0.0
 10
89.966274
 20
196.506260
 30
0.0
  0
LWPOLYLINE
  5
1a8
100
AcDbEntity
  8
レイヤー_1
 62
1
100
AcDbPolyline
 90
2
 70
0
 10
89.966274
 20
208.679256
 30
0.0
 10
89.966274
 20
205.528826
 30
0.0
  0
LWPOLYLINE
  5
1a9
100
AcDbEntity
  8
レイヤー_1
 62
1
100
AcDbPolyline
 90
2
 70
0
 10
75.993064
 20
199.656646
 30
0.0
 10
75.993064
 20
196.506260
 30
0.0
  0
LWPOLYLINE
  5
1aa
100
AcDbEntity
  8
レイヤー_1
 62
1
100
AcDbPolyline
 90
2
 70
0
 10
75.993064
 20
208.679256
 30
0.0
 10
75.993064
 20
205.528826
 30
0.0
  0
LWPOLYLINE
  5
1ab
100
AcDbEntity
  8
レイヤー_1
 62
1
100
AcDbPolyline
 90
2
 70
0
 10
75.993064
 20
209.579366
 30
0.0
 10
89.966274
 20
209.579366
 30
0.0
  0
LWPOLYLINE
  5
1ac
100
AcDbEntity
  8
レイヤー_1
 62
1
100
AcDbPolyline
 90
2
 70
0
 10
75.993064
 20
208.679256
 30
0.0
 10
75.993064
 20
209.579366
 30
0.0
  0
LWPOLYLINE
  5
1ad
100
AcDbEntity
  8
レイヤー_1
 62
1
100
AcDbPolyline
 90
2
 70
0
 10
75.993064
 20
199.656646
 30
0.0
 10
75.993064
 20
205.528826
 30
0.0
  0
LWPOLYLINE
  5
1ae
100
AcDbEntity
  8
レイヤー_1
 62
1
100
AcDbPolyline
 90
2
 70
0
 10
75.993064
 20
195.606170
 30
0.0
 10
75.993064
 20
196.506260
 30
0.0
  0
LWPOLYLINE
  5
1af
100
AcDbEntity
  8
レイヤー_1
 62
1
100
AcDbPolyline
 90
2
 70
0
 10
89.966274
 20
195.606170
 30
0.0
 10
75.993064
 20
195.606170
 30
0.0
  0
LWPOLYLINE
  5
1b0
100
AcDbEntity
  8
レイヤー_1
 62
1
100
AcDbPolyline
 90
2
 70
0
 10
89.966274
 20
196.506260
 30
0.0
 10
89.966274
 20
195.606170
 30
0.0
  0
LWPOLYLINE
  5
1b1
100
AcDbEntity
  8
レイヤー_1
 62
1
100
AcDbPolyline
 90
2
 70
0
 10
89.966274
 20
205.528826
 30
0.0
 10
89.966274
 20
199.656646
 30
0.0
  0
LWPOLYLINE
  5
1b2
100
AcDbEntity
  8
レイヤー_1
 62
1
100
AcDbPolyline
 90
2
 70
0
 10
89.966274
 20
209.579366
 30
0.0
 10
89.966274
 20
208.679256
 30
0.0
  0
LWPOLYLINE
  5
1b3
100
AcDbEntity
  8
レイヤー_1
 62
1
100
AcDbPolyline
 90
2
 70
0
 10
109.016140
 20
201.561646
 30
0.0
 10
109.016140
 20
198.411256
 30
0.0
  0
LWPOLYLINE
  5
1b4
100
AcDbEntity
  8
レイヤー_1
 62
1
100
AcDbPolyline
 90
2
 70
0
 10
109.016140
 20
210.584226
 30
0.0
 10
109.016140
 20
207.433836
 30
0.0
  0
LWPOLYLINE
  5
1b5
100
AcDbEntity
  8
レイヤー_1
 62
1
100
AcDbPolyline
 90
2
 70
0
 10
95.042934
 20
201.561646
 30
0.0
 10
95.042934
 20
198.411256
 30
0.0
  0
LWPOLYLINE
  5
1b6
100
AcDbEntity
  8
レイヤー_1
 62
1
100
AcDbPolyline
 90
2
 70
0
 10
95.042934
 20
210.584226
 30
0.0
 10
95.042934
 20
207.433836
 30
0.0
  0
LWPOLYLINE
  5
1b7
100
AcDbEntity
  8
レイヤー_1
 62
1
100
AcDbPolyline
 90
2
 70
0
 10
95.042934
 20
211.484346
 30
0.0
 10
109.016140
 20
211.484346
 30
0.0
  0
LWPOLYLINE
  5
1b8
100
AcDbEntity
  8
レイヤー_1
 62
1
100
AcDbPolyline
 90
2
 70
0
 10
95.042934
 20
210.584226
 30
0.0
 10
95.042934
 20
211.484346
 30
0.0
  0
LWPOLYLINE
  5
1b9
100
AcDbEntity
  8
レイヤー_1
 62
1
100
AcDbPolyline
 90
2
 70
0
 10
95.042934
 20
201.561646
 30
0.0
 10
95.042934
 20
207.433836
 30
0.0
  0
LWPOLYLINE
  5
1ba
100
AcDbEntity
  8
レイヤー_1
 62
1
100
AcDbPolyline
 90
2
 70
0
 10
95.042934
 20
197.511136
 30
0.0
 10
95.042934
 20
198.411256
 30
0.0
  0
LWPOLYLINE
  5
1bb
100
AcDbEntity
  8
レイヤー_1
 62
1
100
AcDbPolyline
 90
2
 70
0
 10
109.016140
 20
197.511136
 30
0.0
 10
95.042934
 20
197.511136
 30
0.0
  0
LWPOLYLINE
  5
1bc
100
AcDbEntity
  8
レイヤー_1
 62
1
100
AcDbPolyline
 90
2
 70
0
 10
109.016140
 20
198.411256
 30
0.0
 10
109.016140
 20
197.511136
 30
0.0
  0
LWPOLYLINE
  5
1bd
100
AcDbEntity
  8
レイヤー_1
 62
1
100
AcDbPolyline
 90
2
 70
0
 10
109.016140
 20
207.433836
 30
0.0
 10
109.016140
 20
201.561646
 30
0.0
  0
LWPOLYLINE
  5
1be
100
AcDbEntity
  8
レイヤー_1
 62
1
100
AcDbPolyline
 90
2
 70
0
 10
109.016140
 20
211.484346
 30
0.0
 10
109.016140
 20
210.584226
 30
0.0
  0
LWPOLYLINE
  5
1bf
100
AcDbEntity
  8
レイヤー_1
 62
1
100
AcDbPolyline
 90
2
 70
0
 10
128.066000
 20
199.656646
 30
0.0
 10
128.066000
 20
196.506260
 30
0.0
  0
LWPOLYLINE
  5
1c0
100
AcDbEntity
  8
レイヤー_1
 62
1
100
AcDbPolyline
 90
2
 70
0
 10
128.066000
 20
208.679256
 30
0.0
 10
128.066000
 20
205.528826
 30
0.0
  0
LWPOLYLINE
  5
1c1
100
AcDbEntity
  8
レイヤー_1
 62
1
100
AcDbPolyline
 90
2
 70
0
 10
114.092790
 20
199.656646
 30
0.0
 10
114.092790
 20
196.506260
 30
0.0
  0
LWPOLYLINE
  5
1c2
100
AcDbEntity
  8
レイヤー_1
 62
1
100
AcDbPolyline
 90
2
 70
0
 10
114.092790
 20
208.679256
 30
0.0
 10
114.092790
 20
205.528826
 30
0.0
  0
LWPOLYLINE
  5
1c3
100
AcDbEntity
  8
レイヤー_1
 62
1
100
AcDbPolyline
 90
2
 70
0
 10
114.092790
 20
209.579366
 30
0.0
 10
128.066000
 20
209.579366
 30
0.0
  0
LWPOLYLINE
  5
1c4
100
AcDbEntity
  8
レイヤー_1
 62
1
100
AcDbPolyline
 90
2
 70
0
 10
114.092790
 20
208.679256
 30
0.0
 10
114.092790
 20
209.579366
 30
0.0
  0
LWPOLYLINE
  5
1c5
100
AcDbEntity
  8
レイヤー_1
 62
1
100
AcDbPolyline
 90
2
 70
0
 10
114.092790
 20
199.656646
 30
0.0
 10
114.092790
 20
205.528826
 30
0.0
  0
LWPOLYLINE
  5
1c6
100
AcDbEntity
  8
レイヤー_1
 62
1
100
AcDbPolyline
 90
2
 70
0
 10
114.092790
 20
195.606170
 30
0.0
 10
114.092790
 20
196.506260
 30
0.0
  0
LWPOLYLINE
  5
1c7
100
AcDbEntity
  8
レイヤー_1
 62
1
100
AcDbPolyline
 90
2
 70
0
 10
128.066000
 20
195.606170
 30
0.0
 10
114.092790
 20
195.606170
 30
0.0
  0
LWPOLYLINE
  5
1c8
100
AcDbEntity
  8
レイヤー_1
 62
1
100
AcDbPolyline
 90
2
 70
0
 10
128.066000
 20
196.506260
 30
0.0
 10
128.066000
 20
195.606170
 30
0.0
  0
LWPOLYLINE
  5
1c9
100
AcDbEntity
  8
レイヤー_1
 62
1
100
AcDbPolyline
 90
2
 70
0
 10
128.066000
 20
205.528826
 30
0.0
 10
128.066000
 20
199.656646
 30
0.0
  0
LWPOLYLINE
  5
1ca
100
AcDbEntity
  8
レイヤー_1
 62
1
100
AcDbPolyline
 90
2
 70
0
 10
128.066000
 20
209.579366
 30
0.0
 10
128.066000
 20
208.679256
 30
0.0
  0
LWPOLYLINE
  5
1cb
100
AcDbEntity
  8
レイヤー_1
 62
1
100
AcDbPolyline
 90
2
 70
0
 10
114.092790
 20
180.606800
 30
0.0
 10
114.092790
 20
177.456410
 30
0.0
  0
LWPOLYLINE
  5
1cc
100
AcDbEntity
  8
レイヤー_1
 62
1
100
AcDbPolyline
 90
2
 70
0
 10
114.092790
 20
189.629370
 30
0.0
 10
114.092790
 20
186.478970
 30
0.0
  0
LWPOLYLINE
  5
1cd
100
AcDbEntity
  8
レイヤー_1
 62
1
100
AcDbPolyline
 90
2
 70
0
 10
128.066000
 20
180.606800
 30
0.0
 10
128.066000
 20
177.456410
 30
0.0
  0
LWPOLYLINE
  5
1ce
100
AcDbEntity
  8
レイヤー_1
 62
1
100
AcDbPolyline
 90
2
 70
0
 10
128.066000
 20
189.629370
 30
0.0
 10
128.066000
 20
186.478970
 30
0.0
  0
LWPOLYLINE
  5
1cf
100
AcDbEntity
  8
レイヤー_1
 62
1
100
AcDbPolyline
 90
2
 70
0
 10
114.092790
 20
190.529490
 30
0.0
 10
128.066000
 20
190.529490
 30
0.0
  0
LWPOLYLINE
  5
1d0
100
AcDbEntity
  8
レイヤー_1
 62
1
100
AcDbPolyline
 90
2
 70
0
 10
114.092790
 20
189.629370
 30
0.0
 10
114.092790
 20
190.529490
 30
0.0
  0
LWPOLYLINE
  5
1d1
100
AcDbEntity
  8
レイヤー_1
 62
1
100
AcDbPolyline
 90
2
 70
0
 10
114.092790
 20
180.606800
 30
0.0
 10
114.092790
 20
186.478970
 30
0.0
  0
LWPOLYLINE
  5
1d2
100
AcDbEntity
  8
レイヤー_1
 62
1
100
AcDbPolyline
 90
2
 70
0
 10
114.092790
 20
176.556280
 30
0.0
 10
114.092790
 20
177.456410
 30
0.0
  0
LWPOLYLINE
  5
1d3
100
AcDbEntity
  8
レイヤー_1
 62
1
100
AcDbPolyline
 90
2
 70
0
 10
128.066000
 20
176.556280
 30
0.0
 10
114.092790
 20
176.556280
 30
0.0
  0
LWPOLYLINE
  5
1d4
100
AcDbEntity
  8
レイヤー_1
 62
1
100
AcDbPolyline
 90
2
 70
0
 10
128.066000
 20
177.456410
 30
0.0
 10
128.066000
 20
176.556280
 30
0.0
  0
LWPOLYLINE
  5
1d5
100
AcDbEntity
  8
レイヤー_1
 62
1
100
AcDbPolyline
 90
2
 70
0
 10
128.066000
 20
186.478970
 30
0.0
 10
128.066000
 20
180.606800
 30
0.0
  0
LWPOLYLINE
  5
1d6
100
AcDbEntity
  8
レイヤー_1
 62
1
100
AcDbPolyline
 90
2
 70
0
 10
128.066000
 20
190.529490
 30
0.0
 10
128.066000
 20
189.629370
 30
0.0
  0
LWPOLYLINE
  5
1d7
100
AcDbEntity
  8
レイヤー_1
 62
1
100
AcDbPolyline
 90
2
 70
0
 10
95.042934
 20
182.511780
 30
0.0
 10
95.042934
 20
179.361390
 30
0.0
  0
LWPOLYLINE
  5
1d8
100
AcDbEntity
  8
レイヤー_1
 62
1
100
AcDbPolyline
 90
2
 70
0
 10
95.042934
 20
191.534360
 30
0.0
 10
95.042934
 20
188.383970
 30
0.0
  0
LWPOLYLINE
  5
1d9
100
AcDbEntity
  8
レイヤー_1
 62
1
100
AcDbPolyline
 90
2
 70
0
 10
109.016140
 20
182.511780
 30
0.0
 10
109.016140
 20
179.361390
 30
0.0
  0
LWPOLYLINE
  5
1da
100
AcDbEntity
  8
レイヤー_1
 62
1
100
AcDbPolyline
 90
2
 70
0
 10
109.016140
 20
191.534360
 30
0.0
 10
109.016140
 20
188.383970
 30
0.0
  0
LWPOLYLINE
  5
1db
100
AcDbEntity
  8
レイヤー_1
 62
1
100
AcDbPolyline
 90
2
 70
0
 10
95.042934
 20
192.434480
 30
0.0
 10
109.016140
 20
192.434480
 30
0.0
  0
LWPOLYLINE
  5
1dc
100
AcDbEntity
  8
レイヤー_1
 62
1
100
AcDbPolyline
 90
2
 70
0
 10
95.042934
 20
191.534360
 30
0.0
 10
95.042934
 20
192.434480
 30
0.0
  0
LWPOLYLINE
  5
1dd
100
AcDbEntity
  8
レイヤー_1
 62
1
100
AcDbPolyline
 90
2
 70
0
 10
95.042934
 20
182.511780
 30
0.0
 10
95.042934
 20
188.383970
 30
0.0
  0
LWPOLYLINE
  5
1de
100
AcDbEntity
  8
レイヤー_1
 62
1
100
AcDbPolyline
 90
2
 70
0
 10
95.042934
 20
178.461270
 30
0.0
 10
95.042934
 20
179.361390
 30
0.0
  0
LWPOLYLINE
  5
1df
100
AcDbEntity
  8
レイヤー_1
 62
1
100
AcDbPolyline
 90
2
 70
0
 10
109.016140
 20
178.461270
 30
0.0
 10
95.042934
 20
178.461270
 30
0.0
  0
LWPOLYLINE
  5
1e0
100
AcDbEntity
  8
レイヤー_1
 62
1
100
AcDbPolyline
 90
2
 70
0
 10
109.016140
 20
179.361390
 30
0.0
 10
109.016140
 20
178.461270
 30
0.0
  0
LWPOLYLINE
  5
1e1
100
AcDbEntity
  8
レイヤー_1
 62
1
100
AcDbPolyline
 90
2
 70
0
 10
109.016140
 20
188.383970
 30
0.0
 10
109.016140
 20
182.511780
 30
0.0
  0
LWPOLYLINE
  5
1e2
100
AcDbEntity
  8
レイヤー_1
 62
1
100
AcDbPolyline
 90
2
 70
0
 10
109.016140
 20
192.434480
 30
0.0
 10
109.016140
 20
191.534360
 30
0.0
  0
LWPOLYLINE
  5
1e3
100
AcDbEntity
  8
レイヤー_1
 62
1
100
AcDbPolyline
 90
2
 70
0
 10
75.993064
 20
180.606800
 30
0.0
 10
75.993064
 20
177.456410
 30
0.0
  0
LWPOLYLINE
  5
1e4
100
AcDbEntity
  8
レイヤー_1
 62
1
100
AcDbPolyline
 90
2
 70
0
 10
75.993064
 20
189.629370
 30
0.0
 10
75.993064
 20
186.478970
 30
0.0
  0
LWPOLYLINE
  5
1e5
100
AcDbEntity
  8
レイヤー_1
 62
1
100
AcDbPolyline
 90
2
 70
0
 10
89.966274
 20
180.606800
 30
0.0
 10
89.966274
 20
177.456410
 30
0.0
  0
LWPOLYLINE
  5
1e6
100
AcDbEntity
  8
レイヤー_1
 62
1
100
AcDbPolyline
 90
2
 70
0
 10
89.966274
 20
189.629370
 30
0.0
 10
89.966274
 20
186.478970
 30
0.0
  0
LWPOLYLINE
  5
1e7
100
AcDbEntity
  8
レイヤー_1
 62
1
100
AcDbPolyline
 90
2
 70
0
 10
75.993064
 20
190.529490
 30
0.0
 10
89.966274
 20
190.529490
 30
0.0
  0
LWPOLYLINE
  5
1e8
100
AcDbEntity
  8
レイヤー_1
 62
1
100
AcDbPolyline
 90
2
 70
0
 10
75.993064
 20
189.629370
 30
0.0
 10
75.993064
 20
190.529490
 30
0.0
  0
LWPOLYLINE
  5
1e9
100
AcDbEntity
  8
レイヤー_1
 62
1
100
AcDbPolyline
 90
2
 70
0
 10
75.993064
 20
180.606800
 30
0.0
 10
75.993064
 20
186.478970
 30
0.0
  0
LWPOLYLINE
  5
1ea
100
AcDbEntity
  8
レイヤー_1
 62
1
100
AcDbPolyline
 90
2
 70
0
 10
75.993064
 20
176.556280
 30
0.0
 10
75.993064
 20
177.456410
 30
0.0
  0
LWPOLYLINE
  5
1eb
100
AcDbEntity
  8
レイヤー_1
 62
1
100
AcDbPolyline
 90
2
 70
0
 10
89.966274
 20
176.556280
 30
0.0
 10
75.993064
 20
176.556280
 30
0.0
  0
LWPOLYLINE
  5
1ec
100
AcDbEntity
  8
レイヤー_1
 62
1
100
AcDbPolyline
 90
2
 70
0
 10
89.966274
 20
177.456410
 30
0.0
 10
89.966274
 20
176.556280
 30
0.0
  0
LWPOLYLINE
  5
1ed
100
AcDbEntity
  8
レイヤー_1
 62
1
100
AcDbPolyline
 90
2
 70
0
 10
89.966274
 20
186.478970
 30
0.0
 10
89.966274
 20
180.606800
 30
0.0
  0
LWPOLYLINE
  5
1ee
100
AcDbEntity
  8
レイヤー_1
 62
1
100
AcDbPolyline
 90
2
 70
0
 10
89.966274
 20
190.529490
 30
0.0
 10
89.966274
 20
189.629370
 30
0.0
  0
LWPOLYLINE
  5
1ef
100
AcDbEntity
  8
レイヤー_1
 62
1
100
AcDbPolyline
 90
2
 70
0
 10
56.943214
 20
178.701810
 30
0.0
 10
56.943214
 20
175.551420
 30
0.0
  0
LWPOLYLINE
  5
1f0
100
AcDbEntity
  8
レイヤー_1
 62
1
100
AcDbPolyline
 90
2
 70
0
 10
56.943214
 20
187.724380
 30
0.0
 10
56.943214
 20
184.573990
 30
0.0
  0
LWPOLYLINE
  5
1f1
100
AcDbEntity
  8
レイヤー_1
 62
1
100
AcDbPolyline
 90
2
 70
0
 10
70.916424
 20
178.701810
 30
0.0
 10
70.916424
 20
175.551420
 30
0.0
  0
LWPOLYLINE
  5
1f2
100
AcDbEntity
  8
レイヤー_1
 62
1
100
AcDbPolyline
 90
2
 70
0
 10
70.916424
 20
187.724380
 30
0.0
 10
70.916424
 20
184.573990
 30
0.0
  0
LWPOLYLINE
  5
1f3
100
AcDbEntity
  8
レイヤー_1
 62
1
100
AcDbPolyline
 90
2
 70
0
 10
56.943214
 20
188.624510
 30
0.0
 10
70.916424
 20
188.624510
 30
0.0
  0
LWPOLYLINE
  5
1f4
100
AcDbEntity
  8
レイヤー_1
 62
1
100
AcDbPolyline
 90
2
 70
0
 10
56.943214
 20
187.724380
 30
0.0
 10
56.943214
 20
188.624510
 30
0.0
  0
LWPOLYLINE
  5
1f5
100
AcDbEntity
  8
レイヤー_1
 62
1
100
AcDbPolyline
 90
2
 70
0
 10
56.943214
 20
178.701810
 30
0.0
 10
56.943214
 20
184.573990
 30
0.0
  0
LWPOLYLINE
  5
1f6
100
AcDbEntity
  8
レイヤー_1
 62
1
100
AcDbPolyline
 90
2
 70
0
 10
56.943214
 20
174.651290
 30
0.0
 10
56.943214
 20
175.551420
 30
0.0
  0
LWPOLYLINE
  5
1f7
100
AcDbEntity
  8
レイヤー_1
 62
1
100
AcDbPolyline
 90
2
 70
0
 10
70.916424
 20
174.651290
 30
0.0
 10
56.943214
 20
174.651290
 30
0.0
  0
LWPOLYLINE
  5
1f8
100
AcDbEntity
  8
レイヤー_1
 62
1
100
AcDbPolyline
 90
2
 70
0
 10
70.916424
 20
175.551420
 30
0.0
 10
70.916424
 20
174.651290
 30
0.0
  0
LWPOLYLINE
  5
1f9
100
AcDbEntity
  8
レイヤー_1
 62
1
100
AcDbPolyline
 90
2
 70
0
 10
70.916424
 20
184.573990
 30
0.0
 10
70.916424
 20
178.701810
 30
0.0
  0
LWPOLYLINE
  5
1fa
100
AcDbEntity
  8
レイヤー_1
 62
1
100
AcDbPolyline
 90
2
 70
0
 10
70.916424
 20
188.624510
 30
0.0
 10
70.916424
 20
187.724380
 30
0.0
  0
LWPOLYLINE
  5
1fb
100
AcDbEntity
  8
レイヤー_1
 62
1
100
AcDbPolyline
 90
2
 70
0
 10
47.717108
 20
137.219600
 30
0.0
 10
36.259798
 20
157.126050
 30
0.0
  0
LWPOLYLINE
  5
1fc
100
AcDbEntity
  8
レイヤー_1
 62
1
100
AcDbPolyline
 90
2
 70
0
 10
168.874130
 20
153.060520
 30
0.0
 10
158.126990
 20
153.060530
 30
0.0
  0
LWPOLYLINE
  5
1fd
100
AcDbEntity
  8
レイヤー_1
 62
1
100
AcDbPolyline
 90
4
 70
0
 10
54.658884
 20
218.213646
 30
0.0
 10
54.658884
 20
167.794990
 30
0.0
 10
54.637684
 20
167.773790
 30
0.0
 10
36.328658
 20
157.169370
 30
0.0
  0
LWPOLYLINE
  5
1fe
100
AcDbEntity
  8
レイヤー_1
 62
1
100
AcDbPolyline
 90
2
 70
0
 10
54.658884
 20
218.213646
 30
0.0
 10
54.658884
 20
233.003041
 30
0.0
  0
LWPOLYLINE
  5
1ff
100
AcDbEntity
  8
レイヤー_1
 62
1
100
AcDbPolyline
 90
2
 70
0
 10
81.398184
 20
233.018001
 30
0.0
 10
133.145020
 20
233.011001
 30
0.0
  0
LWPOLYLINE
  5
200
100
AcDbEntity
  8
レイヤー_1
 62
1
100
AcDbPolyline
 90
2
 70
0
 10
54.658884
 20
233.023121
 30
0.0
 10
65.398294
 20
233.021121
 30
0.0
  0
LWPOLYLINE
  5
201
100
AcDbEntity
  8
レイヤー_1
 62
1
100
AcDbPolyline
 90
22
 70
1
 10
73.398298
 20
236.780989
 30
0.0
 10
73.087950
 20
236.737100
 30
0.0
 10
72.821935
 20
236.605438
 30
0.0
 10
72.578087
 20
236.407943
 30
0.0
 10
72.400745
 20
236.144621
 30
0.0
 10
72.312075
 20
235.837408
 30
0.0
 10
72.312075
 20
235.530195
 30
0.0
 10
72.400745
 20
235.244924
 30
0.0
 10
72.578087
 20
234.981606
 30
0.0
 10
72.821935
 20
234.784110
 30
0.0
 10
73.087950
 20
234.652446
 30
0.0
 10
73.398298
 20
234.608556
 30
0.0
 10
73.708649
 20
234.652446
 30
0.0
 10
73.996833
 20
234.784110
 30
0.0
 10
74.240654
 20
234.981606
 30
0.0
 10
74.417994
 20
235.244924
 30
0.0
 10
74.484504
 20
235.530196
 30
0.0
 10
74.484504
 20
235.837409
 30
0.0
 10
74.417994
 20
236.144622
 30
0.0
 10
74.240654
 20
236.407943
 30
0.0
 10
73.996833
 20
236.605439
 30
0.0
 10
73.708649
 20
236.737100
 30
0.0
  0
LWPOLYLINE
  5
202
100
AcDbEntity
  8
レイヤー_1
 62
1
100
AcDbPolyline
 90
2
 70
0
 10
65.398298
 20
233.021056
 30
0.0
 10
70.535871
 20
238.149221
 30
0.0
  0
LWPOLYLINE
  5
203
100
AcDbEntity
  8
レイヤー_1
 62
1
100
AcDbPolyline
 90
2
 70
0
 10
81.398187
 20
233.018006
 30
0.0
 10
76.260613
 20
238.146171
 30
0.0
  0
LWPOLYLINE
  5
204
100
AcDbEntity
  8
レイヤー_1
 62
1
100
AcDbPolyline
 90
22
 70
1
 10
150.127100
 20
149.297540
 30
0.0
 10
149.816750
 20
149.341440
 30
0.0
 10
149.550740
 20
149.473100
 30
0.0
 10
149.306890
 20
149.670600
 30
0.0
 10
149.129550
 20
149.933920
 30
0.0
 10
149.040850
 20
150.241130
 30
0.0
 10
149.040850
 20
150.548350
 30
0.0
 10
149.129550
 20
150.833620
 30
0.0
 10
149.306890
 20
151.096940
 30
0.0
 10
149.550740
 20
151.294430
 30
0.0
 10
149.816750
 20
151.426100
 30
0.0
 10
150.127100
 20
151.470000
 30
0.0
 10
150.437450
 20
151.426100
 30
0.0
 10
150.725640
 20
151.294430
 30
0.0
 10
150.969460
 20
151.096940
 30
0.0
 10
151.146800
 20
150.833620
 30
0.0
 10
151.213300
 20
150.548350
 30
0.0
 10
151.213300
 20
150.241130
 30
0.0
 10
151.146800
 20
149.933920
 30
0.0
 10
150.969460
 20
149.670600
 30
0.0
 10
150.725640
 20
149.473100
 30
0.0
 10
150.437450
 20
149.341440
 30
0.0
  0
LWPOLYLINE
  5
205
100
AcDbEntity
  8
レイヤー_1
 62
1
100
AcDbPolyline
 90
2
 70
0
 10
142.127100
 20
153.057480
 30
0.0
 10
147.264680
 20
147.929310
 30
0.0
  0
LWPOLYLINE
  5
206
100
AcDbEntity
  8
レイヤー_1
 62
1
100
AcDbPolyline
 90
2
 70
0
 10
158.126990
 20
153.060530
 30
0.0
 10
152.989420
 20
147.932360
 30
0.0
  0
LWPOLYLINE
  5
207
100
AcDbEntity
  8
レイヤー_1
 62
1
100
AcDbPolyline
 90
2
 70
0
 10
158.133940
 20
227.520821
 30
0.0
 10
168.873350
 20
227.518821
 30
0.0
  0
LWPOLYLINE
  5
208
100
AcDbEntity
  8
レイヤー_1
 62
1
100
AcDbPolyline
 90
22
 70
1
 10
150.134050
 20
231.283801
 30
0.0
 10
149.823700
 20
231.239901
 30
0.0
 10
149.557680
 20
231.108241
 30
0.0
 10
149.313840
 20
230.910741
 30
0.0
 10
149.136490
 20
230.647421
 30
0.0
 10
149.047790
 20
230.340211
 30
0.0
 10
149.047790
 20
230.033001
 30
0.0
 10
149.136490
 20
229.747731
 30
0.0
 10
149.313840
 20
229.484411
 30
0.0
 10
149.557680
 20
229.286911
 30
0.0
 10
149.823700
 20
229.155251
 30
0.0
 10
150.134050
 20
229.111351
 30
0.0
 10
150.444400
 20
229.155251
 30
0.0
 10
150.732580
 20
229.286911
 30
0.0
 10
150.976400
 20
229.484411
 30
0.0
 10
151.153740
 20
229.747731
 30
0.0
 10
151.220240
 20
230.033001
 30
0.0
 10
151.220240
 20
230.340211
 30
0.0
 10
151.153740
 20
230.647421
 30
0.0
 10
150.976400
 20
230.910741
 30
0.0
 10
150.732580
 20
231.108241
 30
0.0
 10
150.444400
 20
231.239901
 30
0.0
  0
LWPOLYLINE
  5
209
100
AcDbEntity
  8
レイヤー_1
 62
1
100
AcDbPolyline
 90
2
 70
0
 10
142.134050
 20
227.523871
 30
0.0
 10
147.271620
 20
232.652031
 30
0.0
  0
LWPOLYLINE
  5
20a
100
AcDbEntity
  8
レイヤー_1
 62
1
100
AcDbPolyline
 90
2
 70
0
 10
158.133940
 20
227.520821
 30
0.0
 10
152.996360
 20
232.648981
 30
0.0
  0
SPLINE
  5
20b
100
AcDbEntity
  8
レイヤー_1
 62
1
100
AcDbSpline
 70
8
 71
3
 72
8
 73
4
 74
0
 40
0
 40
0
 40
0
 40
0
 40
1
 40
1
 40
1
 40
1
 10
133.145000
 20
153.060760
 30
0.0
 10
135.432350
 20
153.061560
 30
0.0
 10
139.047090
 20
153.056760
 30
0.0
 10
142.127100
 20
153.057760
 30
0.0
  0
SPLINE
  5
20c
100
AcDbEntity
  8
レイヤー_1
 62
1
100
AcDbSpline
 70
8
 71
3
 72
8
 73
4
 74
0
 40
0
 40
0
 40
0
 40
0
 40
1
 40
1
 40
1
 40
1
 10
133.147400
 20
227.497571
 30
0.0
 10
133.146610
 20
229.784921
 30
0.0
 10
133.145400
 20
229.930931
 30
0.0
 10
133.145400
 20
233.010951
 30
0.0
  0
LWPOLYLINE
  5
20d
100
AcDbEntity
  8
レイヤー_1
 62
1
100
AcDbPolyline
 90
2
 70
0
 10
133.147400
 20
227.497571
 30
0.0
 10
142.134050
 20
227.523871
 30
0.0
  0
LWPOLYLINE
  5
20e
100
AcDbEntity
  8
レイヤー_1
 62
1
100
AcDbPolyline
 90
2
 70
0
 10
168.873610
 20
155.573930
 30
0.0
 10
168.874140
 20
153.060520
 30
0.0
  0
LWPOLYLINE
  5
20f
100
AcDbEntity
  8
レイヤー_1
 62
1
100
AcDbPolyline
 90
2
 70
0
 10
168.872140
 20
158.573900
 30
0.0
 10
168.874140
 20
155.573930
 30
0.0
  0
LWPOLYLINE
  5
210
100
AcDbEntity
  8
レイヤー_1
 62
1
100
AcDbPolyline
 90
4
 70
0
 10
168.873880
 20
227.518701
 30
0.0
 10
168.869880
 20
188.421890
 30
0.0
 10
168.870880
 20
170.742510
 30
0.0
 10
168.871880
 20
158.573900
 30
0.0
  0
LWPOLYLINE
  5
211
100
AcDbEntity
  8
レイヤー_1
 62
1
100
AcDbPolyline
 90
2
 70
0
 10
114.093060
 20
153.062230
 30
0.0
 10
133.145000
 20
153.060230
 30
0.0
  0
LWPOLYLINE
  5
212
100
AcDbEntity
  8
レイヤー_1
 62
1
100
AcDbPolyline
 90
22
 70
1
 10
68.488234
 20
142.635300
 30
0.0
 10
68.177104
 20
142.597400
 30
0.0
 10
67.886074
 20
142.655700
 30
0.0
 10
67.599414
 20
142.783360
 30
0.0
 10
67.359964
 20
142.991810
 30
0.0
 10
67.194804
 20
143.265600
 30
0.0
 10
67.115304
 20
143.562350
 30
0.0
 10
67.127104
 20
143.860850
 30
0.0
 10
67.230254
 20
144.161090
 30
0.0
 10
67.414674
 20
144.414970
 30
0.0
 10
67.637554
 20
144.611000
 30
0.0
 10
67.925964
 20
144.733720
 30
0.0
 10
68.237094
 20
144.771620
 30
0.0
 10
68.549544
 20
144.719020
 30
0.0
 10
68.836174
 20
144.591360
 30
0.0
 10
69.075614
 20
144.382910
 30
0.0
 10
69.213694
 20
144.124570
 30
0.0
 10
69.293194
 20
143.827830
 30
0.0
 10
69.308494
 20
143.513870
 30
0.0
 10
69.205344
 20
143.213620
 30
0.0
 10
69.020954
 20
142.959750
 30
0.0
 10
68.776664
 20
142.757990
 30
0.0
  0
LWPOLYLINE
  5
213
100
AcDbEntity
  8
レイヤー_1
 62
1
100
AcDbPolyline
 90
2
 70
0
 10
59.787684
 20
144.196570
 30
0.0
 10
66.077464
 20
140.572840
 30
0.0
  0
LWPOLYLINE
  5
214
100
AcDbEntity
  8
レイヤー_1
 62
1
100
AcDbPolyline
 90
2
 70
0
 10
75.241604
 20
148.340590
 30
0.0
 10
71.606354
 20
142.057460
 30
0.0
  0
LWPOLYLINE
  5
215
100
AcDbEntity
  8
レイヤー_1
 62
1
100
AcDbPolyline
 90
2
 70
0
 10
47.717108
 20
137.219600
 30
0.0
 10
59.787684
 20
144.196570
 30
0.0
  0
LWPOLYLINE
  5
216
100
AcDbEntity
  8
レイヤー_1
 62
1
100
AcDbPolyline
 90
2
 70
0
 10
75.241604
 20
148.340590
 30
0.0
 10
114.093060
 20
153.062230
 30
0.0
  0
LWPOLYLINE
  5
217
100
AcDbEntity
  8
レイヤー_1
 62
1
100
AcDbPolyline
 90
2
 70
0
 10
109.330320
 20
159.651960
 30
0.0
 10
109.330320
 20
156.501560
 30
0.0
  0
LWPOLYLINE
  5
218
100
AcDbEntity
  8
レイヤー_1
 62
1
100
AcDbPolyline
 90
2
 70
0
 10
109.330320
 20
168.674530
 30
0.0
 10
109.330320
 20
165.524130
 30
0.0
  0
LWPOLYLINE
  5
219
100
AcDbEntity
  8
レイヤー_1
 62
1
100
AcDbPolyline
 90
2
 70
0
 10
123.303540
 20
159.651960
 30
0.0
 10
123.303540
 20
156.501560
 30
0.0
  0
LWPOLYLINE
  5
21a
100
AcDbEntity
  8
レイヤー_1
 62
1
100
AcDbPolyline
 90
2
 70
0
 10
123.303540
 20
168.674530
 30
0.0
 10
123.303540
 20
165.524130
 30
0.0
  0
LWPOLYLINE
  5
21b
100
AcDbEntity
  8
レイヤー_1
 62
1
100
AcDbPolyline
 90
2
 70
0
 10
109.330320
 20
169.574650
 30
0.0
 10
123.303540
 20
169.574650
 30
0.0
  0
LWPOLYLINE
  5
21c
100
AcDbEntity
  8
レイヤー_1
 62
1
100
AcDbPolyline
 90
2
 70
0
 10
109.330320
 20
168.674530
 30
0.0
 10
109.330320
 20
169.574650
 30
0.0
  0
LWPOLYLINE
  5
21d
100
AcDbEntity
  8
レイヤー_1
 62
1
100
AcDbPolyline
 90
2
 70
0
 10
109.330320
 20
159.648410
 30
0.0
 10
109.330320
 20
165.524130
 30
0.0
  0
LWPOLYLINE
  5
21e
100
AcDbEntity
  8
レイヤー_1
 62
1
100
AcDbPolyline
 90
2
 70
0
 10
109.330320
 20
155.601440
 30
0.0
 10
109.330320
 20
156.501560
 30
0.0
  0
LWPOLYLINE
  5
21f
100
AcDbEntity
  8
レイヤー_1
 62
1
100
AcDbPolyline
 90
2
 70
0
 10
123.303540
 20
155.601440
 30
0.0
 10
109.330320
 20
155.601440
 30
0.0
  0
LWPOLYLINE
  5
220
100
AcDbEntity
  8
レイヤー_1
 62
1
100
AcDbPolyline
 90
2
 70
0
 10
123.303540
 20
156.501560
 30
0.0
 10
123.303540
 20
155.601440
 30
0.0
  0
LWPOLYLINE
  5
221
100
AcDbEntity
  8
レイヤー_1
 62
1
100
AcDbPolyline
 90
2
 70
0
 10
123.303540
 20
165.524130
 30
0.0
 10
123.303540
 20
159.651960
 30
0.0
  0
LWPOLYLINE
  5
222
100
AcDbEntity
  8
レイヤー_1
 62
1
100
AcDbPolyline
 90
2
 70
0
 10
123.303540
 20
169.574650
 30
0.0
 10
123.303540
 20
168.674530
 30
0.0
  0
LWPOLYLINE
  5
223
100
AcDbEntity
  8
レイヤー_1
 62
1
100
AcDbPolyline
 90
2
 70
0
 10
66.077464
 20
140.572840
 30
0.0
 10
71.606354
 20
142.057460
 30
0.0
  0
LWPOLYLINE
  5
224
100
AcDbEntity
  8
レイヤー_1
 62
1
100
AcDbPolyline
 90
2
 70
0
 10
147.264680
 20
147.929310
 30
0.0
 10
152.989420
 20
147.932310
 30
0.0
  0
LWPOLYLINE
  5
225
100
AcDbEntity
  8
レイヤー_1
 62
1
100
AcDbPolyline
 90
2
 70
0
 10
147.271620
 20
232.652032
 30
0.0
 10
152.996360
 20
232.649032
 30
0.0
  0
LWPOLYLINE
  5
226
100
AcDbEntity
  8
レイヤー_1
 62
1
100
AcDbPolyline
 90
2
 70
0
 10
70.535871
 20
238.149222
 30
0.0
 10
76.260612
 20
238.146222
 30
0.0
  0
ENDSEC
  0
SECTION
  2
OBJECTS
  0
DICTIONARY
  5
C
330
0
100
AcDbDictionary
  3
ACAD_GROUP
350
D
  3
ACAD_MLINESTYLE
350
17
  0
DICTIONARY
  5
D
330
C
100
AcDbDictionary
  0
DICTIONARY
  5
1A
330
C
100
AcDbDictionary
  0
DICTIONARY
  5
17
330
C
100
AcDbDictionary
  3
STANDARD
350
18
  0
DICTIONARY
  5
19
330
C
100
AcDbDictionary
  0
ENDSEC
  0
EOF
