%TF.GenerationSoftware,KiCad,Pcbnew,(5.1.7)-1*%
%TF.CreationDate,2020-11-08T23:06:54+09:00*%
%TF.ProjectId,limb44,6c696d62-3434-42e6-9b69-6361645f7063,rev?*%
%TF.SameCoordinates,Original*%
%TF.FileFunction,Legend,Bot*%
%TF.FilePolarity,Positive*%
%FSLAX46Y46*%
G04 Gerber Fmt 4.6, Leading zero omitted, Abs format (unit mm)*
G04 Created by KiCad (PCBNEW (5.1.7)-1) date 2020-11-08 23:06:54*
%MOMM*%
%LPD*%
G01*
G04 APERTURE LIST*
%ADD10C,0.100000*%
%ADD11C,0.500000*%
%ADD12C,0.150000*%
%ADD13C,0.125000*%
G04 APERTURE END LIST*
D10*
X175742523Y-110979000D02*
X175818714Y-110940904D01*
X175933000Y-110940904D01*
X176047285Y-110979000D01*
X176123476Y-111055190D01*
X176161571Y-111131380D01*
X176199666Y-111283761D01*
X176199666Y-111398047D01*
X176161571Y-111550428D01*
X176123476Y-111626619D01*
X176047285Y-111702809D01*
X175933000Y-111740904D01*
X175856809Y-111740904D01*
X175742523Y-111702809D01*
X175704428Y-111664714D01*
X175704428Y-111398047D01*
X175856809Y-111398047D01*
X175361571Y-111740904D02*
X175361571Y-110940904D01*
X174904428Y-111740904D01*
X174904428Y-110940904D01*
X174523476Y-111740904D02*
X174523476Y-110940904D01*
X174333000Y-110940904D01*
X174218714Y-110979000D01*
X174142523Y-111055190D01*
X174104428Y-111131380D01*
X174066333Y-111283761D01*
X174066333Y-111398047D01*
X174104428Y-111550428D01*
X174142523Y-111626619D01*
X174218714Y-111702809D01*
X174333000Y-111740904D01*
X174523476Y-111740904D01*
X175774285Y-108565904D02*
X176155238Y-108565904D01*
X176155238Y-107765904D01*
X175507619Y-108146857D02*
X175240952Y-108146857D01*
X175126666Y-108565904D02*
X175507619Y-108565904D01*
X175507619Y-107765904D01*
X175126666Y-107765904D01*
X174783809Y-108565904D02*
X174783809Y-107765904D01*
X174593333Y-107765904D01*
X174479047Y-107804000D01*
X174402857Y-107880190D01*
X174364761Y-107956380D01*
X174326666Y-108108761D01*
X174326666Y-108223047D01*
X174364761Y-108375428D01*
X174402857Y-108451619D01*
X174479047Y-108527809D01*
X174593333Y-108565904D01*
X174783809Y-108565904D01*
X176199666Y-105352904D02*
X175933000Y-106152904D01*
X175666333Y-105352904D01*
X174942523Y-106076714D02*
X174980619Y-106114809D01*
X175094904Y-106152904D01*
X175171095Y-106152904D01*
X175285380Y-106114809D01*
X175361571Y-106038619D01*
X175399666Y-105962428D01*
X175437761Y-105810047D01*
X175437761Y-105695761D01*
X175399666Y-105543380D01*
X175361571Y-105467190D01*
X175285380Y-105391000D01*
X175171095Y-105352904D01*
X175094904Y-105352904D01*
X174980619Y-105391000D01*
X174942523Y-105429095D01*
X174142523Y-106076714D02*
X174180619Y-106114809D01*
X174294904Y-106152904D01*
X174371095Y-106152904D01*
X174485380Y-106114809D01*
X174561571Y-106038619D01*
X174599666Y-105962428D01*
X174637761Y-105810047D01*
X174637761Y-105695761D01*
X174599666Y-105543380D01*
X174561571Y-105467190D01*
X174485380Y-105391000D01*
X174371095Y-105352904D01*
X174294904Y-105352904D01*
X174180619Y-105391000D01*
X174142523Y-105429095D01*
D11*
X182015095Y-97982613D02*
X182015095Y-100363565D01*
X187015095Y-99738565D01*
X182015095Y-96315946D02*
X185348428Y-95899279D01*
X187015095Y-95690946D02*
X186777000Y-95958803D01*
X186538904Y-95750470D01*
X186777000Y-95482613D01*
X187015095Y-95690946D01*
X186538904Y-95750470D01*
X182015095Y-93934994D02*
X185348428Y-93518327D01*
X184872238Y-93577851D02*
X185110333Y-93309994D01*
X185348428Y-92804041D01*
X185348428Y-92089755D01*
X185110333Y-91643327D01*
X184634142Y-91464755D01*
X182015095Y-91792136D01*
X184634142Y-91464755D02*
X185110333Y-91167136D01*
X185348428Y-90661184D01*
X185348428Y-89946898D01*
X185110333Y-89500470D01*
X184634142Y-89321898D01*
X182015095Y-89649279D01*
X182015095Y-87268327D02*
X187015095Y-86643327D01*
X185110333Y-86881422D02*
X185348428Y-86375470D01*
X185348428Y-85423089D01*
X185110333Y-84976660D01*
X184872238Y-84768327D01*
X184396047Y-84589755D01*
X182967476Y-84768327D01*
X182491285Y-85065946D01*
X182253190Y-85333803D01*
X182015095Y-85839755D01*
X182015095Y-86792136D01*
X182253190Y-87238565D01*
X185348428Y-80184994D02*
X182015095Y-80601660D01*
X187253190Y-81137375D02*
X183681761Y-82774279D01*
X183681761Y-79679041D01*
X185348428Y-75423089D02*
X182015095Y-75839755D01*
X187253190Y-76375470D02*
X183681761Y-78012375D01*
X183681761Y-74917136D01*
D12*
%TO.C,SW5*%
X144405000Y-73540000D02*
X144405000Y-74240000D01*
X139410000Y-67440000D02*
X139385000Y-72040000D01*
X148985000Y-69640000D02*
X148985000Y-74240000D01*
X143185000Y-72065000D02*
X139410000Y-72065000D01*
X144110000Y-67415000D02*
X139410000Y-67415000D01*
X148960000Y-69615000D02*
X146410000Y-69615000D01*
X148960000Y-74265000D02*
X144410000Y-74265000D01*
X151485000Y-63190000D02*
X146435000Y-63236000D01*
X151485000Y-63144000D02*
X151485000Y-59236000D01*
X151485000Y-59236000D02*
X142860000Y-59236000D01*
X140585000Y-61190000D02*
X140585000Y-65135000D01*
X140585000Y-65144000D02*
X144195000Y-65144000D01*
X144405000Y-73490000D02*
G75*
G03*
X143185000Y-72070000I-1320000J100000D01*
G01*
X144115000Y-67440000D02*
G75*
G03*
X146485000Y-69610000I2270000J100000D01*
G01*
X144200000Y-65120000D02*
G75*
G02*
X146460000Y-63240000I2070000J-190000D01*
G01*
X140596000Y-61120000D02*
G75*
G02*
X142860000Y-59236000I2074000J-190000D01*
G01*
%TO.C,P1*%
X180483000Y-109109000D02*
X182483000Y-109109000D01*
X182483000Y-109109000D02*
X182483000Y-111109000D01*
X182483000Y-111109000D02*
X180483000Y-111109000D01*
X180483000Y-111109000D02*
X180483000Y-109109000D01*
%TO.C,P2*%
X180483000Y-113522000D02*
X180483000Y-111522000D01*
X182483000Y-113522000D02*
X180483000Y-113522000D01*
X182483000Y-111522000D02*
X182483000Y-113522000D01*
X180483000Y-111522000D02*
X182483000Y-111522000D01*
%TO.C,SW1*%
X64385000Y-78469000D02*
X67995000Y-78469000D01*
X64385000Y-74515000D02*
X64385000Y-78460000D01*
X75285000Y-72561000D02*
X66660000Y-72561000D01*
X75285000Y-76469000D02*
X75285000Y-72561000D01*
X75285000Y-76515000D02*
X70235000Y-76561000D01*
X72760000Y-87590000D02*
X68210000Y-87590000D01*
X72760000Y-82940000D02*
X70210000Y-82940000D01*
X67910000Y-80740000D02*
X63210000Y-80740000D01*
X66985000Y-85390000D02*
X63210000Y-85390000D01*
X72785000Y-82965000D02*
X72785000Y-87565000D01*
X63210000Y-80765000D02*
X63185000Y-85365000D01*
X68205000Y-86865000D02*
X68205000Y-87565000D01*
X64396000Y-74445000D02*
G75*
G02*
X66660000Y-72561000I2074000J-190000D01*
G01*
X68000000Y-78445000D02*
G75*
G02*
X70260000Y-76565000I2070000J-190000D01*
G01*
X67915000Y-80765000D02*
G75*
G03*
X70285000Y-82935000I2270000J100000D01*
G01*
X68205000Y-86815000D02*
G75*
G03*
X66985000Y-85395000I-1320000J100000D01*
G01*
%TO.C,SW18*%
X163455000Y-113535000D02*
X163455000Y-114235000D01*
X158460000Y-107435000D02*
X158435000Y-112035000D01*
X168035000Y-109635000D02*
X168035000Y-114235000D01*
X162235000Y-112060000D02*
X158460000Y-112060000D01*
X163160000Y-107410000D02*
X158460000Y-107410000D01*
X168010000Y-109610000D02*
X165460000Y-109610000D01*
X168010000Y-114260000D02*
X163460000Y-114260000D01*
X170535000Y-103185000D02*
X165485000Y-103231000D01*
X170535000Y-103139000D02*
X170535000Y-99231000D01*
X170535000Y-99231000D02*
X161910000Y-99231000D01*
X159635000Y-101185000D02*
X159635000Y-105130000D01*
X159635000Y-105139000D02*
X163245000Y-105139000D01*
X163455000Y-113485000D02*
G75*
G03*
X162235000Y-112065000I-1320000J100000D01*
G01*
X163165000Y-107435000D02*
G75*
G03*
X165535000Y-109605000I2270000J100000D01*
G01*
X163250000Y-105115000D02*
G75*
G02*
X165510000Y-103235000I2070000J-190000D01*
G01*
X159646000Y-101115000D02*
G75*
G02*
X161910000Y-99231000I2074000J-190000D01*
G01*
%TO.C,SW22*%
X173975245Y-132314041D02*
X177101597Y-134119041D01*
X175952245Y-128889777D02*
X173979745Y-132306247D01*
X186368922Y-132647563D02*
X178899453Y-128335063D01*
X184414922Y-136031990D02*
X186368922Y-132647563D01*
X184391922Y-136071828D02*
X179995494Y-133586665D01*
X176667708Y-144400559D02*
X172727292Y-142125559D01*
X178992708Y-140373541D02*
X176784343Y-139098541D01*
X175892485Y-136043285D02*
X171822165Y-133693285D01*
X172766411Y-139607803D02*
X169497165Y-137720303D01*
X179001858Y-140407691D02*
X176701858Y-144391408D01*
X171809665Y-133714936D02*
X169488015Y-137686152D01*
X173085462Y-141495191D02*
X172735462Y-142101408D01*
X175996771Y-128834655D02*
G75*
G02*
X178899453Y-128335063I1701137J-1201545D01*
G01*
X177117927Y-134100756D02*
G75*
G02*
X180015144Y-133602629I1697672J-1199545D01*
G01*
X175884314Y-136067436D02*
G75*
G03*
X176851795Y-139131711I2015878J-1048397D01*
G01*
X173110463Y-141451889D02*
G75*
G03*
X172763911Y-139612133I-1093154J746602D01*
G01*
%TO.C,SW12*%
X163455000Y-94485000D02*
X163455000Y-95185000D01*
X158460000Y-88385000D02*
X158435000Y-92985000D01*
X168035000Y-90585000D02*
X168035000Y-95185000D01*
X162235000Y-93010000D02*
X158460000Y-93010000D01*
X163160000Y-88360000D02*
X158460000Y-88360000D01*
X168010000Y-90560000D02*
X165460000Y-90560000D01*
X168010000Y-95210000D02*
X163460000Y-95210000D01*
X170535000Y-84135000D02*
X165485000Y-84181000D01*
X170535000Y-84089000D02*
X170535000Y-80181000D01*
X170535000Y-80181000D02*
X161910000Y-80181000D01*
X159635000Y-82135000D02*
X159635000Y-86080000D01*
X159635000Y-86089000D02*
X163245000Y-86089000D01*
X163455000Y-94435000D02*
G75*
G03*
X162235000Y-93015000I-1320000J100000D01*
G01*
X163165000Y-88385000D02*
G75*
G03*
X165535000Y-90555000I2270000J100000D01*
G01*
X163250000Y-86065000D02*
G75*
G02*
X165510000Y-84185000I2070000J-190000D01*
G01*
X159646000Y-82065000D02*
G75*
G02*
X161910000Y-80181000I2074000J-190000D01*
G01*
%TO.C,SW4*%
X125355000Y-71645000D02*
X125355000Y-72345000D01*
X120360000Y-65545000D02*
X120335000Y-70145000D01*
X129935000Y-67745000D02*
X129935000Y-72345000D01*
X124135000Y-70170000D02*
X120360000Y-70170000D01*
X125060000Y-65520000D02*
X120360000Y-65520000D01*
X129910000Y-67720000D02*
X127360000Y-67720000D01*
X129910000Y-72370000D02*
X125360000Y-72370000D01*
X132435000Y-61295000D02*
X127385000Y-61341000D01*
X132435000Y-61249000D02*
X132435000Y-57341000D01*
X132435000Y-57341000D02*
X123810000Y-57341000D01*
X121535000Y-59295000D02*
X121535000Y-63240000D01*
X121535000Y-63249000D02*
X125145000Y-63249000D01*
X125355000Y-71595000D02*
G75*
G03*
X124135000Y-70175000I-1320000J100000D01*
G01*
X125065000Y-65545000D02*
G75*
G03*
X127435000Y-67715000I2270000J100000D01*
G01*
X125150000Y-63225000D02*
G75*
G02*
X127410000Y-61345000I2070000J-190000D01*
G01*
X121546000Y-59225000D02*
G75*
G02*
X123810000Y-57341000I2074000J-190000D01*
G01*
%TO.C,SW13*%
X68205000Y-124965000D02*
X68205000Y-125665000D01*
X63210000Y-118865000D02*
X63185000Y-123465000D01*
X72785000Y-121065000D02*
X72785000Y-125665000D01*
X66985000Y-123490000D02*
X63210000Y-123490000D01*
X67910000Y-118840000D02*
X63210000Y-118840000D01*
X72760000Y-121040000D02*
X70210000Y-121040000D01*
X72760000Y-125690000D02*
X68210000Y-125690000D01*
X75285000Y-114615000D02*
X70235000Y-114661000D01*
X75285000Y-114569000D02*
X75285000Y-110661000D01*
X75285000Y-110661000D02*
X66660000Y-110661000D01*
X64385000Y-112615000D02*
X64385000Y-116560000D01*
X64385000Y-116569000D02*
X67995000Y-116569000D01*
X68205000Y-124915000D02*
G75*
G03*
X66985000Y-123495000I-1320000J100000D01*
G01*
X67915000Y-118865000D02*
G75*
G03*
X70285000Y-121035000I2270000J100000D01*
G01*
X68000000Y-116545000D02*
G75*
G02*
X70260000Y-114665000I2070000J-190000D01*
G01*
X64396000Y-112545000D02*
G75*
G02*
X66660000Y-110661000I2074000J-190000D01*
G01*
%TO.C,D11*%
X150614000Y-77325000D02*
X150614000Y-76325000D01*
X150514000Y-76825000D02*
X149614000Y-77325000D01*
X149614000Y-77325000D02*
X149614000Y-76325000D01*
X149614000Y-76325000D02*
X150514000Y-76825000D01*
X147414000Y-77575000D02*
X152814000Y-77575000D01*
X152814000Y-77575000D02*
X152814000Y-76075000D01*
X152814000Y-76075000D02*
X147414000Y-76075000D01*
X147414000Y-76075000D02*
X147414000Y-77575000D01*
%TO.C,SW11*%
X140585000Y-84194000D02*
X144195000Y-84194000D01*
X140585000Y-80240000D02*
X140585000Y-84185000D01*
X151485000Y-78286000D02*
X142860000Y-78286000D01*
X151485000Y-82194000D02*
X151485000Y-78286000D01*
X151485000Y-82240000D02*
X146435000Y-82286000D01*
X148960000Y-93315000D02*
X144410000Y-93315000D01*
X148960000Y-88665000D02*
X146410000Y-88665000D01*
X144110000Y-86465000D02*
X139410000Y-86465000D01*
X143185000Y-91115000D02*
X139410000Y-91115000D01*
X148985000Y-88690000D02*
X148985000Y-93290000D01*
X139410000Y-86490000D02*
X139385000Y-91090000D01*
X144405000Y-92590000D02*
X144405000Y-93290000D01*
X140596000Y-80170000D02*
G75*
G02*
X142860000Y-78286000I2074000J-190000D01*
G01*
X144200000Y-84170000D02*
G75*
G02*
X146460000Y-82290000I2070000J-190000D01*
G01*
X144115000Y-86490000D02*
G75*
G03*
X146485000Y-88660000I2270000J100000D01*
G01*
X144405000Y-92540000D02*
G75*
G03*
X143185000Y-91120000I-1320000J100000D01*
G01*
%TO.C,SW8*%
X87255000Y-105915000D02*
X87255000Y-106615000D01*
X82260000Y-99815000D02*
X82235000Y-104415000D01*
X91835000Y-102015000D02*
X91835000Y-106615000D01*
X86035000Y-104440000D02*
X82260000Y-104440000D01*
X86960000Y-99790000D02*
X82260000Y-99790000D01*
X91810000Y-101990000D02*
X89260000Y-101990000D01*
X91810000Y-106640000D02*
X87260000Y-106640000D01*
X94335000Y-95565000D02*
X89285000Y-95611000D01*
X94335000Y-95519000D02*
X94335000Y-91611000D01*
X94335000Y-91611000D02*
X85710000Y-91611000D01*
X83435000Y-93565000D02*
X83435000Y-97510000D01*
X83435000Y-97519000D02*
X87045000Y-97519000D01*
X87255000Y-105865000D02*
G75*
G03*
X86035000Y-104445000I-1320000J100000D01*
G01*
X86965000Y-99815000D02*
G75*
G03*
X89335000Y-101985000I2270000J100000D01*
G01*
X87050000Y-97495000D02*
G75*
G02*
X89310000Y-95615000I2070000J-190000D01*
G01*
X83446000Y-93495000D02*
G75*
G02*
X85710000Y-91611000I2074000J-190000D01*
G01*
%TO.C,SW7*%
X64385000Y-97519000D02*
X67995000Y-97519000D01*
X64385000Y-93565000D02*
X64385000Y-97510000D01*
X75285000Y-91611000D02*
X66660000Y-91611000D01*
X75285000Y-95519000D02*
X75285000Y-91611000D01*
X75285000Y-95565000D02*
X70235000Y-95611000D01*
X72760000Y-106640000D02*
X68210000Y-106640000D01*
X72760000Y-101990000D02*
X70210000Y-101990000D01*
X67910000Y-99790000D02*
X63210000Y-99790000D01*
X66985000Y-104440000D02*
X63210000Y-104440000D01*
X72785000Y-102015000D02*
X72785000Y-106615000D01*
X63210000Y-99815000D02*
X63185000Y-104415000D01*
X68205000Y-105915000D02*
X68205000Y-106615000D01*
X64396000Y-93495000D02*
G75*
G02*
X66660000Y-91611000I2074000J-190000D01*
G01*
X68000000Y-97495000D02*
G75*
G02*
X70260000Y-95615000I2070000J-190000D01*
G01*
X67915000Y-99815000D02*
G75*
G03*
X70285000Y-101985000I2270000J100000D01*
G01*
X68205000Y-105865000D02*
G75*
G03*
X66985000Y-104445000I-1320000J100000D01*
G01*
%TO.C,J1*%
X182387000Y-114503000D02*
X194387000Y-114503000D01*
X182387000Y-120503000D02*
X182387000Y-114503000D01*
X194387000Y-120503000D02*
X182387000Y-120503000D01*
X194387000Y-114503000D02*
X194387000Y-120503000D01*
%TO.C,RSW1*%
X190837000Y-106601000D02*
X191087000Y-106601000D01*
X190837000Y-112601000D02*
X190837000Y-106601000D01*
X191087000Y-112601000D02*
X190837000Y-112601000D01*
X194337000Y-112601000D02*
X194087000Y-112601000D01*
X194337000Y-106601000D02*
X194337000Y-112601000D01*
X194087000Y-106601000D02*
X194337000Y-106601000D01*
%TO.C,SW2*%
X87255000Y-86865000D02*
X87255000Y-87565000D01*
X82260000Y-80765000D02*
X82235000Y-85365000D01*
X91835000Y-82965000D02*
X91835000Y-87565000D01*
X86035000Y-85390000D02*
X82260000Y-85390000D01*
X86960000Y-80740000D02*
X82260000Y-80740000D01*
X91810000Y-82940000D02*
X89260000Y-82940000D01*
X91810000Y-87590000D02*
X87260000Y-87590000D01*
X94335000Y-76515000D02*
X89285000Y-76561000D01*
X94335000Y-76469000D02*
X94335000Y-72561000D01*
X94335000Y-72561000D02*
X85710000Y-72561000D01*
X83435000Y-74515000D02*
X83435000Y-78460000D01*
X83435000Y-78469000D02*
X87045000Y-78469000D01*
X87255000Y-86815000D02*
G75*
G03*
X86035000Y-85395000I-1320000J100000D01*
G01*
X86965000Y-80765000D02*
G75*
G03*
X89335000Y-82935000I2270000J100000D01*
G01*
X87050000Y-78445000D02*
G75*
G02*
X89310000Y-76565000I2070000J-190000D01*
G01*
X83446000Y-74445000D02*
G75*
G02*
X85710000Y-72561000I2074000J-190000D01*
G01*
%TO.C,SW3*%
X106305000Y-73540000D02*
X106305000Y-74240000D01*
X101310000Y-67440000D02*
X101285000Y-72040000D01*
X110885000Y-69640000D02*
X110885000Y-74240000D01*
X105085000Y-72065000D02*
X101310000Y-72065000D01*
X106010000Y-67415000D02*
X101310000Y-67415000D01*
X110860000Y-69615000D02*
X108310000Y-69615000D01*
X110860000Y-74265000D02*
X106310000Y-74265000D01*
X113385000Y-63190000D02*
X108335000Y-63236000D01*
X113385000Y-63144000D02*
X113385000Y-59236000D01*
X113385000Y-59236000D02*
X104760000Y-59236000D01*
X102485000Y-61190000D02*
X102485000Y-65135000D01*
X102485000Y-65144000D02*
X106095000Y-65144000D01*
X106305000Y-73490000D02*
G75*
G03*
X105085000Y-72070000I-1320000J100000D01*
G01*
X106015000Y-67440000D02*
G75*
G03*
X108385000Y-69610000I2270000J100000D01*
G01*
X106100000Y-65120000D02*
G75*
G02*
X108360000Y-63240000I2070000J-190000D01*
G01*
X102496000Y-61120000D02*
G75*
G02*
X104760000Y-59236000I2074000J-190000D01*
G01*
%TO.C,SW6*%
X159635000Y-67059000D02*
X163245000Y-67059000D01*
X159635000Y-63105000D02*
X159635000Y-67050000D01*
X170535000Y-61151000D02*
X161910000Y-61151000D01*
X170535000Y-65059000D02*
X170535000Y-61151000D01*
X170535000Y-65105000D02*
X165485000Y-65151000D01*
X168010000Y-76180000D02*
X163460000Y-76180000D01*
X168010000Y-71530000D02*
X165460000Y-71530000D01*
X163160000Y-69330000D02*
X158460000Y-69330000D01*
X162235000Y-73980000D02*
X158460000Y-73980000D01*
X168035000Y-71555000D02*
X168035000Y-76155000D01*
X158460000Y-69355000D02*
X158435000Y-73955000D01*
X163455000Y-75455000D02*
X163455000Y-76155000D01*
X159646000Y-63035000D02*
G75*
G02*
X161910000Y-61151000I2074000J-190000D01*
G01*
X163250000Y-67035000D02*
G75*
G02*
X165510000Y-65155000I2070000J-190000D01*
G01*
X163165000Y-69355000D02*
G75*
G03*
X165535000Y-71525000I2270000J100000D01*
G01*
X163455000Y-75405000D02*
G75*
G03*
X162235000Y-73985000I-1320000J100000D01*
G01*
%TO.C,SW9*%
X102485000Y-84194000D02*
X106095000Y-84194000D01*
X102485000Y-80240000D02*
X102485000Y-84185000D01*
X113385000Y-78286000D02*
X104760000Y-78286000D01*
X113385000Y-82194000D02*
X113385000Y-78286000D01*
X113385000Y-82240000D02*
X108335000Y-82286000D01*
X110860000Y-93315000D02*
X106310000Y-93315000D01*
X110860000Y-88665000D02*
X108310000Y-88665000D01*
X106010000Y-86465000D02*
X101310000Y-86465000D01*
X105085000Y-91115000D02*
X101310000Y-91115000D01*
X110885000Y-88690000D02*
X110885000Y-93290000D01*
X101310000Y-86490000D02*
X101285000Y-91090000D01*
X106305000Y-92590000D02*
X106305000Y-93290000D01*
X102496000Y-80170000D02*
G75*
G02*
X104760000Y-78286000I2074000J-190000D01*
G01*
X106100000Y-84170000D02*
G75*
G02*
X108360000Y-82290000I2070000J-190000D01*
G01*
X106015000Y-86490000D02*
G75*
G03*
X108385000Y-88660000I2270000J100000D01*
G01*
X106305000Y-92540000D02*
G75*
G03*
X105085000Y-91120000I-1320000J100000D01*
G01*
%TO.C,SW10*%
X121535000Y-82279000D02*
X125145000Y-82279000D01*
X121535000Y-78325000D02*
X121535000Y-82270000D01*
X132435000Y-76371000D02*
X123810000Y-76371000D01*
X132435000Y-80279000D02*
X132435000Y-76371000D01*
X132435000Y-80325000D02*
X127385000Y-80371000D01*
X129910000Y-91400000D02*
X125360000Y-91400000D01*
X129910000Y-86750000D02*
X127360000Y-86750000D01*
X125060000Y-84550000D02*
X120360000Y-84550000D01*
X124135000Y-89200000D02*
X120360000Y-89200000D01*
X129935000Y-86775000D02*
X129935000Y-91375000D01*
X120360000Y-84575000D02*
X120335000Y-89175000D01*
X125355000Y-90675000D02*
X125355000Y-91375000D01*
X121546000Y-78255000D02*
G75*
G02*
X123810000Y-76371000I2074000J-190000D01*
G01*
X125150000Y-82255000D02*
G75*
G02*
X127410000Y-80375000I2070000J-190000D01*
G01*
X125065000Y-84575000D02*
G75*
G03*
X127435000Y-86745000I2270000J100000D01*
G01*
X125355000Y-90625000D02*
G75*
G03*
X124135000Y-89205000I-1320000J100000D01*
G01*
%TO.C,SW14*%
X83435000Y-116569000D02*
X87045000Y-116569000D01*
X83435000Y-112615000D02*
X83435000Y-116560000D01*
X94335000Y-110661000D02*
X85710000Y-110661000D01*
X94335000Y-114569000D02*
X94335000Y-110661000D01*
X94335000Y-114615000D02*
X89285000Y-114661000D01*
X91810000Y-125690000D02*
X87260000Y-125690000D01*
X91810000Y-121040000D02*
X89260000Y-121040000D01*
X86960000Y-118840000D02*
X82260000Y-118840000D01*
X86035000Y-123490000D02*
X82260000Y-123490000D01*
X91835000Y-121065000D02*
X91835000Y-125665000D01*
X82260000Y-118865000D02*
X82235000Y-123465000D01*
X87255000Y-124965000D02*
X87255000Y-125665000D01*
X83446000Y-112545000D02*
G75*
G02*
X85710000Y-110661000I2074000J-190000D01*
G01*
X87050000Y-116545000D02*
G75*
G02*
X89310000Y-114665000I2070000J-190000D01*
G01*
X86965000Y-118865000D02*
G75*
G03*
X89335000Y-121035000I2270000J100000D01*
G01*
X87255000Y-124915000D02*
G75*
G03*
X86035000Y-123495000I-1320000J100000D01*
G01*
%TO.C,SW15*%
X106305000Y-111640000D02*
X106305000Y-112340000D01*
X101310000Y-105540000D02*
X101285000Y-110140000D01*
X110885000Y-107740000D02*
X110885000Y-112340000D01*
X105085000Y-110165000D02*
X101310000Y-110165000D01*
X106010000Y-105515000D02*
X101310000Y-105515000D01*
X110860000Y-107715000D02*
X108310000Y-107715000D01*
X110860000Y-112365000D02*
X106310000Y-112365000D01*
X113385000Y-101290000D02*
X108335000Y-101336000D01*
X113385000Y-101244000D02*
X113385000Y-97336000D01*
X113385000Y-97336000D02*
X104760000Y-97336000D01*
X102485000Y-99290000D02*
X102485000Y-103235000D01*
X102485000Y-103244000D02*
X106095000Y-103244000D01*
X106305000Y-111590000D02*
G75*
G03*
X105085000Y-110170000I-1320000J100000D01*
G01*
X106015000Y-105540000D02*
G75*
G03*
X108385000Y-107710000I2270000J100000D01*
G01*
X106100000Y-103220000D02*
G75*
G02*
X108360000Y-101340000I2070000J-190000D01*
G01*
X102496000Y-99220000D02*
G75*
G02*
X104760000Y-97336000I2074000J-190000D01*
G01*
%TO.C,SW16*%
X121535000Y-101329000D02*
X125145000Y-101329000D01*
X121535000Y-97375000D02*
X121535000Y-101320000D01*
X132435000Y-95421000D02*
X123810000Y-95421000D01*
X132435000Y-99329000D02*
X132435000Y-95421000D01*
X132435000Y-99375000D02*
X127385000Y-99421000D01*
X129910000Y-110450000D02*
X125360000Y-110450000D01*
X129910000Y-105800000D02*
X127360000Y-105800000D01*
X125060000Y-103600000D02*
X120360000Y-103600000D01*
X124135000Y-108250000D02*
X120360000Y-108250000D01*
X129935000Y-105825000D02*
X129935000Y-110425000D01*
X120360000Y-103625000D02*
X120335000Y-108225000D01*
X125355000Y-109725000D02*
X125355000Y-110425000D01*
X121546000Y-97305000D02*
G75*
G02*
X123810000Y-95421000I2074000J-190000D01*
G01*
X125150000Y-101305000D02*
G75*
G02*
X127410000Y-99425000I2070000J-190000D01*
G01*
X125065000Y-103625000D02*
G75*
G03*
X127435000Y-105795000I2270000J100000D01*
G01*
X125355000Y-109675000D02*
G75*
G03*
X124135000Y-108255000I-1320000J100000D01*
G01*
%TO.C,SW17*%
X140585000Y-103244000D02*
X144195000Y-103244000D01*
X140585000Y-99290000D02*
X140585000Y-103235000D01*
X151485000Y-97336000D02*
X142860000Y-97336000D01*
X151485000Y-101244000D02*
X151485000Y-97336000D01*
X151485000Y-101290000D02*
X146435000Y-101336000D01*
X148960000Y-112365000D02*
X144410000Y-112365000D01*
X148960000Y-107715000D02*
X146410000Y-107715000D01*
X144110000Y-105515000D02*
X139410000Y-105515000D01*
X143185000Y-110165000D02*
X139410000Y-110165000D01*
X148985000Y-107740000D02*
X148985000Y-112340000D01*
X139410000Y-105540000D02*
X139385000Y-110140000D01*
X144405000Y-111640000D02*
X144405000Y-112340000D01*
X140596000Y-99220000D02*
G75*
G02*
X142860000Y-97336000I2074000J-190000D01*
G01*
X144200000Y-103220000D02*
G75*
G02*
X146460000Y-101340000I2070000J-190000D01*
G01*
X144115000Y-105540000D02*
G75*
G03*
X146485000Y-107710000I2270000J100000D01*
G01*
X144405000Y-111590000D02*
G75*
G03*
X143185000Y-110170000I-1320000J100000D01*
G01*
%TO.C,SW19*%
X107240000Y-124189000D02*
X110850000Y-124189000D01*
X107240000Y-120235000D02*
X107240000Y-124180000D01*
X118140000Y-118281000D02*
X109515000Y-118281000D01*
X118140000Y-122189000D02*
X118140000Y-118281000D01*
X118140000Y-122235000D02*
X113090000Y-122281000D01*
X115615000Y-133310000D02*
X111065000Y-133310000D01*
X115615000Y-128660000D02*
X113065000Y-128660000D01*
X110765000Y-126460000D02*
X106065000Y-126460000D01*
X109840000Y-131110000D02*
X106065000Y-131110000D01*
X115639999Y-128685000D02*
X115639999Y-133285000D01*
X106065000Y-126485000D02*
X106040000Y-131084999D01*
X111060000Y-132585000D02*
X111060000Y-133285000D01*
X107251000Y-120165000D02*
G75*
G02*
X109515000Y-118281000I2074000J-190000D01*
G01*
X110854999Y-124164999D02*
G75*
G02*
X113115000Y-122285000I2070000J-190001D01*
G01*
X110770000Y-126485000D02*
G75*
G03*
X113140000Y-128655000I2270000J100000D01*
G01*
X111060001Y-132534999D02*
G75*
G03*
X109840000Y-131115000I-1320000J99999D01*
G01*
%TO.C,SW20*%
X131050000Y-124189000D02*
X134660000Y-124189000D01*
X131050000Y-120235000D02*
X131050000Y-124180000D01*
X141950000Y-118281000D02*
X133325000Y-118281000D01*
X141950000Y-122189000D02*
X141950000Y-118281000D01*
X141950000Y-122235000D02*
X136900000Y-122281000D01*
X139425000Y-133310000D02*
X134875000Y-133310000D01*
X139425000Y-128660000D02*
X136875000Y-128660000D01*
X134575000Y-126460000D02*
X129875000Y-126460000D01*
X133650000Y-131110000D02*
X129875000Y-131110000D01*
X139450000Y-128685000D02*
X139450000Y-133285000D01*
X129875000Y-126485000D02*
X129850000Y-131085000D01*
X134870000Y-132585000D02*
X134870000Y-133285000D01*
X131061000Y-120165000D02*
G75*
G02*
X133325000Y-118281000I2074000J-190000D01*
G01*
X134665000Y-124165000D02*
G75*
G02*
X136925000Y-122285000I2070000J-190000D01*
G01*
X134580000Y-126485000D02*
G75*
G03*
X136950000Y-128655000I2270000J100000D01*
G01*
X134870000Y-132535000D02*
G75*
G03*
X133650000Y-131115000I-1320000J100000D01*
G01*
%TO.C,SW21*%
X155141546Y-134404336D02*
X154960373Y-135080484D01*
X151895543Y-127219388D02*
X150680827Y-131656176D01*
X160574881Y-131822617D02*
X159384313Y-136265876D01*
X154344875Y-132663836D02*
X150698505Y-131686795D01*
X156441865Y-128411689D02*
X151902013Y-127195239D01*
X160557203Y-131791998D02*
X158094092Y-131132010D01*
X159353695Y-136283553D02*
X154958732Y-135105927D01*
X164659078Y-126239443D02*
X159769247Y-124976839D01*
X164670984Y-126195010D02*
X165682449Y-122420172D01*
X165682449Y-122420172D02*
X157351338Y-120187858D01*
X154648125Y-121486464D02*
X153627084Y-125297041D01*
X153624754Y-125305734D02*
X157111747Y-126240071D01*
X155154487Y-134356040D02*
G75*
G03*
X154343581Y-132668666I-1249140J438234D01*
G01*
X156440224Y-128437132D02*
G75*
G03*
X158167831Y-131146591I2218533J-490926D01*
G01*
X157122788Y-126218183D02*
G75*
G02*
X159792360Y-124987173I1950291J-719281D01*
G01*
X154676868Y-121421696D02*
G75*
G02*
X157351338Y-120187858I1954154J-720316D01*
G01*
%TO.C,U1*%
X175133000Y-104267000D02*
X175133000Y-73787000D01*
X177673000Y-104267000D02*
X175133000Y-104267000D01*
X177673000Y-73787000D02*
X177673000Y-104267000D01*
X175133000Y-73787000D02*
X177673000Y-73787000D01*
X190373000Y-104267000D02*
X190373000Y-73787000D01*
X192913000Y-104267000D02*
X190373000Y-104267000D01*
X192913000Y-73787000D02*
X192913000Y-104267000D01*
X190373000Y-73787000D02*
X192913000Y-73787000D01*
%TO.C,D1*%
X73884000Y-70487000D02*
X73884000Y-71987000D01*
X79284000Y-70487000D02*
X73884000Y-70487000D01*
X79284000Y-71987000D02*
X79284000Y-70487000D01*
X73884000Y-71987000D02*
X79284000Y-71987000D01*
X76084000Y-70737000D02*
X76984000Y-71237000D01*
X76084000Y-71737000D02*
X76084000Y-70737000D01*
X76984000Y-71237000D02*
X76084000Y-71737000D01*
X77084000Y-71737000D02*
X77084000Y-70737000D01*
%TO.C,D2*%
X92934000Y-70487000D02*
X92934000Y-71987000D01*
X98334000Y-70487000D02*
X92934000Y-70487000D01*
X98334000Y-71987000D02*
X98334000Y-70487000D01*
X92934000Y-71987000D02*
X98334000Y-71987000D01*
X95134000Y-70737000D02*
X96034000Y-71237000D01*
X95134000Y-71737000D02*
X95134000Y-70737000D01*
X96034000Y-71237000D02*
X95134000Y-71737000D01*
X96134000Y-71737000D02*
X96134000Y-70737000D01*
%TO.C,D3*%
X115181000Y-58529000D02*
X115181000Y-57529000D01*
X115081000Y-58029000D02*
X114181000Y-58529000D01*
X114181000Y-58529000D02*
X114181000Y-57529000D01*
X114181000Y-57529000D02*
X115081000Y-58029000D01*
X111981000Y-58779000D02*
X117381000Y-58779000D01*
X117381000Y-58779000D02*
X117381000Y-57279000D01*
X117381000Y-57279000D02*
X111981000Y-57279000D01*
X111981000Y-57279000D02*
X111981000Y-58779000D01*
%TO.C,D4*%
X134234000Y-56497000D02*
X134234000Y-55497000D01*
X134134000Y-55997000D02*
X133234000Y-56497000D01*
X133234000Y-56497000D02*
X133234000Y-55497000D01*
X133234000Y-55497000D02*
X134134000Y-55997000D01*
X131034000Y-56747000D02*
X136434000Y-56747000D01*
X136434000Y-56747000D02*
X136434000Y-55247000D01*
X136434000Y-55247000D02*
X131034000Y-55247000D01*
X131034000Y-55247000D02*
X131034000Y-56747000D01*
%TO.C,D5*%
X153027000Y-58275000D02*
X153027000Y-57275000D01*
X152927000Y-57775000D02*
X152027000Y-58275000D01*
X152027000Y-58275000D02*
X152027000Y-57275000D01*
X152027000Y-57275000D02*
X152927000Y-57775000D01*
X149827000Y-58525000D02*
X155227000Y-58525000D01*
X155227000Y-58525000D02*
X155227000Y-57025000D01*
X155227000Y-57025000D02*
X149827000Y-57025000D01*
X149827000Y-57025000D02*
X149827000Y-58525000D01*
%TO.C,D6*%
X172331000Y-60307000D02*
X172331000Y-59307000D01*
X172231000Y-59807000D02*
X171331000Y-60307000D01*
X171331000Y-60307000D02*
X171331000Y-59307000D01*
X171331000Y-59307000D02*
X172231000Y-59807000D01*
X169131000Y-60557000D02*
X174531000Y-60557000D01*
X174531000Y-60557000D02*
X174531000Y-59057000D01*
X174531000Y-59057000D02*
X169131000Y-59057000D01*
X169131000Y-59057000D02*
X169131000Y-60557000D01*
%TO.C,D7*%
X71087000Y-89537000D02*
X71087000Y-91037000D01*
X76487000Y-89537000D02*
X71087000Y-89537000D01*
X76487000Y-91037000D02*
X76487000Y-89537000D01*
X71087000Y-91037000D02*
X76487000Y-91037000D01*
X73287000Y-89787000D02*
X74187000Y-90287000D01*
X73287000Y-90787000D02*
X73287000Y-89787000D01*
X74187000Y-90287000D02*
X73287000Y-90787000D01*
X74287000Y-90787000D02*
X74287000Y-89787000D01*
%TO.C,D8*%
X96131000Y-90787000D02*
X96131000Y-89787000D01*
X96031000Y-90287000D02*
X95131000Y-90787000D01*
X95131000Y-90787000D02*
X95131000Y-89787000D01*
X95131000Y-89787000D02*
X96031000Y-90287000D01*
X92931000Y-91037000D02*
X98331000Y-91037000D01*
X98331000Y-91037000D02*
X98331000Y-89537000D01*
X98331000Y-89537000D02*
X92931000Y-89537000D01*
X92931000Y-89537000D02*
X92931000Y-91037000D01*
%TO.C,D9*%
X111981000Y-76329000D02*
X111981000Y-77829000D01*
X117381000Y-76329000D02*
X111981000Y-76329000D01*
X117381000Y-77829000D02*
X117381000Y-76329000D01*
X111981000Y-77829000D02*
X117381000Y-77829000D01*
X114181000Y-76579000D02*
X115081000Y-77079000D01*
X114181000Y-77579000D02*
X114181000Y-76579000D01*
X115081000Y-77079000D02*
X114181000Y-77579000D01*
X115181000Y-77579000D02*
X115181000Y-76579000D01*
%TO.C,D10*%
X134231000Y-75547000D02*
X134231000Y-74547000D01*
X134131000Y-75047000D02*
X133231000Y-75547000D01*
X133231000Y-75547000D02*
X133231000Y-74547000D01*
X133231000Y-74547000D02*
X134131000Y-75047000D01*
X131031000Y-75797000D02*
X136431000Y-75797000D01*
X136431000Y-75797000D02*
X136431000Y-74297000D01*
X136431000Y-74297000D02*
X131031000Y-74297000D01*
X131031000Y-74297000D02*
X131031000Y-75797000D01*
%TO.C,D12*%
X169131000Y-78107000D02*
X169131000Y-79607000D01*
X174531000Y-78107000D02*
X169131000Y-78107000D01*
X174531000Y-79607000D02*
X174531000Y-78107000D01*
X169131000Y-79607000D02*
X174531000Y-79607000D01*
X171331000Y-78357000D02*
X172231000Y-78857000D01*
X171331000Y-79357000D02*
X171331000Y-78357000D01*
X172231000Y-78857000D02*
X171331000Y-79357000D01*
X172331000Y-79357000D02*
X172331000Y-78357000D01*
%TO.C,D13*%
X74287000Y-109710000D02*
X74287000Y-108710000D01*
X74187000Y-109210000D02*
X73287000Y-109710000D01*
X73287000Y-109710000D02*
X73287000Y-108710000D01*
X73287000Y-108710000D02*
X74187000Y-109210000D01*
X71087000Y-109960000D02*
X76487000Y-109960000D01*
X76487000Y-109960000D02*
X76487000Y-108460000D01*
X76487000Y-108460000D02*
X71087000Y-108460000D01*
X71087000Y-108460000D02*
X71087000Y-109960000D01*
%TO.C,D14*%
X96134000Y-109837000D02*
X96134000Y-108837000D01*
X96034000Y-109337000D02*
X95134000Y-109837000D01*
X95134000Y-109837000D02*
X95134000Y-108837000D01*
X95134000Y-108837000D02*
X96034000Y-109337000D01*
X92934000Y-110087000D02*
X98334000Y-110087000D01*
X98334000Y-110087000D02*
X98334000Y-108587000D01*
X98334000Y-108587000D02*
X92934000Y-108587000D01*
X92934000Y-108587000D02*
X92934000Y-110087000D01*
%TO.C,D15*%
X111984000Y-95125000D02*
X111984000Y-96625000D01*
X117384000Y-95125000D02*
X111984000Y-95125000D01*
X117384000Y-96625000D02*
X117384000Y-95125000D01*
X111984000Y-96625000D02*
X117384000Y-96625000D01*
X114184000Y-95375000D02*
X115084000Y-95875000D01*
X114184000Y-96375000D02*
X114184000Y-95375000D01*
X115084000Y-95875000D02*
X114184000Y-96375000D01*
X115184000Y-96375000D02*
X115184000Y-95375000D01*
%TO.C,D16*%
X131285000Y-93347000D02*
X131285000Y-94847000D01*
X136685000Y-93347000D02*
X131285000Y-93347000D01*
X136685000Y-94847000D02*
X136685000Y-93347000D01*
X131285000Y-94847000D02*
X136685000Y-94847000D01*
X133485000Y-93597000D02*
X134385000Y-94097000D01*
X133485000Y-94597000D02*
X133485000Y-93597000D01*
X134385000Y-94097000D02*
X133485000Y-94597000D01*
X134485000Y-94597000D02*
X134485000Y-93597000D01*
%TO.C,D17*%
X150084000Y-95379000D02*
X150084000Y-96879000D01*
X155484000Y-95379000D02*
X150084000Y-95379000D01*
X155484000Y-96879000D02*
X155484000Y-95379000D01*
X150084000Y-96879000D02*
X155484000Y-96879000D01*
X152284000Y-95629000D02*
X153184000Y-96129000D01*
X152284000Y-96629000D02*
X152284000Y-95629000D01*
X153184000Y-96129000D02*
X152284000Y-96629000D01*
X153284000Y-96629000D02*
X153284000Y-95629000D01*
%TO.C,D18*%
X172331000Y-98407000D02*
X172331000Y-97407000D01*
X172231000Y-97907000D02*
X171331000Y-98407000D01*
X171331000Y-98407000D02*
X171331000Y-97407000D01*
X171331000Y-97407000D02*
X172231000Y-97907000D01*
X169131000Y-98657000D02*
X174531000Y-98657000D01*
X174531000Y-98657000D02*
X174531000Y-97157000D01*
X174531000Y-97157000D02*
X169131000Y-97157000D01*
X169131000Y-97157000D02*
X169131000Y-98657000D01*
%TO.C,D19*%
X116299000Y-116207000D02*
X116299000Y-117707000D01*
X121699000Y-116207000D02*
X116299000Y-116207000D01*
X121699000Y-117707000D02*
X121699000Y-116207000D01*
X116299000Y-117707000D02*
X121699000Y-117707000D01*
X118499000Y-116457000D02*
X119399000Y-116957000D01*
X118499000Y-117457000D02*
X118499000Y-116457000D01*
X119399000Y-116957000D02*
X118499000Y-117457000D01*
X119499000Y-117457000D02*
X119499000Y-116457000D01*
%TO.C,D20*%
X140686000Y-116207000D02*
X140686000Y-117707000D01*
X146086000Y-116207000D02*
X140686000Y-116207000D01*
X146086000Y-117707000D02*
X146086000Y-116207000D01*
X140686000Y-117707000D02*
X146086000Y-117707000D01*
X142886000Y-116457000D02*
X143786000Y-116957000D01*
X142886000Y-117457000D02*
X142886000Y-116457000D01*
X143786000Y-116957000D02*
X142886000Y-117457000D01*
X143886000Y-117457000D02*
X143886000Y-116457000D01*
%TO.C,D21*%
X164845115Y-120105744D02*
X164456886Y-121554633D01*
X170061114Y-121503367D02*
X164845115Y-120105744D01*
X169672885Y-122952256D02*
X170061114Y-121503367D01*
X164456886Y-121554633D02*
X169672885Y-122952256D01*
X166905447Y-120916628D02*
X167645370Y-121632528D01*
X166646628Y-121882553D02*
X166905447Y-120916628D01*
X167645370Y-121632528D02*
X166646628Y-121882553D01*
X167612553Y-122141372D02*
X167871372Y-121175447D01*
%TO.C,D22*%
X188270013Y-132880013D02*
X188770013Y-132013987D01*
X188433410Y-132397000D02*
X187403987Y-132380013D01*
X187403987Y-132380013D02*
X187903987Y-131513987D01*
X187903987Y-131513987D02*
X188433410Y-132397000D01*
X185373731Y-131496519D02*
X190050269Y-134196519D01*
X190050269Y-134196519D02*
X190800269Y-132897481D01*
X190800269Y-132897481D02*
X186123731Y-130197481D01*
X186123731Y-130197481D02*
X185373731Y-131496519D01*
%TO.C,JP6*%
X188341000Y-104640380D02*
X190119000Y-104640380D01*
X188341000Y-102354380D02*
X188341000Y-104640380D01*
X190119000Y-102354380D02*
X188341000Y-102354380D01*
X190119000Y-104640380D02*
X190119000Y-102354380D01*
%TO.C,JP7*%
X185801000Y-104648000D02*
X187579000Y-104648000D01*
X185801000Y-102362000D02*
X185801000Y-104648000D01*
X187579000Y-102362000D02*
X185801000Y-102362000D01*
X187579000Y-104648000D02*
X187579000Y-102362000D01*
%TO.C,JP8*%
X185039000Y-104648000D02*
X185039000Y-102362000D01*
X185039000Y-102362000D02*
X183261000Y-102362000D01*
X183261000Y-102362000D02*
X183261000Y-104648000D01*
X183261000Y-104648000D02*
X185039000Y-104648000D01*
%TO.C,JP9*%
X180721000Y-104648000D02*
X182499000Y-104648000D01*
X180721000Y-102362000D02*
X180721000Y-104648000D01*
X182499000Y-102362000D02*
X180721000Y-102362000D01*
X182499000Y-104648000D02*
X182499000Y-102362000D01*
%TO.C,R1*%
X188825000Y-109236000D02*
X188825000Y-111236000D01*
X185825000Y-109236000D02*
X188825000Y-109236000D01*
X185825000Y-111236000D02*
X185825000Y-109236000D01*
X188825000Y-111236000D02*
X185825000Y-111236000D01*
%TO.C,R2*%
X188825000Y-113649000D02*
X185825000Y-113649000D01*
X185825000Y-113649000D02*
X185825000Y-111649000D01*
X185825000Y-111649000D02*
X188825000Y-111649000D01*
X188825000Y-111649000D02*
X188825000Y-113649000D01*
%TO.C,P1*%
X180282923Y-110476695D02*
X180282923Y-109663895D01*
X179973285Y-109663895D01*
X179895876Y-109702600D01*
X179857171Y-109741304D01*
X179818466Y-109818714D01*
X179818466Y-109934828D01*
X179857171Y-110012238D01*
X179895876Y-110050942D01*
X179973285Y-110089647D01*
X180282923Y-110089647D01*
X179044371Y-110476695D02*
X179508828Y-110476695D01*
X179276600Y-110476695D02*
X179276600Y-109663895D01*
X179354009Y-109780009D01*
X179431419Y-109857419D01*
X179508828Y-109896123D01*
%TO.C,P2*%
X180282923Y-112889695D02*
X180282923Y-112076895D01*
X179973285Y-112076895D01*
X179895876Y-112115600D01*
X179857171Y-112154304D01*
X179818466Y-112231714D01*
X179818466Y-112347828D01*
X179857171Y-112425238D01*
X179895876Y-112463942D01*
X179973285Y-112502647D01*
X180282923Y-112502647D01*
X179508828Y-112154304D02*
X179470123Y-112115600D01*
X179392714Y-112076895D01*
X179199190Y-112076895D01*
X179121780Y-112115600D01*
X179083076Y-112154304D01*
X179044371Y-112231714D01*
X179044371Y-112309123D01*
X179083076Y-112425238D01*
X179547533Y-112889695D01*
X179044371Y-112889695D01*
%TO.C,J5*%
X186872380Y-105609380D02*
X186681904Y-105609380D01*
X186586666Y-105657000D01*
X186491428Y-105752238D01*
X186443809Y-105942714D01*
X186443809Y-106276047D01*
X186491428Y-106466523D01*
X186586666Y-106561761D01*
X186681904Y-106609380D01*
X186872380Y-106609380D01*
X186967619Y-106561761D01*
X187062857Y-106466523D01*
X187110476Y-106276047D01*
X187110476Y-105942714D01*
X187062857Y-105752238D01*
X186967619Y-105657000D01*
X186872380Y-105609380D01*
X185539047Y-106609380D02*
X186015238Y-106609380D01*
X186015238Y-105609380D01*
X185205714Y-106085571D02*
X184872380Y-106085571D01*
X184729523Y-106609380D02*
X185205714Y-106609380D01*
X185205714Y-105609380D01*
X184729523Y-105609380D01*
X184300952Y-106609380D02*
X184300952Y-105609380D01*
X184062857Y-105609380D01*
X183920000Y-105657000D01*
X183824761Y-105752238D01*
X183777142Y-105847476D01*
X183729523Y-106037952D01*
X183729523Y-106180809D01*
X183777142Y-106371285D01*
X183824761Y-106466523D01*
X183920000Y-106561761D01*
X184062857Y-106609380D01*
X184300952Y-106609380D01*
%TO.C,J1*%
X187425880Y-116665595D02*
X187425880Y-117237023D01*
X188425880Y-116951309D02*
X187425880Y-116951309D01*
X188425880Y-118141785D02*
X187949690Y-117808452D01*
X188425880Y-117570357D02*
X187425880Y-117570357D01*
X187425880Y-117951309D01*
X187473500Y-118046547D01*
X187521119Y-118094166D01*
X187616357Y-118141785D01*
X187759214Y-118141785D01*
X187854452Y-118094166D01*
X187902071Y-118046547D01*
X187949690Y-117951309D01*
X187949690Y-117570357D01*
X188425880Y-119141785D02*
X187949690Y-118808452D01*
X188425880Y-118570357D02*
X187425880Y-118570357D01*
X187425880Y-118951309D01*
X187473500Y-119046547D01*
X187521119Y-119094166D01*
X187616357Y-119141785D01*
X187759214Y-119141785D01*
X187854452Y-119094166D01*
X187902071Y-119046547D01*
X187949690Y-118951309D01*
X187949690Y-118570357D01*
X188378261Y-119522738D02*
X188425880Y-119665595D01*
X188425880Y-119903690D01*
X188378261Y-119998928D01*
X188330642Y-120046547D01*
X188235404Y-120094166D01*
X188140166Y-120094166D01*
X188044928Y-120046547D01*
X187997309Y-119998928D01*
X187949690Y-119903690D01*
X187902071Y-119713214D01*
X187854452Y-119617976D01*
X187806833Y-119570357D01*
X187711595Y-119522738D01*
X187616357Y-119522738D01*
X187521119Y-119570357D01*
X187473500Y-119617976D01*
X187425880Y-119713214D01*
X187425880Y-119951309D01*
X187473500Y-120094166D01*
%TO.C,RSW1*%
X193039380Y-108021619D02*
X192563190Y-107688285D01*
X193039380Y-107450190D02*
X192039380Y-107450190D01*
X192039380Y-107831142D01*
X192087000Y-107926380D01*
X192134619Y-107974000D01*
X192229857Y-108021619D01*
X192372714Y-108021619D01*
X192467952Y-107974000D01*
X192515571Y-107926380D01*
X192563190Y-107831142D01*
X192563190Y-107450190D01*
X192515571Y-108450190D02*
X192515571Y-108783523D01*
X193039380Y-108926380D02*
X193039380Y-108450190D01*
X192039380Y-108450190D01*
X192039380Y-108926380D01*
X192991761Y-109307333D02*
X193039380Y-109450190D01*
X193039380Y-109688285D01*
X192991761Y-109783523D01*
X192944142Y-109831142D01*
X192848904Y-109878761D01*
X192753666Y-109878761D01*
X192658428Y-109831142D01*
X192610809Y-109783523D01*
X192563190Y-109688285D01*
X192515571Y-109497809D01*
X192467952Y-109402571D01*
X192420333Y-109354952D01*
X192325095Y-109307333D01*
X192229857Y-109307333D01*
X192134619Y-109354952D01*
X192087000Y-109402571D01*
X192039380Y-109497809D01*
X192039380Y-109735904D01*
X192087000Y-109878761D01*
X192515571Y-110307333D02*
X192515571Y-110640666D01*
X193039380Y-110783523D02*
X193039380Y-110307333D01*
X192039380Y-110307333D01*
X192039380Y-110783523D01*
X192039380Y-111069238D02*
X192039380Y-111640666D01*
X193039380Y-111354952D02*
X192039380Y-111354952D01*
%TO.C,U1*%
D13*
X189829238Y-75459785D02*
X189995904Y-75102642D01*
X190114952Y-75459785D02*
X190114952Y-74709785D01*
X189924476Y-74709785D01*
X189876857Y-74745500D01*
X189853047Y-74781214D01*
X189829238Y-74852642D01*
X189829238Y-74959785D01*
X189853047Y-75031214D01*
X189876857Y-75066928D01*
X189924476Y-75102642D01*
X190114952Y-75102642D01*
X189638761Y-75245500D02*
X189400666Y-75245500D01*
X189686380Y-75459785D02*
X189519714Y-74709785D01*
X189353047Y-75459785D01*
X189234000Y-74709785D02*
X189114952Y-75459785D01*
X189019714Y-74924071D01*
X188924476Y-75459785D01*
X188805428Y-74709785D01*
X174565428Y-75459785D02*
X174803523Y-75459785D01*
X174803523Y-74709785D01*
X174398761Y-75066928D02*
X174232095Y-75066928D01*
X174160666Y-75459785D02*
X174398761Y-75459785D01*
X174398761Y-74709785D01*
X174160666Y-74709785D01*
X173946380Y-75459785D02*
X173946380Y-74709785D01*
X173827333Y-74709785D01*
X173755904Y-74745500D01*
X173708285Y-74816928D01*
X173684476Y-74888357D01*
X173660666Y-75031214D01*
X173660666Y-75138357D01*
X173684476Y-75281214D01*
X173708285Y-75352642D01*
X173755904Y-75424071D01*
X173827333Y-75459785D01*
X173946380Y-75459785D01*
X189801452Y-77222000D02*
X189849071Y-77186285D01*
X189920500Y-77186285D01*
X189991928Y-77222000D01*
X190039547Y-77293428D01*
X190063357Y-77364857D01*
X190087166Y-77507714D01*
X190087166Y-77614857D01*
X190063357Y-77757714D01*
X190039547Y-77829142D01*
X189991928Y-77900571D01*
X189920500Y-77936285D01*
X189872880Y-77936285D01*
X189801452Y-77900571D01*
X189777642Y-77864857D01*
X189777642Y-77614857D01*
X189872880Y-77614857D01*
X189563357Y-77936285D02*
X189563357Y-77186285D01*
X189277642Y-77936285D01*
X189277642Y-77186285D01*
X189039547Y-77936285D02*
X189039547Y-77186285D01*
X188920500Y-77186285D01*
X188849071Y-77222000D01*
X188801452Y-77293428D01*
X188777642Y-77364857D01*
X188753833Y-77507714D01*
X188753833Y-77614857D01*
X188777642Y-77757714D01*
X188801452Y-77829142D01*
X188849071Y-77900571D01*
X188920500Y-77936285D01*
X189039547Y-77936285D01*
X174843000Y-78104285D02*
X174843000Y-77354285D01*
X174723952Y-77354285D01*
X174652523Y-77390000D01*
X174604904Y-77461428D01*
X174581095Y-77532857D01*
X174557285Y-77675714D01*
X174557285Y-77782857D01*
X174581095Y-77925714D01*
X174604904Y-77997142D01*
X174652523Y-78068571D01*
X174723952Y-78104285D01*
X174843000Y-78104285D01*
X174366809Y-77890000D02*
X174128714Y-77890000D01*
X174414428Y-78104285D02*
X174247761Y-77354285D01*
X174081095Y-78104285D01*
X173985857Y-77354285D02*
X173700142Y-77354285D01*
X173843000Y-78104285D02*
X173843000Y-77354285D01*
X173557285Y-77890000D02*
X173319190Y-77890000D01*
X173604904Y-78104285D02*
X173438238Y-77354285D01*
X173271571Y-78104285D01*
X189757809Y-80539785D02*
X189924476Y-80182642D01*
X190043523Y-80539785D02*
X190043523Y-79789785D01*
X189853047Y-79789785D01*
X189805428Y-79825500D01*
X189781619Y-79861214D01*
X189757809Y-79932642D01*
X189757809Y-80039785D01*
X189781619Y-80111214D01*
X189805428Y-80146928D01*
X189853047Y-80182642D01*
X190043523Y-80182642D01*
X189567333Y-80504071D02*
X189495904Y-80539785D01*
X189376857Y-80539785D01*
X189329238Y-80504071D01*
X189305428Y-80468357D01*
X189281619Y-80396928D01*
X189281619Y-80325500D01*
X189305428Y-80254071D01*
X189329238Y-80218357D01*
X189376857Y-80182642D01*
X189472095Y-80146928D01*
X189519714Y-80111214D01*
X189543523Y-80075500D01*
X189567333Y-80004071D01*
X189567333Y-79932642D01*
X189543523Y-79861214D01*
X189519714Y-79825500D01*
X189472095Y-79789785D01*
X189353047Y-79789785D01*
X189281619Y-79825500D01*
X189138761Y-79789785D02*
X188853047Y-79789785D01*
X188995904Y-80539785D02*
X188995904Y-79789785D01*
X174624952Y-79825500D02*
X174672571Y-79789785D01*
X174744000Y-79789785D01*
X174815428Y-79825500D01*
X174863047Y-79896928D01*
X174886857Y-79968357D01*
X174910666Y-80111214D01*
X174910666Y-80218357D01*
X174886857Y-80361214D01*
X174863047Y-80432642D01*
X174815428Y-80504071D01*
X174744000Y-80539785D01*
X174696380Y-80539785D01*
X174624952Y-80504071D01*
X174601142Y-80468357D01*
X174601142Y-80218357D01*
X174696380Y-80218357D01*
X174386857Y-80539785D02*
X174386857Y-79789785D01*
X174101142Y-80539785D01*
X174101142Y-79789785D01*
X173863047Y-80539785D02*
X173863047Y-79789785D01*
X173744000Y-79789785D01*
X173672571Y-79825500D01*
X173624952Y-79896928D01*
X173601142Y-79968357D01*
X173577333Y-80111214D01*
X173577333Y-80218357D01*
X173601142Y-80361214D01*
X173624952Y-80432642D01*
X173672571Y-80504071D01*
X173744000Y-80539785D01*
X173863047Y-80539785D01*
X190087166Y-82329785D02*
X189920500Y-83079785D01*
X189753833Y-82329785D01*
X189301452Y-83008357D02*
X189325261Y-83044071D01*
X189396690Y-83079785D01*
X189444309Y-83079785D01*
X189515738Y-83044071D01*
X189563357Y-82972642D01*
X189587166Y-82901214D01*
X189610976Y-82758357D01*
X189610976Y-82651214D01*
X189587166Y-82508357D01*
X189563357Y-82436928D01*
X189515738Y-82365500D01*
X189444309Y-82329785D01*
X189396690Y-82329785D01*
X189325261Y-82365500D01*
X189301452Y-82401214D01*
X188801452Y-83008357D02*
X188825261Y-83044071D01*
X188896690Y-83079785D01*
X188944309Y-83079785D01*
X189015738Y-83044071D01*
X189063357Y-82972642D01*
X189087166Y-82901214D01*
X189110976Y-82758357D01*
X189110976Y-82651214D01*
X189087166Y-82508357D01*
X189063357Y-82436928D01*
X189015738Y-82365500D01*
X188944309Y-82329785D01*
X188896690Y-82329785D01*
X188825261Y-82365500D01*
X188801452Y-82401214D01*
X174624952Y-82365500D02*
X174672571Y-82329785D01*
X174744000Y-82329785D01*
X174815428Y-82365500D01*
X174863047Y-82436928D01*
X174886857Y-82508357D01*
X174910666Y-82651214D01*
X174910666Y-82758357D01*
X174886857Y-82901214D01*
X174863047Y-82972642D01*
X174815428Y-83044071D01*
X174744000Y-83079785D01*
X174696380Y-83079785D01*
X174624952Y-83044071D01*
X174601142Y-83008357D01*
X174601142Y-82758357D01*
X174696380Y-82758357D01*
X174386857Y-83079785D02*
X174386857Y-82329785D01*
X174101142Y-83079785D01*
X174101142Y-82329785D01*
X173863047Y-83079785D02*
X173863047Y-82329785D01*
X173744000Y-82329785D01*
X173672571Y-82365500D01*
X173624952Y-82436928D01*
X173601142Y-82508357D01*
X173577333Y-82651214D01*
X173577333Y-82758357D01*
X173601142Y-82901214D01*
X173624952Y-82972642D01*
X173672571Y-83044071D01*
X173744000Y-83079785D01*
X173863047Y-83079785D01*
X189840619Y-93132857D02*
X189864428Y-93168571D01*
X189935857Y-93204285D01*
X189983476Y-93204285D01*
X190054904Y-93168571D01*
X190102523Y-93097142D01*
X190126333Y-93025714D01*
X190150142Y-92882857D01*
X190150142Y-92775714D01*
X190126333Y-92632857D01*
X190102523Y-92561428D01*
X190054904Y-92490000D01*
X189983476Y-92454285D01*
X189935857Y-92454285D01*
X189864428Y-92490000D01*
X189840619Y-92525714D01*
X189531095Y-92454285D02*
X189435857Y-92454285D01*
X189388238Y-92490000D01*
X189340619Y-92561428D01*
X189316809Y-92704285D01*
X189316809Y-92954285D01*
X189340619Y-93097142D01*
X189388238Y-93168571D01*
X189435857Y-93204285D01*
X189531095Y-93204285D01*
X189578714Y-93168571D01*
X189626333Y-93097142D01*
X189650142Y-92954285D01*
X189650142Y-92704285D01*
X189626333Y-92561428D01*
X189578714Y-92490000D01*
X189531095Y-92454285D01*
X188864428Y-93204285D02*
X189102523Y-93204285D01*
X189102523Y-92454285D01*
X188745380Y-92454285D02*
X188435857Y-92454285D01*
X188602523Y-92740000D01*
X188531095Y-92740000D01*
X188483476Y-92775714D01*
X188459666Y-92811428D01*
X188435857Y-92882857D01*
X188435857Y-93061428D01*
X188459666Y-93132857D01*
X188483476Y-93168571D01*
X188531095Y-93204285D01*
X188673952Y-93204285D01*
X188721571Y-93168571D01*
X188745380Y-93132857D01*
X174623952Y-90636285D02*
X174790619Y-90279142D01*
X174909666Y-90636285D02*
X174909666Y-89886285D01*
X174719190Y-89886285D01*
X174671571Y-89922000D01*
X174647761Y-89957714D01*
X174623952Y-90029142D01*
X174623952Y-90136285D01*
X174647761Y-90207714D01*
X174671571Y-90243428D01*
X174719190Y-90279142D01*
X174909666Y-90279142D01*
X174314428Y-89886285D02*
X174219190Y-89886285D01*
X174171571Y-89922000D01*
X174123952Y-89993428D01*
X174100142Y-90136285D01*
X174100142Y-90386285D01*
X174123952Y-90529142D01*
X174171571Y-90600571D01*
X174219190Y-90636285D01*
X174314428Y-90636285D01*
X174362047Y-90600571D01*
X174409666Y-90529142D01*
X174433476Y-90386285D01*
X174433476Y-90136285D01*
X174409666Y-89993428D01*
X174362047Y-89922000D01*
X174314428Y-89886285D01*
X173933476Y-89886285D02*
X173814428Y-90636285D01*
X173719190Y-90100571D01*
X173623952Y-90636285D01*
X173504904Y-89886285D01*
X173219190Y-89886285D02*
X173171571Y-89886285D01*
X173123952Y-89922000D01*
X173100142Y-89957714D01*
X173076333Y-90029142D01*
X173052523Y-90172000D01*
X173052523Y-90350571D01*
X173076333Y-90493428D01*
X173100142Y-90564857D01*
X173123952Y-90600571D01*
X173171571Y-90636285D01*
X173219190Y-90636285D01*
X173266809Y-90600571D01*
X173290619Y-90564857D01*
X173314428Y-90493428D01*
X173338238Y-90350571D01*
X173338238Y-90172000D01*
X173314428Y-90029142D01*
X173290619Y-89957714D01*
X173266809Y-89922000D01*
X173219190Y-89886285D01*
X189840619Y-90632857D02*
X189864428Y-90668571D01*
X189935857Y-90704285D01*
X189983476Y-90704285D01*
X190054904Y-90668571D01*
X190102523Y-90597142D01*
X190126333Y-90525714D01*
X190150142Y-90382857D01*
X190150142Y-90275714D01*
X190126333Y-90132857D01*
X190102523Y-90061428D01*
X190054904Y-89990000D01*
X189983476Y-89954285D01*
X189935857Y-89954285D01*
X189864428Y-89990000D01*
X189840619Y-90025714D01*
X189531095Y-89954285D02*
X189435857Y-89954285D01*
X189388238Y-89990000D01*
X189340619Y-90061428D01*
X189316809Y-90204285D01*
X189316809Y-90454285D01*
X189340619Y-90597142D01*
X189388238Y-90668571D01*
X189435857Y-90704285D01*
X189531095Y-90704285D01*
X189578714Y-90668571D01*
X189626333Y-90597142D01*
X189650142Y-90454285D01*
X189650142Y-90204285D01*
X189626333Y-90061428D01*
X189578714Y-89990000D01*
X189531095Y-89954285D01*
X188864428Y-90704285D02*
X189102523Y-90704285D01*
X189102523Y-89954285D01*
X188721571Y-90025714D02*
X188697761Y-89990000D01*
X188650142Y-89954285D01*
X188531095Y-89954285D01*
X188483476Y-89990000D01*
X188459666Y-90025714D01*
X188435857Y-90097142D01*
X188435857Y-90168571D01*
X188459666Y-90275714D01*
X188745380Y-90704285D01*
X188435857Y-90704285D01*
X174839238Y-88124071D02*
X174767809Y-88159785D01*
X174648761Y-88159785D01*
X174601142Y-88124071D01*
X174577333Y-88088357D01*
X174553523Y-88016928D01*
X174553523Y-87945500D01*
X174577333Y-87874071D01*
X174601142Y-87838357D01*
X174648761Y-87802642D01*
X174744000Y-87766928D01*
X174791619Y-87731214D01*
X174815428Y-87695500D01*
X174839238Y-87624071D01*
X174839238Y-87552642D01*
X174815428Y-87481214D01*
X174791619Y-87445500D01*
X174744000Y-87409785D01*
X174624952Y-87409785D01*
X174553523Y-87445500D01*
X174053523Y-88088357D02*
X174077333Y-88124071D01*
X174148761Y-88159785D01*
X174196380Y-88159785D01*
X174267809Y-88124071D01*
X174315428Y-88052642D01*
X174339238Y-87981214D01*
X174363047Y-87838357D01*
X174363047Y-87731214D01*
X174339238Y-87588357D01*
X174315428Y-87516928D01*
X174267809Y-87445500D01*
X174196380Y-87409785D01*
X174148761Y-87409785D01*
X174077333Y-87445500D01*
X174053523Y-87481214D01*
X173601142Y-88159785D02*
X173839238Y-88159785D01*
X173839238Y-87409785D01*
X189840619Y-88088357D02*
X189864428Y-88124071D01*
X189935857Y-88159785D01*
X189983476Y-88159785D01*
X190054904Y-88124071D01*
X190102523Y-88052642D01*
X190126333Y-87981214D01*
X190150142Y-87838357D01*
X190150142Y-87731214D01*
X190126333Y-87588357D01*
X190102523Y-87516928D01*
X190054904Y-87445500D01*
X189983476Y-87409785D01*
X189935857Y-87409785D01*
X189864428Y-87445500D01*
X189840619Y-87481214D01*
X189531095Y-87409785D02*
X189435857Y-87409785D01*
X189388238Y-87445500D01*
X189340619Y-87516928D01*
X189316809Y-87659785D01*
X189316809Y-87909785D01*
X189340619Y-88052642D01*
X189388238Y-88124071D01*
X189435857Y-88159785D01*
X189531095Y-88159785D01*
X189578714Y-88124071D01*
X189626333Y-88052642D01*
X189650142Y-87909785D01*
X189650142Y-87659785D01*
X189626333Y-87516928D01*
X189578714Y-87445500D01*
X189531095Y-87409785D01*
X188864428Y-88159785D02*
X189102523Y-88159785D01*
X189102523Y-87409785D01*
X188435857Y-88159785D02*
X188721571Y-88159785D01*
X188578714Y-88159785D02*
X188578714Y-87409785D01*
X188626333Y-87516928D01*
X188673952Y-87588357D01*
X188721571Y-87624071D01*
X174851142Y-85584071D02*
X174779714Y-85619785D01*
X174660666Y-85619785D01*
X174613047Y-85584071D01*
X174589238Y-85548357D01*
X174565428Y-85476928D01*
X174565428Y-85405500D01*
X174589238Y-85334071D01*
X174613047Y-85298357D01*
X174660666Y-85262642D01*
X174755904Y-85226928D01*
X174803523Y-85191214D01*
X174827333Y-85155500D01*
X174851142Y-85084071D01*
X174851142Y-85012642D01*
X174827333Y-84941214D01*
X174803523Y-84905500D01*
X174755904Y-84869785D01*
X174636857Y-84869785D01*
X174565428Y-84905500D01*
X174351142Y-85619785D02*
X174351142Y-84869785D01*
X174232095Y-84869785D01*
X174160666Y-84905500D01*
X174113047Y-84976928D01*
X174089238Y-85048357D01*
X174065428Y-85191214D01*
X174065428Y-85298357D01*
X174089238Y-85441214D01*
X174113047Y-85512642D01*
X174160666Y-85584071D01*
X174232095Y-85619785D01*
X174351142Y-85619785D01*
X173874952Y-85405500D02*
X173636857Y-85405500D01*
X173922571Y-85619785D02*
X173755904Y-84869785D01*
X173589238Y-85619785D01*
X189840619Y-85582857D02*
X189864428Y-85618571D01*
X189935857Y-85654285D01*
X189983476Y-85654285D01*
X190054904Y-85618571D01*
X190102523Y-85547142D01*
X190126333Y-85475714D01*
X190150142Y-85332857D01*
X190150142Y-85225714D01*
X190126333Y-85082857D01*
X190102523Y-85011428D01*
X190054904Y-84940000D01*
X189983476Y-84904285D01*
X189935857Y-84904285D01*
X189864428Y-84940000D01*
X189840619Y-84975714D01*
X189531095Y-84904285D02*
X189435857Y-84904285D01*
X189388238Y-84940000D01*
X189340619Y-85011428D01*
X189316809Y-85154285D01*
X189316809Y-85404285D01*
X189340619Y-85547142D01*
X189388238Y-85618571D01*
X189435857Y-85654285D01*
X189531095Y-85654285D01*
X189578714Y-85618571D01*
X189626333Y-85547142D01*
X189650142Y-85404285D01*
X189650142Y-85154285D01*
X189626333Y-85011428D01*
X189578714Y-84940000D01*
X189531095Y-84904285D01*
X188864428Y-85654285D02*
X189102523Y-85654285D01*
X189102523Y-84904285D01*
X188602523Y-84904285D02*
X188554904Y-84904285D01*
X188507285Y-84940000D01*
X188483476Y-84975714D01*
X188459666Y-85047142D01*
X188435857Y-85190000D01*
X188435857Y-85368571D01*
X188459666Y-85511428D01*
X188483476Y-85582857D01*
X188507285Y-85618571D01*
X188554904Y-85654285D01*
X188602523Y-85654285D01*
X188650142Y-85618571D01*
X188673952Y-85582857D01*
X188697761Y-85511428D01*
X188721571Y-85368571D01*
X188721571Y-85190000D01*
X188697761Y-85047142D01*
X188673952Y-84975714D01*
X188650142Y-84940000D01*
X188602523Y-84904285D01*
X189940380Y-102943428D02*
X189868952Y-102979142D01*
X189845142Y-103014857D01*
X189821333Y-103086285D01*
X189821333Y-103193428D01*
X189845142Y-103264857D01*
X189868952Y-103300571D01*
X189916571Y-103336285D01*
X190107047Y-103336285D01*
X190107047Y-102586285D01*
X189940380Y-102586285D01*
X189892761Y-102622000D01*
X189868952Y-102657714D01*
X189845142Y-102729142D01*
X189845142Y-102800571D01*
X189868952Y-102872000D01*
X189892761Y-102907714D01*
X189940380Y-102943428D01*
X190107047Y-102943428D01*
X189392761Y-102586285D02*
X189488000Y-102586285D01*
X189535619Y-102622000D01*
X189559428Y-102657714D01*
X189607047Y-102764857D01*
X189630857Y-102907714D01*
X189630857Y-103193428D01*
X189607047Y-103264857D01*
X189583238Y-103300571D01*
X189535619Y-103336285D01*
X189440380Y-103336285D01*
X189392761Y-103300571D01*
X189368952Y-103264857D01*
X189345142Y-103193428D01*
X189345142Y-103014857D01*
X189368952Y-102943428D01*
X189392761Y-102907714D01*
X189440380Y-102872000D01*
X189535619Y-102872000D01*
X189583238Y-102907714D01*
X189607047Y-102943428D01*
X189630857Y-103014857D01*
X174446380Y-103006928D02*
X174374952Y-103042642D01*
X174351142Y-103078357D01*
X174327333Y-103149785D01*
X174327333Y-103256928D01*
X174351142Y-103328357D01*
X174374952Y-103364071D01*
X174422571Y-103399785D01*
X174613047Y-103399785D01*
X174613047Y-102649785D01*
X174446380Y-102649785D01*
X174398761Y-102685500D01*
X174374952Y-102721214D01*
X174351142Y-102792642D01*
X174351142Y-102864071D01*
X174374952Y-102935500D01*
X174398761Y-102971214D01*
X174446380Y-103006928D01*
X174613047Y-103006928D01*
X173874952Y-102649785D02*
X174113047Y-102649785D01*
X174136857Y-103006928D01*
X174113047Y-102971214D01*
X174065428Y-102935500D01*
X173946380Y-102935500D01*
X173898761Y-102971214D01*
X173874952Y-103006928D01*
X173851142Y-103078357D01*
X173851142Y-103256928D01*
X173874952Y-103328357D01*
X173898761Y-103364071D01*
X173946380Y-103399785D01*
X174065428Y-103399785D01*
X174113047Y-103364071D01*
X174136857Y-103328357D01*
X174446380Y-100466928D02*
X174374952Y-100502642D01*
X174351142Y-100538357D01*
X174327333Y-100609785D01*
X174327333Y-100716928D01*
X174351142Y-100788357D01*
X174374952Y-100824071D01*
X174422571Y-100859785D01*
X174613047Y-100859785D01*
X174613047Y-100109785D01*
X174446380Y-100109785D01*
X174398761Y-100145500D01*
X174374952Y-100181214D01*
X174351142Y-100252642D01*
X174351142Y-100324071D01*
X174374952Y-100395500D01*
X174398761Y-100431214D01*
X174446380Y-100466928D01*
X174613047Y-100466928D01*
X173898761Y-100359785D02*
X173898761Y-100859785D01*
X174017809Y-100074071D02*
X174136857Y-100609785D01*
X173827333Y-100609785D01*
X190003880Y-100339928D02*
X189932452Y-100375642D01*
X189908642Y-100411357D01*
X189884833Y-100482785D01*
X189884833Y-100589928D01*
X189908642Y-100661357D01*
X189932452Y-100697071D01*
X189980071Y-100732785D01*
X190170547Y-100732785D01*
X190170547Y-99982785D01*
X190003880Y-99982785D01*
X189956261Y-100018500D01*
X189932452Y-100054214D01*
X189908642Y-100125642D01*
X189908642Y-100197071D01*
X189932452Y-100268500D01*
X189956261Y-100304214D01*
X190003880Y-100339928D01*
X190170547Y-100339928D01*
X189694357Y-100054214D02*
X189670547Y-100018500D01*
X189622928Y-99982785D01*
X189503880Y-99982785D01*
X189456261Y-100018500D01*
X189432452Y-100054214D01*
X189408642Y-100125642D01*
X189408642Y-100197071D01*
X189432452Y-100304214D01*
X189718166Y-100732785D01*
X189408642Y-100732785D01*
X174623952Y-98354285D02*
X174790619Y-97997142D01*
X174909666Y-98354285D02*
X174909666Y-97604285D01*
X174719190Y-97604285D01*
X174671571Y-97640000D01*
X174647761Y-97675714D01*
X174623952Y-97747142D01*
X174623952Y-97854285D01*
X174647761Y-97925714D01*
X174671571Y-97961428D01*
X174719190Y-97997142D01*
X174909666Y-97997142D01*
X174314428Y-97604285D02*
X174219190Y-97604285D01*
X174171571Y-97640000D01*
X174123952Y-97711428D01*
X174100142Y-97854285D01*
X174100142Y-98104285D01*
X174123952Y-98247142D01*
X174171571Y-98318571D01*
X174219190Y-98354285D01*
X174314428Y-98354285D01*
X174362047Y-98318571D01*
X174409666Y-98247142D01*
X174433476Y-98104285D01*
X174433476Y-97854285D01*
X174409666Y-97711428D01*
X174362047Y-97640000D01*
X174314428Y-97604285D01*
X173933476Y-97604285D02*
X173814428Y-98354285D01*
X173719190Y-97818571D01*
X173623952Y-98354285D01*
X173504904Y-97604285D01*
X173362047Y-97604285D02*
X173052523Y-97604285D01*
X173219190Y-97890000D01*
X173147761Y-97890000D01*
X173100142Y-97925714D01*
X173076333Y-97961428D01*
X173052523Y-98032857D01*
X173052523Y-98211428D01*
X173076333Y-98282857D01*
X173100142Y-98318571D01*
X173147761Y-98354285D01*
X173290619Y-98354285D01*
X173338238Y-98318571D01*
X173362047Y-98282857D01*
X189840619Y-98282857D02*
X189864428Y-98318571D01*
X189935857Y-98354285D01*
X189983476Y-98354285D01*
X190054904Y-98318571D01*
X190102523Y-98247142D01*
X190126333Y-98175714D01*
X190150142Y-98032857D01*
X190150142Y-97925714D01*
X190126333Y-97782857D01*
X190102523Y-97711428D01*
X190054904Y-97640000D01*
X189983476Y-97604285D01*
X189935857Y-97604285D01*
X189864428Y-97640000D01*
X189840619Y-97675714D01*
X189531095Y-97604285D02*
X189435857Y-97604285D01*
X189388238Y-97640000D01*
X189340619Y-97711428D01*
X189316809Y-97854285D01*
X189316809Y-98104285D01*
X189340619Y-98247142D01*
X189388238Y-98318571D01*
X189435857Y-98354285D01*
X189531095Y-98354285D01*
X189578714Y-98318571D01*
X189626333Y-98247142D01*
X189650142Y-98104285D01*
X189650142Y-97854285D01*
X189626333Y-97711428D01*
X189578714Y-97640000D01*
X189531095Y-97604285D01*
X188864428Y-98354285D02*
X189102523Y-98354285D01*
X189102523Y-97604285D01*
X188459666Y-97604285D02*
X188697761Y-97604285D01*
X188721571Y-97961428D01*
X188697761Y-97925714D01*
X188650142Y-97890000D01*
X188531095Y-97890000D01*
X188483476Y-97925714D01*
X188459666Y-97961428D01*
X188435857Y-98032857D01*
X188435857Y-98211428D01*
X188459666Y-98282857D01*
X188483476Y-98318571D01*
X188531095Y-98354285D01*
X188650142Y-98354285D01*
X188697761Y-98318571D01*
X188721571Y-98282857D01*
X174623952Y-95843285D02*
X174790619Y-95486142D01*
X174909666Y-95843285D02*
X174909666Y-95093285D01*
X174719190Y-95093285D01*
X174671571Y-95129000D01*
X174647761Y-95164714D01*
X174623952Y-95236142D01*
X174623952Y-95343285D01*
X174647761Y-95414714D01*
X174671571Y-95450428D01*
X174719190Y-95486142D01*
X174909666Y-95486142D01*
X174314428Y-95093285D02*
X174219190Y-95093285D01*
X174171571Y-95129000D01*
X174123952Y-95200428D01*
X174100142Y-95343285D01*
X174100142Y-95593285D01*
X174123952Y-95736142D01*
X174171571Y-95807571D01*
X174219190Y-95843285D01*
X174314428Y-95843285D01*
X174362047Y-95807571D01*
X174409666Y-95736142D01*
X174433476Y-95593285D01*
X174433476Y-95343285D01*
X174409666Y-95200428D01*
X174362047Y-95129000D01*
X174314428Y-95093285D01*
X173933476Y-95093285D02*
X173814428Y-95843285D01*
X173719190Y-95307571D01*
X173623952Y-95843285D01*
X173504904Y-95093285D01*
X173338238Y-95164714D02*
X173314428Y-95129000D01*
X173266809Y-95093285D01*
X173147761Y-95093285D01*
X173100142Y-95129000D01*
X173076333Y-95164714D01*
X173052523Y-95236142D01*
X173052523Y-95307571D01*
X173076333Y-95414714D01*
X173362047Y-95843285D01*
X173052523Y-95843285D01*
X189790619Y-95644857D02*
X189814428Y-95680571D01*
X189885857Y-95716285D01*
X189933476Y-95716285D01*
X190004904Y-95680571D01*
X190052523Y-95609142D01*
X190076333Y-95537714D01*
X190100142Y-95394857D01*
X190100142Y-95287714D01*
X190076333Y-95144857D01*
X190052523Y-95073428D01*
X190004904Y-95002000D01*
X189933476Y-94966285D01*
X189885857Y-94966285D01*
X189814428Y-95002000D01*
X189790619Y-95037714D01*
X189481095Y-94966285D02*
X189385857Y-94966285D01*
X189338238Y-95002000D01*
X189290619Y-95073428D01*
X189266809Y-95216285D01*
X189266809Y-95466285D01*
X189290619Y-95609142D01*
X189338238Y-95680571D01*
X189385857Y-95716285D01*
X189481095Y-95716285D01*
X189528714Y-95680571D01*
X189576333Y-95609142D01*
X189600142Y-95466285D01*
X189600142Y-95216285D01*
X189576333Y-95073428D01*
X189528714Y-95002000D01*
X189481095Y-94966285D01*
X188814428Y-95716285D02*
X189052523Y-95716285D01*
X189052523Y-94966285D01*
X188433476Y-95216285D02*
X188433476Y-95716285D01*
X188552523Y-94930571D02*
X188671571Y-95466285D01*
X188362047Y-95466285D01*
X174623952Y-93239785D02*
X174790619Y-92882642D01*
X174909666Y-93239785D02*
X174909666Y-92489785D01*
X174719190Y-92489785D01*
X174671571Y-92525500D01*
X174647761Y-92561214D01*
X174623952Y-92632642D01*
X174623952Y-92739785D01*
X174647761Y-92811214D01*
X174671571Y-92846928D01*
X174719190Y-92882642D01*
X174909666Y-92882642D01*
X174314428Y-92489785D02*
X174219190Y-92489785D01*
X174171571Y-92525500D01*
X174123952Y-92596928D01*
X174100142Y-92739785D01*
X174100142Y-92989785D01*
X174123952Y-93132642D01*
X174171571Y-93204071D01*
X174219190Y-93239785D01*
X174314428Y-93239785D01*
X174362047Y-93204071D01*
X174409666Y-93132642D01*
X174433476Y-92989785D01*
X174433476Y-92739785D01*
X174409666Y-92596928D01*
X174362047Y-92525500D01*
X174314428Y-92489785D01*
X173933476Y-92489785D02*
X173814428Y-93239785D01*
X173719190Y-92704071D01*
X173623952Y-93239785D01*
X173504904Y-92489785D01*
X173052523Y-93239785D02*
X173338238Y-93239785D01*
X173195380Y-93239785D02*
X173195380Y-92489785D01*
X173243000Y-92596928D01*
X173290619Y-92668357D01*
X173338238Y-92704071D01*
D12*
%TO.C,R1*%
X187460466Y-110667195D02*
X187731400Y-110280147D01*
X187924923Y-110667195D02*
X187924923Y-109854395D01*
X187615285Y-109854395D01*
X187537876Y-109893100D01*
X187499171Y-109931804D01*
X187460466Y-110009214D01*
X187460466Y-110125328D01*
X187499171Y-110202738D01*
X187537876Y-110241442D01*
X187615285Y-110280147D01*
X187924923Y-110280147D01*
X186686371Y-110667195D02*
X187150828Y-110667195D01*
X186918600Y-110667195D02*
X186918600Y-109854395D01*
X186996009Y-109970509D01*
X187073419Y-110047919D01*
X187150828Y-110086623D01*
%TO.C,R2*%
X187460466Y-113080195D02*
X187731400Y-112693147D01*
X187924923Y-113080195D02*
X187924923Y-112267395D01*
X187615285Y-112267395D01*
X187537876Y-112306100D01*
X187499171Y-112344804D01*
X187460466Y-112422214D01*
X187460466Y-112538328D01*
X187499171Y-112615738D01*
X187537876Y-112654442D01*
X187615285Y-112693147D01*
X187924923Y-112693147D01*
X187150828Y-112344804D02*
X187112123Y-112306100D01*
X187034714Y-112267395D01*
X186841190Y-112267395D01*
X186763780Y-112306100D01*
X186725076Y-112344804D01*
X186686371Y-112422214D01*
X186686371Y-112499623D01*
X186725076Y-112615738D01*
X187189533Y-113080195D01*
X186686371Y-113080195D01*
%TD*%
M02*
