<?xml version="1.0" encoding="UTF-8" standalone="no"?>
<svg
   xmlns:dc="http://purl.org/dc/elements/1.1/"
   xmlns:cc="http://creativecommons.org/ns#"
   xmlns:rdf="http://www.w3.org/1999/02/22-rdf-syntax-ns#"
   xmlns:svg="http://www.w3.org/2000/svg"
   xmlns="http://www.w3.org/2000/svg"
   xmlns:sodipodi="http://sodipodi.sourceforge.net/DTD/sodipodi-0.dtd"
   xmlns:inkscape="http://www.inkscape.org/namespaces/inkscape"
   version="1.1"
   id="svg10"
   xml:space="preserve"
   width="210mm"
   height="148mm"
   viewBox="0 0 793.70085 559.37009"
   sodipodi:docname="bottom plate V2.svg"
   inkscape:version="1.0.1 (3bc2e813f5, 2020-09-07)"><metadata
     id="metadata16"><rdf:RDF><cc:Work
         rdf:about=""><dc:format>image/svg+xml</dc:format><dc:type
           rdf:resource="http://purl.org/dc/dcmitype/StillImage" /><dc:title /></cc:Work></rdf:RDF></metadata><defs
     id="defs14"><inkscape:path-effect
       effect="spiro"
       id="path-effect1482"
       is_visible="true"
       lpeversion="1" /><inkscape:path-effect
       effect="spiro"
       id="path-effect1478"
       is_visible="true"
       lpeversion="1" /><inkscape:path-effect
       effect="spiro"
       id="path-effect1476"
       is_visible="true"
       lpeversion="1" /><inkscape:path-effect
       effect="spiro"
       id="path-effect1400"
       is_visible="true"
       lpeversion="1" /><inkscape:path-effect
       effect="spiro"
       id="path-effect1084"
       is_visible="true"
       lpeversion="1" /><inkscape:path-effect
       effect="spiro"
       id="path-effect1056"
       is_visible="true"
       lpeversion="1" /><inkscape:path-effect
       effect="spiro"
       id="path-effect1027"
       is_visible="true"
       lpeversion="1" /><inkscape:path-effect
       effect="spiro"
       id="path-effect955"
       is_visible="true"
       lpeversion="1" /><clipPath
       clipPathUnits="userSpaceOnUse"
       id="clipPath26"><path
         d="M 0,867.401 H 1292.598 V 0 H 0 Z"
         id="path24"
         inkscape:connector-curvature="0" /></clipPath></defs><sodipodi:namedview
     pagecolor="#ffffff"
     bordercolor="#666666"
     borderopacity="1"
     objecttolerance="10"
     gridtolerance="10"
     guidetolerance="10"
     inkscape:pageopacity="0"
     inkscape:pageshadow="2"
     inkscape:window-width="2880"
     inkscape:window-height="1526"
     id="namedview12"
     showgrid="false"
     inkscape:zoom="1.7470157"
     inkscape:cx="454.65877"
     inkscape:cy="227.04731"
     inkscape:window-x="5749"
     inkscape:window-y="807"
     inkscape:window-maximized="1"
     inkscape:current-layer="g1474"
     units="mm"
     inkscape:document-rotation="0" /><g
     id="g1474"
     inkscape:groupmode="layer"
     inkscape:label="ボトムプレート"
     style="display:inline"
     transform="matrix(1.3333333,0,0,-1.3333333,0,561.25986)"><g
       id="g1416"
       transform="matrix(0.75000002,0,0,-0.75000002,65.826878,377.07794)"><g
         id="g1414"><g
           id="g1412"><g
             id="g1408"><g
               id="g1406"><g
                 id="g1404"><g
                   id="g1402" /></g></g></g></g></g></g><path
       style="display:inline;opacity:1;mix-blend-mode:normal;fill:none;stroke:#ff0000;stroke-width:0.0781496;stroke-linecap:round;stroke-linejoin:round;stroke-miterlimit:4;stroke-dasharray:none;stroke-opacity:1"
       d="m 399.32988,152.95245 -0.12441,-0.87973 m 0,0 -0.37322,-0.75406 m 0,0 -0.55983,-0.69122 m 0,0 -0.74642,-0.5027 m 0,0 -0.87084,-0.25136 m 0,0 h -0.87084 m 0,0 -0.80864,0.25136 m 0,0 -0.74642,0.5027 m 0,0 -0.55983,0.69122 m 0,0 -0.37322,0.75406 m 0,0 -0.12441,0.87973 m 0,0 0.12441,0.87973 m 0,0 0.37322,0.8169 m 0,0 0.55983,0.69115 m 0,0 0.74642,0.5027 m 0,0 0.80864,0.18852 m 0,0 h 0.87084 m 0,0 0.87084,-0.18852 m 0,0 0.74642,-0.5027 m 0,0 0.55983,-0.69115 m 0,0 0.37322,-0.8169 m 0,0 0.12441,-0.87973"
       id="path1418" /><path
       style="display:inline;opacity:1;mix-blend-mode:normal;fill:none;stroke:#ff0000;stroke-width:0.07815;stroke-linecap:round;stroke-linejoin:round;stroke-miterlimit:4;stroke-dasharray:none;stroke-opacity:1"
       d="m 94.511147,358.00675 -0.124334,-0.87973 m 0,0 -0.37322,-0.75407 m 0,0 -0.559831,-0.69113 m 0,0 -0.746442,-0.5027 m 0,0 -0.808645,-0.25136 m 0,0 h -0.933052 m 0,0 -0.808646,0.25136 m 0,0 -0.746441,0.5027 m 0,0 -0.559832,0.69113 m 0,0 -0.37322,0.75407 m 0,0 -0.124407,0.87973 m 0,0 0.124407,0.87973 m 0,0 0.37322,0.8169 m 0,0 0.559832,0.69122 m 0,0 0.746441,0.50271 m 0,0 0.808646,0.18852 m 0,0 h 0.933052 m 0,0 0.808645,-0.18852 m 0,0 0.746442,-0.50271 m 0,0 0.559831,-0.69122 m 0,0 0.37322,-0.8169 m 0,0 0.124334,-0.87973"
       id="path1466" /><path
       style="display:inline;opacity:1;mix-blend-mode:normal;fill:none;stroke:#ff0000;stroke-width:0.07815;stroke-linecap:round;stroke-linejoin:round;stroke-miterlimit:4;stroke-dasharray:none;stroke-opacity:1"
       d="m 94.511147,141.20274 -0.124334,-0.87973 m 0,0 -0.37322,-0.75407 m 0,0 -0.559831,-0.69113 m 0,0 -0.746442,-0.5027 m 0,0 -0.808645,-0.25136 m 0,0 h -0.933052 m 0,0 -0.808646,0.25136 m 0,0 -0.746441,0.5027 m 0,0 -0.559832,0.69113 m 0,0 -0.37322,0.75407 m 0,0 -0.124407,0.87973 m 0,0 0.124407,0.87973 m 0,0 0.37322,0.8169 m 0,0 0.559832,0.69122 m 0,0 0.746441,0.50271 m 0,0 0.808646,0.18852 m 0,0 h 0.933052 m 0,0 0.808645,-0.18852 m 0,0 0.746442,-0.50271 m 0,0 0.559831,-0.69122 m 0,0 0.37322,-0.8169 m 0,0 0.124334,-0.87973"
       id="path1468" /><path
       style="display:inline;opacity:1;mix-blend-mode:normal;fill:none;stroke:#ff0000;stroke-width:0.07815;stroke-linecap:round;stroke-linejoin:round;stroke-miterlimit:4;stroke-dasharray:none;stroke-opacity:1"
       d="m 404.60016,358.00675 -0.12434,-0.87973 m 0,0 -0.37322,-0.75407 m 0,0 -0.55984,-0.69113 m 0,0 -0.74643,-0.5027 m 0,0 -0.80865,-0.25136 m 0,0 h -0.93304 m 0,0 -0.80865,0.25136 m 0,0 -0.74644,0.5027 m 0,0 -0.55983,0.69113 m 0,0 -0.37322,0.75407 m 0,0 -0.12442,0.87973 m 0,0 0.12442,0.87973 m 0,0 0.37322,0.8169 m 0,0 0.55983,0.69122 m 0,0 0.74644,0.50271 m 0,0 0.80865,0.18852 m 0,0 h 0.93304 m 0,0 0.80865,-0.18852 m 0,0 0.74643,-0.50271 m 0,0 0.55984,-0.69122 m 0,0 0.37322,-0.8169 m 0,0 0.12434,-0.87973"
       id="path1470" /><path
       id="path1480"
       style="fill:none;stroke:#0000ff;stroke-width:0.075;stroke-miterlimit:1;stroke-dasharray:none;stroke-opacity:1"
       d="m 460.42979,145.8931 v 171.75603 m 0.007,-0.0372 -52.08665,0.001 m 0,47.33271 -323.739193,-0.11586 M 408.35016,317.6131 v 47.33253 m 51.95963,-218.93253 0.12,-0.12 m 0,0 -0.0429,-0.21705 m -30.18006,-52.43507 0.12151,0.206977 m -0.37683,-0.404985 0.25532,0.198008 m -0.4803,-0.344273 0.22498,0.146265 m -0.47133,-0.210405 0.24636,0.0642 m -0.4927,-0.128325 0.24635,0.0642 m -0.54444,-0.098 0.29809,0.03368 m -0.58719,0.06638 0.28912,-0.100057 m -0.54785,0.251902 0.25873,-0.151837 m -344.035685,271.99506 -0.007,-115.22826 -0.0035,-57.61413 -0.0035,-57.61413 m 189.114065,0 108.71917,-14.75993 M 84.597066,134.37325 H 273.71113 m 156.59336,-40.961585 30.0824,52.264385 m -77.9562,-26.06311 45.95748,-26.626083" /></g></svg>
