<?xml version="1.0" encoding="UTF-8" standalone="no"?>
<svg
   xmlns:dc="http://purl.org/dc/elements/1.1/"
   xmlns:cc="http://creativecommons.org/ns#"
   xmlns:rdf="http://www.w3.org/1999/02/22-rdf-syntax-ns#"
   xmlns:svg="http://www.w3.org/2000/svg"
   xmlns="http://www.w3.org/2000/svg"
   xmlns:sodipodi="http://sodipodi.sourceforge.net/DTD/sodipodi-0.dtd"
   xmlns:inkscape="http://www.inkscape.org/namespaces/inkscape"
   version="1.1"
   id="svg10"
   xml:space="preserve"
   width="210mm"
   height="148mm"
   viewBox="0 0 793.70085 559.37009"
   sodipodi:docname="top plate V2.svg"
   inkscape:version="1.0.1 (3bc2e813f5, 2020-09-07)"><metadata
     id="metadata16"><rdf:RDF><cc:Work
         rdf:about=""><dc:format>image/svg+xml</dc:format><dc:type
           rdf:resource="http://purl.org/dc/dcmitype/StillImage" /><dc:title /></cc:Work></rdf:RDF></metadata><defs
     id="defs14"><inkscape:path-effect
       effect="spiro"
       id="path-effect93"
       is_visible="true"
       lpeversion="1" /><inkscape:path-effect
       effect="spiro"
       id="path-effect74"
       is_visible="true"
       lpeversion="1" /><inkscape:path-effect
       effect="spiro"
       id="path-effect55"
       is_visible="true"
       lpeversion="1" /><inkscape:path-effect
       effect="spiro"
       id="path-effect1482"
       is_visible="true"
       lpeversion="1" /><inkscape:path-effect
       effect="spiro"
       id="path-effect1478"
       is_visible="true"
       lpeversion="1" /><inkscape:path-effect
       effect="spiro"
       id="path-effect1476"
       is_visible="true"
       lpeversion="1" /><inkscape:path-effect
       effect="spiro"
       id="path-effect1400"
       is_visible="true"
       lpeversion="1" /><inkscape:path-effect
       effect="spiro"
       id="path-effect1084"
       is_visible="true"
       lpeversion="1" /><inkscape:path-effect
       effect="spiro"
       id="path-effect1056"
       is_visible="true"
       lpeversion="1" /><inkscape:path-effect
       effect="spiro"
       id="path-effect1027"
       is_visible="true"
       lpeversion="1" /><inkscape:path-effect
       effect="spiro"
       id="path-effect955"
       is_visible="true"
       lpeversion="1" /><clipPath
       clipPathUnits="userSpaceOnUse"
       id="clipPath26"><path
         d="M 0,867.401 H 1292.598 V 0 H 0 Z"
         id="path24"
         inkscape:connector-curvature="0" /></clipPath></defs><sodipodi:namedview
     pagecolor="#ffffff"
     bordercolor="#666666"
     borderopacity="1"
     objecttolerance="10"
     gridtolerance="10"
     guidetolerance="10"
     inkscape:pageopacity="0"
     inkscape:pageshadow="2"
     inkscape:window-width="2880"
     inkscape:window-height="1526"
     id="namedview12"
     showgrid="false"
     inkscape:zoom="1"
     inkscape:cx="743.25326"
     inkscape:cy="190.31366"
     inkscape:window-x="5749"
     inkscape:window-y="807"
     inkscape:window-maximized="1"
     inkscape:current-layer="g18"
     units="mm"
     inkscape:document-rotation="0" /><g
     id="g18"
     inkscape:groupmode="layer"
     inkscape:label="トッププレート"
     style="display:inline"
     transform="matrix(1.3333333,0,0,-1.3333333,0,561.25986)"><g
       id="g5628"
       transform="matrix(0.75000002,0,0,-0.75000002,65.826878,377.07794)"><g
         id="g5525"><g
           id="g5441"><g
             id="g5376"><g
               id="g5339"><g
                 id="g5297"><g
                   id="g5306" /></g></g></g></g></g></g><path
       style="display:inline;opacity:1;mix-blend-mode:normal;fill:none;stroke:#ff0000;stroke-width:0.0781496;stroke-linecap:round;stroke-linejoin:round;stroke-miterlimit:4;stroke-dasharray:none;stroke-opacity:1"
       d="m 399.32988,152.95245 -0.12441,-0.87973 m 0,0 -0.37322,-0.75406 m 0,0 -0.55983,-0.69122 m 0,0 -0.74642,-0.5027 m 0,0 -0.87084,-0.25136 m 0,0 h -0.87084 m 0,0 -0.80864,0.25136 m 0,0 -0.74642,0.5027 m 0,0 -0.55983,0.69122 m 0,0 -0.37322,0.75406 m 0,0 -0.12441,0.87973 m 0,0 0.12441,0.87973 m 0,0 0.37322,0.8169 m 0,0 0.55983,0.69115 m 0,0 0.74642,0.5027 m 0,0 0.80864,0.18852 m 0,0 h 0.87084 m 0,0 0.87084,-0.18852 m 0,0 0.74642,-0.5027 m 0,0 0.55983,-0.69115 m 0,0 0.37322,-0.8169 m 0,0 0.12441,-0.87973"
       id="path5100-0" /><path
       id="path2485"
       style="display:inline;fill:none;stroke:#ff0000;stroke-width:0.0758683;stroke-linecap:butt;stroke-linejoin:miter;stroke-miterlimit:4;stroke-dasharray:none;stroke-opacity:1"
       d="m 397.73664,132.77233 -4.43275,-7.71175 m 17.18437,29.81463 -4.43275,-7.71175 m 25.95758,-34.1683 -4.49348,-7.71175 m 17.24506,29.81453 -4.43271,-7.71167 v 0 z m -33.00122,22.02392 -1.27518,-2.24666 m 35.5516,-17.53055 -34.27638,19.77724 m 33.00122,-22.02392 1.2752,2.24671 m -14.02677,-24.34949 8.31904,14.39101 m -14.08753,-24.34951 1.27517,2.24665 m -35.491,17.53058 34.21585,-19.77716 m -32.94061,22.02387 -1.27518,-2.24666 m 14.02689,24.34948 -8.31906,-14.39102" /><path
       id="path2497"
       style="display:inline;fill:none;stroke:#ff0000;stroke-width:0.0758524;stroke-miterlimit:4;stroke-dasharray:none;stroke-opacity:1"
       d="m 342.60125,150.95487 -2.30674,-8.62047 m 8.92446,33.26752 -2.30675,-8.62049 m 40.45915,-1.63034 -2.30675,-8.6205 m -4.24952,-16.02673 -2.36752,-8.62049 m -28.62112,46.00747 -0.60719,-2.489 m 38.82002,-7.76176 -38.21291,10.25071 m 37.54512,-12.73981 0.66778,2.48903 m -7.22423,-27.13621 4.24952,16.02673 m -7.2849,-27.13622 0.66778,2.48903 m -38.82002,7.76177 38.15224,-10.25081 m -37.48446,12.73983 -0.66778,-2.48903 m 7.2848,27.13624 -4.3103,-16.02674" /><path
       id="path2505"
       style="display:inline;fill:none;stroke:#ff0000;stroke-width:0.0759382;stroke-miterlimit:4;stroke-dasharray:none;stroke-opacity:1"
       d="M 320.87549,153.05026 V 144.12 m 0,34.50604 v -8.93027 m -39.6091,-16.64551 V 144.12 m 0,34.50604 v -8.93027 m 39.6091,11.4818 h -39.6091 m 39.6091,-2.55153 v 2.55153 m 0,-28.12731 v 16.64551 m 0,-28.1273 V 144.12 m -39.6091,-2.55153 h 39.6091 m -39.6091,2.55153 v -2.55153 m 0,28.1273 v -16.64551 m 0,28.12731 v -2.55153" /><path
       id="path2589"
       style="display:inline;fill:none;stroke:#ff0000;stroke-width:0.0759383;stroke-miterlimit:4;stroke-dasharray:none;stroke-opacity:1"
       d="M 253.37598,153.05026 V 144.12 m 0,34.50604 v -8.93027 m -39.6091,-16.64551 V 144.12 m 0,34.50604 v -8.93027 m 39.6091,11.4818 h -39.6091 m 39.6091,-2.55153 v 2.55153 m 0,-28.13737 v 16.65557 m 0,-28.1273 V 144.12 m -39.6091,-2.55153 h 39.6091 m -39.6091,2.55153 v -2.55153 m 0,28.1273 v -16.64551 m 0,28.12731 v -2.55153" /><path
       id="path2597"
       style="display:inline;fill:none;stroke:#ff0000;stroke-width:0.0759383;stroke-miterlimit:4;stroke-dasharray:none;stroke-opacity:1"
       d="m 131.87688,174.65011 v -8.93035 m 0,34.50613 v -8.93027 M 92.267777,174.65011 v -8.93035 m 0,34.50613 c 0,0 0,-8.93027 0,-8.93027 m 39.609103,11.4818 H 92.267777 m 39.609103,-2.55153 v 2.55153 m 0,-28.12731 v 16.64551 m 0,-28.1273 v 2.55144 m -39.609103,-2.55144 h 39.609103 m -39.609103,2.55144 v -2.55144 m 0,28.1273 v -16.64551 m 0,28.12731 v -2.55153" /><path
       id="path2605"
       style="display:inline;fill:none;stroke:#ff0000;stroke-width:0.0759383;stroke-miterlimit:4;stroke-dasharray:none;stroke-opacity:1"
       d="m 185.87651,174.65011 v -8.93035 m 0,34.50613 v -8.93027 M 146.2674,174.65011 v -8.93035 m 0,34.50613 v -8.93027 m 39.60911,11.4818 H 146.2674 m 39.60911,-2.55153 v 2.55153 m 0,-28.12731 v 16.64551 m 0,-28.1273 v 2.55144 m -39.60911,-2.55144 h 39.60911 m -39.60911,2.55144 v -2.55144 m 0,28.1273 v -16.64551 m 0,28.12731 v -2.55153" /><path
       id="path2613"
       style="display:inline;fill:none;stroke:#ff0000;stroke-width:0.0759383;stroke-miterlimit:4;stroke-dasharray:none;stroke-opacity:1"
       d="m 131.87688,228.64966 v -8.93026 m 0,34.50613 v -8.93027 m -39.609103,-16.6456 c 0,0 0,-8.93026 0,-8.93026 m 0,34.50613 v -8.93027 m 39.609103,11.48171 H 92.267777 m 39.609103,-2.55144 v 2.55144 m 0,-28.12731 v 16.6456 m 0,-28.12739 v 2.55153 m -39.609103,-2.55153 h 39.609103 m -39.609103,2.55153 v -2.55153 m 0,28.12739 v -16.6456 m 0,28.12731 v -2.55144" /><path
       id="path2621"
       style="display:inline;fill:none;stroke:#ff0000;stroke-width:0.0759383;stroke-miterlimit:4;stroke-dasharray:none;stroke-opacity:1"
       d="m 185.87651,228.64966 v -8.93026 m 0,34.50613 v -8.93027 m -39.60911,-16.6456 v -8.93026 m 0,34.50613 v -8.93027 m 39.60911,11.48171 H 146.2674 m 39.60911,-2.55144 v 2.55144 m 0,-28.12731 v 16.6456 m 0,-28.12739 v 2.55153 m -39.60911,-2.55153 h 39.60911 m -39.60911,2.55153 v -2.55153 m 0,28.12739 v -16.6456 m 0,28.12731 v -2.55144" /><path
       id="path2629"
       style="display:inline;fill:none;stroke:#ff0000;stroke-width:0.0759382;stroke-miterlimit:4;stroke-dasharray:none;stroke-opacity:1"
       d="m 131.87688,282.6493 v -8.93024 m 0,34.50606 v -8.93025 M 92.267777,282.6493 v -8.93024 m 0,34.50606 v -8.93025 m 39.609103,11.48177 H 92.267777 m 39.609103,-2.55152 v 2.55152 m 0,-28.12734 v 16.64557 m 0,-28.12733 v 2.55152 m -39.609103,-2.55152 h 39.609103 m -39.609103,2.55152 v -2.55152 m 0,28.12733 V 282.6493 m 0,28.12734 v -2.55152" /><path
       id="path2637"
       style="display:inline;fill:none;stroke:#ff0000;stroke-width:0.0759382;stroke-miterlimit:4;stroke-dasharray:none;stroke-opacity:1"
       d="m 185.87651,282.6493 v -8.93024 m 0,34.50606 v -8.93025 M 146.2674,282.6493 v -8.93024 m 0,34.50606 v -8.93025 m 39.60911,11.48177 H 146.2674 m 39.60911,-2.55152 v 2.55152 m 0,-28.12734 v 16.64557 m 0,-28.12733 v 2.55152 m -39.60911,-2.55152 h 39.60911 m -39.60911,2.55152 v -2.55152 m 0,28.12733 V 282.6493 m 0,28.12734 v -2.55152" /><path
       id="path2645"
       style="display:inline;fill:none;stroke:#ff0000;stroke-width:0.0759382;stroke-miterlimit:4;stroke-dasharray:none;stroke-opacity:1"
       d="m 239.87609,320.44907 v -8.93026 m 0,34.50613 v -8.93027 m -39.6091,-16.6456 v -8.93026 m 0,34.50613 v -8.93027 m 39.6091,11.48171 h -39.6091 m 39.6091,-2.55144 v 2.55144 m 0,-28.12731 v 16.6456 m 0,-28.12739 v 2.55153 m -39.6091,-2.55153 h 39.6091 m -39.6091,2.55153 v -2.55153 m 0,28.12739 v -16.6456 m 0,28.12731 v -2.55144" /><path
       id="path2653"
       style="display:inline;fill:none;stroke:#ff0000;stroke-width:0.0759383;stroke-miterlimit:4;stroke-dasharray:none;stroke-opacity:1"
       d="m 293.87568,325.84907 v -8.93035 m 0,34.50613 v -8.93026 m -39.6091,-16.64552 v -8.93035 m 0,34.50613 v -8.93026 m 39.6091,11.48179 h -39.6091 m 39.6091,-2.55153 v 2.55153 m 0,-28.12731 v 16.64552 m 0,-28.12731 v 2.55144 m -39.6091,-2.55144 h 39.6091 m -39.6091,2.55144 v -2.55144 m 0,28.12731 v -16.64552 m 0,28.12731 v -2.55153" /><path
       id="path2661"
       style="display:inline;fill:none;stroke:#ff0000;stroke-width:0.0759383;stroke-miterlimit:4;stroke-dasharray:none;stroke-opacity:1"
       d="m 347.87531,320.44907 v -8.93026 m 0,34.50613 v -8.93027 m -39.6091,-16.6456 c 0,0 0,-8.93026 0,-8.93026 m 0,34.50613 v -8.93027 m 39.6091,11.48171 h -39.6091 m 39.6091,-2.55144 v 2.55144 m 0,-28.12731 v 16.6456 m 0,-28.12739 v 2.55153 m -39.6091,-2.55153 h 39.6091 m -39.6091,2.55153 v -2.55153 m 0,28.12739 v -16.6456 m 0,28.12731 v -2.55144" /><path
       id="path2669"
       style="display:inline;fill:none;stroke:#ff0000;stroke-width:0.0759382;stroke-miterlimit:4;stroke-dasharray:none;stroke-opacity:1"
       d="m 401.8749,315.04915 v -8.93027 m 0,34.50605 v -8.93027 m -39.60911,-16.64551 v -8.93027 m 0,34.50605 v -8.93027 m 39.60911,11.4818 h -39.60911 m 39.60911,-2.55153 v 2.55153 m 0,-28.12731 v 16.64551 m 0,-28.12731 v 2.55153 m -39.60911,-2.55153 h 39.60911 m -39.60911,2.55153 v -2.55153 m 0,28.12731 v -16.64551 m 0,28.12731 v -2.55153" /><path
       id="path2677"
       style="display:inline;fill:none;stroke:#ff0000;stroke-width:0.0759381;stroke-miterlimit:4;stroke-dasharray:none;stroke-opacity:1"
       d="m 362.26579,261.04945 v -8.93024 m 0,34.50613 v -8.9304 m 39.60911,-16.64549 v -8.93024 m 0,34.50613 v -8.9304 m 0,8.9304 v 2.55145 m 0,0 h -39.60911 m 39.60911,-28.12734 v 16.64549 m 0,-28.12725 v 2.55152 m -39.60911,-2.55152 h 39.60911 m -39.60911,2.55152 v -2.55152 m 0,28.12725 v -16.64549 m 0,28.12734 v -2.55145" /><path
       id="path2685"
       style="display:inline;fill:none;stroke:#ff0000;stroke-width:0.0759382;stroke-miterlimit:4;stroke-dasharray:none;stroke-opacity:1"
       d="m 308.26621,266.44938 v -8.93025 m 0,34.50614 v -8.93033 m 39.6091,-16.64556 v -8.93025 m 0,34.50614 v -8.93033 m 0,11.48185 h -39.6091 m 39.6091,-2.55152 v 2.55152 m 0,-28.12741 v 16.64556 m 0,-28.12725 v 2.55144 m -39.6091,-2.55144 h 39.6091 m -39.6091,2.55144 v -2.55144 m 0,28.12725 v -16.64556 m 0,28.12741 v -2.55152" /><path
       id="path2693"
       style="display:inline;fill:none;stroke:#ff0000;stroke-width:0.0759382;stroke-miterlimit:4;stroke-dasharray:none;stroke-opacity:1"
       d="m 254.26658,271.84938 v -8.93025 m 0,34.50606 v -8.93024 m 39.6091,-16.64557 v -8.93025 m 0,34.50606 v -8.93024 m 0,11.48176 h -39.6091 m 39.6091,-2.55152 v 2.55152 m 0,-28.12733 v 16.64557 m 0,-28.12734 v 2.55152 m -39.6091,-2.55152 h 39.6091 m -39.6091,2.55152 v -2.55152 m 0,28.12734 v -16.64557 m 0,28.12733 v -2.55152" /><path
       id="path2701"
       style="display:inline;fill:none;stroke:#ff0000;stroke-width:0.0759381;stroke-miterlimit:4;stroke-dasharray:none;stroke-opacity:1"
       d="m 200.26699,266.44938 v -8.93025 m 0,34.50614 v -8.93033 m 39.6091,-16.64556 v -8.93025 m 0,34.50614 v -8.93033 m 0,11.48185 h -39.6091 m 39.6091,-2.55152 v 2.55152 m 0,-28.12741 v 16.64556 m 0,-28.12725 v 2.55144 m -39.6091,-2.55144 h 39.6091 m -39.6091,2.55144 v -2.55144 m 0,28.12725 v -16.64556 m 0,28.12741 v -2.55152" /><path
       id="path2709"
       style="display:inline;fill:none;stroke:#ff0000;stroke-width:0.0759382;stroke-miterlimit:4;stroke-dasharray:none;stroke-opacity:1"
       d="m 239.87609,212.44981 v -8.93026 m 0,34.50604 v -8.93027 m -39.6091,-16.64551 v -8.93026 m 0,34.50604 v -8.93027 m 39.6091,11.4818 h -39.6091 m 39.6091,-2.55153 v 2.55153 m 0,-28.12731 v 16.64551 m 0,-28.1273 v 2.55153 m -39.6091,-2.55153 h 39.6091 m -39.6091,2.55153 v -2.55153 m 0,28.1273 v -16.64551 m 0,28.12731 v -2.55153" /><path
       id="path2717"
       style="display:inline;fill:none;stroke:#ff0000;stroke-width:0.0759382;stroke-miterlimit:4;stroke-dasharray:none;stroke-opacity:1"
       d="m 293.87568,217.84975 v -8.93025 m 0,34.50606 v -8.93025 m -39.6091,-16.64556 v -8.93025 m 0,34.50606 v -8.93025 m 39.6091,11.48177 h -39.6091 m 39.6091,-2.55152 v 2.55152 m 0,-28.12733 v 16.64556 m 0,-28.12733 v 2.55152 m -39.6091,-2.55152 h 39.6091 m -39.6091,2.55152 v -2.55152 m 0,28.12733 v -16.64556 m 0,28.12733 v -2.55152" /><path
       id="path2725"
       style="display:inline;fill:none;stroke:#ff0000;stroke-width:0.0759383;stroke-miterlimit:4;stroke-dasharray:none;stroke-opacity:1"
       d="m 347.87531,212.44981 v -8.93026 m 0,34.50604 v -8.93027 m -39.6091,-16.64551 v -8.93026 m 0,34.50604 v -8.93027 m 39.6091,11.4818 h -39.6091 m 39.6091,-2.55153 v 2.55153 m 0,-28.12731 v 16.64551 m 0,-28.1273 v 2.55153 m -39.6091,-2.55153 h 39.6091 m -39.6091,2.55153 v -2.55153 m 0,28.1273 v -16.64551 m 0,28.12731 v -2.55153" /><path
       id="path2733"
       style="display:inline;fill:none;stroke:#ff0000;stroke-width:0.0759381;stroke-miterlimit:4;stroke-dasharray:none;stroke-opacity:1"
       d="m 401.8749,207.04982 v -8.93024 m 0,34.50605 v -8.93024 m -39.60911,-16.64557 v -8.93024 m 0,34.50605 v -8.93024 m 39.60911,11.48177 h -39.60911 m 39.60911,-2.55153 v 2.55153 m 0,-28.12734 v 16.64557 m 0,-28.12734 v 2.55153 m -39.60911,-2.55153 h 39.60911 m -39.60911,2.55153 v -2.55153 m 0,28.12734 v -16.64557 m 0,28.12734 v -2.55153" /><path
       id="path953"
       style="fill:none;stroke:#0000ff;stroke-width:0.075;stroke-miterlimit:1;stroke-dasharray:none;stroke-opacity:1"
       d="M 408.35016,364.94563 84.610967,364.82977 M 408.35016,319.05191 v 45.89372 m 51.95963,-218.93253 0.12,-0.12 m 0,0 -0.0429,-0.21705 M 408.35016,319.05191 V 176.13287 l 0.06,-0.06 51.89963,-30.05977 m -30.10296,-52.77212 0.12151,0.206977 m -0.37683,-0.404985 0.25532,0.198008 m -0.4803,-0.344273 0.22498,0.146265 m -0.47133,-0.210405 0.24636,0.0642 m -0.4927,-0.128325 0.24635,0.0642 m -0.54444,-0.098 0.29809,0.03368 m -0.58719,0.06638 0.28912,-0.100057 m -0.54785,0.251902 0.25873,-0.151837 M 84.610965,364.82977 l -0.007,-115.22826 -0.0035,-57.61413 -0.0035,-57.61413 m 189.11407,0 108.71917,-14.75993 M 84.597066,134.37325 H 273.71113 m 156.59336,-40.961585 30.0824,52.264385 m -77.9562,-26.06311 45.95748,-26.626083" /><path
       style="display:inline;opacity:1;mix-blend-mode:normal;fill:none;stroke:#ff0000;stroke-width:0.07815;stroke-linecap:round;stroke-linejoin:round;stroke-miterlimit:4;stroke-dasharray:none;stroke-opacity:1"
       d="m 94.511147,358.0069 -0.124334,-0.87973 m 0,0 -0.37322,-0.75407 m 0,0 -0.559831,-0.69113 m 0,0 -0.746442,-0.5027 m 0,0 -0.808645,-0.25136 m 0,0 h -0.933052 m 0,0 -0.808646,0.25136 m 0,0 -0.746441,0.5027 m 0,0 -0.559832,0.69113 m 0,0 -0.37322,0.75407 m 0,0 -0.124407,0.87973 m 0,0 0.124407,0.87973 m 0,0 0.37322,0.8169 m 0,0 0.559832,0.69122 m 0,0 0.746441,0.50271 m 0,0 0.808646,0.18852 m 0,0 h 0.933052 m 0,0 0.808645,-0.18852 m 0,0 0.746442,-0.50271 m 0,0 0.559831,-0.69122 m 0,0 0.37322,-0.8169 m 0,0 0.124334,-0.87973"
       id="path5098-5-4" /><path
       style="display:inline;opacity:1;mix-blend-mode:normal;fill:none;stroke:#ff0000;stroke-width:0.07815;stroke-linecap:round;stroke-linejoin:round;stroke-miterlimit:4;stroke-dasharray:none;stroke-opacity:1"
       d="m 94.510939,141.20266 -0.124334,-0.87973 m 0,0 -0.37322,-0.75407 m 0,0 -0.559831,-0.69113 m 0,0 -0.746442,-0.5027 m 0,0 -0.808645,-0.25136 m 0,0 h -0.933052 m 0,0 -0.808646,0.25136 m 0,0 -0.746441,0.5027 m 0,0 -0.559832,0.69113 m 0,0 -0.37322,0.75407 m 0,0 -0.124407,0.87973 m 0,0 0.124407,0.87973 m 0,0 0.37322,0.8169 m 0,0 0.559832,0.69122 m 0,0 0.746441,0.50271 m 0,0 0.808646,0.18852 m 0,0 h 0.933052 m 0,0 0.808645,-0.18852 m 0,0 0.746442,-0.50271 m 0,0 0.559831,-0.69122 m 0,0 0.37322,-0.8169 m 0,0 0.124334,-0.87973"
       id="path5098-5-4-4" /><path
       style="display:inline;opacity:1;mix-blend-mode:normal;fill:none;stroke:#ff0000;stroke-width:0.07815;stroke-linecap:round;stroke-linejoin:round;stroke-miterlimit:4;stroke-dasharray:none;stroke-opacity:1"
       d="m 404.60025,358.00675 -0.12434,-0.87973 m 0,0 -0.37322,-0.75407 m 0,0 -0.55984,-0.69113 m 0,0 -0.74643,-0.5027 m 0,0 -0.80865,-0.25136 m 0,0 h -0.93304 m 0,0 -0.80865,0.25136 m 0,0 -0.74644,0.5027 m 0,0 -0.55983,0.69113 m 0,0 -0.37322,0.75407 m 0,0 -0.12442,0.87973 m 0,0 0.12442,0.87973 m 0,0 0.37322,0.8169 m 0,0 0.55983,0.69122 m 0,0 0.74644,0.50271 m 0,0 0.80865,0.18852 m 0,0 h 0.93304 m 0,0 0.80865,-0.18852 m 0,0 0.74643,-0.50271 m 0,0 0.55984,-0.69122 m 0,0 0.37322,-0.8169 m 0,0 0.12434,-0.87973"
       id="path5098-5-4-1" /></g></svg>
