M48
; DRILL file {KiCad (5.1.7)-1} date 11/08/20 23:08:22
; FORMAT={-:-/ absolute / metric / decimal}
; #@! TF.CreationDate,2020-11-08T23:08:22+09:00
; #@! TF.GenerationSoftware,Kicad,Pcbnew,(5.1.7)-1
; #@! TF.FileFunction,NonPlated,1,2,NPTH
FMAT,2
METRIC
T1C0.100
T2C1.200
T3C1.700
T4C1.900
T5C3.000
T6C4.000
%
G90
G05
T1
X109.515Y-122.505
X117.165Y-122.505
T2
X185.887Y-117.503
X185.887Y-119.253
X192.887Y-117.503
X192.887Y-119.253
T3
X84.455Y-98.415
X94.615Y-98.415
X132.07Y-125.085
X142.23Y-125.085
X84.455Y-79.365
X94.615Y-79.365
X154.378Y-126.435
X164.192Y-129.065
X141.605Y-66.04
X151.765Y-66.04
X122.555Y-102.225
X132.715Y-102.225
X65.405Y-98.415
X75.565Y-98.415
X160.655Y-86.985
X170.815Y-86.985
X103.505Y-104.14
X113.665Y-104.14
X141.605Y-104.14
X151.765Y-104.14
X122.555Y-83.175
X132.715Y-83.175
X122.555Y-64.145
X132.715Y-64.145
X141.605Y-85.09
X151.765Y-85.09
X84.455Y-117.465
X94.615Y-117.465
X160.655Y-106.035
X170.815Y-106.035
X103.505Y-85.09
X113.665Y-85.09
X174.411Y-133.6
X183.209Y-138.68
X103.505Y-66.04
X113.665Y-66.04
X108.26Y-125.085
X118.42Y-125.085
X160.655Y-67.955
X170.815Y-67.955
X65.405Y-117.465
X75.565Y-117.465
X65.405Y-79.365
X75.565Y-79.365
T4
X122.135Y-83.175
X133.135Y-83.175
X122.135Y-64.145
X133.135Y-64.145
X141.185Y-85.09
X152.185Y-85.09
X84.035Y-117.465
X95.035Y-117.465
X160.235Y-106.035
X171.235Y-106.035
X103.085Y-85.09
X114.085Y-85.09
X174.047Y-133.39
X183.573Y-138.89
X103.085Y-66.04
X114.085Y-66.04
X107.84Y-125.085
X118.84Y-125.085
X160.235Y-67.955
X171.235Y-67.955
X64.985Y-117.465
X75.985Y-117.465
X64.985Y-79.365
X75.985Y-79.365
X84.035Y-98.415
X95.035Y-98.415
X131.65Y-125.085
X142.65Y-125.085
X84.035Y-79.365
X95.035Y-79.365
X153.972Y-126.326
X164.598Y-129.174
X141.185Y-66.04
X152.185Y-66.04
X122.135Y-102.225
X133.135Y-102.225
X64.985Y-98.415
X75.985Y-98.415
X160.235Y-86.985
X171.235Y-86.985
X103.085Y-104.14
X114.085Y-104.14
X141.185Y-104.14
X152.185Y-104.14
T5
X103.585Y-69.74
X104.775Y-63.5
X106.045Y-60.96
X108.585Y-71.94
X111.125Y-60.96
X112.395Y-63.5
X113.585Y-69.74
X108.34Y-128.785
X109.53Y-122.545
X110.8Y-120.005
X113.34Y-130.985
X115.88Y-120.005
X117.15Y-122.545
X117.15Y-122.545
X118.34Y-128.785
X160.735Y-71.655
X161.925Y-65.415
X163.195Y-62.875
X165.735Y-73.855
X168.275Y-62.875
X169.545Y-65.415
X170.735Y-71.655
X65.485Y-121.165
X66.675Y-114.925
X67.945Y-112.385
X70.485Y-123.365
X73.025Y-112.385
X74.295Y-114.925
X75.485Y-121.165
X65.485Y-83.065
X66.675Y-76.825
X67.945Y-74.285
X70.485Y-85.265
X73.025Y-74.285
X74.295Y-76.825
X75.485Y-83.065
X84.535Y-102.115
X85.725Y-95.875
X86.995Y-93.335
X89.535Y-104.315
X92.075Y-93.335
X93.345Y-95.875
X94.535Y-102.115
X132.15Y-128.785
X133.34Y-122.545
X134.61Y-120.005
X137.15Y-130.985
X139.69Y-120.005
X140.96Y-122.545
X142.15Y-128.785
X84.535Y-83.065
X85.725Y-76.825
X86.995Y-74.285
X89.535Y-85.265
X92.075Y-74.285
X93.345Y-76.825
X94.535Y-83.065
X153.498Y-130.03
X156.262Y-124.31
X157.758Y-133.449
X158.146Y-122.186
X163.053Y-123.5
X163.157Y-132.618
X163.623Y-126.283
X141.685Y-69.74
X142.875Y-63.5
X144.145Y-60.96
X146.685Y-71.94
X149.225Y-60.96
X150.495Y-63.5
X151.685Y-69.74
X122.635Y-105.925
X123.825Y-99.685
X125.095Y-97.145
X127.635Y-108.125
X130.175Y-97.145
X131.445Y-99.685
X132.635Y-105.925
X65.485Y-102.115
X66.675Y-95.875
X67.945Y-93.335
X70.485Y-104.315
X73.025Y-93.335
X74.295Y-95.875
X75.485Y-102.115
X160.735Y-90.685
X161.925Y-84.445
X163.195Y-81.905
X165.735Y-92.885
X168.275Y-81.905
X169.545Y-84.445
X170.735Y-90.685
X103.585Y-107.84
X104.775Y-101.6
X106.045Y-99.06
X108.585Y-110.04
X111.125Y-99.06
X112.395Y-101.6
X113.585Y-107.84
X141.685Y-107.84
X142.875Y-101.6
X144.145Y-99.06
X146.685Y-110.04
X149.225Y-99.06
X150.495Y-101.6
X151.685Y-107.84
X122.635Y-86.875
X123.825Y-80.635
X125.095Y-78.095
X127.635Y-89.075
X130.175Y-78.095
X131.445Y-80.635
X132.635Y-86.875
X122.635Y-67.845
X123.825Y-61.605
X125.095Y-59.065
X127.635Y-70.045
X130.175Y-59.065
X131.445Y-61.605
X132.635Y-67.845
X141.685Y-88.79
X142.875Y-82.55
X144.145Y-80.01
X146.685Y-90.99
X149.225Y-80.01
X150.495Y-82.55
X151.685Y-88.79
X84.535Y-121.165
X85.725Y-114.925
X86.995Y-112.385
X89.535Y-123.365
X92.075Y-112.385
X93.345Y-114.925
X94.535Y-121.165
X160.735Y-109.735
X161.925Y-103.495
X163.195Y-100.955
X165.735Y-111.935
X168.275Y-100.955
X169.545Y-103.495
X170.735Y-109.735
X103.585Y-88.79
X104.775Y-82.55
X106.045Y-80.01
X108.585Y-90.99
X111.125Y-80.01
X112.395Y-82.55
X113.585Y-88.79
X172.63Y-136.844
X175.86Y-141.25
X176.78Y-132.035
X179.15Y-130.471
X181.29Y-141.844
X183.38Y-135.845
X183.55Y-133.011
T6
X70.485Y-98.415
X165.735Y-86.985
X108.585Y-104.14
X146.685Y-104.14
X127.635Y-83.175
X127.635Y-64.145
X146.685Y-85.09
X89.535Y-117.465
X165.735Y-106.035
X108.585Y-85.09
X178.81Y-136.14
X108.585Y-66.04
X113.34Y-125.085
X165.735Y-67.955
X70.485Y-117.465
X70.485Y-79.365
X89.535Y-98.415
X137.15Y-125.085
X89.535Y-79.365
X159.285Y-127.75
X146.685Y-66.04
X127.635Y-102.225
T0
M30
