M48
; DRILL file {KiCad (5.1.7)-1} date 11/08/20 23:08:22
; FORMAT={-:-/ absolute / metric / decimal}
; #@! TF.CreationDate,2020-11-08T23:08:22+09:00
; #@! TF.GenerationSoftware,Kicad,Pcbnew,(5.1.7)-1
; #@! TF.FileFunction,Plated,1,2,PTH
FMAT,2
METRIC
T1C0.400
T2C0.813
T3C1.000
T4C1.300
T5C2.200
T6C4.100
%
G90
G05
T1
X62.385Y-104.356
X63.246Y-75.047
X63.246Y-94.351
X63.246Y-113.274
X63.627Y-123.688
X64.135Y-86.35
X72.771Y-101.717
X72.771Y-120.64
X73.279Y-82.794
X73.406Y-91.176
X73.66Y-110.099
X74.803Y-72.38
X75.565Y-91.049
X75.565Y-110.226
X77.597Y-93.97
X77.597Y-113.02
X78.105Y-74.793
X78.359Y-72.253
X78.994Y-93.218
X79.756Y-84.328
X81.915Y-91.567
X82.042Y-75.047
X82.11Y-86.487
X82.677Y-76.825
X82.677Y-104.892
X83.058Y-123.561
X83.185Y-94.732
X83.439Y-113.655
X83.566Y-85.334
X91.948Y-101.971
X92.202Y-82.54
X92.202Y-121.148
X94.615Y-72.507
X94.742Y-91.303
X94.869Y-110.607
X96.52Y-78.359
X96.647Y-97.282
X96.774Y-75.047
X97.028Y-113.147
X97.155Y-93.843
X97.409Y-72.126
X97.409Y-110.353
X97.663Y-88.639
X98.933Y-87.239
X101.219Y-99.812
X101.345Y-79.13
X101.473Y-80.889
X101.6Y-110.226
X101.854Y-90.414
X102.489Y-72.253
X102.616Y-62.22
X105.156Y-75.692
X106.299Y-126.228
X106.807Y-120.894
X110.871Y-76.554
X111.125Y-69.967
X111.252Y-58.029
X111.485Y-88.763
X111.56Y-107.285
X113.411Y-97.018
X113.919Y-77.968
X114.173Y-59.579
X114.681Y-75.554
X115.57Y-84.074
X115.697Y-128.641
X115.824Y-80.635
X115.824Y-99.812
X116.205Y-61.585
X116.459Y-58.918
X116.459Y-77.968
X116.459Y-96.764
X117.856Y-118.1
X120.142Y-120.767
X120.269Y-69.713
X120.269Y-73.522
X120.396Y-89.017
X120.396Y-97.907
X120.523Y-78.857
X120.65Y-59.934
X120.777Y-117.973
X121.666Y-74.295
X125.476Y-110.734
X129.413Y-130.673
X129.54Y-116.957
X129.667Y-121.021
X130.048Y-67.808
X130.048Y-74.295
X130.429Y-106.035
X130.549Y-87.113
X130.683Y-111.887
X130.937Y-116.232
X132.461Y-116.957
X132.715Y-76.19
X132.842Y-95.24
X132.969Y-57.267
X133.096Y-73.522
X134.747Y-78.476
X135.001Y-59.68
X135.128Y-97.526
X135.509Y-57.14
X135.509Y-75.936
X135.763Y-95.24
X138.557Y-87.249
X138.811Y-92.54
X139.06Y-93.99
X139.192Y-84.201
X139.573Y-61.966
X139.573Y-128.514
X140.081Y-111.369
X140.208Y-90.414
X140.462Y-71.745
X140.589Y-100.193
X140.716Y-81.143
X140.97Y-73.522
X140.97Y-92.446
X141.097Y-78.105
X142.367Y-117.973
X144.399Y-120.767
X145.161Y-117.973
X149.098Y-107.559
X149.479Y-88.763
X149.588Y-69.847
X149.606Y-117.719
X149.987Y-77.841
X150.749Y-113.538
X150.749Y-116.459
X151.003Y-131.181
X151.13Y-97.018
X151.384Y-58.918
X151.892Y-78.359
X152.146Y-74.295
X153.162Y-96.129
X153.162Y-121.783
X153.924Y-64.897
X154.051Y-99.558
X154.178Y-61.712
X154.178Y-80.635
X154.305Y-58.918
X154.305Y-118.481
X156.083Y-81.915
X156.083Y-94.732
X156.381Y-87.724
X156.845Y-92.446
X156.91Y-93.99
X156.91Y-97.018
X158.369Y-63.617
X158.496Y-101.971
X158.75Y-85.979
X158.75Y-92.573
X158.75Y-94.859
X159.004Y-89.154
X159.131Y-75.184
X159.385Y-77.909
X159.641Y-78.876
X159.893Y-83.302
X160.02Y-74.412
X160.782Y-131.816
X165.735Y-99.367
X166.37Y-122.418
X167.513Y-125.466
X167.64Y-78.867
X167.767Y-117.348
X168.275Y-90.795
X168.529Y-71.491
X168.656Y-109.21
X168.783Y-123.307
X170.18Y-138.801
X171.069Y-99.177
X171.196Y-61.077
X171.196Y-80.127
X171.45Y-96.256
X171.831Y-97.743
X172.212Y-78.857
X172.275Y-93.271
X172.339Y-59.807
X172.72Y-104.902
X172.881Y-63.617
X172.974Y-82.54
X172.974Y-95.621
X173.228Y-101.717
X173.482Y-99.187
X173.736Y-88.89
X173.863Y-115.179
X174.752Y-127.879
X175.33Y-86.431
X175.387Y-81.397
X175.514Y-109.972
X175.768Y-113.03
X178.689Y-109.347
X179.07Y-111.76
X179.324Y-107.188
X179.771Y-140.394
X181.102Y-85.334
X181.446Y-88.255
X181.61Y-102.087
X181.737Y-86.35
X182.118Y-83.402
X182.626Y-113.792
X182.88Y-84.572
X182.88Y-89.435
X183.261Y-111.379
X183.642Y-87.366
X183.642Y-92.192
X183.769Y-81.952
X183.769Y-101.981
X183.896Y-98.679
X184.404Y-94.097
X184.404Y-97.399
X184.812Y-102.067
X185.039Y-77.206
X185.293Y-83.683
X185.293Y-104.521
X186.182Y-96.764
X186.309Y-75.428
X187.071Y-132.578
X187.198Y-100.701
X187.579Y-136.007
X187.706Y-92.192
X187.706Y-99.177
X187.934Y-84.431
X188.017Y-100.127
X188.087Y-96.764
X188.722Y-133.975
X188.849Y-85.942
X188.849Y-94.097
X188.852Y-101.987
X188.976Y-87.395
X189.23Y-99.939
X189.848Y-90.842
X193.294Y-109.22
T2
X181.483Y-112.522
X184.785Y-112.649
X189.865Y-112.649
X181.61Y-107.707
X184.15Y-107.707
X186.69Y-107.707
X189.23Y-107.707
X176.403Y-75.057
X176.403Y-77.597
X176.403Y-80.137
X176.403Y-82.677
X176.403Y-85.217
X176.403Y-87.757
X176.403Y-90.297
X176.403Y-92.837
X176.403Y-95.377
X176.403Y-97.917
X176.403Y-100.457
X176.403Y-102.997
X177.729Y-73.787
X177.729Y-76.327
X177.729Y-78.867
X177.729Y-81.407
X177.729Y-83.947
X177.729Y-86.487
X177.729Y-89.027
X177.729Y-91.567
X177.729Y-94.107
X177.729Y-96.647
X177.729Y-99.187
X177.729Y-101.727
X191.643Y-75.057
X191.643Y-77.597
X191.643Y-80.137
X191.643Y-82.677
X191.643Y-85.217
X191.643Y-87.757
X191.643Y-90.297
X191.643Y-92.837
X191.643Y-95.377
X191.643Y-97.917
X191.643Y-100.457
X191.643Y-102.997
X192.949Y-73.787
X192.949Y-76.327
X192.949Y-78.867
X192.949Y-81.407
X192.949Y-83.947
X192.949Y-86.487
X192.949Y-89.027
X192.949Y-91.567
X192.949Y-94.107
X192.949Y-96.647
X192.949Y-99.187
X192.949Y-101.727
X184.785Y-110.236
X189.865Y-110.236
X181.483Y-110.109
T4
X192.587Y-106.351
X192.587Y-112.851
T5
X177.6Y-117.018
X191.6Y-125.5
T6
X155.702Y-75.692
X80.01Y-88.89
X170.688Y-128.006
X80.01Y-107.94
X96.774Y-130.165
T3
G00X182.837Y-117.153
M15
G01X182.337Y-117.153
M16
G05
G00X182.837Y-119.603
M15
G01X182.337Y-119.603
M16
G05
G00X184.337Y-115.403
M15
G01X183.837Y-115.403
M16
G05
G00X184.337Y-121.353
M15
G01X183.837Y-121.353
M16
G05
G00X188.337Y-115.403
M15
G01X187.837Y-115.403
M16
G05
G00X188.337Y-121.353
M15
G01X187.837Y-121.353
M16
G05
G00X191.337Y-115.403
M15
G01X190.837Y-115.403
M16
G05
G00X191.337Y-121.353
M15
G01X190.837Y-121.353
M16
G05
T0
M30
