%TF.GenerationSoftware,KiCad,Pcbnew,(5.1.7)-1*%
%TF.CreationDate,2020-11-08T23:06:54+09:00*%
%TF.ProjectId,limb44,6c696d62-3434-42e6-9b69-6361645f7063,rev?*%
%TF.SameCoordinates,Original*%
%TF.FileFunction,Legend,Top*%
%TF.FilePolarity,Positive*%
%FSLAX46Y46*%
G04 Gerber Fmt 4.6, Leading zero omitted, Abs format (unit mm)*
G04 Created by KiCad (PCBNEW (5.1.7)-1) date 2020-11-08 23:06:54*
%MOMM*%
%LPD*%
G01*
G04 APERTURE LIST*
%ADD10C,0.100000*%
%ADD11C,0.500000*%
%ADD12C,0.150000*%
%ADD13C,0.125000*%
G04 APERTURE END LIST*
D10*
X180955904Y-117747952D02*
X180155904Y-117747952D01*
X180917809Y-117747952D02*
X180955904Y-117824142D01*
X180955904Y-117976523D01*
X180917809Y-118052714D01*
X180879714Y-118090809D01*
X180803523Y-118128904D01*
X180574952Y-118128904D01*
X180498761Y-118090809D01*
X180460666Y-118052714D01*
X180422571Y-117976523D01*
X180422571Y-117824142D01*
X180460666Y-117747952D01*
X180955904Y-117024142D02*
X180536857Y-117024142D01*
X180460666Y-117062238D01*
X180422571Y-117138428D01*
X180422571Y-117290809D01*
X180460666Y-117367000D01*
X180917809Y-117024142D02*
X180955904Y-117100333D01*
X180955904Y-117290809D01*
X180917809Y-117367000D01*
X180841619Y-117405095D01*
X180765428Y-117405095D01*
X180689238Y-117367000D01*
X180651142Y-117290809D01*
X180651142Y-117100333D01*
X180613047Y-117024142D01*
X180422571Y-116757476D02*
X180422571Y-116452714D01*
X180155904Y-116643190D02*
X180841619Y-116643190D01*
X180917809Y-116605095D01*
X180955904Y-116528904D01*
X180955904Y-116452714D01*
X180955904Y-115843190D02*
X180536857Y-115843190D01*
X180460666Y-115881285D01*
X180422571Y-115957476D01*
X180422571Y-116109857D01*
X180460666Y-116186047D01*
X180917809Y-115843190D02*
X180955904Y-115919380D01*
X180955904Y-116109857D01*
X180917809Y-116186047D01*
X180841619Y-116224142D01*
X180765428Y-116224142D01*
X180689238Y-116186047D01*
X180651142Y-116109857D01*
X180651142Y-115919380D01*
X180613047Y-115843190D01*
X173939333Y-110940904D02*
X174206000Y-111740904D01*
X174472666Y-110940904D01*
X175196476Y-111664714D02*
X175158380Y-111702809D01*
X175044095Y-111740904D01*
X174967904Y-111740904D01*
X174853619Y-111702809D01*
X174777428Y-111626619D01*
X174739333Y-111550428D01*
X174701238Y-111398047D01*
X174701238Y-111283761D01*
X174739333Y-111131380D01*
X174777428Y-111055190D01*
X174853619Y-110979000D01*
X174967904Y-110940904D01*
X175044095Y-110940904D01*
X175158380Y-110979000D01*
X175196476Y-111017095D01*
X175996476Y-111664714D02*
X175958380Y-111702809D01*
X175844095Y-111740904D01*
X175767904Y-111740904D01*
X175653619Y-111702809D01*
X175577428Y-111626619D01*
X175539333Y-111550428D01*
X175501238Y-111398047D01*
X175501238Y-111283761D01*
X175539333Y-111131380D01*
X175577428Y-111055190D01*
X175653619Y-110979000D01*
X175767904Y-110940904D01*
X175844095Y-110940904D01*
X175958380Y-110979000D01*
X175996476Y-111017095D01*
X174745714Y-108565904D02*
X174364761Y-108565904D01*
X174364761Y-107765904D01*
X175012380Y-108146857D02*
X175279047Y-108146857D01*
X175393333Y-108565904D02*
X175012380Y-108565904D01*
X175012380Y-107765904D01*
X175393333Y-107765904D01*
X175736190Y-108565904D02*
X175736190Y-107765904D01*
X175926666Y-107765904D01*
X176040952Y-107804000D01*
X176117142Y-107880190D01*
X176155238Y-107956380D01*
X176193333Y-108108761D01*
X176193333Y-108223047D01*
X176155238Y-108375428D01*
X176117142Y-108451619D01*
X176040952Y-108527809D01*
X175926666Y-108565904D01*
X175736190Y-108565904D01*
X174650476Y-105391000D02*
X174574285Y-105352904D01*
X174460000Y-105352904D01*
X174345714Y-105391000D01*
X174269523Y-105467190D01*
X174231428Y-105543380D01*
X174193333Y-105695761D01*
X174193333Y-105810047D01*
X174231428Y-105962428D01*
X174269523Y-106038619D01*
X174345714Y-106114809D01*
X174460000Y-106152904D01*
X174536190Y-106152904D01*
X174650476Y-106114809D01*
X174688571Y-106076714D01*
X174688571Y-105810047D01*
X174536190Y-105810047D01*
X175031428Y-106152904D02*
X175031428Y-105352904D01*
X175488571Y-106152904D01*
X175488571Y-105352904D01*
X175869523Y-106152904D02*
X175869523Y-105352904D01*
X176060000Y-105352904D01*
X176174285Y-105391000D01*
X176250476Y-105467190D01*
X176288571Y-105543380D01*
X176326666Y-105695761D01*
X176326666Y-105810047D01*
X176288571Y-105962428D01*
X176250476Y-106038619D01*
X176174285Y-106114809D01*
X176060000Y-106152904D01*
X175869523Y-106152904D01*
D11*
X182015095Y-77023386D02*
X182015095Y-74642434D01*
X187015095Y-75267434D01*
X182015095Y-78690053D02*
X185348428Y-79106720D01*
X187015095Y-79315053D02*
X186777000Y-79047196D01*
X186538904Y-79255529D01*
X186777000Y-79523386D01*
X187015095Y-79315053D01*
X186538904Y-79255529D01*
X182015095Y-81071005D02*
X185348428Y-81487672D01*
X184872238Y-81428148D02*
X185110333Y-81696005D01*
X185348428Y-82201958D01*
X185348428Y-82916244D01*
X185110333Y-83362672D01*
X184634142Y-83541244D01*
X182015095Y-83213863D01*
X184634142Y-83541244D02*
X185110333Y-83838863D01*
X185348428Y-84344815D01*
X185348428Y-85059101D01*
X185110333Y-85505529D01*
X184634142Y-85684101D01*
X182015095Y-85356720D01*
X182015095Y-87737672D02*
X187015095Y-88362672D01*
X185110333Y-88124577D02*
X185348428Y-88630529D01*
X185348428Y-89582910D01*
X185110333Y-90029339D01*
X184872238Y-90237672D01*
X184396047Y-90416244D01*
X182967476Y-90237672D01*
X182491285Y-89940053D01*
X182253190Y-89672196D01*
X182015095Y-89166244D01*
X182015095Y-88213863D01*
X182253190Y-87767434D01*
X185348428Y-94821005D02*
X182015095Y-94404339D01*
X187253190Y-93868625D02*
X183681761Y-92231720D01*
X183681761Y-95326958D01*
X185348428Y-99582910D02*
X182015095Y-99166244D01*
X187253190Y-98630529D02*
X183681761Y-96993625D01*
X183681761Y-100088863D01*
D12*
%TO.C,SW5*%
X152785000Y-65144000D02*
X149175000Y-65144000D01*
X152785000Y-61190000D02*
X152785000Y-65135000D01*
X141885000Y-59236000D02*
X150510000Y-59236000D01*
X141885000Y-63144000D02*
X141885000Y-59236000D01*
X141885000Y-63190000D02*
X146935000Y-63236000D01*
X144410000Y-74265000D02*
X148960000Y-74265000D01*
X144410000Y-69615000D02*
X146960000Y-69615000D01*
X149260000Y-67415000D02*
X153960000Y-67415000D01*
X150185000Y-72065000D02*
X153960000Y-72065000D01*
X144385000Y-69640000D02*
X144385000Y-74240000D01*
X153960000Y-67440000D02*
X153985000Y-72040000D01*
X148965000Y-73540000D02*
X148965000Y-74240000D01*
X152774000Y-61120000D02*
G75*
G03*
X150510000Y-59236000I-2074000J-190000D01*
G01*
X149170000Y-65120000D02*
G75*
G03*
X146910000Y-63240000I-2070000J-190000D01*
G01*
X149255000Y-67440000D02*
G75*
G02*
X146885000Y-69610000I-2270000J100000D01*
G01*
X148965000Y-73490000D02*
G75*
G02*
X150185000Y-72070000I1320000J100000D01*
G01*
%TO.C,P1*%
X180483000Y-109109000D02*
X180483000Y-111109000D01*
X180483000Y-111109000D02*
X182483000Y-111109000D01*
X182483000Y-111109000D02*
X182483000Y-109109000D01*
X182483000Y-109109000D02*
X180483000Y-109109000D01*
%TO.C,P2*%
X182483000Y-111522000D02*
X180483000Y-111522000D01*
X182483000Y-113522000D02*
X182483000Y-111522000D01*
X180483000Y-113522000D02*
X182483000Y-113522000D01*
X180483000Y-111522000D02*
X180483000Y-113522000D01*
%TO.C,JP1*%
X179832000Y-113792000D02*
X182118000Y-113792000D01*
X182118000Y-113792000D02*
X182118000Y-115570000D01*
X182118000Y-115570000D02*
X179832000Y-115570000D01*
X179832000Y-115570000D02*
X179832000Y-113792000D01*
%TO.C,SW1*%
X72765000Y-86865000D02*
X72765000Y-87565000D01*
X77760000Y-80765000D02*
X77785000Y-85365000D01*
X68185000Y-82965000D02*
X68185000Y-87565000D01*
X73985000Y-85390000D02*
X77760000Y-85390000D01*
X73060000Y-80740000D02*
X77760000Y-80740000D01*
X68210000Y-82940000D02*
X70760000Y-82940000D01*
X68210000Y-87590000D02*
X72760000Y-87590000D01*
X65685000Y-76515000D02*
X70735000Y-76561000D01*
X65685000Y-76469000D02*
X65685000Y-72561000D01*
X65685000Y-72561000D02*
X74310000Y-72561000D01*
X76585000Y-74515000D02*
X76585000Y-78460000D01*
X76585000Y-78469000D02*
X72975000Y-78469000D01*
X72765000Y-86815000D02*
G75*
G02*
X73985000Y-85395000I1320000J100000D01*
G01*
X73055000Y-80765000D02*
G75*
G02*
X70685000Y-82935000I-2270000J100000D01*
G01*
X72970000Y-78445000D02*
G75*
G03*
X70710000Y-76565000I-2070000J-190000D01*
G01*
X76574000Y-74445000D02*
G75*
G03*
X74310000Y-72561000I-2074000J-190000D01*
G01*
%TO.C,SW18*%
X171835000Y-105139000D02*
X168225000Y-105139000D01*
X171835000Y-101185000D02*
X171835000Y-105130000D01*
X160935000Y-99231000D02*
X169560000Y-99231000D01*
X160935000Y-103139000D02*
X160935000Y-99231000D01*
X160935000Y-103185000D02*
X165985000Y-103231000D01*
X163460000Y-114260000D02*
X168010000Y-114260000D01*
X163460000Y-109610000D02*
X166010000Y-109610000D01*
X168310000Y-107410000D02*
X173010000Y-107410000D01*
X169235000Y-112060000D02*
X173010000Y-112060000D01*
X163435000Y-109635000D02*
X163435000Y-114235000D01*
X173010000Y-107435000D02*
X173035000Y-112035000D01*
X168015000Y-113535000D02*
X168015000Y-114235000D01*
X171824000Y-101115000D02*
G75*
G03*
X169560000Y-99231000I-2074000J-190000D01*
G01*
X168220000Y-105115000D02*
G75*
G03*
X165960000Y-103235000I-2070000J-190000D01*
G01*
X168305000Y-107435000D02*
G75*
G02*
X165935000Y-109605000I-2270000J100000D01*
G01*
X168015000Y-113485000D02*
G75*
G02*
X169235000Y-112065000I1320000J100000D01*
G01*
%TO.C,SW22*%
X177034538Y-143775191D02*
X176684538Y-144381408D01*
X184410335Y-140989936D02*
X182131985Y-144986152D01*
X175018142Y-138107691D02*
X172718142Y-142091408D01*
X178828589Y-143107803D02*
X182097835Y-144995303D01*
X180352515Y-138618285D02*
X184422835Y-140968285D01*
X175052292Y-138098541D02*
X177260657Y-139373541D01*
X172727292Y-142125559D02*
X176667708Y-144400559D01*
X176078078Y-131271828D02*
X180428506Y-133836665D01*
X176101078Y-131231990D02*
X178055078Y-127847563D01*
X178055078Y-127847563D02*
X185524547Y-132160063D01*
X186517755Y-134989777D02*
X184545255Y-138406247D01*
X184540755Y-138414041D02*
X181414403Y-136609041D01*
X177059537Y-143731889D02*
G75*
G02*
X178826089Y-143112133I1193154J-573398D01*
G01*
X180335686Y-138637436D02*
G75*
G02*
X177198205Y-139331711I-1915878J1221603D01*
G01*
X181422073Y-136585756D02*
G75*
G03*
X180404856Y-133827629I-1887672J870455D01*
G01*
X186543229Y-134923655D02*
G75*
G03*
X185524547Y-132160063I-1891137J872455D01*
G01*
%TO.C,SW12*%
X171835000Y-86089000D02*
X168225000Y-86089000D01*
X171835000Y-82135000D02*
X171835000Y-86080000D01*
X160935000Y-80181000D02*
X169560000Y-80181000D01*
X160935000Y-84089000D02*
X160935000Y-80181000D01*
X160935000Y-84135000D02*
X165985000Y-84181000D01*
X163460000Y-95210000D02*
X168010000Y-95210000D01*
X163460000Y-90560000D02*
X166010000Y-90560000D01*
X168310000Y-88360000D02*
X173010000Y-88360000D01*
X169235000Y-93010000D02*
X173010000Y-93010000D01*
X163435000Y-90585000D02*
X163435000Y-95185000D01*
X173010000Y-88385000D02*
X173035000Y-92985000D01*
X168015000Y-94485000D02*
X168015000Y-95185000D01*
X171824000Y-82065000D02*
G75*
G03*
X169560000Y-80181000I-2074000J-190000D01*
G01*
X168220000Y-86065000D02*
G75*
G03*
X165960000Y-84185000I-2070000J-190000D01*
G01*
X168305000Y-88385000D02*
G75*
G02*
X165935000Y-90555000I-2270000J100000D01*
G01*
X168015000Y-94435000D02*
G75*
G02*
X169235000Y-93015000I1320000J100000D01*
G01*
%TO.C,SW4*%
X133735000Y-63249000D02*
X130125000Y-63249000D01*
X133735000Y-59295000D02*
X133735000Y-63240000D01*
X122835000Y-57341000D02*
X131460000Y-57341000D01*
X122835000Y-61249000D02*
X122835000Y-57341000D01*
X122835000Y-61295000D02*
X127885000Y-61341000D01*
X125360000Y-72370000D02*
X129910000Y-72370000D01*
X125360000Y-67720000D02*
X127910000Y-67720000D01*
X130210000Y-65520000D02*
X134910000Y-65520000D01*
X131135000Y-70170000D02*
X134910000Y-70170000D01*
X125335000Y-67745000D02*
X125335000Y-72345000D01*
X134910000Y-65545000D02*
X134935000Y-70145000D01*
X129915000Y-71645000D02*
X129915000Y-72345000D01*
X133724000Y-59225000D02*
G75*
G03*
X131460000Y-57341000I-2074000J-190000D01*
G01*
X130120000Y-63225000D02*
G75*
G03*
X127860000Y-61345000I-2070000J-190000D01*
G01*
X130205000Y-65545000D02*
G75*
G02*
X127835000Y-67715000I-2270000J100000D01*
G01*
X129915000Y-71595000D02*
G75*
G02*
X131135000Y-70175000I1320000J100000D01*
G01*
%TO.C,SW13*%
X76585000Y-116569000D02*
X72975000Y-116569000D01*
X76585000Y-112615000D02*
X76585000Y-116560000D01*
X65685000Y-110661000D02*
X74310000Y-110661000D01*
X65685000Y-114569000D02*
X65685000Y-110661000D01*
X65685000Y-114615000D02*
X70735000Y-114661000D01*
X68210000Y-125690000D02*
X72760000Y-125690000D01*
X68210000Y-121040000D02*
X70760000Y-121040000D01*
X73060000Y-118840000D02*
X77760000Y-118840000D01*
X73985000Y-123490000D02*
X77760000Y-123490000D01*
X68185000Y-121065000D02*
X68185000Y-125665000D01*
X77760000Y-118865000D02*
X77785000Y-123465000D01*
X72765000Y-124965000D02*
X72765000Y-125665000D01*
X76574000Y-112545000D02*
G75*
G03*
X74310000Y-110661000I-2074000J-190000D01*
G01*
X72970000Y-116545000D02*
G75*
G03*
X70710000Y-114665000I-2070000J-190000D01*
G01*
X73055000Y-118865000D02*
G75*
G02*
X70685000Y-121035000I-2270000J100000D01*
G01*
X72765000Y-124915000D02*
G75*
G02*
X73985000Y-123495000I1320000J100000D01*
G01*
%TO.C,D11*%
X150614000Y-77325000D02*
X150614000Y-76325000D01*
X150514000Y-76825000D02*
X149614000Y-77325000D01*
X149614000Y-76325000D02*
X150514000Y-76825000D01*
X149614000Y-77325000D02*
X149614000Y-76325000D01*
X147414000Y-77575000D02*
X147414000Y-76075000D01*
X152814000Y-77575000D02*
X152814000Y-76075000D01*
X147414000Y-77575000D02*
X152814000Y-77575000D01*
X152814000Y-76075000D02*
X147414000Y-76075000D01*
%TO.C,SW11*%
X148965000Y-92590000D02*
X148965000Y-93290000D01*
X153960000Y-86490000D02*
X153985000Y-91090000D01*
X144385000Y-88690000D02*
X144385000Y-93290000D01*
X150185000Y-91115000D02*
X153960000Y-91115000D01*
X149260000Y-86465000D02*
X153960000Y-86465000D01*
X144410000Y-88665000D02*
X146960000Y-88665000D01*
X144410000Y-93315000D02*
X148960000Y-93315000D01*
X141885000Y-82240000D02*
X146935000Y-82286000D01*
X141885000Y-82194000D02*
X141885000Y-78286000D01*
X141885000Y-78286000D02*
X150510000Y-78286000D01*
X152785000Y-80240000D02*
X152785000Y-84185000D01*
X152785000Y-84194000D02*
X149175000Y-84194000D01*
X148965000Y-92540000D02*
G75*
G02*
X150185000Y-91120000I1320000J100000D01*
G01*
X149255000Y-86490000D02*
G75*
G02*
X146885000Y-88660000I-2270000J100000D01*
G01*
X149170000Y-84170000D02*
G75*
G03*
X146910000Y-82290000I-2070000J-190000D01*
G01*
X152774000Y-80170000D02*
G75*
G03*
X150510000Y-78286000I-2074000J-190000D01*
G01*
%TO.C,SW8*%
X95635000Y-97519000D02*
X92025000Y-97519000D01*
X95635000Y-93565000D02*
X95635000Y-97510000D01*
X84735000Y-91611000D02*
X93360000Y-91611000D01*
X84735000Y-95519000D02*
X84735000Y-91611000D01*
X84735000Y-95565000D02*
X89785000Y-95611000D01*
X87260000Y-106640000D02*
X91810000Y-106640000D01*
X87260000Y-101990000D02*
X89810000Y-101990000D01*
X92110000Y-99790000D02*
X96810000Y-99790000D01*
X93035000Y-104440000D02*
X96810000Y-104440000D01*
X87235000Y-102015000D02*
X87235000Y-106615000D01*
X96810000Y-99815000D02*
X96835000Y-104415000D01*
X91815000Y-105915000D02*
X91815000Y-106615000D01*
X95624000Y-93495000D02*
G75*
G03*
X93360000Y-91611000I-2074000J-190000D01*
G01*
X92020000Y-97495000D02*
G75*
G03*
X89760000Y-95615000I-2070000J-190000D01*
G01*
X92105000Y-99815000D02*
G75*
G02*
X89735000Y-101985000I-2270000J100000D01*
G01*
X91815000Y-105865000D02*
G75*
G02*
X93035000Y-104445000I1320000J100000D01*
G01*
%TO.C,SW7*%
X72765000Y-105915000D02*
X72765000Y-106615000D01*
X77760000Y-99815000D02*
X77785000Y-104415000D01*
X68185000Y-102015000D02*
X68185000Y-106615000D01*
X73985000Y-104440000D02*
X77760000Y-104440000D01*
X73060000Y-99790000D02*
X77760000Y-99790000D01*
X68210000Y-101990000D02*
X70760000Y-101990000D01*
X68210000Y-106640000D02*
X72760000Y-106640000D01*
X65685000Y-95565000D02*
X70735000Y-95611000D01*
X65685000Y-95519000D02*
X65685000Y-91611000D01*
X65685000Y-91611000D02*
X74310000Y-91611000D01*
X76585000Y-93565000D02*
X76585000Y-97510000D01*
X76585000Y-97519000D02*
X72975000Y-97519000D01*
X72765000Y-105865000D02*
G75*
G02*
X73985000Y-104445000I1320000J100000D01*
G01*
X73055000Y-99815000D02*
G75*
G02*
X70685000Y-101985000I-2270000J100000D01*
G01*
X72970000Y-97495000D02*
G75*
G03*
X70710000Y-95615000I-2070000J-190000D01*
G01*
X76574000Y-93495000D02*
G75*
G03*
X74310000Y-91611000I-2074000J-190000D01*
G01*
%TO.C,J1*%
X194387000Y-116253000D02*
X194387000Y-122253000D01*
X194387000Y-122253000D02*
X182387000Y-122253000D01*
X182387000Y-122253000D02*
X182387000Y-116253000D01*
X182387000Y-116253000D02*
X194387000Y-116253000D01*
%TO.C,RSW1*%
X190837000Y-106601000D02*
X191087000Y-106601000D01*
X190837000Y-112601000D02*
X190837000Y-106601000D01*
X190837000Y-112601000D02*
X191087000Y-112601000D01*
X194337000Y-112601000D02*
X194087000Y-112601000D01*
X194337000Y-106601000D02*
X194087000Y-106601000D01*
X194337000Y-112601000D02*
X194337000Y-106601000D01*
%TO.C,SW2*%
X95635000Y-78469000D02*
X92025000Y-78469000D01*
X95635000Y-74515000D02*
X95635000Y-78460000D01*
X84735000Y-72561000D02*
X93360000Y-72561000D01*
X84735000Y-76469000D02*
X84735000Y-72561000D01*
X84735000Y-76515000D02*
X89785000Y-76561000D01*
X87260000Y-87590000D02*
X91810000Y-87590000D01*
X87260000Y-82940000D02*
X89810000Y-82940000D01*
X92110000Y-80740000D02*
X96810000Y-80740000D01*
X93035000Y-85390000D02*
X96810000Y-85390000D01*
X87235000Y-82965000D02*
X87235000Y-87565000D01*
X96810000Y-80765000D02*
X96835000Y-85365000D01*
X91815000Y-86865000D02*
X91815000Y-87565000D01*
X95624000Y-74445000D02*
G75*
G03*
X93360000Y-72561000I-2074000J-190000D01*
G01*
X92020000Y-78445000D02*
G75*
G03*
X89760000Y-76565000I-2070000J-190000D01*
G01*
X92105000Y-80765000D02*
G75*
G02*
X89735000Y-82935000I-2270000J100000D01*
G01*
X91815000Y-86815000D02*
G75*
G02*
X93035000Y-85395000I1320000J100000D01*
G01*
%TO.C,SW3*%
X114685000Y-65144000D02*
X111075000Y-65144000D01*
X114685000Y-61190000D02*
X114685000Y-65135000D01*
X103785000Y-59236000D02*
X112410000Y-59236000D01*
X103785000Y-63144000D02*
X103785000Y-59236000D01*
X103785000Y-63190000D02*
X108835000Y-63236000D01*
X106310000Y-74265000D02*
X110860000Y-74265000D01*
X106310000Y-69615000D02*
X108860000Y-69615000D01*
X111160000Y-67415000D02*
X115860000Y-67415000D01*
X112085000Y-72065000D02*
X115860000Y-72065000D01*
X106285000Y-69640000D02*
X106285000Y-74240000D01*
X115860000Y-67440000D02*
X115885000Y-72040000D01*
X110865000Y-73540000D02*
X110865000Y-74240000D01*
X114674000Y-61120000D02*
G75*
G03*
X112410000Y-59236000I-2074000J-190000D01*
G01*
X111070000Y-65120000D02*
G75*
G03*
X108810000Y-63240000I-2070000J-190000D01*
G01*
X111155000Y-67440000D02*
G75*
G02*
X108785000Y-69610000I-2270000J100000D01*
G01*
X110865000Y-73490000D02*
G75*
G02*
X112085000Y-72070000I1320000J100000D01*
G01*
%TO.C,SW6*%
X168015000Y-75455000D02*
X168015000Y-76155000D01*
X173010000Y-69355000D02*
X173035000Y-73955000D01*
X163435000Y-71555000D02*
X163435000Y-76155000D01*
X169235000Y-73980000D02*
X173010000Y-73980000D01*
X168310000Y-69330000D02*
X173010000Y-69330000D01*
X163460000Y-71530000D02*
X166010000Y-71530000D01*
X163460000Y-76180000D02*
X168010000Y-76180000D01*
X160935000Y-65105000D02*
X165985000Y-65151000D01*
X160935000Y-65059000D02*
X160935000Y-61151000D01*
X160935000Y-61151000D02*
X169560000Y-61151000D01*
X171835000Y-63105000D02*
X171835000Y-67050000D01*
X171835000Y-67059000D02*
X168225000Y-67059000D01*
X168015000Y-75405000D02*
G75*
G02*
X169235000Y-73985000I1320000J100000D01*
G01*
X168305000Y-69355000D02*
G75*
G02*
X165935000Y-71525000I-2270000J100000D01*
G01*
X168220000Y-67035000D02*
G75*
G03*
X165960000Y-65155000I-2070000J-190000D01*
G01*
X171824000Y-63035000D02*
G75*
G03*
X169560000Y-61151000I-2074000J-190000D01*
G01*
%TO.C,SW9*%
X110865000Y-92590000D02*
X110865000Y-93290000D01*
X115860000Y-86490000D02*
X115885000Y-91090000D01*
X106285000Y-88690000D02*
X106285000Y-93290000D01*
X112085000Y-91115000D02*
X115860000Y-91115000D01*
X111160000Y-86465000D02*
X115860000Y-86465000D01*
X106310000Y-88665000D02*
X108860000Y-88665000D01*
X106310000Y-93315000D02*
X110860000Y-93315000D01*
X103785000Y-82240000D02*
X108835000Y-82286000D01*
X103785000Y-82194000D02*
X103785000Y-78286000D01*
X103785000Y-78286000D02*
X112410000Y-78286000D01*
X114685000Y-80240000D02*
X114685000Y-84185000D01*
X114685000Y-84194000D02*
X111075000Y-84194000D01*
X110865000Y-92540000D02*
G75*
G02*
X112085000Y-91120000I1320000J100000D01*
G01*
X111155000Y-86490000D02*
G75*
G02*
X108785000Y-88660000I-2270000J100000D01*
G01*
X111070000Y-84170000D02*
G75*
G03*
X108810000Y-82290000I-2070000J-190000D01*
G01*
X114674000Y-80170000D02*
G75*
G03*
X112410000Y-78286000I-2074000J-190000D01*
G01*
%TO.C,SW10*%
X129915000Y-90675000D02*
X129915000Y-91375000D01*
X134910000Y-84575000D02*
X134935000Y-89175000D01*
X125335000Y-86775000D02*
X125335000Y-91375000D01*
X131135000Y-89200000D02*
X134910000Y-89200000D01*
X130210000Y-84550000D02*
X134910000Y-84550000D01*
X125360000Y-86750000D02*
X127910000Y-86750000D01*
X125360000Y-91400000D02*
X129910000Y-91400000D01*
X122835000Y-80325000D02*
X127885000Y-80371000D01*
X122835000Y-80279000D02*
X122835000Y-76371000D01*
X122835000Y-76371000D02*
X131460000Y-76371000D01*
X133735000Y-78325000D02*
X133735000Y-82270000D01*
X133735000Y-82279000D02*
X130125000Y-82279000D01*
X129915000Y-90625000D02*
G75*
G02*
X131135000Y-89205000I1320000J100000D01*
G01*
X130205000Y-84575000D02*
G75*
G02*
X127835000Y-86745000I-2270000J100000D01*
G01*
X130120000Y-82255000D02*
G75*
G03*
X127860000Y-80375000I-2070000J-190000D01*
G01*
X133724000Y-78255000D02*
G75*
G03*
X131460000Y-76371000I-2074000J-190000D01*
G01*
%TO.C,SW14*%
X91815000Y-124965000D02*
X91815000Y-125665000D01*
X96810000Y-118865000D02*
X96835000Y-123465000D01*
X87235000Y-121065000D02*
X87235000Y-125665000D01*
X93035000Y-123490000D02*
X96810000Y-123490000D01*
X92110000Y-118840000D02*
X96810000Y-118840000D01*
X87260000Y-121040000D02*
X89810000Y-121040000D01*
X87260000Y-125690000D02*
X91810000Y-125690000D01*
X84735000Y-114615000D02*
X89785000Y-114661000D01*
X84735000Y-114569000D02*
X84735000Y-110661000D01*
X84735000Y-110661000D02*
X93360000Y-110661000D01*
X95635000Y-112615000D02*
X95635000Y-116560000D01*
X95635000Y-116569000D02*
X92025000Y-116569000D01*
X91815000Y-124915000D02*
G75*
G02*
X93035000Y-123495000I1320000J100000D01*
G01*
X92105000Y-118865000D02*
G75*
G02*
X89735000Y-121035000I-2270000J100000D01*
G01*
X92020000Y-116545000D02*
G75*
G03*
X89760000Y-114665000I-2070000J-190000D01*
G01*
X95624000Y-112545000D02*
G75*
G03*
X93360000Y-110661000I-2074000J-190000D01*
G01*
%TO.C,SW15*%
X114685000Y-103244000D02*
X111075000Y-103244000D01*
X114685000Y-99290000D02*
X114685000Y-103235000D01*
X103785000Y-97336000D02*
X112410000Y-97336000D01*
X103785000Y-101244000D02*
X103785000Y-97336000D01*
X103785000Y-101290000D02*
X108835000Y-101336000D01*
X106310000Y-112365000D02*
X110860000Y-112365000D01*
X106310000Y-107715000D02*
X108860000Y-107715000D01*
X111160000Y-105515000D02*
X115860000Y-105515000D01*
X112085000Y-110165000D02*
X115860000Y-110165000D01*
X106285000Y-107740000D02*
X106285000Y-112340000D01*
X115860000Y-105540000D02*
X115885000Y-110140000D01*
X110865000Y-111640000D02*
X110865000Y-112340000D01*
X114674000Y-99220000D02*
G75*
G03*
X112410000Y-97336000I-2074000J-190000D01*
G01*
X111070000Y-103220000D02*
G75*
G03*
X108810000Y-101340000I-2070000J-190000D01*
G01*
X111155000Y-105540000D02*
G75*
G02*
X108785000Y-107710000I-2270000J100000D01*
G01*
X110865000Y-111590000D02*
G75*
G02*
X112085000Y-110170000I1320000J100000D01*
G01*
%TO.C,SW16*%
X129915000Y-109725000D02*
X129915000Y-110425000D01*
X134910000Y-103625000D02*
X134935000Y-108225000D01*
X125335000Y-105825000D02*
X125335000Y-110425000D01*
X131135000Y-108250000D02*
X134910000Y-108250000D01*
X130210000Y-103600000D02*
X134910000Y-103600000D01*
X125360000Y-105800000D02*
X127910000Y-105800000D01*
X125360000Y-110450000D02*
X129910000Y-110450000D01*
X122835000Y-99375000D02*
X127885000Y-99421000D01*
X122835000Y-99329000D02*
X122835000Y-95421000D01*
X122835000Y-95421000D02*
X131460000Y-95421000D01*
X133735000Y-97375000D02*
X133735000Y-101320000D01*
X133735000Y-101329000D02*
X130125000Y-101329000D01*
X129915000Y-109675000D02*
G75*
G02*
X131135000Y-108255000I1320000J100000D01*
G01*
X130205000Y-103625000D02*
G75*
G02*
X127835000Y-105795000I-2270000J100000D01*
G01*
X130120000Y-101305000D02*
G75*
G03*
X127860000Y-99425000I-2070000J-190000D01*
G01*
X133724000Y-97305000D02*
G75*
G03*
X131460000Y-95421000I-2074000J-190000D01*
G01*
%TO.C,SW17*%
X148965000Y-111640000D02*
X148965000Y-112340000D01*
X153960000Y-105540000D02*
X153985000Y-110140000D01*
X144385000Y-107740000D02*
X144385000Y-112340000D01*
X150185000Y-110165000D02*
X153960000Y-110165000D01*
X149260000Y-105515000D02*
X153960000Y-105515000D01*
X144410000Y-107715000D02*
X146960000Y-107715000D01*
X144410000Y-112365000D02*
X148960000Y-112365000D01*
X141885000Y-101290000D02*
X146935000Y-101336000D01*
X141885000Y-101244000D02*
X141885000Y-97336000D01*
X141885000Y-97336000D02*
X150510000Y-97336000D01*
X152785000Y-99290000D02*
X152785000Y-103235000D01*
X152785000Y-103244000D02*
X149175000Y-103244000D01*
X148965000Y-111590000D02*
G75*
G02*
X150185000Y-110170000I1320000J100000D01*
G01*
X149255000Y-105540000D02*
G75*
G02*
X146885000Y-107710000I-2270000J100000D01*
G01*
X149170000Y-103220000D02*
G75*
G03*
X146910000Y-101340000I-2070000J-190000D01*
G01*
X152774000Y-99220000D02*
G75*
G03*
X150510000Y-97336000I-2074000J-190000D01*
G01*
%TO.C,SW19*%
X115620000Y-132585000D02*
X115620000Y-133285000D01*
X120615000Y-126485000D02*
X120639999Y-131085000D01*
X111040000Y-128684999D02*
X111040000Y-133285000D01*
X116840000Y-131110000D02*
X120615000Y-131110000D01*
X115915000Y-126460000D02*
X120615000Y-126460000D01*
X111065000Y-128660000D02*
X113615000Y-128660000D01*
X111065000Y-133310000D02*
X115615000Y-133310000D01*
X108540000Y-122235000D02*
X113590000Y-122281000D01*
X108540000Y-122189000D02*
X108540000Y-118281000D01*
X108540000Y-118281000D02*
X117165000Y-118281000D01*
X119440000Y-120235000D02*
X119440000Y-124180000D01*
X119440000Y-124189000D02*
X115830000Y-124189000D01*
X115620000Y-132535000D02*
G75*
G02*
X116840000Y-131115000I1320000J100000D01*
G01*
X115910000Y-126485000D02*
G75*
G02*
X113540000Y-128655000I-2270000J100000D01*
G01*
X115824999Y-124164999D02*
G75*
G03*
X113565000Y-122285000I-2069999J-190000D01*
G01*
X119429000Y-120165000D02*
G75*
G03*
X117165000Y-118281000I-2074000J-190000D01*
G01*
%TO.C,SW20*%
X139430000Y-132585000D02*
X139430000Y-133285000D01*
X144425000Y-126485000D02*
X144450000Y-131085000D01*
X134850000Y-128685000D02*
X134850000Y-133285000D01*
X140650000Y-131110000D02*
X144425000Y-131110000D01*
X139725000Y-126460000D02*
X144425000Y-126460000D01*
X134875000Y-128660000D02*
X137425000Y-128660000D01*
X134875000Y-133310000D02*
X139425000Y-133310000D01*
X132350000Y-122235000D02*
X137400000Y-122281000D01*
X132350000Y-122189000D02*
X132350000Y-118281000D01*
X132350000Y-118281000D02*
X140975000Y-118281000D01*
X143250000Y-120235000D02*
X143250000Y-124180000D01*
X143250000Y-124189000D02*
X139640000Y-124189000D01*
X139430000Y-132535000D02*
G75*
G02*
X140650000Y-131115000I1320000J100000D01*
G01*
X139720000Y-126485000D02*
G75*
G02*
X137350000Y-128655000I-2270000J100000D01*
G01*
X139635000Y-124165000D02*
G75*
G03*
X137375000Y-122285000I-2070000J-190000D01*
G01*
X143239000Y-120165000D02*
G75*
G03*
X140975000Y-118281000I-2074000J-190000D01*
G01*
%TO.C,SW21*%
X165409049Y-128463327D02*
X161922057Y-127528990D01*
X166432420Y-124644056D02*
X165411379Y-128454633D01*
X156409561Y-119935509D02*
X164740671Y-122167824D01*
X155398096Y-123710347D02*
X156409561Y-119935509D01*
X155386190Y-123754780D02*
X160252210Y-125106249D01*
X154958732Y-135105927D02*
X159353695Y-136283553D01*
X156162241Y-130614372D02*
X158625352Y-131274360D01*
X161416383Y-129744607D02*
X165956234Y-130961057D01*
X161106356Y-134475570D02*
X164752726Y-135452612D01*
X156131622Y-130632049D02*
X154941054Y-135075308D01*
X165949764Y-130985205D02*
X164783344Y-135434934D01*
X159546168Y-135584551D02*
X159364995Y-136260699D01*
X166439911Y-124573594D02*
G75*
G03*
X164740671Y-122167824I-2052505J353265D01*
G01*
X161923439Y-127504514D02*
G75*
G03*
X160227027Y-125103642I-2048642J352230D01*
G01*
X161405083Y-129767461D02*
G75*
G02*
X158554201Y-131250119I-2166770J684112D01*
G01*
X159559109Y-135536254D02*
G75*
G02*
X161105062Y-134480399I1300904J-245049D01*
G01*
%TO.C,U1*%
X176459400Y-72517000D02*
X178999400Y-72517000D01*
X178999400Y-72517000D02*
X178999400Y-102997000D01*
X178999400Y-102997000D02*
X176459400Y-102997000D01*
X176459400Y-102997000D02*
X176459400Y-72517000D01*
X191679400Y-72517000D02*
X194219400Y-72517000D01*
X194219400Y-72517000D02*
X194219400Y-102997000D01*
X194219400Y-102997000D02*
X191679400Y-102997000D01*
X191679400Y-102997000D02*
X191679400Y-72517000D01*
%TO.C,D1*%
X79284000Y-70487000D02*
X73884000Y-70487000D01*
X73884000Y-71987000D02*
X79284000Y-71987000D01*
X79284000Y-71987000D02*
X79284000Y-70487000D01*
X73884000Y-71987000D02*
X73884000Y-70487000D01*
X76084000Y-71737000D02*
X76084000Y-70737000D01*
X76084000Y-70737000D02*
X76984000Y-71237000D01*
X76984000Y-71237000D02*
X76084000Y-71737000D01*
X77084000Y-71737000D02*
X77084000Y-70737000D01*
%TO.C,D2*%
X98334000Y-70487000D02*
X92934000Y-70487000D01*
X92934000Y-71987000D02*
X98334000Y-71987000D01*
X98334000Y-71987000D02*
X98334000Y-70487000D01*
X92934000Y-71987000D02*
X92934000Y-70487000D01*
X95134000Y-71737000D02*
X95134000Y-70737000D01*
X95134000Y-70737000D02*
X96034000Y-71237000D01*
X96034000Y-71237000D02*
X95134000Y-71737000D01*
X96134000Y-71737000D02*
X96134000Y-70737000D01*
%TO.C,D3*%
X115181000Y-58529000D02*
X115181000Y-57529000D01*
X115081000Y-58029000D02*
X114181000Y-58529000D01*
X114181000Y-57529000D02*
X115081000Y-58029000D01*
X114181000Y-58529000D02*
X114181000Y-57529000D01*
X111981000Y-58779000D02*
X111981000Y-57279000D01*
X117381000Y-58779000D02*
X117381000Y-57279000D01*
X111981000Y-58779000D02*
X117381000Y-58779000D01*
X117381000Y-57279000D02*
X111981000Y-57279000D01*
%TO.C,D4*%
X134234000Y-56497000D02*
X134234000Y-55497000D01*
X134134000Y-55997000D02*
X133234000Y-56497000D01*
X133234000Y-55497000D02*
X134134000Y-55997000D01*
X133234000Y-56497000D02*
X133234000Y-55497000D01*
X131034000Y-56747000D02*
X131034000Y-55247000D01*
X136434000Y-56747000D02*
X136434000Y-55247000D01*
X131034000Y-56747000D02*
X136434000Y-56747000D01*
X136434000Y-55247000D02*
X131034000Y-55247000D01*
%TO.C,D5*%
X153027000Y-58275000D02*
X153027000Y-57275000D01*
X152927000Y-57775000D02*
X152027000Y-58275000D01*
X152027000Y-57275000D02*
X152927000Y-57775000D01*
X152027000Y-58275000D02*
X152027000Y-57275000D01*
X149827000Y-58525000D02*
X149827000Y-57025000D01*
X155227000Y-58525000D02*
X155227000Y-57025000D01*
X149827000Y-58525000D02*
X155227000Y-58525000D01*
X155227000Y-57025000D02*
X149827000Y-57025000D01*
%TO.C,D6*%
X172331000Y-60307000D02*
X172331000Y-59307000D01*
X172231000Y-59807000D02*
X171331000Y-60307000D01*
X171331000Y-59307000D02*
X172231000Y-59807000D01*
X171331000Y-60307000D02*
X171331000Y-59307000D01*
X169131000Y-60557000D02*
X169131000Y-59057000D01*
X174531000Y-60557000D02*
X174531000Y-59057000D01*
X169131000Y-60557000D02*
X174531000Y-60557000D01*
X174531000Y-59057000D02*
X169131000Y-59057000D01*
%TO.C,D7*%
X76487000Y-89537000D02*
X71087000Y-89537000D01*
X71087000Y-91037000D02*
X76487000Y-91037000D01*
X76487000Y-91037000D02*
X76487000Y-89537000D01*
X71087000Y-91037000D02*
X71087000Y-89537000D01*
X73287000Y-90787000D02*
X73287000Y-89787000D01*
X73287000Y-89787000D02*
X74187000Y-90287000D01*
X74187000Y-90287000D02*
X73287000Y-90787000D01*
X74287000Y-90787000D02*
X74287000Y-89787000D01*
%TO.C,D8*%
X96131000Y-90787000D02*
X96131000Y-89787000D01*
X96031000Y-90287000D02*
X95131000Y-90787000D01*
X95131000Y-89787000D02*
X96031000Y-90287000D01*
X95131000Y-90787000D02*
X95131000Y-89787000D01*
X92931000Y-91037000D02*
X92931000Y-89537000D01*
X98331000Y-91037000D02*
X98331000Y-89537000D01*
X92931000Y-91037000D02*
X98331000Y-91037000D01*
X98331000Y-89537000D02*
X92931000Y-89537000D01*
%TO.C,D9*%
X117381000Y-76329000D02*
X111981000Y-76329000D01*
X111981000Y-77829000D02*
X117381000Y-77829000D01*
X117381000Y-77829000D02*
X117381000Y-76329000D01*
X111981000Y-77829000D02*
X111981000Y-76329000D01*
X114181000Y-77579000D02*
X114181000Y-76579000D01*
X114181000Y-76579000D02*
X115081000Y-77079000D01*
X115081000Y-77079000D02*
X114181000Y-77579000D01*
X115181000Y-77579000D02*
X115181000Y-76579000D01*
%TO.C,D10*%
X134231000Y-75547000D02*
X134231000Y-74547000D01*
X134131000Y-75047000D02*
X133231000Y-75547000D01*
X133231000Y-74547000D02*
X134131000Y-75047000D01*
X133231000Y-75547000D02*
X133231000Y-74547000D01*
X131031000Y-75797000D02*
X131031000Y-74297000D01*
X136431000Y-75797000D02*
X136431000Y-74297000D01*
X131031000Y-75797000D02*
X136431000Y-75797000D01*
X136431000Y-74297000D02*
X131031000Y-74297000D01*
%TO.C,D12*%
X174531000Y-78107000D02*
X169131000Y-78107000D01*
X169131000Y-79607000D02*
X174531000Y-79607000D01*
X174531000Y-79607000D02*
X174531000Y-78107000D01*
X169131000Y-79607000D02*
X169131000Y-78107000D01*
X171331000Y-79357000D02*
X171331000Y-78357000D01*
X171331000Y-78357000D02*
X172231000Y-78857000D01*
X172231000Y-78857000D02*
X171331000Y-79357000D01*
X172331000Y-79357000D02*
X172331000Y-78357000D01*
%TO.C,D13*%
X74287000Y-109710000D02*
X74287000Y-108710000D01*
X74187000Y-109210000D02*
X73287000Y-109710000D01*
X73287000Y-108710000D02*
X74187000Y-109210000D01*
X73287000Y-109710000D02*
X73287000Y-108710000D01*
X71087000Y-109960000D02*
X71087000Y-108460000D01*
X76487000Y-109960000D02*
X76487000Y-108460000D01*
X71087000Y-109960000D02*
X76487000Y-109960000D01*
X76487000Y-108460000D02*
X71087000Y-108460000D01*
%TO.C,D14*%
X96134000Y-109837000D02*
X96134000Y-108837000D01*
X96034000Y-109337000D02*
X95134000Y-109837000D01*
X95134000Y-108837000D02*
X96034000Y-109337000D01*
X95134000Y-109837000D02*
X95134000Y-108837000D01*
X92934000Y-110087000D02*
X92934000Y-108587000D01*
X98334000Y-110087000D02*
X98334000Y-108587000D01*
X92934000Y-110087000D02*
X98334000Y-110087000D01*
X98334000Y-108587000D02*
X92934000Y-108587000D01*
%TO.C,D15*%
X117384000Y-95125000D02*
X111984000Y-95125000D01*
X111984000Y-96625000D02*
X117384000Y-96625000D01*
X117384000Y-96625000D02*
X117384000Y-95125000D01*
X111984000Y-96625000D02*
X111984000Y-95125000D01*
X114184000Y-96375000D02*
X114184000Y-95375000D01*
X114184000Y-95375000D02*
X115084000Y-95875000D01*
X115084000Y-95875000D02*
X114184000Y-96375000D01*
X115184000Y-96375000D02*
X115184000Y-95375000D01*
%TO.C,D16*%
X136685000Y-93347000D02*
X131285000Y-93347000D01*
X131285000Y-94847000D02*
X136685000Y-94847000D01*
X136685000Y-94847000D02*
X136685000Y-93347000D01*
X131285000Y-94847000D02*
X131285000Y-93347000D01*
X133485000Y-94597000D02*
X133485000Y-93597000D01*
X133485000Y-93597000D02*
X134385000Y-94097000D01*
X134385000Y-94097000D02*
X133485000Y-94597000D01*
X134485000Y-94597000D02*
X134485000Y-93597000D01*
%TO.C,D17*%
X155484000Y-95379000D02*
X150084000Y-95379000D01*
X150084000Y-96879000D02*
X155484000Y-96879000D01*
X155484000Y-96879000D02*
X155484000Y-95379000D01*
X150084000Y-96879000D02*
X150084000Y-95379000D01*
X152284000Y-96629000D02*
X152284000Y-95629000D01*
X152284000Y-95629000D02*
X153184000Y-96129000D01*
X153184000Y-96129000D02*
X152284000Y-96629000D01*
X153284000Y-96629000D02*
X153284000Y-95629000D01*
%TO.C,D18*%
X172331000Y-98407000D02*
X172331000Y-97407000D01*
X172231000Y-97907000D02*
X171331000Y-98407000D01*
X171331000Y-97407000D02*
X172231000Y-97907000D01*
X171331000Y-98407000D02*
X171331000Y-97407000D01*
X169131000Y-98657000D02*
X169131000Y-97157000D01*
X174531000Y-98657000D02*
X174531000Y-97157000D01*
X169131000Y-98657000D02*
X174531000Y-98657000D01*
X174531000Y-97157000D02*
X169131000Y-97157000D01*
%TO.C,D19*%
X121699000Y-116207000D02*
X116299000Y-116207000D01*
X116299000Y-117707000D02*
X121699000Y-117707000D01*
X121699000Y-117707000D02*
X121699000Y-116207000D01*
X116299000Y-117707000D02*
X116299000Y-116207000D01*
X118499000Y-117457000D02*
X118499000Y-116457000D01*
X118499000Y-116457000D02*
X119399000Y-116957000D01*
X119399000Y-116957000D02*
X118499000Y-117457000D01*
X119499000Y-117457000D02*
X119499000Y-116457000D01*
%TO.C,D20*%
X146086000Y-116207000D02*
X140686000Y-116207000D01*
X140686000Y-117707000D02*
X146086000Y-117707000D01*
X146086000Y-117707000D02*
X146086000Y-116207000D01*
X140686000Y-117707000D02*
X140686000Y-116207000D01*
X142886000Y-117457000D02*
X142886000Y-116457000D01*
X142886000Y-116457000D02*
X143786000Y-116957000D01*
X143786000Y-116957000D02*
X142886000Y-117457000D01*
X143886000Y-117457000D02*
X143886000Y-116457000D01*
%TO.C,D21*%
X170061114Y-121503367D02*
X164845115Y-120105744D01*
X164456886Y-121554633D02*
X169672885Y-122952256D01*
X169672885Y-122952256D02*
X170061114Y-121503367D01*
X164456886Y-121554633D02*
X164845115Y-120105744D01*
X166646628Y-121882553D02*
X166905447Y-120916628D01*
X166905447Y-120916628D02*
X167645370Y-121632528D01*
X167645370Y-121632528D02*
X166646628Y-121882553D01*
X167612553Y-122141372D02*
X167871372Y-121175447D01*
%TO.C,D22*%
X188270013Y-132880013D02*
X188770013Y-132013987D01*
X188433410Y-132397000D02*
X187403987Y-132380013D01*
X187903987Y-131513987D02*
X188433410Y-132397000D01*
X187403987Y-132380013D02*
X187903987Y-131513987D01*
X185373731Y-131496519D02*
X186123731Y-130197481D01*
X190050269Y-134196519D02*
X190800269Y-132897481D01*
X185373731Y-131496519D02*
X190050269Y-134196519D01*
X190800269Y-132897481D02*
X186123731Y-130197481D01*
%TO.C,JP2*%
X188341000Y-104640380D02*
X188341000Y-102354380D01*
X188341000Y-102354380D02*
X190119000Y-102354380D01*
X190119000Y-102354380D02*
X190119000Y-104640380D01*
X190119000Y-104640380D02*
X188341000Y-104640380D01*
%TO.C,JP3*%
X187579000Y-104648000D02*
X185801000Y-104648000D01*
X187579000Y-102362000D02*
X187579000Y-104648000D01*
X185801000Y-102362000D02*
X187579000Y-102362000D01*
X185801000Y-104648000D02*
X185801000Y-102362000D01*
%TO.C,JP4*%
X183261000Y-104648000D02*
X183261000Y-102362000D01*
X183261000Y-102362000D02*
X185039000Y-102362000D01*
X185039000Y-102362000D02*
X185039000Y-104648000D01*
X185039000Y-104648000D02*
X183261000Y-104648000D01*
%TO.C,JP5*%
X180721000Y-104648000D02*
X180721000Y-102362000D01*
X180721000Y-102362000D02*
X182499000Y-102362000D01*
X182499000Y-102362000D02*
X182499000Y-104648000D01*
X182499000Y-104648000D02*
X180721000Y-104648000D01*
%TO.C,R1*%
X185823860Y-111236760D02*
X188826140Y-111236760D01*
X185823860Y-109235240D02*
X185823860Y-111236760D01*
X188826140Y-109235240D02*
X185823860Y-109235240D01*
X188826140Y-111236760D02*
X188826140Y-109235240D01*
%TO.C,R2*%
X188826140Y-113649760D02*
X188826140Y-111648240D01*
X188826140Y-111648240D02*
X185823860Y-111648240D01*
X185823860Y-111648240D02*
X185823860Y-113649760D01*
X185823860Y-113649760D02*
X188826140Y-113649760D01*
%TO.C,P1*%
X179083076Y-110476695D02*
X179083076Y-109663895D01*
X179392714Y-109663895D01*
X179470123Y-109702600D01*
X179508828Y-109741304D01*
X179547533Y-109818714D01*
X179547533Y-109934828D01*
X179508828Y-110012238D01*
X179470123Y-110050942D01*
X179392714Y-110089647D01*
X179083076Y-110089647D01*
X180321628Y-110476695D02*
X179857171Y-110476695D01*
X180089400Y-110476695D02*
X180089400Y-109663895D01*
X180011990Y-109780009D01*
X179934580Y-109857419D01*
X179857171Y-109896123D01*
%TO.C,P2*%
X179083076Y-112889695D02*
X179083076Y-112076895D01*
X179392714Y-112076895D01*
X179470123Y-112115600D01*
X179508828Y-112154304D01*
X179547533Y-112231714D01*
X179547533Y-112347828D01*
X179508828Y-112425238D01*
X179470123Y-112463942D01*
X179392714Y-112502647D01*
X179083076Y-112502647D01*
X179857171Y-112154304D02*
X179895876Y-112115600D01*
X179973285Y-112076895D01*
X180166809Y-112076895D01*
X180244219Y-112115600D01*
X180282923Y-112154304D01*
X180321628Y-112231714D01*
X180321628Y-112309123D01*
X180282923Y-112425238D01*
X179818466Y-112889695D01*
X180321628Y-112889695D01*
%TO.C,*%
X183967619Y-105624380D02*
X184158095Y-105624380D01*
X184253333Y-105672000D01*
X184348571Y-105767238D01*
X184396190Y-105957714D01*
X184396190Y-106291047D01*
X184348571Y-106481523D01*
X184253333Y-106576761D01*
X184158095Y-106624380D01*
X183967619Y-106624380D01*
X183872380Y-106576761D01*
X183777142Y-106481523D01*
X183729523Y-106291047D01*
X183729523Y-105957714D01*
X183777142Y-105767238D01*
X183872380Y-105672000D01*
X183967619Y-105624380D01*
X185300952Y-106624380D02*
X184824761Y-106624380D01*
X184824761Y-105624380D01*
X185634285Y-106100571D02*
X185967619Y-106100571D01*
X186110476Y-106624380D02*
X185634285Y-106624380D01*
X185634285Y-105624380D01*
X186110476Y-105624380D01*
X186539047Y-106624380D02*
X186539047Y-105624380D01*
X186777142Y-105624380D01*
X186920000Y-105672000D01*
X187015238Y-105767238D01*
X187062857Y-105862476D01*
X187110476Y-106052952D01*
X187110476Y-106195809D01*
X187062857Y-106386285D01*
X187015238Y-106481523D01*
X186920000Y-106576761D01*
X186777142Y-106624380D01*
X186539047Y-106624380D01*
%TO.C,J1*%
X187389380Y-120264904D02*
X187389380Y-119693476D01*
X188389380Y-119979190D02*
X187389380Y-119979190D01*
X188389380Y-118788714D02*
X187913190Y-119122047D01*
X188389380Y-119360142D02*
X187389380Y-119360142D01*
X187389380Y-118979190D01*
X187437000Y-118883952D01*
X187484619Y-118836333D01*
X187579857Y-118788714D01*
X187722714Y-118788714D01*
X187817952Y-118836333D01*
X187865571Y-118883952D01*
X187913190Y-118979190D01*
X187913190Y-119360142D01*
X188389380Y-117788714D02*
X187913190Y-118122047D01*
X188389380Y-118360142D02*
X187389380Y-118360142D01*
X187389380Y-117979190D01*
X187437000Y-117883952D01*
X187484619Y-117836333D01*
X187579857Y-117788714D01*
X187722714Y-117788714D01*
X187817952Y-117836333D01*
X187865571Y-117883952D01*
X187913190Y-117979190D01*
X187913190Y-118360142D01*
X188341761Y-117407761D02*
X188389380Y-117264904D01*
X188389380Y-117026809D01*
X188341761Y-116931571D01*
X188294142Y-116883952D01*
X188198904Y-116836333D01*
X188103666Y-116836333D01*
X188008428Y-116883952D01*
X187960809Y-116931571D01*
X187913190Y-117026809D01*
X187865571Y-117217285D01*
X187817952Y-117312523D01*
X187770333Y-117360142D01*
X187675095Y-117407761D01*
X187579857Y-117407761D01*
X187484619Y-117360142D01*
X187437000Y-117312523D01*
X187389380Y-117217285D01*
X187389380Y-116979190D01*
X187437000Y-116836333D01*
%TO.C,RSW1*%
X193039380Y-111053380D02*
X192563190Y-111386714D01*
X193039380Y-111624809D02*
X192039380Y-111624809D01*
X192039380Y-111243857D01*
X192087000Y-111148619D01*
X192134619Y-111101000D01*
X192229857Y-111053380D01*
X192372714Y-111053380D01*
X192467952Y-111101000D01*
X192515571Y-111148619D01*
X192563190Y-111243857D01*
X192563190Y-111624809D01*
X192515571Y-110624809D02*
X192515571Y-110291476D01*
X193039380Y-110148619D02*
X193039380Y-110624809D01*
X192039380Y-110624809D01*
X192039380Y-110148619D01*
X192991761Y-109767666D02*
X193039380Y-109624809D01*
X193039380Y-109386714D01*
X192991761Y-109291476D01*
X192944142Y-109243857D01*
X192848904Y-109196238D01*
X192753666Y-109196238D01*
X192658428Y-109243857D01*
X192610809Y-109291476D01*
X192563190Y-109386714D01*
X192515571Y-109577190D01*
X192467952Y-109672428D01*
X192420333Y-109720047D01*
X192325095Y-109767666D01*
X192229857Y-109767666D01*
X192134619Y-109720047D01*
X192087000Y-109672428D01*
X192039380Y-109577190D01*
X192039380Y-109339095D01*
X192087000Y-109196238D01*
X192515571Y-108767666D02*
X192515571Y-108434333D01*
X193039380Y-108291476D02*
X193039380Y-108767666D01*
X192039380Y-108767666D01*
X192039380Y-108291476D01*
X192039380Y-108005761D02*
X192039380Y-107434333D01*
X193039380Y-107720047D02*
X192039380Y-107720047D01*
%TO.C,U1*%
D13*
X189912047Y-91906285D02*
X189745380Y-91549142D01*
X189626333Y-91906285D02*
X189626333Y-91156285D01*
X189816809Y-91156285D01*
X189864428Y-91192000D01*
X189888238Y-91227714D01*
X189912047Y-91299142D01*
X189912047Y-91406285D01*
X189888238Y-91477714D01*
X189864428Y-91513428D01*
X189816809Y-91549142D01*
X189626333Y-91549142D01*
X190221571Y-91156285D02*
X190316809Y-91156285D01*
X190364428Y-91192000D01*
X190412047Y-91263428D01*
X190435857Y-91406285D01*
X190435857Y-91656285D01*
X190412047Y-91799142D01*
X190364428Y-91870571D01*
X190316809Y-91906285D01*
X190221571Y-91906285D01*
X190173952Y-91870571D01*
X190126333Y-91799142D01*
X190102523Y-91656285D01*
X190102523Y-91406285D01*
X190126333Y-91263428D01*
X190173952Y-91192000D01*
X190221571Y-91156285D01*
X190602523Y-91156285D02*
X190721571Y-91906285D01*
X190816809Y-91370571D01*
X190912047Y-91906285D01*
X191031095Y-91156285D01*
X191483476Y-91906285D02*
X191197761Y-91906285D01*
X191340619Y-91906285D02*
X191340619Y-91156285D01*
X191293000Y-91263428D01*
X191245380Y-91334857D01*
X191197761Y-91370571D01*
X174795380Y-94382857D02*
X174771571Y-94418571D01*
X174700142Y-94454285D01*
X174652523Y-94454285D01*
X174581095Y-94418571D01*
X174533476Y-94347142D01*
X174509666Y-94275714D01*
X174485857Y-94132857D01*
X174485857Y-94025714D01*
X174509666Y-93882857D01*
X174533476Y-93811428D01*
X174581095Y-93740000D01*
X174652523Y-93704285D01*
X174700142Y-93704285D01*
X174771571Y-93740000D01*
X174795380Y-93775714D01*
X175104904Y-93704285D02*
X175200142Y-93704285D01*
X175247761Y-93740000D01*
X175295380Y-93811428D01*
X175319190Y-93954285D01*
X175319190Y-94204285D01*
X175295380Y-94347142D01*
X175247761Y-94418571D01*
X175200142Y-94454285D01*
X175104904Y-94454285D01*
X175057285Y-94418571D01*
X175009666Y-94347142D01*
X174985857Y-94204285D01*
X174985857Y-93954285D01*
X175009666Y-93811428D01*
X175057285Y-93740000D01*
X175104904Y-93704285D01*
X175771571Y-94454285D02*
X175533476Y-94454285D01*
X175533476Y-93704285D01*
X176152523Y-93954285D02*
X176152523Y-94454285D01*
X176033476Y-93668571D02*
X175914428Y-94204285D01*
X176223952Y-94204285D01*
X189862047Y-94454285D02*
X189695380Y-94097142D01*
X189576333Y-94454285D02*
X189576333Y-93704285D01*
X189766809Y-93704285D01*
X189814428Y-93740000D01*
X189838238Y-93775714D01*
X189862047Y-93847142D01*
X189862047Y-93954285D01*
X189838238Y-94025714D01*
X189814428Y-94061428D01*
X189766809Y-94097142D01*
X189576333Y-94097142D01*
X190171571Y-93704285D02*
X190266809Y-93704285D01*
X190314428Y-93740000D01*
X190362047Y-93811428D01*
X190385857Y-93954285D01*
X190385857Y-94204285D01*
X190362047Y-94347142D01*
X190314428Y-94418571D01*
X190266809Y-94454285D01*
X190171571Y-94454285D01*
X190123952Y-94418571D01*
X190076333Y-94347142D01*
X190052523Y-94204285D01*
X190052523Y-93954285D01*
X190076333Y-93811428D01*
X190123952Y-93740000D01*
X190171571Y-93704285D01*
X190552523Y-93704285D02*
X190671571Y-94454285D01*
X190766809Y-93918571D01*
X190862047Y-94454285D01*
X190981095Y-93704285D01*
X191147761Y-93775714D02*
X191171571Y-93740000D01*
X191219190Y-93704285D01*
X191338238Y-93704285D01*
X191385857Y-93740000D01*
X191409666Y-93775714D01*
X191433476Y-93847142D01*
X191433476Y-93918571D01*
X191409666Y-94025714D01*
X191123952Y-94454285D01*
X191433476Y-94454285D01*
X174795380Y-96978357D02*
X174771571Y-97014071D01*
X174700142Y-97049785D01*
X174652523Y-97049785D01*
X174581095Y-97014071D01*
X174533476Y-96942642D01*
X174509666Y-96871214D01*
X174485857Y-96728357D01*
X174485857Y-96621214D01*
X174509666Y-96478357D01*
X174533476Y-96406928D01*
X174581095Y-96335500D01*
X174652523Y-96299785D01*
X174700142Y-96299785D01*
X174771571Y-96335500D01*
X174795380Y-96371214D01*
X175104904Y-96299785D02*
X175200142Y-96299785D01*
X175247761Y-96335500D01*
X175295380Y-96406928D01*
X175319190Y-96549785D01*
X175319190Y-96799785D01*
X175295380Y-96942642D01*
X175247761Y-97014071D01*
X175200142Y-97049785D01*
X175104904Y-97049785D01*
X175057285Y-97014071D01*
X175009666Y-96942642D01*
X174985857Y-96799785D01*
X174985857Y-96549785D01*
X175009666Y-96406928D01*
X175057285Y-96335500D01*
X175104904Y-96299785D01*
X175771571Y-97049785D02*
X175533476Y-97049785D01*
X175533476Y-96299785D01*
X176176333Y-96299785D02*
X175938238Y-96299785D01*
X175914428Y-96656928D01*
X175938238Y-96621214D01*
X175985857Y-96585500D01*
X176104904Y-96585500D01*
X176152523Y-96621214D01*
X176176333Y-96656928D01*
X176200142Y-96728357D01*
X176200142Y-96906928D01*
X176176333Y-96978357D01*
X176152523Y-97014071D01*
X176104904Y-97049785D01*
X175985857Y-97049785D01*
X175938238Y-97014071D01*
X175914428Y-96978357D01*
X189862047Y-97049785D02*
X189695380Y-96692642D01*
X189576333Y-97049785D02*
X189576333Y-96299785D01*
X189766809Y-96299785D01*
X189814428Y-96335500D01*
X189838238Y-96371214D01*
X189862047Y-96442642D01*
X189862047Y-96549785D01*
X189838238Y-96621214D01*
X189814428Y-96656928D01*
X189766809Y-96692642D01*
X189576333Y-96692642D01*
X190171571Y-96299785D02*
X190266809Y-96299785D01*
X190314428Y-96335500D01*
X190362047Y-96406928D01*
X190385857Y-96549785D01*
X190385857Y-96799785D01*
X190362047Y-96942642D01*
X190314428Y-97014071D01*
X190266809Y-97049785D01*
X190171571Y-97049785D01*
X190123952Y-97014071D01*
X190076333Y-96942642D01*
X190052523Y-96799785D01*
X190052523Y-96549785D01*
X190076333Y-96406928D01*
X190123952Y-96335500D01*
X190171571Y-96299785D01*
X190552523Y-96299785D02*
X190671571Y-97049785D01*
X190766809Y-96514071D01*
X190862047Y-97049785D01*
X190981095Y-96299785D01*
X191123952Y-96299785D02*
X191433476Y-96299785D01*
X191266809Y-96585500D01*
X191338238Y-96585500D01*
X191385857Y-96621214D01*
X191409666Y-96656928D01*
X191433476Y-96728357D01*
X191433476Y-96906928D01*
X191409666Y-96978357D01*
X191385857Y-97014071D01*
X191338238Y-97049785D01*
X191195380Y-97049785D01*
X191147761Y-97014071D01*
X191123952Y-96978357D01*
X175140619Y-99161428D02*
X175212047Y-99197142D01*
X175235857Y-99232857D01*
X175259666Y-99304285D01*
X175259666Y-99411428D01*
X175235857Y-99482857D01*
X175212047Y-99518571D01*
X175164428Y-99554285D01*
X174973952Y-99554285D01*
X174973952Y-98804285D01*
X175140619Y-98804285D01*
X175188238Y-98840000D01*
X175212047Y-98875714D01*
X175235857Y-98947142D01*
X175235857Y-99018571D01*
X175212047Y-99090000D01*
X175188238Y-99125714D01*
X175140619Y-99161428D01*
X174973952Y-99161428D01*
X175450142Y-98875714D02*
X175473952Y-98840000D01*
X175521571Y-98804285D01*
X175640619Y-98804285D01*
X175688238Y-98840000D01*
X175712047Y-98875714D01*
X175735857Y-98947142D01*
X175735857Y-99018571D01*
X175712047Y-99125714D01*
X175426333Y-99554285D01*
X175735857Y-99554285D01*
X190290619Y-99133428D02*
X190362047Y-99169142D01*
X190385857Y-99204857D01*
X190409666Y-99276285D01*
X190409666Y-99383428D01*
X190385857Y-99454857D01*
X190362047Y-99490571D01*
X190314428Y-99526285D01*
X190123952Y-99526285D01*
X190123952Y-98776285D01*
X190290619Y-98776285D01*
X190338238Y-98812000D01*
X190362047Y-98847714D01*
X190385857Y-98919142D01*
X190385857Y-98990571D01*
X190362047Y-99062000D01*
X190338238Y-99097714D01*
X190290619Y-99133428D01*
X190123952Y-99133428D01*
X190838238Y-99026285D02*
X190838238Y-99526285D01*
X190719190Y-98740571D02*
X190600142Y-99276285D01*
X190909666Y-99276285D01*
X190290619Y-101736928D02*
X190362047Y-101772642D01*
X190385857Y-101808357D01*
X190409666Y-101879785D01*
X190409666Y-101986928D01*
X190385857Y-102058357D01*
X190362047Y-102094071D01*
X190314428Y-102129785D01*
X190123952Y-102129785D01*
X190123952Y-101379785D01*
X190290619Y-101379785D01*
X190338238Y-101415500D01*
X190362047Y-101451214D01*
X190385857Y-101522642D01*
X190385857Y-101594071D01*
X190362047Y-101665500D01*
X190338238Y-101701214D01*
X190290619Y-101736928D01*
X190123952Y-101736928D01*
X190862047Y-101379785D02*
X190623952Y-101379785D01*
X190600142Y-101736928D01*
X190623952Y-101701214D01*
X190671571Y-101665500D01*
X190790619Y-101665500D01*
X190838238Y-101701214D01*
X190862047Y-101736928D01*
X190885857Y-101808357D01*
X190885857Y-101986928D01*
X190862047Y-102058357D01*
X190838238Y-102094071D01*
X190790619Y-102129785D01*
X190671571Y-102129785D01*
X190623952Y-102094071D01*
X190600142Y-102058357D01*
X175040619Y-101711428D02*
X175112047Y-101747142D01*
X175135857Y-101782857D01*
X175159666Y-101854285D01*
X175159666Y-101961428D01*
X175135857Y-102032857D01*
X175112047Y-102068571D01*
X175064428Y-102104285D01*
X174873952Y-102104285D01*
X174873952Y-101354285D01*
X175040619Y-101354285D01*
X175088238Y-101390000D01*
X175112047Y-101425714D01*
X175135857Y-101497142D01*
X175135857Y-101568571D01*
X175112047Y-101640000D01*
X175088238Y-101675714D01*
X175040619Y-101711428D01*
X174873952Y-101711428D01*
X175588238Y-101354285D02*
X175493000Y-101354285D01*
X175445380Y-101390000D01*
X175421571Y-101425714D01*
X175373952Y-101532857D01*
X175350142Y-101675714D01*
X175350142Y-101961428D01*
X175373952Y-102032857D01*
X175397761Y-102068571D01*
X175445380Y-102104285D01*
X175540619Y-102104285D01*
X175588238Y-102068571D01*
X175612047Y-102032857D01*
X175635857Y-101961428D01*
X175635857Y-101782857D01*
X175612047Y-101711428D01*
X175588238Y-101675714D01*
X175540619Y-101640000D01*
X175445380Y-101640000D01*
X175397761Y-101675714D01*
X175373952Y-101711428D01*
X175350142Y-101782857D01*
X174845380Y-84232857D02*
X174821571Y-84268571D01*
X174750142Y-84304285D01*
X174702523Y-84304285D01*
X174631095Y-84268571D01*
X174583476Y-84197142D01*
X174559666Y-84125714D01*
X174535857Y-83982857D01*
X174535857Y-83875714D01*
X174559666Y-83732857D01*
X174583476Y-83661428D01*
X174631095Y-83590000D01*
X174702523Y-83554285D01*
X174750142Y-83554285D01*
X174821571Y-83590000D01*
X174845380Y-83625714D01*
X175154904Y-83554285D02*
X175250142Y-83554285D01*
X175297761Y-83590000D01*
X175345380Y-83661428D01*
X175369190Y-83804285D01*
X175369190Y-84054285D01*
X175345380Y-84197142D01*
X175297761Y-84268571D01*
X175250142Y-84304285D01*
X175154904Y-84304285D01*
X175107285Y-84268571D01*
X175059666Y-84197142D01*
X175035857Y-84054285D01*
X175035857Y-83804285D01*
X175059666Y-83661428D01*
X175107285Y-83590000D01*
X175154904Y-83554285D01*
X175821571Y-84304285D02*
X175583476Y-84304285D01*
X175583476Y-83554285D01*
X176083476Y-83554285D02*
X176131095Y-83554285D01*
X176178714Y-83590000D01*
X176202523Y-83625714D01*
X176226333Y-83697142D01*
X176250142Y-83840000D01*
X176250142Y-84018571D01*
X176226333Y-84161428D01*
X176202523Y-84232857D01*
X176178714Y-84268571D01*
X176131095Y-84304285D01*
X176083476Y-84304285D01*
X176035857Y-84268571D01*
X176012047Y-84232857D01*
X175988238Y-84161428D01*
X175964428Y-84018571D01*
X175964428Y-83840000D01*
X175988238Y-83697142D01*
X176012047Y-83625714D01*
X176035857Y-83590000D01*
X176083476Y-83554285D01*
X190146857Y-84250571D02*
X190218285Y-84286285D01*
X190337333Y-84286285D01*
X190384952Y-84250571D01*
X190408761Y-84214857D01*
X190432571Y-84143428D01*
X190432571Y-84072000D01*
X190408761Y-84000571D01*
X190384952Y-83964857D01*
X190337333Y-83929142D01*
X190242095Y-83893428D01*
X190194476Y-83857714D01*
X190170666Y-83822000D01*
X190146857Y-83750571D01*
X190146857Y-83679142D01*
X190170666Y-83607714D01*
X190194476Y-83572000D01*
X190242095Y-83536285D01*
X190361142Y-83536285D01*
X190432571Y-83572000D01*
X190646857Y-84286285D02*
X190646857Y-83536285D01*
X190765904Y-83536285D01*
X190837333Y-83572000D01*
X190884952Y-83643428D01*
X190908761Y-83714857D01*
X190932571Y-83857714D01*
X190932571Y-83964857D01*
X190908761Y-84107714D01*
X190884952Y-84179142D01*
X190837333Y-84250571D01*
X190765904Y-84286285D01*
X190646857Y-84286285D01*
X191123047Y-84072000D02*
X191361142Y-84072000D01*
X191075428Y-84286285D02*
X191242095Y-83536285D01*
X191408761Y-84286285D01*
X174895380Y-86754857D02*
X174871571Y-86790571D01*
X174800142Y-86826285D01*
X174752523Y-86826285D01*
X174681095Y-86790571D01*
X174633476Y-86719142D01*
X174609666Y-86647714D01*
X174585857Y-86504857D01*
X174585857Y-86397714D01*
X174609666Y-86254857D01*
X174633476Y-86183428D01*
X174681095Y-86112000D01*
X174752523Y-86076285D01*
X174800142Y-86076285D01*
X174871571Y-86112000D01*
X174895380Y-86147714D01*
X175204904Y-86076285D02*
X175300142Y-86076285D01*
X175347761Y-86112000D01*
X175395380Y-86183428D01*
X175419190Y-86326285D01*
X175419190Y-86576285D01*
X175395380Y-86719142D01*
X175347761Y-86790571D01*
X175300142Y-86826285D01*
X175204904Y-86826285D01*
X175157285Y-86790571D01*
X175109666Y-86719142D01*
X175085857Y-86576285D01*
X175085857Y-86326285D01*
X175109666Y-86183428D01*
X175157285Y-86112000D01*
X175204904Y-86076285D01*
X175871571Y-86826285D02*
X175633476Y-86826285D01*
X175633476Y-86076285D01*
X176300142Y-86826285D02*
X176014428Y-86826285D01*
X176157285Y-86826285D02*
X176157285Y-86076285D01*
X176109666Y-86183428D01*
X176062047Y-86254857D01*
X176014428Y-86290571D01*
X190158761Y-86790571D02*
X190230190Y-86826285D01*
X190349238Y-86826285D01*
X190396857Y-86790571D01*
X190420666Y-86754857D01*
X190444476Y-86683428D01*
X190444476Y-86612000D01*
X190420666Y-86540571D01*
X190396857Y-86504857D01*
X190349238Y-86469142D01*
X190254000Y-86433428D01*
X190206380Y-86397714D01*
X190182571Y-86362000D01*
X190158761Y-86290571D01*
X190158761Y-86219142D01*
X190182571Y-86147714D01*
X190206380Y-86112000D01*
X190254000Y-86076285D01*
X190373047Y-86076285D01*
X190444476Y-86112000D01*
X190944476Y-86754857D02*
X190920666Y-86790571D01*
X190849238Y-86826285D01*
X190801619Y-86826285D01*
X190730190Y-86790571D01*
X190682571Y-86719142D01*
X190658761Y-86647714D01*
X190634952Y-86504857D01*
X190634952Y-86397714D01*
X190658761Y-86254857D01*
X190682571Y-86183428D01*
X190730190Y-86112000D01*
X190801619Y-86076285D01*
X190849238Y-86076285D01*
X190920666Y-86112000D01*
X190944476Y-86147714D01*
X191396857Y-86826285D02*
X191158761Y-86826285D01*
X191158761Y-86076285D01*
X174845380Y-89294857D02*
X174821571Y-89330571D01*
X174750142Y-89366285D01*
X174702523Y-89366285D01*
X174631095Y-89330571D01*
X174583476Y-89259142D01*
X174559666Y-89187714D01*
X174535857Y-89044857D01*
X174535857Y-88937714D01*
X174559666Y-88794857D01*
X174583476Y-88723428D01*
X174631095Y-88652000D01*
X174702523Y-88616285D01*
X174750142Y-88616285D01*
X174821571Y-88652000D01*
X174845380Y-88687714D01*
X175154904Y-88616285D02*
X175250142Y-88616285D01*
X175297761Y-88652000D01*
X175345380Y-88723428D01*
X175369190Y-88866285D01*
X175369190Y-89116285D01*
X175345380Y-89259142D01*
X175297761Y-89330571D01*
X175250142Y-89366285D01*
X175154904Y-89366285D01*
X175107285Y-89330571D01*
X175059666Y-89259142D01*
X175035857Y-89116285D01*
X175035857Y-88866285D01*
X175059666Y-88723428D01*
X175107285Y-88652000D01*
X175154904Y-88616285D01*
X175821571Y-89366285D02*
X175583476Y-89366285D01*
X175583476Y-88616285D01*
X175964428Y-88687714D02*
X175988238Y-88652000D01*
X176035857Y-88616285D01*
X176154904Y-88616285D01*
X176202523Y-88652000D01*
X176226333Y-88687714D01*
X176250142Y-88759142D01*
X176250142Y-88830571D01*
X176226333Y-88937714D01*
X175940619Y-89366285D01*
X176250142Y-89366285D01*
X189862047Y-89404285D02*
X189695380Y-89047142D01*
X189576333Y-89404285D02*
X189576333Y-88654285D01*
X189766809Y-88654285D01*
X189814428Y-88690000D01*
X189838238Y-88725714D01*
X189862047Y-88797142D01*
X189862047Y-88904285D01*
X189838238Y-88975714D01*
X189814428Y-89011428D01*
X189766809Y-89047142D01*
X189576333Y-89047142D01*
X190171571Y-88654285D02*
X190266809Y-88654285D01*
X190314428Y-88690000D01*
X190362047Y-88761428D01*
X190385857Y-88904285D01*
X190385857Y-89154285D01*
X190362047Y-89297142D01*
X190314428Y-89368571D01*
X190266809Y-89404285D01*
X190171571Y-89404285D01*
X190123952Y-89368571D01*
X190076333Y-89297142D01*
X190052523Y-89154285D01*
X190052523Y-88904285D01*
X190076333Y-88761428D01*
X190123952Y-88690000D01*
X190171571Y-88654285D01*
X190552523Y-88654285D02*
X190671571Y-89404285D01*
X190766809Y-88868571D01*
X190862047Y-89404285D01*
X190981095Y-88654285D01*
X191266809Y-88654285D02*
X191314428Y-88654285D01*
X191362047Y-88690000D01*
X191385857Y-88725714D01*
X191409666Y-88797142D01*
X191433476Y-88940000D01*
X191433476Y-89118571D01*
X191409666Y-89261428D01*
X191385857Y-89332857D01*
X191362047Y-89368571D01*
X191314428Y-89404285D01*
X191266809Y-89404285D01*
X191219190Y-89368571D01*
X191195380Y-89332857D01*
X191171571Y-89261428D01*
X191147761Y-89118571D01*
X191147761Y-88940000D01*
X191171571Y-88797142D01*
X191195380Y-88725714D01*
X191219190Y-88690000D01*
X191266809Y-88654285D01*
X174745380Y-91882857D02*
X174721571Y-91918571D01*
X174650142Y-91954285D01*
X174602523Y-91954285D01*
X174531095Y-91918571D01*
X174483476Y-91847142D01*
X174459666Y-91775714D01*
X174435857Y-91632857D01*
X174435857Y-91525714D01*
X174459666Y-91382857D01*
X174483476Y-91311428D01*
X174531095Y-91240000D01*
X174602523Y-91204285D01*
X174650142Y-91204285D01*
X174721571Y-91240000D01*
X174745380Y-91275714D01*
X175054904Y-91204285D02*
X175150142Y-91204285D01*
X175197761Y-91240000D01*
X175245380Y-91311428D01*
X175269190Y-91454285D01*
X175269190Y-91704285D01*
X175245380Y-91847142D01*
X175197761Y-91918571D01*
X175150142Y-91954285D01*
X175054904Y-91954285D01*
X175007285Y-91918571D01*
X174959666Y-91847142D01*
X174935857Y-91704285D01*
X174935857Y-91454285D01*
X174959666Y-91311428D01*
X175007285Y-91240000D01*
X175054904Y-91204285D01*
X175721571Y-91954285D02*
X175483476Y-91954285D01*
X175483476Y-91204285D01*
X175840619Y-91204285D02*
X176150142Y-91204285D01*
X175983476Y-91490000D01*
X176054904Y-91490000D01*
X176102523Y-91525714D01*
X176126333Y-91561428D01*
X176150142Y-91632857D01*
X176150142Y-91811428D01*
X176126333Y-91882857D01*
X176102523Y-91918571D01*
X176054904Y-91954285D01*
X175912047Y-91954285D01*
X175864428Y-91918571D01*
X175840619Y-91882857D01*
X190373047Y-81095500D02*
X190325428Y-81059785D01*
X190254000Y-81059785D01*
X190182571Y-81095500D01*
X190134952Y-81166928D01*
X190111142Y-81238357D01*
X190087333Y-81381214D01*
X190087333Y-81488357D01*
X190111142Y-81631214D01*
X190134952Y-81702642D01*
X190182571Y-81774071D01*
X190254000Y-81809785D01*
X190301619Y-81809785D01*
X190373047Y-81774071D01*
X190396857Y-81738357D01*
X190396857Y-81488357D01*
X190301619Y-81488357D01*
X190611142Y-81809785D02*
X190611142Y-81059785D01*
X190896857Y-81809785D01*
X190896857Y-81059785D01*
X191134952Y-81809785D02*
X191134952Y-81059785D01*
X191254000Y-81059785D01*
X191325428Y-81095500D01*
X191373047Y-81166928D01*
X191396857Y-81238357D01*
X191420666Y-81381214D01*
X191420666Y-81488357D01*
X191396857Y-81631214D01*
X191373047Y-81702642D01*
X191325428Y-81774071D01*
X191254000Y-81809785D01*
X191134952Y-81809785D01*
X174910833Y-80996285D02*
X175077500Y-81746285D01*
X175244166Y-80996285D01*
X175696547Y-81674857D02*
X175672738Y-81710571D01*
X175601309Y-81746285D01*
X175553690Y-81746285D01*
X175482261Y-81710571D01*
X175434642Y-81639142D01*
X175410833Y-81567714D01*
X175387023Y-81424857D01*
X175387023Y-81317714D01*
X175410833Y-81174857D01*
X175434642Y-81103428D01*
X175482261Y-81032000D01*
X175553690Y-80996285D01*
X175601309Y-80996285D01*
X175672738Y-81032000D01*
X175696547Y-81067714D01*
X176196547Y-81674857D02*
X176172738Y-81710571D01*
X176101309Y-81746285D01*
X176053690Y-81746285D01*
X175982261Y-81710571D01*
X175934642Y-81639142D01*
X175910833Y-81567714D01*
X175887023Y-81424857D01*
X175887023Y-81317714D01*
X175910833Y-81174857D01*
X175934642Y-81103428D01*
X175982261Y-81032000D01*
X176053690Y-80996285D01*
X176101309Y-80996285D01*
X176172738Y-81032000D01*
X176196547Y-81067714D01*
X190436547Y-78555500D02*
X190388928Y-78519785D01*
X190317500Y-78519785D01*
X190246071Y-78555500D01*
X190198452Y-78626928D01*
X190174642Y-78698357D01*
X190150833Y-78841214D01*
X190150833Y-78948357D01*
X190174642Y-79091214D01*
X190198452Y-79162642D01*
X190246071Y-79234071D01*
X190317500Y-79269785D01*
X190365119Y-79269785D01*
X190436547Y-79234071D01*
X190460357Y-79198357D01*
X190460357Y-78948357D01*
X190365119Y-78948357D01*
X190674642Y-79269785D02*
X190674642Y-78519785D01*
X190960357Y-79269785D01*
X190960357Y-78519785D01*
X191198452Y-79269785D02*
X191198452Y-78519785D01*
X191317500Y-78519785D01*
X191388928Y-78555500D01*
X191436547Y-78626928D01*
X191460357Y-78698357D01*
X191484166Y-78841214D01*
X191484166Y-78948357D01*
X191460357Y-79091214D01*
X191436547Y-79162642D01*
X191388928Y-79234071D01*
X191317500Y-79269785D01*
X191198452Y-79269785D01*
X175303690Y-79269785D02*
X175137023Y-78912642D01*
X175017976Y-79269785D02*
X175017976Y-78519785D01*
X175208452Y-78519785D01*
X175256071Y-78555500D01*
X175279880Y-78591214D01*
X175303690Y-78662642D01*
X175303690Y-78769785D01*
X175279880Y-78841214D01*
X175256071Y-78876928D01*
X175208452Y-78912642D01*
X175017976Y-78912642D01*
X175494166Y-79234071D02*
X175565595Y-79269785D01*
X175684642Y-79269785D01*
X175732261Y-79234071D01*
X175756071Y-79198357D01*
X175779880Y-79126928D01*
X175779880Y-79055500D01*
X175756071Y-78984071D01*
X175732261Y-78948357D01*
X175684642Y-78912642D01*
X175589404Y-78876928D01*
X175541785Y-78841214D01*
X175517976Y-78805500D01*
X175494166Y-78734071D01*
X175494166Y-78662642D01*
X175517976Y-78591214D01*
X175541785Y-78555500D01*
X175589404Y-78519785D01*
X175708452Y-78519785D01*
X175779880Y-78555500D01*
X175922738Y-78519785D02*
X176208452Y-78519785D01*
X176065595Y-79269785D02*
X176065595Y-78519785D01*
X189893000Y-76654285D02*
X189893000Y-75904285D01*
X190012047Y-75904285D01*
X190083476Y-75940000D01*
X190131095Y-76011428D01*
X190154904Y-76082857D01*
X190178714Y-76225714D01*
X190178714Y-76332857D01*
X190154904Y-76475714D01*
X190131095Y-76547142D01*
X190083476Y-76618571D01*
X190012047Y-76654285D01*
X189893000Y-76654285D01*
X190369190Y-76440000D02*
X190607285Y-76440000D01*
X190321571Y-76654285D02*
X190488238Y-75904285D01*
X190654904Y-76654285D01*
X190750142Y-75904285D02*
X191035857Y-75904285D01*
X190893000Y-76654285D02*
X190893000Y-75904285D01*
X191178714Y-76440000D02*
X191416809Y-76440000D01*
X191131095Y-76654285D02*
X191297761Y-75904285D01*
X191464428Y-76654285D01*
X175196547Y-75952000D02*
X175148928Y-75916285D01*
X175077500Y-75916285D01*
X175006071Y-75952000D01*
X174958452Y-76023428D01*
X174934642Y-76094857D01*
X174910833Y-76237714D01*
X174910833Y-76344857D01*
X174934642Y-76487714D01*
X174958452Y-76559142D01*
X175006071Y-76630571D01*
X175077500Y-76666285D01*
X175125119Y-76666285D01*
X175196547Y-76630571D01*
X175220357Y-76594857D01*
X175220357Y-76344857D01*
X175125119Y-76344857D01*
X175434642Y-76666285D02*
X175434642Y-75916285D01*
X175720357Y-76666285D01*
X175720357Y-75916285D01*
X175958452Y-76666285D02*
X175958452Y-75916285D01*
X176077500Y-75916285D01*
X176148928Y-75952000D01*
X176196547Y-76023428D01*
X176220357Y-76094857D01*
X176244166Y-76237714D01*
X176244166Y-76344857D01*
X176220357Y-76487714D01*
X176196547Y-76559142D01*
X176148928Y-76630571D01*
X176077500Y-76666285D01*
X175958452Y-76666285D01*
X190471571Y-74126285D02*
X190233476Y-74126285D01*
X190233476Y-73376285D01*
X190638238Y-73733428D02*
X190804904Y-73733428D01*
X190876333Y-74126285D02*
X190638238Y-74126285D01*
X190638238Y-73376285D01*
X190876333Y-73376285D01*
X191090619Y-74126285D02*
X191090619Y-73376285D01*
X191209666Y-73376285D01*
X191281095Y-73412000D01*
X191328714Y-73483428D01*
X191352523Y-73554857D01*
X191376333Y-73697714D01*
X191376333Y-73804857D01*
X191352523Y-73947714D01*
X191328714Y-74019142D01*
X191281095Y-74090571D01*
X191209666Y-74126285D01*
X191090619Y-74126285D01*
X175232261Y-74126285D02*
X175065595Y-73769142D01*
X174946547Y-74126285D02*
X174946547Y-73376285D01*
X175137023Y-73376285D01*
X175184642Y-73412000D01*
X175208452Y-73447714D01*
X175232261Y-73519142D01*
X175232261Y-73626285D01*
X175208452Y-73697714D01*
X175184642Y-73733428D01*
X175137023Y-73769142D01*
X174946547Y-73769142D01*
X175422738Y-73912000D02*
X175660833Y-73912000D01*
X175375119Y-74126285D02*
X175541785Y-73376285D01*
X175708452Y-74126285D01*
X175827500Y-73376285D02*
X175946547Y-74126285D01*
X176041785Y-73590571D01*
X176137023Y-74126285D01*
X176256071Y-73376285D01*
D12*
%TO.C,R1*%
X187139533Y-110683695D02*
X186868600Y-110296647D01*
X186675076Y-110683695D02*
X186675076Y-109870895D01*
X186984714Y-109870895D01*
X187062123Y-109909600D01*
X187100828Y-109948304D01*
X187139533Y-110025714D01*
X187139533Y-110141828D01*
X187100828Y-110219238D01*
X187062123Y-110257942D01*
X186984714Y-110296647D01*
X186675076Y-110296647D01*
X187913628Y-110683695D02*
X187449171Y-110683695D01*
X187681400Y-110683695D02*
X187681400Y-109870895D01*
X187603990Y-109987009D01*
X187526580Y-110064419D01*
X187449171Y-110103123D01*
%TO.C,R2*%
X187139533Y-113096695D02*
X186868600Y-112709647D01*
X186675076Y-113096695D02*
X186675076Y-112283895D01*
X186984714Y-112283895D01*
X187062123Y-112322600D01*
X187100828Y-112361304D01*
X187139533Y-112438714D01*
X187139533Y-112554828D01*
X187100828Y-112632238D01*
X187062123Y-112670942D01*
X186984714Y-112709647D01*
X186675076Y-112709647D01*
X187449171Y-112361304D02*
X187487876Y-112322600D01*
X187565285Y-112283895D01*
X187758809Y-112283895D01*
X187836219Y-112322600D01*
X187874923Y-112361304D01*
X187913628Y-112438714D01*
X187913628Y-112516123D01*
X187874923Y-112632238D01*
X187410466Y-113096695D01*
X187913628Y-113096695D01*
%TD*%
M02*
