  0
SECTION
  2
HEADER
  9
$ACADVER
  1
AC1014
  9
$HANDSEED
  5
FFFF
  9
$MEASUREMENT
 70
     1
  0
ENDSEC
  0
SECTION
  2
TABLES
  0
TABLE
  2
VPORT
  5
8
330
0
100
AcDbSymbolTable
 70
     4
  0
VPORT
  5
2E
330
8
100
AcDbSymbolTableRecord
100
AcDbViewportTableRecord
  2
*ACTIVE
 70
     0
 10
0.0
 20
0.0
 11
1.0
 21
1.0
 12
210.0
 22
148.5
 13
0.0
 23
0.0
 14
10.0
 24
10.0
 15
10.0
 25
10.0
 16
0.0
 26
0.0
 36
1.0
 17
0.0
 27
0.0
 37
0.0
 40
341.0
 41
1.24
 42
50.0
 43
0.0
 44
0.0
 50
0.0
 51
0.0
 71
     0
 72
   100
 73
     1
 74
     3
 75
     0
 76
     0
 77
     0
 78
     0
  0
ENDTAB
  0
TABLE
  2
LTYPE
  5
5
330
0
100
AcDbSymbolTable
 70
     1
  0
LTYPE
  5
14
330
5
100
AcDbSymbolTableRecord
100
AcDbLinetypeTableRecord
  2
BYBLOCK
 70
     0
  3

 72
    65
 73
     0
 40
0.0
  0
LTYPE
  5
15
330
5
100
AcDbSymbolTableRecord
100
AcDbLinetypeTableRecord
  2
BYLAYER
 70
     0
  3

 72
    65
 73
     0
 40
0.0
  0
LTYPE
  5
16
330
5
100
AcDbSymbolTableRecord
100
AcDbLinetypeTableRecord
  2
CONTINUOUS
 70
     0
  3
Solid line
 72
    65
 73
     0
 40
0.0
  0
ENDTAB
  0
TABLE
  2
LAYER
  5
2
100
AcDbSymbolTable
 70
2
  0
LAYER
  5
50
100
AcDbSymbolTableRecord
100
AcDbLayerTableRecord
  2
0
 70
0
  6
CONTINUOUS
  0
LAYER
  5
51
100
AcDbSymbolTableRecord
100
AcDbLayerTableRecord
  2
レイヤー_1
 70
0
  6
CONTINUOUS
  0
ENDTAB
  0
TABLE
  2
STYLE
  5
3
330
0
100
AcDbSymbolTable
 70
     1
  0
STYLE
  5
11
330
3
100
AcDbSymbolTableRecord
100
AcDbTextStyleTableRecord
  2
STANDARD
 70
     0
 40
0.0
 41
1.0
 50
0.0
 71
     0
 42
2.5
  3
txt
  4

  0
ENDTAB
  0
TABLE
  2
VIEW
  5
6
330
0
100
AcDbSymbolTable
 70
     0
  0
ENDTAB
  0
TABLE
  2
UCS
  5
7
330
0
100
AcDbSymbolTable
 70
     0
  0
ENDTAB
  0
TABLE
  2
APPID
  5
9
330
0
100
AcDbSymbolTable
 70
     2
  0
APPID
  5
12
330
9
100
AcDbSymbolTableRecord
100
AcDbRegAppTableRecord
  2
ACAD
 70
     0
  0
ENDTAB
  0
TABLE
  2
DIMSTYLE
  5
A
330
0
100
AcDbSymbolTable
 70
     1
  0
DIMSTYLE
105
27
330
A
100
AcDbSymbolTableRecord
100
AcDbDimStyleTableRecord
  2
ISO-25
 70
     0
  3

  4

  5

  6

  7

 40
1.0
 41
2.5
 42
0.625
 43
3.75
 44
1.25
 45
0.0
 46
0.0
 47
0.0
 48
0.0
140
2.5
141
2.5
142
0.0
143
0.03937007874016
144
1.0
145
0.0
146
1.0
147
0.625
 71
     0
 72
     0
 73
     0
 74
     0
 75
     0
 76
     0
 77
     1
 78
     8
170
     0
171
     3
172
     1
173
     0
174
     0
175
     0
176
     0
177
     0
178
     0
270
     2
271
     2
272
     2
273
     2
274
     3
340
11
275
     0
280
     0
281
     0
282
     0
283
     0
284
     8
285
     0
286
     0
287
     3
288
     0
  0
ENDTAB
  0
TABLE
  2
BLOCK_RECORD
  5
1
330
0
100
AcDbSymbolTable
 70
     1
  0
BLOCK_RECORD
  5
1F
330
1
100
AcDbSymbolTableRecord
100
AcDbBlockTableRecord
  2
*MODEL_SPACE
  0
BLOCK_RECORD
  5
1B
330
1
100
AcDbSymbolTableRecord
100
AcDbBlockTableRecord
  2
*PAPER_SPACE
  0
ENDTAB
  0
ENDSEC
  0
SECTION
  2
BLOCKS
  0
BLOCK
  5
20
330
1F
100
AcDbEntity
  8
0
100
AcDbBlockBegin
  2
*MODEL_SPACE
 70
     0
 10
0.0
 20
0.0
 30
0.0
  3
*MODEL_SPACE
  1

  0
ENDBLK
  5
21
330
1F
100
AcDbEntity
  8
0
100
AcDbBlockEnd
  0
BLOCK
  5
1C
330
1B
100
AcDbEntity
 67
     1
  8
0
100
AcDbBlockBegin
  2
*PAPER_SPACE
  1

  0
ENDBLK
  5
1D
330
1B
100
AcDbEntity
 67
     1
  8
0
100
AcDbBlockEnd
  0
ENDSEC
  0
SECTION
  2
ENTITIES
  0
LWPOLYLINE
  5
100
100
AcDbEntity
  8
レイヤー_1
 62
1
100
AcDbPolyline
 90
2
 70
0
 10
239.138530
 20
86.899320
 30
0.0
 10
239.413060
 20
83.760880
 30
0.0
  0
LWPOLYLINE
  5
101
100
AcDbEntity
  8
レイヤー_1
 62
1
100
AcDbPolyline
 90
2
 70
0
 10
238.352170
 20
95.887580
 30
0.0
 10
238.626730
 20
92.749130
 30
0.0
  0
LWPOLYLINE
  5
102
100
AcDbEntity
  8
レイヤー_1
 62
1
100
AcDbPolyline
 90
2
 70
0
 10
253.058570
 20
88.117160
 30
0.0
 10
253.333100
 20
84.978730
 30
0.0
  0
LWPOLYLINE
  5
103
100
AcDbEntity
  8
レイヤー_1
 62
1
100
AcDbPolyline
 90
2
 70
0
 10
252.272220
 20
97.105380
 30
0.0
 10
252.546760
 20
93.967000
 30
0.0
  0
LWPOLYLINE
  5
104
100
AcDbEntity
  8
レイヤー_1
 62
1
100
AcDbPolyline
 90
2
 70
0
 10
238.273730
 20
96.784250
 30
0.0
 10
252.193730
 20
98.002110
 30
0.0
  0
LWPOLYLINE
  5
105
100
AcDbEntity
  8
レイヤー_1
 62
1
100
AcDbPolyline
 90
2
 70
0
 10
238.352170
 20
95.887580
 30
0.0
 10
238.273770
 20
96.784250
 30
0.0
  0
LWPOLYLINE
  5
106
100
AcDbEntity
  8
レイヤー_1
 62
1
100
AcDbPolyline
 90
2
 70
0
 10
239.138590
 20
86.899310
 30
0.0
 10
238.626760
 20
92.749130
 30
0.0
  0
LWPOLYLINE
  5
107
100
AcDbEntity
  8
レイヤー_1
 62
1
100
AcDbPolyline
 90
2
 70
0
 10
239.491570
 20
82.864210
 30
0.0
 10
239.413070
 20
83.760870
 30
0.0
  0
LWPOLYLINE
  5
108
100
AcDbEntity
  8
レイヤー_1
 62
1
100
AcDbPolyline
 90
2
 70
0
 10
253.411540
 20
84.082060
 30
0.0
 10
239.491540
 20
82.864180
 30
0.0
  0
LWPOLYLINE
  5
109
100
AcDbEntity
  8
レイヤー_1
 62
1
100
AcDbPolyline
 90
2
 70
0
 10
253.333110
 20
84.978710
 30
0.0
 10
253.411610
 20
84.082030
 30
0.0
  0
LWPOLYLINE
  5
10a
100
AcDbEntity
  8
レイヤー_1
 62
1
100
AcDbPolyline
 90
2
 70
0
 10
252.546790
 20
93.966970
 30
0.0
 10
253.058590
 20
88.117170
 30
0.0
  0
LWPOLYLINE
  5
10b
100
AcDbEntity
  8
レイヤー_1
 62
1
100
AcDbPolyline
 90
2
 70
0
 10
252.193790
 20
98.002110
 30
0.0
 10
252.272290
 20
97.105410
 30
0.0
  0
LWPOLYLINE
  5
10c
100
AcDbEntity
  8
レイヤー_1
 62
1
100
AcDbPolyline
 90
2
 70
0
 10
237.478220
 20
105.876650
 30
0.0
 10
237.752790
 20
102.738240
 30
0.0
  0
LWPOLYLINE
  5
10d
100
AcDbEntity
  8
レイヤー_1
 62
1
100
AcDbPolyline
 90
2
 70
0
 10
236.691810
 20
114.864920
 30
0.0
 10
236.966420
 20
111.726499
 30
0.0
  0
LWPOLYLINE
  5
10e
100
AcDbEntity
  8
レイヤー_1
 62
1
100
AcDbPolyline
 90
2
 70
0
 10
251.398240
 20
107.094500
 30
0.0
 10
251.672870
 20
103.956100
 30
0.0
  0
LWPOLYLINE
  5
10f
100
AcDbEntity
  8
レイヤー_1
 62
1
100
AcDbPolyline
 90
2
 70
0
 10
250.611860
 20
116.082755
 30
0.0
 10
250.886470
 20
112.944347
 30
0.0
  0
LWPOLYLINE
  5
110
100
AcDbEntity
  8
レイヤー_1
 62
1
100
AcDbPolyline
 90
2
 70
0
 10
236.613390
 20
115.761575
 30
0.0
 10
250.533410
 20
116.979431
 30
0.0
  0
LWPOLYLINE
  5
111
100
AcDbEntity
  8
レイヤー_1
 62
1
100
AcDbPolyline
 90
2
 70
0
 10
236.691810
 20
114.864920
 30
0.0
 10
236.613410
 20
115.761580
 30
0.0
  0
LWPOLYLINE
  5
112
100
AcDbEntity
  8
レイヤー_1
 62
1
100
AcDbPolyline
 90
2
 70
0
 10
237.478230
 20
105.876660
 30
0.0
 10
236.966450
 20
111.726504
 30
0.0
  0
LWPOLYLINE
  5
113
100
AcDbEntity
  8
レイヤー_1
 62
1
100
AcDbPolyline
 90
2
 70
0
 10
237.831260
 20
101.841550
 30
0.0
 10
237.752760
 20
102.738240
 30
0.0
  0
LWPOLYLINE
  5
114
100
AcDbEntity
  8
レイヤー_1
 62
1
100
AcDbPolyline
 90
2
 70
0
 10
251.751270
 20
103.059400
 30
0.0
 10
237.831210
 20
101.841570
 30
0.0
  0
LWPOLYLINE
  5
115
100
AcDbEntity
  8
レイヤー_1
 62
1
100
AcDbPolyline
 90
2
 70
0
 10
251.672840
 20
103.956100
 30
0.0
 10
251.751240
 20
103.059400
 30
0.0
  0
LWPOLYLINE
  5
116
100
AcDbEntity
  8
レイヤー_1
 62
1
100
AcDbPolyline
 90
2
 70
0
 10
250.886400
 20
112.944352
 30
0.0
 10
251.398160
 20
107.094500
 30
0.0
  0
LWPOLYLINE
  5
117
100
AcDbEntity
  8
レイヤー_1
 62
1
100
AcDbPolyline
 90
2
 70
0
 10
250.533330
 20
116.979433
 30
0.0
 10
250.611730
 20
116.082766
 30
0.0
  0
LWPOLYLINE
  5
118
100
AcDbEntity
  8
レイヤー_1
 62
1
100
AcDbPolyline
 90
2
 70
0
 10
235.817910
 20
124.854034
 30
0.0
 10
236.092460
 20
121.715628
 30
0.0
  0
LWPOLYLINE
  5
119
100
AcDbEntity
  8
レイヤー_1
 62
1
100
AcDbPolyline
 90
2
 70
0
 10
235.031550
 20
133.842279
 30
0.0
 10
235.306090
 20
130.703876
 30
0.0
  0
LWPOLYLINE
  5
11a
100
AcDbEntity
  8
レイヤー_1
 62
1
100
AcDbPolyline
 90
2
 70
0
 10
249.737960
 20
126.071879
 30
0.0
 10
250.012490
 20
122.933476
 30
0.0
  0
LWPOLYLINE
  5
11b
100
AcDbEntity
  8
レイヤー_1
 62
1
100
AcDbPolyline
 90
2
 70
0
 10
248.951590
 20
135.060128
 30
0.0
 10
249.226130
 20
131.921724
 30
0.0
  0
LWPOLYLINE
  5
11c
100
AcDbEntity
  8
レイヤー_1
 62
1
100
AcDbPolyline
 90
2
 70
0
 10
234.953110
 20
134.738978
 30
0.0
 10
248.873140
 20
135.956826
 30
0.0
  0
LWPOLYLINE
  5
11d
100
AcDbEntity
  8
レイヤー_1
 62
1
100
AcDbPolyline
 90
2
 70
0
 10
235.031550
 20
133.842279
 30
0.0
 10
234.953150
 20
134.738976
 30
0.0
  0
LWPOLYLINE
  5
11e
100
AcDbEntity
  8
レイヤー_1
 62
1
100
AcDbPolyline
 90
2
 70
0
 10
235.817970
 20
124.854029
 30
0.0
 10
235.306160
 20
130.703874
 30
0.0
  0
LWPOLYLINE
  5
11f
100
AcDbEntity
  8
レイヤー_1
 62
1
100
AcDbPolyline
 90
2
 70
0
 10
236.171000
 20
120.818937
 30
0.0
 10
236.092500
 20
121.715628
 30
0.0
  0
LWPOLYLINE
  5
120
100
AcDbEntity
  8
レイヤー_1
 62
1
100
AcDbPolyline
 90
2
 70
0
 10
250.091000
 20
122.036782
 30
0.0
 10
236.170960
 20
120.818934
 30
0.0
  0
LWPOLYLINE
  5
121
100
AcDbEntity
  8
レイヤー_1
 62
1
100
AcDbPolyline
 90
2
 70
0
 10
250.012530
 20
122.933476
 30
0.0
 10
250.091030
 20
122.036780
 30
0.0
  0
LWPOLYLINE
  5
122
100
AcDbEntity
  8
レイヤー_1
 62
1
100
AcDbPolyline
 90
2
 70
0
 10
249.226190
 20
131.921719
 30
0.0
 10
249.738030
 20
126.071879
 30
0.0
  0
LWPOLYLINE
  5
123
100
AcDbEntity
  8
レイヤー_1
 62
1
100
AcDbPolyline
 90
2
 70
0
 10
248.873210
 20
135.956820
 30
0.0
 10
248.951710
 20
135.060127
 30
0.0
  0
LWPOLYLINE
  5
124
100
AcDbEntity
  8
レイヤー_1
 62
1
100
AcDbPolyline
 90
2
 70
0
 10
215.179970
 20
142.171075
 30
0.0
 10
215.454560
 20
139.032668
 30
0.0
  0
LWPOLYLINE
  5
125
100
AcDbEntity
  8
レイヤー_1
 62
1
100
AcDbPolyline
 90
2
 70
0
 10
214.393610
 20
151.159344
 30
0.0
 10
214.668180
 20
148.020930
 30
0.0
  0
LWPOLYLINE
  5
126
100
AcDbEntity
  8
レイヤー_1
 62
1
100
AcDbPolyline
 90
2
 70
0
 10
229.099990
 20
143.388921
 30
0.0
 10
229.374600
 20
140.250511
 30
0.0
  0
LWPOLYLINE
  5
127
100
AcDbEntity
  8
レイヤー_1
 62
1
100
AcDbPolyline
 90
2
 70
0
 10
228.313610
 20
152.377186
 30
0.0
 10
228.588250
 20
149.238780
 30
0.0
  0
LWPOLYLINE
  5
128
100
AcDbEntity
  8
レイヤー_1
 62
1
100
AcDbPolyline
 90
2
 70
0
 10
214.315160
 20
152.056007
 30
0.0
 10
228.235170
 20
153.273855
 30
0.0
  0
LWPOLYLINE
  5
129
100
AcDbEntity
  8
レイヤー_1
 62
1
100
AcDbPolyline
 90
2
 70
0
 10
214.393610
 20
151.159344
 30
0.0
 10
214.315110
 20
152.056005
 30
0.0
  0
LWPOLYLINE
  5
12a
100
AcDbEntity
  8
レイヤー_1
 62
1
100
AcDbPolyline
 90
2
 70
0
 10
215.179930
 20
142.171079
 30
0.0
 10
214.668120
 20
148.020932
 30
0.0
  0
LWPOLYLINE
  5
12b
100
AcDbEntity
  8
レイヤー_1
 62
1
100
AcDbPolyline
 90
2
 70
0
 10
215.532920
 20
138.135968
 30
0.0
 10
215.454420
 20
139.032666
 30
0.0
  0
LWPOLYLINE
  5
12c
100
AcDbEntity
  8
レイヤー_1
 62
1
100
AcDbPolyline
 90
2
 70
0
 10
229.452910
 20
139.353817
 30
0.0
 10
215.532860
 20
138.135973
 30
0.0
  0
LWPOLYLINE
  5
12d
100
AcDbEntity
  8
レイヤー_1
 62
1
100
AcDbPolyline
 90
2
 70
0
 10
229.374480
 20
140.250513
 30
0.0
 10
229.452880
 20
139.353820
 30
0.0
  0
LWPOLYLINE
  5
12e
100
AcDbEntity
  8
レイヤー_1
 62
1
100
AcDbPolyline
 90
2
 70
0
 10
228.588040
 20
149.238777
 30
0.0
 10
229.099810
 20
143.388919
 30
0.0
  0
LWPOLYLINE
  5
12f
100
AcDbEntity
  8
レイヤー_1
 62
1
100
AcDbPolyline
 90
2
 70
0
 10
228.235000
 20
153.273855
 30
0.0
 10
228.313400
 20
152.377193
 30
0.0
  0
LWPOLYLINE
  5
130
100
AcDbEntity
  8
レイヤー_1
 62
1
100
AcDbPolyline
 90
2
 70
0
 10
196.036590
 20
142.408522
 30
0.0
 10
196.311120
 20
139.270080
 30
0.0
  0
LWPOLYLINE
  5
131
100
AcDbEntity
  8
レイヤー_1
 62
1
100
AcDbPolyline
 90
2
 70
0
 10
195.250200
 20
151.396760
 30
0.0
 10
195.524800
 20
148.258352
 30
0.0
  0
LWPOLYLINE
  5
132
100
AcDbEntity
  8
レイヤー_1
 62
1
100
AcDbPolyline
 90
2
 70
0
 10
209.956590
 20
143.626371
 30
0.0
 10
210.231190
 20
140.487927
 30
0.0
  0
LWPOLYLINE
  5
133
100
AcDbEntity
  8
レイヤー_1
 62
1
100
AcDbPolyline
 90
2
 70
0
 10
209.170230
 20
152.614604
 30
0.0
 10
209.444830
 20
149.476189
 30
0.0
  0
LWPOLYLINE
  5
134
100
AcDbEntity
  8
レイヤー_1
 62
1
100
AcDbPolyline
 90
2
 70
0
 10
195.171760
 20
152.293455
 30
0.0
 10
209.091760
 20
153.511296
 30
0.0
  0
LWPOLYLINE
  5
135
100
AcDbEntity
  8
レイヤー_1
 62
1
100
AcDbPolyline
 90
2
 70
0
 10
195.250200
 20
151.396760
 30
0.0
 10
195.171700
 20
152.293454
 30
0.0
  0
LWPOLYLINE
  5
136
100
AcDbEntity
  8
レイヤー_1
 62
1
100
AcDbPolyline
 90
2
 70
0
 10
196.036510
 20
142.408522
 30
0.0
 10
195.524710
 20
148.258347
 30
0.0
  0
LWPOLYLINE
  5
137
100
AcDbEntity
  8
レイヤー_1
 62
1
100
AcDbPolyline
 90
2
 70
0
 10
196.389540
 20
138.373415
 30
0.0
 10
196.311040
 20
139.270079
 30
0.0
  0
LWPOLYLINE
  5
138
100
AcDbEntity
  8
レイヤー_1
 62
1
100
AcDbPolyline
 90
2
 70
0
 10
210.309580
 20
139.591259
 30
0.0
 10
196.389520
 20
138.373415
 30
0.0
  0
LWPOLYLINE
  5
139
100
AcDbEntity
  8
レイヤー_1
 62
1
100
AcDbPolyline
 90
2
 70
0
 10
210.231110
 20
140.487927
 30
0.0
 10
210.309510
 20
139.591260
 30
0.0
  0
LWPOLYLINE
  5
13a
100
AcDbEntity
  8
レイヤー_1
 62
1
100
AcDbPolyline
 90
2
 70
0
 10
209.444670
 20
149.476187
 30
0.0
 10
209.956430
 20
143.626366
 30
0.0
  0
LWPOLYLINE
  5
13b
100
AcDbEntity
  8
レイヤー_1
 62
1
100
AcDbPolyline
 90
2
 70
0
 10
209.091610
 20
153.511296
 30
0.0
 10
209.170110
 20
152.614603
 30
0.0
  0
LWPOLYLINE
  5
13c
100
AcDbEntity
  8
レイヤー_1
 62
1
100
AcDbPolyline
 90
2
 70
0
 10
177.225240
 20
138.850470
 30
0.0
 10
177.499760
 20
135.712052
 30
0.0
  0
LWPOLYLINE
  5
13d
100
AcDbEntity
  8
レイヤー_1
 62
1
100
AcDbPolyline
 90
2
 70
0
 10
176.438870
 20
147.838734
 30
0.0
 10
176.713430
 20
144.700322
 30
0.0
  0
LWPOLYLINE
  5
13e
100
AcDbEntity
  8
レイヤー_1
 62
1
100
AcDbPolyline
 90
2
 70
0
 10
191.145250
 20
140.068313
 30
0.0
 10
191.419840
 20
136.929898
 30
0.0
  0
LWPOLYLINE
  5
13f
100
AcDbEntity
  8
レイヤー_1
 62
1
100
AcDbPolyline
 90
2
 70
0
 10
190.358870
 20
149.056577
 30
0.0
 10
190.633490
 20
145.918169
 30
0.0
  0
LWPOLYLINE
  5
140
100
AcDbEntity
  8
レイヤー_1
 62
1
100
AcDbPolyline
 90
2
 70
0
 10
176.360430
 20
148.735399
 30
0.0
 10
190.280440
 20
149.953242
 30
0.0
  0
LWPOLYLINE
  5
141
100
AcDbEntity
  8
レイヤー_1
 62
1
100
AcDbPolyline
 90
2
 70
0
 10
176.438870
 20
147.838734
 30
0.0
 10
176.360370
 20
148.735400
 30
0.0
  0
LWPOLYLINE
  5
142
100
AcDbEntity
  8
レイヤー_1
 62
1
100
AcDbPolyline
 90
2
 70
0
 10
177.225170
 20
138.850470
 30
0.0
 10
176.713340
 20
144.700318
 30
0.0
  0
LWPOLYLINE
  5
143
100
AcDbEntity
  8
レイヤー_1
 62
1
100
AcDbPolyline
 90
2
 70
0
 10
177.578150
 20
134.815359
 30
0.0
 10
177.499650
 20
135.712054
 30
0.0
  0
LWPOLYLINE
  5
144
100
AcDbEntity
  8
レイヤー_1
 62
1
100
AcDbPolyline
 90
2
 70
0
 10
191.498150
 20
136.033204
 30
0.0
 10
177.578070
 20
134.815356
 30
0.0
  0
LWPOLYLINE
  5
145
100
AcDbEntity
  8
レイヤー_1
 62
1
100
AcDbPolyline
 90
2
 70
0
 10
191.419690
 20
136.929896
 30
0.0
 10
191.498090
 20
136.033202
 30
0.0
  0
LWPOLYLINE
  5
146
100
AcDbEntity
  8
レイヤー_1
 62
1
100
AcDbPolyline
 90
2
 70
0
 10
190.633300
 20
145.918165
 30
0.0
 10
191.145040
 20
140.068305
 30
0.0
  0
LWPOLYLINE
  5
147
100
AcDbEntity
  8
レイヤー_1
 62
1
100
AcDbPolyline
 90
2
 70
0
 10
190.280260
 20
149.953239
 30
0.0
 10
190.358660
 20
149.056573
 30
0.0
  0
LWPOLYLINE
  5
148
100
AcDbEntity
  8
レイヤー_1
 62
1
100
AcDbPolyline
 90
2
 70
0
 10
158.413900
 20
135.292446
 30
0.0
 10
158.688450
 20
132.154028
 30
0.0
  0
LWPOLYLINE
  5
149
100
AcDbEntity
  8
レイヤー_1
 62
1
100
AcDbPolyline
 90
2
 70
0
 10
157.627550
 20
144.280684
 30
0.0
 10
157.902090
 20
141.142256
 30
0.0
  0
LWPOLYLINE
  5
14a
100
AcDbEntity
  8
レイヤー_1
 62
1
100
AcDbPolyline
 90
2
 70
0
 10
172.333910
 20
136.510284
 30
0.0
 10
172.608510
 20
133.371876
 30
0.0
  0
LWPOLYLINE
  5
14b
100
AcDbEntity
  8
レイヤー_1
 62
1
100
AcDbPolyline
 90
2
 70
0
 10
171.547560
 20
145.498523
 30
0.0
 10
171.822130
 20
142.360103
 30
0.0
  0
LWPOLYLINE
  5
14c
100
AcDbEntity
  8
レイヤー_1
 62
1
100
AcDbPolyline
 90
2
 70
0
 10
157.549090
 20
145.177375
 30
0.0
 10
171.469120
 20
146.395217
 30
0.0
  0
LWPOLYLINE
  5
14d
100
AcDbEntity
  8
レイヤー_1
 62
1
100
AcDbPolyline
 90
2
 70
0
 10
157.627550
 20
144.280684
 30
0.0
 10
157.549050
 20
145.177375
 30
0.0
  0
LWPOLYLINE
  5
14e
100
AcDbEntity
  8
レイヤー_1
 62
1
100
AcDbPolyline
 90
2
 70
0
 10
158.413890
 20
135.292449
 30
0.0
 10
157.902060
 20
141.142256
 30
0.0
  0
LWPOLYLINE
  5
14f
100
AcDbEntity
  8
レイヤー_1
 62
1
100
AcDbPolyline
 90
2
 70
0
 10
158.766870
 20
131.257337
 30
0.0
 10
158.688370
 20
132.154034
 30
0.0
  0
LWPOLYLINE
  5
150
100
AcDbEntity
  8
レイヤー_1
 62
1
100
AcDbPolyline
 90
2
 70
0
 10
172.686870
 20
132.475185
 30
0.0
 10
158.766790
 20
131.257337
 30
0.0
  0
LWPOLYLINE
  5
151
100
AcDbEntity
  8
レイヤー_1
 62
1
100
AcDbPolyline
 90
2
 70
0
 10
172.608410
 20
133.371876
 30
0.0
 10
172.686810
 20
132.475182
 30
0.0
  0
LWPOLYLINE
  5
152
100
AcDbEntity
  8
レイヤー_1
 62
1
100
AcDbPolyline
 90
2
 70
0
 10
171.821980
 20
142.360106
 30
0.0
 10
172.333770
 20
136.510292
 30
0.0
  0
LWPOLYLINE
  5
153
100
AcDbEntity
  8
レイヤー_1
 62
1
100
AcDbPolyline
 90
2
 70
0
 10
171.468930
 20
146.395219
 30
0.0
 10
171.547330
 20
145.498527
 30
0.0
  0
LWPOLYLINE
  5
154
100
AcDbEntity
  8
レイヤー_1
 62
1
100
AcDbPolyline
 90
2
 70
0
 10
173.994240
 20
117.532891
 30
0.0
 10
174.268820
 20
114.394478
 30
0.0
  0
LWPOLYLINE
  5
155
100
AcDbEntity
  8
レイヤー_1
 62
1
100
AcDbPolyline
 90
2
 70
0
 10
173.207870
 20
126.521152
 30
0.0
 10
173.482450
 20
123.382691
 30
0.0
  0
LWPOLYLINE
  5
156
100
AcDbEntity
  8
レイヤー_1
 62
1
100
AcDbPolyline
 90
2
 70
0
 10
160.074180
 20
116.315035
 30
0.0
 10
160.348790
 20
113.176627
 30
0.0
  0
LWPOLYLINE
  5
157
100
AcDbEntity
  8
レイヤー_1
 62
1
100
AcDbPolyline
 90
2
 70
0
 10
159.287800
 20
125.303307
 30
0.0
 10
159.562400
 20
122.164849
 30
0.0
  0
LWPOLYLINE
  5
158
100
AcDbEntity
  8
レイヤー_1
 62
1
100
AcDbPolyline
 90
3
 70
0
 10
159.287800
 20
125.303307
 30
0.0
 10
159.209400
 20
126.199980
 30
0.0
 10
173.129450
 20
127.417828
 30
0.0
  0
LWPOLYLINE
  5
159
100
AcDbEntity
  8
レイヤー_1
 62
1
100
AcDbPolyline
 90
2
 70
0
 10
160.074230
 20
116.315041
 30
0.0
 10
159.562420
 20
122.164843
 30
0.0
  0
LWPOLYLINE
  5
15a
100
AcDbEntity
  8
レイヤー_1
 62
1
100
AcDbPolyline
 90
2
 70
0
 10
160.427260
 20
112.279939
 30
0.0
 10
160.348860
 20
113.176627
 30
0.0
  0
LWPOLYLINE
  5
15b
100
AcDbEntity
  8
レイヤー_1
 62
1
100
AcDbPolyline
 90
2
 70
0
 10
174.347360
 20
113.497792
 30
0.0
 10
160.427290
 20
112.279941
 30
0.0
  0
LWPOLYLINE
  5
15c
100
AcDbEntity
  8
レイヤー_1
 62
1
100
AcDbPolyline
 90
2
 70
0
 10
174.268910
 20
114.394470
 30
0.0
 10
174.347410
 20
113.497787
 30
0.0
  0
LWPOLYLINE
  5
15d
100
AcDbEntity
  8
レイヤー_1
 62
1
100
AcDbPolyline
 90
2
 70
0
 10
173.482550
 20
123.382686
 30
0.0
 10
173.994330
 20
117.532883
 30
0.0
  0
LWPOLYLINE
  5
15e
100
AcDbEntity
  8
レイヤー_1
 62
1
100
AcDbPolyline
 90
2
 70
0
 10
173.129510
 20
127.417825
 30
0.0
 10
173.207910
 20
126.521147
 30
0.0
  0
LWPOLYLINE
  5
15f
100
AcDbEntity
  8
レイヤー_1
 62
1
100
AcDbPolyline
 90
2
 70
0
 10
192.805550
 20
121.090913
 30
0.0
 10
193.080160
 20
117.952513
 30
0.0
  0
LWPOLYLINE
  5
160
100
AcDbEntity
  8
レイヤー_1
 62
1
100
AcDbPolyline
 90
2
 70
0
 10
192.019200
 20
130.079184
 30
0.0
 10
192.293810
 20
126.940744
 30
0.0
  0
LWPOLYLINE
  5
161
100
AcDbEntity
  8
レイヤー_1
 62
1
100
AcDbPolyline
 90
2
 70
0
 10
178.885530
 20
119.873067
 30
0.0
 10
179.160090
 20
116.734662
 30
0.0
  0
LWPOLYLINE
  5
162
100
AcDbEntity
  8
レイヤー_1
 62
1
100
AcDbPolyline
 90
2
 70
0
 10
178.099150
 20
128.861344
 30
0.0
 10
178.373740
 20
125.722904
 30
0.0
  0
LWPOLYLINE
  5
163
100
AcDbEntity
  8
レイヤー_1
 62
1
100
AcDbPolyline
 90
2
 70
0
 10
178.020700
 20
129.758030
 30
0.0
 10
191.940760
 20
130.975878
 30
0.0
  0
LWPOLYLINE
  5
164
100
AcDbEntity
  8
レイヤー_1
 62
1
100
AcDbPolyline
 90
2
 70
0
 10
178.099150
 20
128.861344
 30
0.0
 10
178.020750
 20
129.758030
 30
0.0
  0
LWPOLYLINE
  5
165
100
AcDbEntity
  8
レイヤー_1
 62
1
100
AcDbPolyline
 90
2
 70
0
 10
178.885610
 20
119.873065
 30
0.0
 10
178.373800
 20
125.722897
 30
0.0
  0
LWPOLYLINE
  5
166
100
AcDbEntity
  8
レイヤー_1
 62
1
100
AcDbPolyline
 90
2
 70
0
 10
179.238630
 20
115.838000
 30
0.0
 10
179.160230
 20
116.734665
 30
0.0
  0
LWPOLYLINE
  5
167
100
AcDbEntity
  8
レイヤー_1
 62
1
100
AcDbPolyline
 90
2
 70
0
 10
193.158730
 20
117.055845
 30
0.0
 10
179.238700
 20
115.838000
 30
0.0
  0
LWPOLYLINE
  5
168
100
AcDbEntity
  8
レイヤー_1
 62
1
100
AcDbPolyline
 90
2
 70
0
 10
193.080300
 20
117.952510
 30
0.0
 10
193.158800
 20
117.055845
 30
0.0
  0
LWPOLYLINE
  5
169
100
AcDbEntity
  8
レイヤー_1
 62
1
100
AcDbPolyline
 90
2
 70
0
 10
192.293990
 20
126.940744
 30
0.0
 10
192.805720
 20
121.090905
 30
0.0
  0
LWPOLYLINE
  5
16a
100
AcDbEntity
  8
レイヤー_1
 62
1
100
AcDbPolyline
 90
2
 70
0
 10
191.940940
 20
130.975871
 30
0.0
 10
192.019340
 20
130.079187
 30
0.0
  0
LWPOLYLINE
  5
16b
100
AcDbEntity
  8
レイヤー_1
 62
1
100
AcDbPolyline
 90
2
 70
0
 10
211.616930
 20
124.648966
 30
0.0
 10
211.891480
 20
121.510563
 30
0.0
  0
LWPOLYLINE
  5
16c
100
AcDbEntity
  8
レイヤー_1
 62
1
100
AcDbPolyline
 90
2
 70
0
 10
210.830550
 20
133.637216
 30
0.0
 10
211.105110
 20
130.498816
 30
0.0
  0
LWPOLYLINE
  5
16d
100
AcDbEntity
  8
レイヤー_1
 62
1
100
AcDbPolyline
 90
2
 70
0
 10
197.696870
 20
123.431123
 30
0.0
 10
197.971450
 20
120.292718
 30
0.0
  0
LWPOLYLINE
  5
16e
100
AcDbEntity
  8
レイヤー_1
 62
1
100
AcDbPolyline
 90
2
 70
0
 10
196.910470
 20
132.419368
 30
0.0
 10
197.185110
 20
129.280963
 30
0.0
  0
LWPOLYLINE
  5
16f
100
AcDbEntity
  8
レイヤー_1
 62
1
100
AcDbPolyline
 90
2
 70
0
 10
196.832040
 20
133.316065
 30
0.0
 10
210.752120
 20
134.533910
 30
0.0
  0
LWPOLYLINE
  5
170
100
AcDbEntity
  8
レイヤー_1
 62
1
100
AcDbPolyline
 90
2
 70
0
 10
196.910470
 20
132.419368
 30
0.0
 10
196.832070
 20
133.316062
 30
0.0
  0
LWPOLYLINE
  5
171
100
AcDbEntity
  8
レイヤー_1
 62
1
100
AcDbPolyline
 90
2
 70
0
 10
197.696880
 20
123.431118
 30
0.0
 10
197.185130
 20
129.280966
 30
0.0
  0
LWPOLYLINE
  5
172
100
AcDbEntity
  8
レイヤー_1
 62
1
100
AcDbPolyline
 90
2
 70
0
 10
198.049970
 20
119.396026
 30
0.0
 10
197.971570
 20
120.292720
 30
0.0
  0
LWPOLYLINE
  5
173
100
AcDbEntity
  8
レイヤー_1
 62
1
100
AcDbPolyline
 90
2
 70
0
 10
211.970050
 20
120.613869
 30
0.0
 10
198.050050
 20
119.396026
 30
0.0
  0
LWPOLYLINE
  5
174
100
AcDbEntity
  8
レイヤー_1
 62
1
100
AcDbPolyline
 90
2
 70
0
 10
211.891620
 20
121.510568
 30
0.0
 10
211.970020
 20
120.613874
 30
0.0
  0
LWPOLYLINE
  5
175
100
AcDbEntity
  8
レイヤー_1
 62
1
100
AcDbPolyline
 90
2
 70
0
 10
211.105190
 20
130.498808
 30
0.0
 10
211.616980
 20
124.648966
 30
0.0
  0
LWPOLYLINE
  5
176
100
AcDbEntity
  8
レイヤー_1
 62
1
100
AcDbPolyline
 90
2
 70
0
 10
210.752160
 20
134.533906
 30
0.0
 10
210.830660
 20
133.637216
 30
0.0
  0
LWPOLYLINE
  5
177
100
AcDbEntity
  8
レイヤー_1
 62
1
100
AcDbPolyline
 90
2
 70
0
 10
230.760310
 20
124.411521
 30
0.0
 10
231.034890
 20
121.273118
 30
0.0
  0
LWPOLYLINE
  5
178
100
AcDbEntity
  8
レイヤー_1
 62
1
100
AcDbPolyline
 90
2
 70
0
 10
229.973990
 20
133.399803
 30
0.0
 10
230.248530
 20
130.261358
 30
0.0
  0
LWPOLYLINE
  5
179
100
AcDbEntity
  8
レイヤー_1
 62
1
100
AcDbPolyline
 90
2
 70
0
 10
216.840270
 20
123.193676
 30
0.0
 10
217.114870
 20
120.055275
 30
0.0
  0
LWPOLYLINE
  5
17a
100
AcDbEntity
  8
レイヤー_1
 62
1
100
AcDbPolyline
 90
2
 70
0
 10
216.053910
 20
132.181955
 30
0.0
 10
216.328500
 20
129.043510
 30
0.0
  0
LWPOLYLINE
  5
17b
100
AcDbEntity
  8
レイヤー_1
 62
1
100
AcDbPolyline
 90
2
 70
0
 10
215.975470
 20
133.078641
 30
0.0
 10
229.895520
 20
134.296486
 30
0.0
  0
LWPOLYLINE
  5
17c
100
AcDbEntity
  8
レイヤー_1
 62
1
100
AcDbPolyline
 90
2
 70
0
 10
216.053910
 20
132.181955
 30
0.0
 10
215.975410
 20
133.078639
 30
0.0
  0
LWPOLYLINE
  5
17d
100
AcDbEntity
  8
レイヤー_1
 62
1
100
AcDbPolyline
 90
2
 70
0
 10
216.840210
 20
123.193676
 30
0.0
 10
216.328450
 20
129.043513
 30
0.0
  0
LWPOLYLINE
  5
17e
100
AcDbEntity
  8
レイヤー_1
 62
1
100
AcDbPolyline
 90
2
 70
0
 10
217.193240
 20
119.158608
 30
0.0
 10
217.114840
 20
120.055275
 30
0.0
  0
LWPOLYLINE
  5
17f
100
AcDbEntity
  8
レイヤー_1
 62
1
100
AcDbPolyline
 90
2
 70
0
 10
231.113280
 20
120.376456
 30
0.0
 10
217.193260
 20
119.158608
 30
0.0
  0
LWPOLYLINE
  5
180
100
AcDbEntity
  8
レイヤー_1
 62
1
100
AcDbPolyline
 90
2
 70
0
 10
231.034860
 20
121.273118
 30
0.0
 10
231.113260
 20
120.376451
 30
0.0
  0
LWPOLYLINE
  5
181
100
AcDbEntity
  8
レイヤー_1
 62
1
100
AcDbPolyline
 90
2
 70
0
 10
230.248490
 20
130.261363
 30
0.0
 10
230.760280
 20
124.411524
 30
0.0
  0
LWPOLYLINE
  5
182
100
AcDbEntity
  8
レイヤー_1
 62
1
100
AcDbPolyline
 90
2
 70
0
 10
229.895480
 20
134.296486
 30
0.0
 10
229.973880
 20
133.399800
 30
0.0
  0
LWPOLYLINE
  5
183
100
AcDbEntity
  8
レイヤー_1
 62
1
100
AcDbPolyline
 90
2
 70
0
 10
218.500590
 20
104.216340
 30
0.0
 10
218.775140
 20
101.077920
 30
0.0
  0
LWPOLYLINE
  5
184
100
AcDbEntity
  8
レイヤー_1
 62
1
100
AcDbPolyline
 90
2
 70
0
 10
217.714230
 20
113.204546
 30
0.0
 10
217.988790
 20
110.066133
 30
0.0
  0
LWPOLYLINE
  5
185
100
AcDbEntity
  8
レイヤー_1
 62
1
100
AcDbPolyline
 90
2
 70
0
 10
232.420640
 20
105.434160
 30
0.0
 10
232.695220
 20
102.295780
 30
0.0
  0
LWPOLYLINE
  5
186
100
AcDbEntity
  8
レイヤー_1
 62
1
100
AcDbPolyline
 90
2
 70
0
 10
231.634260
 20
114.422399
 30
0.0
 10
231.908810
 20
111.283978
 30
0.0
  0
LWPOLYLINE
  5
187
100
AcDbEntity
  8
レイヤー_1
 62
1
100
AcDbPolyline
 90
2
 70
0
 10
217.635800
 20
114.101251
 30
0.0
 10
231.555810
 20
115.319096
 30
0.0
  0
LWPOLYLINE
  5
188
100
AcDbEntity
  8
レイヤー_1
 62
1
100
AcDbPolyline
 90
2
 70
0
 10
217.714230
 20
113.204546
 30
0.0
 10
217.635830
 20
114.101246
 30
0.0
  0
LWPOLYLINE
  5
189
100
AcDbEntity
  8
レイヤー_1
 62
1
100
AcDbPolyline
 90
2
 70
0
 10
218.500630
 20
104.216320
 30
0.0
 10
217.988820
 20
110.066146
 30
0.0
  0
LWPOLYLINE
  5
18a
100
AcDbEntity
  8
レイヤー_1
 62
1
100
AcDbPolyline
 90
2
 70
0
 10
218.853620
 20
100.181210
 30
0.0
 10
218.775220
 20
101.077920
 30
0.0
  0
LWPOLYLINE
  5
18b
100
AcDbEntity
  8
レイヤー_1
 62
1
100
AcDbPolyline
 90
2
 70
0
 10
232.773720
 20
101.399070
 30
0.0
 10
218.853670
 20
100.181230
 30
0.0
  0
LWPOLYLINE
  5
18c
100
AcDbEntity
  8
レイヤー_1
 62
1
100
AcDbPolyline
 90
2
 70
0
 10
232.695290
 20
102.295770
 30
0.0
 10
232.773790
 20
101.399070
 30
0.0
  0
LWPOLYLINE
  5
18d
100
AcDbEntity
  8
レイヤー_1
 62
1
100
AcDbPolyline
 90
2
 70
0
 10
231.908960
 20
111.283981
 30
0.0
 10
232.420810
 20
105.434180
 30
0.0
  0
LWPOLYLINE
  5
18e
100
AcDbEntity
  8
レイヤー_1
 62
1
100
AcDbPolyline
 90
2
 70
0
 10
231.555960
 20
115.319088
 30
0.0
 10
231.634360
 20
114.422399
 30
0.0
  0
LWPOLYLINE
  5
18f
100
AcDbEntity
  8
レイヤー_1
 62
1
100
AcDbPolyline
 90
2
 70
0
 10
199.357220
 20
104.453760
 30
0.0
 10
199.631740
 20
101.315340
 30
0.0
  0
LWPOLYLINE
  5
190
100
AcDbEntity
  8
レイヤー_1
 62
1
100
AcDbPolyline
 90
2
 70
0
 10
198.570830
 20
113.441983
 30
0.0
 10
198.845370
 20
110.303586
 30
0.0
  0
LWPOLYLINE
  5
191
100
AcDbEntity
  8
レイヤー_1
 62
1
100
AcDbPolyline
 90
2
 70
0
 10
213.277240
 20
105.671590
 30
0.0
 10
213.551810
 20
102.533180
 30
0.0
  0
LWPOLYLINE
  5
192
100
AcDbEntity
  8
レイヤー_1
 62
1
100
AcDbPolyline
 90
2
 70
0
 10
212.490860
 20
114.659837
 30
0.0
 10
212.765440
 20
111.521436
 30
0.0
  0
LWPOLYLINE
  5
193
100
AcDbEntity
  8
レイヤー_1
 62
1
100
AcDbPolyline
 90
2
 70
0
 10
198.492390
 20
114.338677
 30
0.0
 10
212.412400
 20
115.556520
 30
0.0
  0
LWPOLYLINE
  5
194
100
AcDbEntity
  8
レイヤー_1
 62
1
100
AcDbPolyline
 90
2
 70
0
 10
198.570830
 20
113.441983
 30
0.0
 10
198.492330
 20
114.338683
 30
0.0
  0
LWPOLYLINE
  5
195
100
AcDbEntity
  8
レイヤー_1
 62
1
100
AcDbPolyline
 90
2
 70
0
 10
199.357170
 20
104.453750
 30
0.0
 10
198.845320
 20
110.303583
 30
0.0
  0
LWPOLYLINE
  5
196
100
AcDbEntity
  8
レイヤー_1
 62
1
100
AcDbPolyline
 90
2
 70
0
 10
199.710150
 20
100.418630
 30
0.0
 10
199.631650
 20
101.315340
 30
0.0
  0
LWPOLYLINE
  5
197
100
AcDbEntity
  8
レイヤー_1
 62
1
100
AcDbPolyline
 90
2
 70
0
 10
213.630170
 20
101.636500
 30
0.0
 10
199.710130
 20
100.418660
 30
0.0
  0
LWPOLYLINE
  5
198
100
AcDbEntity
  8
レイヤー_1
 62
1
100
AcDbPolyline
 90
2
 70
0
 10
213.551730
 20
102.533200
 30
0.0
 10
213.630130
 20
101.636500
 30
0.0
  0
LWPOLYLINE
  5
199
100
AcDbEntity
  8
レイヤー_1
 62
1
100
AcDbPolyline
 90
2
 70
0
 10
212.765310
 20
111.521434
 30
0.0
 10
213.277100
 20
105.671600
 30
0.0
  0
LWPOLYLINE
  5
19a
100
AcDbEntity
  8
レイヤー_1
 62
1
100
AcDbPolyline
 90
2
 70
0
 10
212.412270
 20
115.556528
 30
0.0
 10
212.490670
 20
114.659831
 30
0.0
  0
LWPOLYLINE
  5
19b
100
AcDbEntity
  8
レイヤー_1
 62
1
100
AcDbPolyline
 90
2
 70
0
 10
180.545840
 20
100.895720
 30
0.0
 10
180.820410
 20
97.757340
 30
0.0
  0
LWPOLYLINE
  5
19c
100
AcDbEntity
  8
レイヤー_1
 62
1
100
AcDbPolyline
 90
2
 70
0
 10
179.759470
 20
109.883950
 30
0.0
 10
180.034070
 20
106.745520
 30
0.0
  0
LWPOLYLINE
  5
19d
100
AcDbEntity
  8
レイヤー_1
 62
1
100
AcDbPolyline
 90
2
 70
0
 10
194.465880
 20
102.113560
 30
0.0
 10
194.740450
 20
98.975170
 30
0.0
  0
LWPOLYLINE
  5
19e
100
AcDbEntity
  8
レイヤー_1
 62
1
100
AcDbPolyline
 90
2
 70
0
 10
193.679530
 20
111.101791
 30
0.0
 10
193.954060
 20
107.963400
 30
0.0
  0
LWPOLYLINE
  5
19f
100
AcDbEntity
  8
レイヤー_1
 62
1
100
AcDbPolyline
 90
2
 70
0
 10
179.681040
 20
110.780640
 30
0.0
 10
193.601060
 20
111.998485
 30
0.0
  0
LWPOLYLINE
  5
1a0
100
AcDbEntity
  8
レイヤー_1
 62
1
100
AcDbPolyline
 90
2
 70
0
 10
179.759470
 20
109.883950
 30
0.0
 10
179.680970
 20
110.780635
 30
0.0
  0
LWPOLYLINE
  5
1a1
100
AcDbEntity
  8
レイヤー_1
 62
1
100
AcDbPolyline
 90
2
 70
0
 10
180.545790
 20
100.895710
 30
0.0
 10
180.034000
 20
106.745530
 30
0.0
  0
LWPOLYLINE
  5
1a2
100
AcDbEntity
  8
レイヤー_1
 62
1
100
AcDbPolyline
 90
2
 70
0
 10
180.898770
 20
96.860610
 30
0.0
 10
180.820270
 20
97.757320
 30
0.0
  0
LWPOLYLINE
  5
1a3
100
AcDbEntity
  8
レイヤー_1
 62
1
100
AcDbPolyline
 90
2
 70
0
 10
194.818770
 20
98.078460
 30
0.0
 10
180.898720
 20
96.860610
 30
0.0
  0
LWPOLYLINE
  5
1a4
100
AcDbEntity
  8
レイヤー_1
 62
1
100
AcDbPolyline
 90
2
 70
0
 10
194.740340
 20
98.975160
 30
0.0
 10
194.818740
 20
98.078460
 30
0.0
  0
LWPOLYLINE
  5
1a5
100
AcDbEntity
  8
レイヤー_1
 62
1
100
AcDbPolyline
 90
2
 70
0
 10
193.953920
 20
107.963390
 30
0.0
 10
194.465720
 20
102.113560
 30
0.0
  0
LWPOLYLINE
  5
1a6
100
AcDbEntity
  8
レイヤー_1
 62
1
100
AcDbPolyline
 90
2
 70
0
 10
193.600910
 20
111.998483
 30
0.0
 10
193.679310
 20
111.101783
 30
0.0
  0
LWPOLYLINE
  5
1a7
100
AcDbEntity
  8
レイヤー_1
 62
1
100
AcDbPolyline
 90
2
 70
0
 10
161.734520
 20
97.337680
 30
0.0
 10
162.009080
 20
94.199260
 30
0.0
  0
LWPOLYLINE
  5
1a8
100
AcDbEntity
  8
レイヤー_1
 62
1
100
AcDbPolyline
 90
2
 70
0
 10
160.948150
 20
106.325890
 30
0.0
 10
161.222710
 20
103.187520
 30
0.0
  0
LWPOLYLINE
  5
1a9
100
AcDbEntity
  8
レイヤー_1
 62
1
100
AcDbPolyline
 90
2
 70
0
 10
175.654560
 20
98.555520
 30
0.0
 10
175.929100
 20
95.417120
 30
0.0
  0
LWPOLYLINE
  5
1aa
100
AcDbEntity
  8
レイヤー_1
 62
1
100
AcDbPolyline
 90
2
 70
0
 10
174.868200
 20
107.543750
 30
0.0
 10
175.142730
 20
104.405350
 30
0.0
  0
LWPOLYLINE
  5
1ab
100
AcDbEntity
  8
レイヤー_1
 62
1
100
AcDbPolyline
 90
2
 70
0
 10
160.869700
 20
107.222600
 30
0.0
 10
174.789730
 20
108.440440
 30
0.0
  0
LWPOLYLINE
  5
1ac
100
AcDbEntity
  8
レイヤー_1
 62
1
100
AcDbPolyline
 90
2
 70
0
 10
160.948150
 20
106.325890
 30
0.0
 10
160.869650
 20
107.222600
 30
0.0
  0
LWPOLYLINE
  5
1ad
100
AcDbEntity
  8
レイヤー_1
 62
1
100
AcDbPolyline
 90
2
 70
0
 10
161.734490
 20
97.337690
 30
0.0
 10
161.222660
 20
103.187510
 30
0.0
  0
LWPOLYLINE
  5
1ae
100
AcDbEntity
  8
レイヤー_1
 62
1
100
AcDbPolyline
 90
2
 70
0
 10
162.087480
 20
93.302570
 30
0.0
 10
162.009080
 20
94.199290
 30
0.0
  0
LWPOLYLINE
  5
1af
100
AcDbEntity
  8
レイヤー_1
 62
1
100
AcDbPolyline
 90
2
 70
0
 10
176.007560
 20
94.520390
 30
0.0
 10
162.087530
 20
93.302580
 30
0.0
  0
LWPOLYLINE
  5
1b0
100
AcDbEntity
  8
レイヤー_1
 62
1
100
AcDbPolyline
 90
2
 70
0
 10
175.929100
 20
95.417120
 30
0.0
 10
176.007500
 20
94.520430
 30
0.0
  0
LWPOLYLINE
  5
1b1
100
AcDbEntity
  8
レイヤー_1
 62
1
100
AcDbPolyline
 90
2
 70
0
 10
175.142670
 20
104.405360
 30
0.0
 10
175.654500
 20
98.555530
 30
0.0
  0
LWPOLYLINE
  5
1b2
100
AcDbEntity
  8
レイヤー_1
 62
1
100
AcDbPolyline
 90
2
 70
0
 10
174.789670
 20
108.440460
 30
0.0
 10
174.868070
 20
107.543760
 30
0.0
  0
LWPOLYLINE
  5
1b3
100
AcDbEntity
  8
レイヤー_1
 62
1
100
AcDbPolyline
 90
2
 70
0
 10
51.903453
 20
86.899310
 30
0.0
 10
51.628903
 20
83.760870
 30
0.0
  0
LWPOLYLINE
  5
1b4
100
AcDbEntity
  8
レイヤー_1
 62
1
100
AcDbPolyline
 90
2
 70
0
 10
52.689833
 20
95.887570
 30
0.0
 10
52.415273
 20
92.749120
 30
0.0
  0
LWPOLYLINE
  5
1b5
100
AcDbEntity
  8
レイヤー_1
 62
1
100
AcDbPolyline
 90
2
 70
0
 10
37.983412
 20
88.117170
 30
0.0
 10
37.708862
 20
84.978700
 30
0.0
  0
LWPOLYLINE
  5
1b6
100
AcDbEntity
  8
レイヤー_1
 62
1
100
AcDbPolyline
 90
2
 70
0
 10
38.769782
 20
97.105370
 30
0.0
 10
38.495202
 20
93.966990
 30
0.0
  0
LWPOLYLINE
  5
1b7
100
AcDbEntity
  8
レイヤー_1
 62
1
100
AcDbPolyline
 90
2
 70
0
 10
52.768273
 20
96.784230
 30
0.0
 10
38.848232
 20
98.002120
 30
0.0
  0
LWPOLYLINE
  5
1b8
100
AcDbEntity
  8
レイヤー_1
 62
1
100
AcDbPolyline
 90
2
 70
0
 10
52.689833
 20
95.887570
 30
0.0
 10
52.768233
 20
96.784240
 30
0.0
  0
LWPOLYLINE
  5
1b9
100
AcDbEntity
  8
レイヤー_1
 62
1
100
AcDbPolyline
 90
2
 70
0
 10
51.903413
 20
86.899300
 30
0.0
 10
52.415263
 20
92.749120
 30
0.0
  0
LWPOLYLINE
  5
1ba
100
AcDbEntity
  8
レイヤー_1
 62
1
100
AcDbPolyline
 90
2
 70
0
 10
51.550413
 20
82.864200
 30
0.0
 10
51.628913
 20
83.760860
 30
0.0
  0
LWPOLYLINE
  5
1bb
100
AcDbEntity
  8
レイヤー_1
 62
1
100
AcDbPolyline
 90
2
 70
0
 10
37.630442
 20
84.082080
 30
0.0
 10
51.550443
 20
82.864170
 30
0.0
  0
LWPOLYLINE
  5
1bc
100
AcDbEntity
  8
レイヤー_1
 62
1
100
AcDbPolyline
 90
2
 70
0
 10
37.708862
 20
84.978690
 30
0.0
 10
37.630362
 20
84.082000
 30
0.0
  0
LWPOLYLINE
  5
1bd
100
AcDbEntity
  8
レイヤー_1
 62
1
100
AcDbPolyline
 90
2
 70
0
 10
38.495182
 20
93.966960
 30
0.0
 10
37.983392
 20
88.117160
 30
0.0
  0
LWPOLYLINE
  5
1be
100
AcDbEntity
  8
レイヤー_1
 62
1
100
AcDbPolyline
 90
2
 70
0
 10
38.848202
 20
98.002090
 30
0.0
 10
38.769702
 20
97.105380
 30
0.0
  0
LWPOLYLINE
  5
1bf
100
AcDbEntity
  8
レイヤー_1
 62
1
100
AcDbPolyline
 90
2
 70
0
 10
53.563783
 20
105.876650
 30
0.0
 10
53.289173
 20
102.738240
 30
0.0
  0
LWPOLYLINE
  5
1c0
100
AcDbEntity
  8
レイヤー_1
 62
1
100
AcDbPolyline
 90
2
 70
0
 10
54.350173
 20
114.864920
 30
0.0
 10
54.075543
 20
111.726504
 30
0.0
  0
LWPOLYLINE
  5
1c1
100
AcDbEntity
  8
レイヤー_1
 62
1
100
AcDbPolyline
 90
2
 70
0
 10
39.643723
 20
107.094500
 30
0.0
 10
39.369133
 20
103.956100
 30
0.0
  0
LWPOLYLINE
  5
1c2
100
AcDbEntity
  8
レイヤー_1
 62
1
100
AcDbPolyline
 90
2
 70
0
 10
40.430123
 20
116.082760
 30
0.0
 10
40.155513
 20
112.944350
 30
0.0
  0
LWPOLYLINE
  5
1c3
100
AcDbEntity
  8
レイヤー_1
 62
1
100
AcDbPolyline
 90
2
 70
0
 10
54.428613
 20
115.761580
 30
0.0
 10
40.508573
 20
116.979428
 30
0.0
  0
LWPOLYLINE
  5
1c4
100
AcDbEntity
  8
レイヤー_1
 62
1
100
AcDbPolyline
 90
2
 70
0
 10
54.350173
 20
114.864920
 30
0.0
 10
54.428573
 20
115.761583
 30
0.0
  0
LWPOLYLINE
  5
1c5
100
AcDbEntity
  8
レイヤー_1
 62
1
100
AcDbPolyline
 90
2
 70
0
 10
53.563743
 20
105.876650
 30
0.0
 10
54.075503
 20
111.726510
 30
0.0
  0
LWPOLYLINE
  5
1c6
100
AcDbEntity
  8
レイヤー_1
 62
1
100
AcDbPolyline
 90
2
 70
0
 10
53.210683
 20
101.841560
 30
0.0
 10
53.289183
 20
102.738240
 30
0.0
  0
LWPOLYLINE
  5
1c7
100
AcDbEntity
  8
レイヤー_1
 62
1
100
AcDbPolyline
 90
2
 70
0
 10
39.290692
 20
103.059400
 30
0.0
 10
53.210733
 20
101.841550
 30
0.0
  0
LWPOLYLINE
  5
1c8
100
AcDbEntity
  8
レイヤー_1
 62
1
100
AcDbPolyline
 90
2
 70
0
 10
39.369143
 20
103.956100
 30
0.0
 10
39.290743
 20
103.059400
 30
0.0
  0
LWPOLYLINE
  5
1c9
100
AcDbEntity
  8
レイヤー_1
 62
1
100
AcDbPolyline
 90
2
 70
0
 10
40.155584
 20
112.944355
 30
0.0
 10
39.643803
 20
107.094500
 30
0.0
  0
LWPOLYLINE
  5
1ca
100
AcDbEntity
  8
レイヤー_1
 62
1
100
AcDbPolyline
 90
2
 70
0
 10
40.508654
 20
116.979433
 30
0.0
 10
40.430254
 20
116.082763
 30
0.0
  0
LWPOLYLINE
  5
1cb
100
AcDbEntity
  8
レイヤー_1
 62
1
100
AcDbPolyline
 90
2
 70
0
 10
55.224073
 20
124.854034
 30
0.0
 10
54.949503
 20
121.715623
 30
0.0
  0
LWPOLYLINE
  5
1cc
100
AcDbEntity
  8
レイヤー_1
 62
1
100
AcDbPolyline
 90
2
 70
0
 10
56.010413
 20
133.842276
 30
0.0
 10
55.735892
 20
130.703874
 30
0.0
  0
LWPOLYLINE
  5
1cd
100
AcDbEntity
  8
レイヤー_1
 62
1
100
AcDbPolyline
 90
2
 70
0
 10
41.304023
 20
126.071874
 30
0.0
 10
41.029493
 20
122.933474
 30
0.0
  0
LWPOLYLINE
  5
1ce
100
AcDbEntity
  8
レイヤー_1
 62
1
100
AcDbPolyline
 90
2
 70
0
 10
42.090413
 20
135.060124
 30
0.0
 10
41.815833
 20
131.921722
 30
0.0
  0
LWPOLYLINE
  5
1cf
100
AcDbEntity
  8
レイヤー_1
 62
1
100
AcDbPolyline
 90
2
 70
0
 10
56.088894
 20
134.738975
 30
0.0
 10
42.168843
 20
135.956822
 30
0.0
  0
LWPOLYLINE
  5
1d0
100
AcDbEntity
  8
レイヤー_1
 62
1
100
AcDbPolyline
 90
2
 70
0
 10
56.010413
 20
133.842276
 30
0.0
 10
56.088813
 20
134.738975
 30
0.0
  0
LWPOLYLINE
  5
1d1
100
AcDbEntity
  8
レイヤー_1
 62
1
100
AcDbPolyline
 90
2
 70
0
 10
55.223994
 20
124.854029
 30
0.0
 10
55.735824
 20
130.703871
 30
0.0
  0
LWPOLYLINE
  5
1d2
100
AcDbEntity
  8
レイヤー_1
 62
1
100
AcDbPolyline
 90
2
 70
0
 10
54.870964
 20
120.818932
 30
0.0
 10
54.949464
 20
121.715623
 30
0.0
  0
LWPOLYLINE
  5
1d3
100
AcDbEntity
  8
レイヤー_1
 62
1
100
AcDbPolyline
 90
2
 70
0
 10
40.950964
 20
122.036780
 30
0.0
 10
54.871014
 20
120.818934
 30
0.0
  0
LWPOLYLINE
  5
1d4
100
AcDbEntity
  8
レイヤー_1
 62
1
100
AcDbPolyline
 90
2
 70
0
 10
41.029454
 20
122.933476
 30
0.0
 10
40.950954
 20
122.036777
 30
0.0
  0
LWPOLYLINE
  5
1d5
100
AcDbEntity
  8
レイヤー_1
 62
1
100
AcDbPolyline
 90
2
 70
0
 10
41.815794
 20
131.921716
 30
0.0
 10
41.303974
 20
126.071874
 30
0.0
  0
LWPOLYLINE
  5
1d6
100
AcDbEntity
  8
レイヤー_1
 62
1
100
AcDbPolyline
 90
2
 70
0
 10
42.168814
 20
135.956816
 30
0.0
 10
42.090314
 20
135.060123
 30
0.0
  0
LWPOLYLINE
  5
1d7
100
AcDbEntity
  8
レイヤー_1
 62
1
100
AcDbPolyline
 90
2
 70
0
 10
75.862002
 20
142.171071
 30
0.0
 10
75.587423
 20
139.032665
 30
0.0
  0
LWPOLYLINE
  5
1d8
100
AcDbEntity
  8
レイヤー_1
 62
1
100
AcDbPolyline
 90
2
 70
0
 10
76.648352
 20
151.159340
 30
0.0
 10
76.373802
 20
148.020927
 30
0.0
  0
LWPOLYLINE
  5
1d9
100
AcDbEntity
  8
レイヤー_1
 62
1
100
AcDbPolyline
 90
2
 70
0
 10
61.941993
 20
143.388919
 30
0.0
 10
61.667363
 20
140.250509
 30
0.0
  0
LWPOLYLINE
  5
1da
100
AcDbEntity
  8
レイヤー_1
 62
1
100
AcDbPolyline
 90
2
 70
0
 10
62.728353
 20
152.377183
 30
0.0
 10
62.453753
 20
149.238776
 30
0.0
  0
LWPOLYLINE
  5
1db
100
AcDbEntity
  8
レイヤー_1
 62
1
100
AcDbPolyline
 90
2
 70
0
 10
76.726822
 20
152.056003
 30
0.0
 10
62.806794
 20
153.273851
 30
0.0
  0
LWPOLYLINE
  5
1dc
100
AcDbEntity
  8
レイヤー_1
 62
1
100
AcDbPolyline
 90
2
 70
0
 10
76.648352
 20
151.159340
 30
0.0
 10
76.726852
 20
152.056002
 30
0.0
  0
LWPOLYLINE
  5
1dd
100
AcDbEntity
  8
レイヤー_1
 62
1
100
AcDbPolyline
 90
2
 70
0
 10
75.862032
 20
142.171074
 30
0.0
 10
76.373842
 20
148.020932
 30
0.0
  0
LWPOLYLINE
  5
1de
100
AcDbEntity
  8
レイヤー_1
 62
1
100
AcDbPolyline
 90
2
 70
0
 10
75.509020
 20
138.135963
 30
0.0
 10
75.587520
 20
139.032664
 30
0.0
  0
LWPOLYLINE
  5
1df
100
AcDbEntity
  8
レイヤー_1
 62
1
100
AcDbPolyline
 90
2
 70
0
 10
61.589029
 20
139.353814
 30
0.0
 10
75.509079
 20
138.135972
 30
0.0
  0
LWPOLYLINE
  5
1e0
100
AcDbEntity
  8
レイヤー_1
 62
1
100
AcDbPolyline
 90
2
 70
0
 10
61.667464
 20
140.250510
 30
0.0
 10
61.589064
 20
139.353817
 30
0.0
  0
LWPOLYLINE
  5
1e1
100
AcDbEntity
  8
レイヤー_1
 62
1
100
AcDbPolyline
 90
2
 70
0
 10
62.453905
 20
149.238775
 30
0.0
 10
61.942114
 20
143.388917
 30
0.0
  0
LWPOLYLINE
  5
1e2
100
AcDbEntity
  8
レイヤー_1
 62
1
100
AcDbPolyline
 90
2
 70
0
 10
62.806905
 20
153.273851
 30
0.0
 10
62.728505
 20
152.377189
 30
0.0
  0
LWPOLYLINE
  5
1e3
100
AcDbEntity
  8
レイヤー_1
 62
1
100
AcDbPolyline
 90
2
 70
0
 10
95.005392
 20
142.408520
 30
0.0
 10
94.730842
 20
139.270077
 30
0.0
  0
LWPOLYLINE
  5
1e4
100
AcDbEntity
  8
レイヤー_1
 62
1
100
AcDbPolyline
 90
2
 70
0
 10
95.791792
 20
151.396757
 30
0.0
 10
95.517163
 20
148.258349
 30
0.0
  0
LWPOLYLINE
  5
1e5
100
AcDbEntity
  8
レイヤー_1
 62
1
100
AcDbPolyline
 90
2
 70
0
 10
81.085393
 20
143.626370
 30
0.0
 10
80.810782
 20
140.487926
 30
0.0
  0
LWPOLYLINE
  5
1e6
100
AcDbEntity
  8
レイヤー_1
 62
1
100
AcDbPolyline
 90
2
 70
0
 10
81.871754
 20
152.614601
 30
0.0
 10
81.597132
 20
149.476186
 30
0.0
  0
LWPOLYLINE
  5
1e7
100
AcDbEntity
  8
レイヤー_1
 62
1
100
AcDbPolyline
 90
2
 70
0
 10
95.870223
 20
152.293451
 30
0.0
 10
81.950203
 20
153.511291
 30
0.0
  0
LWPOLYLINE
  5
1e8
100
AcDbEntity
  8
レイヤー_1
 62
1
100
AcDbPolyline
 90
2
 70
0
 10
95.791792
 20
151.396757
 30
0.0
 10
95.870292
 20
152.293452
 30
0.0
  0
LWPOLYLINE
  5
1e9
100
AcDbEntity
  8
レイヤー_1
 62
1
100
AcDbPolyline
 90
2
 70
0
 10
95.005472
 20
142.408520
 30
0.0
 10
95.517261
 20
148.258345
 30
0.0
  0
LWPOLYLINE
  5
1ea
100
AcDbEntity
  8
レイヤー_1
 62
1
100
AcDbPolyline
 90
2
 70
0
 10
94.652431
 20
138.373411
 30
0.0
 10
94.730931
 20
139.270076
 30
0.0
  0
LWPOLYLINE
  5
1eb
100
AcDbEntity
  8
レイヤー_1
 62
1
100
AcDbPolyline
 90
2
 70
0
 10
80.732434
 20
139.591258
 30
0.0
 10
94.652454
 20
138.373411
 30
0.0
  0
LWPOLYLINE
  5
1ec
100
AcDbEntity
  8
レイヤー_1
 62
1
100
AcDbPolyline
 90
2
 70
0
 10
80.810883
 20
140.487926
 30
0.0
 10
80.732483
 20
139.591257
 30
0.0
  0
LWPOLYLINE
  5
1ed
100
AcDbEntity
  8
レイヤー_1
 62
1
100
AcDbPolyline
 90
2
 70
0
 10
81.597282
 20
149.476187
 30
0.0
 10
81.085522
 20
143.626362
 30
0.0
  0
LWPOLYLINE
  5
1ee
100
AcDbEntity
  8
レイヤー_1
 62
1
100
AcDbPolyline
 90
2
 70
0
 10
81.950342
 20
153.511294
 30
0.0
 10
81.871842
 20
152.614600
 30
0.0
  0
LWPOLYLINE
  5
1ef
100
AcDbEntity
  8
レイヤー_1
 62
1
100
AcDbPolyline
 90
2
 70
0
 10
113.816740
 20
138.850460
 30
0.0
 10
113.542220
 20
135.712044
 30
0.0
  0
LWPOLYLINE
  5
1f0
100
AcDbEntity
  8
レイヤー_1
 62
1
100
AcDbPolyline
 90
2
 70
0
 10
114.603110
 20
147.838726
 30
0.0
 10
114.328550
 20
144.700316
 30
0.0
  0
LWPOLYLINE
  5
1f1
100
AcDbEntity
  8
レイヤー_1
 62
1
100
AcDbPolyline
 90
2
 70
0
 10
99.896745
 20
140.068305
 30
0.0
 10
99.622112
 20
136.929890
 30
0.0
  0
LWPOLYLINE
  5
1f2
100
AcDbEntity
  8
レイヤー_1
 62
1
100
AcDbPolyline
 90
2
 70
0
 10
100.683090
 20
149.056569
 30
0.0
 10
100.408510
 20
145.918160
 30
0.0
  0
LWPOLYLINE
  5
1f3
100
AcDbEntity
  8
レイヤー_1
 62
1
100
AcDbPolyline
 90
2
 70
0
 10
114.681550
 20
148.735390
 30
0.0
 10
100.761530
 20
149.953232
 30
0.0
  0
LWPOLYLINE
  5
1f4
100
AcDbEntity
  8
レイヤー_1
 62
1
100
AcDbPolyline
 90
2
 70
0
 10
114.603110
 20
147.838726
 30
0.0
 10
114.681610
 20
148.735392
 30
0.0
  0
LWPOLYLINE
  5
1f5
100
AcDbEntity
  8
レイヤー_1
 62
1
100
AcDbPolyline
 90
2
 70
0
 10
113.816810
 20
138.850461
 30
0.0
 10
114.328630
 20
144.700311
 30
0.0
  0
LWPOLYLINE
  5
1f6
100
AcDbEntity
  8
レイヤー_1
 62
1
100
AcDbPolyline
 90
2
 70
0
 10
113.463810
 20
134.815350
 30
0.0
 10
113.542310
 20
135.712047
 30
0.0
  0
LWPOLYLINE
  5
1f7
100
AcDbEntity
  8
レイヤー_1
 62
1
100
AcDbPolyline
 90
2
 70
0
 10
99.543815
 20
136.033197
 30
0.0
 10
113.463870
 20
134.815347
 30
0.0
  0
LWPOLYLINE
  5
1f8
100
AcDbEntity
  8
レイヤー_1
 62
1
100
AcDbPolyline
 90
2
 70
0
 10
99.622254
 20
136.929888
 30
0.0
 10
99.543854
 20
136.033196
 30
0.0
  0
LWPOLYLINE
  5
1f9
100
AcDbEntity
  8
レイヤー_1
 62
1
100
AcDbPolyline
 90
2
 70
0
 10
100.408660
 20
145.918157
 30
0.0
 10
99.896903
 20
140.068298
 30
0.0
  0
LWPOLYLINE
  5
1fa
100
AcDbEntity
  8
レイヤー_1
 62
1
100
AcDbPolyline
 90
2
 70
0
 10
100.761680
 20
149.953231
 30
0.0
 10
100.683280
 20
149.056565
 30
0.0
  0
LWPOLYLINE
  5
1fb
100
AcDbEntity
  8
レイヤー_1
 62
1
100
AcDbPolyline
 90
2
 70
0
 10
132.628080
 20
135.292443
 30
0.0
 10
132.353510
 20
132.154026
 30
0.0
  0
LWPOLYLINE
  5
1fc
100
AcDbEntity
  8
レイヤー_1
 62
1
100
AcDbPolyline
 90
2
 70
0
 10
133.414430
 20
144.280680
 30
0.0
 10
133.139890
 20
141.142253
 30
0.0
  0
LWPOLYLINE
  5
1fd
100
AcDbEntity
  8
レイヤー_1
 62
1
100
AcDbPolyline
 90
2
 70
0
 10
118.708050
 20
136.510281
 30
0.0
 10
118.433470
 20
133.371874
 30
0.0
  0
LWPOLYLINE
  5
1fe
100
AcDbEntity
  8
レイヤー_1
 62
1
100
AcDbPolyline
 90
2
 70
0
 10
119.494440
 20
145.498521
 30
0.0
 10
119.219830
 20
142.360100
 30
0.0
  0
LWPOLYLINE
  5
1ff
100
AcDbEntity
  8
レイヤー_1
 62
1
100
AcDbPolyline
 90
2
 70
0
 10
133.492910
 20
145.177373
 30
0.0
 10
119.572860
 20
146.395215
 30
0.0
  0
LWPOLYLINE
  5
200
100
AcDbEntity
  8
レイヤー_1
 62
1
100
AcDbPolyline
 90
2
 70
0
 10
133.414430
 20
144.280680
 30
0.0
 10
133.492930
 20
145.177371
 30
0.0
  0
LWPOLYLINE
  5
201
100
AcDbEntity
  8
レイヤー_1
 62
1
100
AcDbPolyline
 90
2
 70
0
 10
132.628060
 20
135.292446
 30
0.0
 10
133.139890
 20
141.142254
 30
0.0
  0
LWPOLYLINE
  5
202
100
AcDbEntity
  8
レイヤー_1
 62
1
100
AcDbPolyline
 90
2
 70
0
 10
132.275060
 20
131.257334
 30
0.0
 10
132.353560
 20
132.154031
 30
0.0
  0
LWPOLYLINE
  5
203
100
AcDbEntity
  8
レイヤー_1
 62
1
100
AcDbPolyline
 90
2
 70
0
 10
118.355070
 20
132.475182
 30
0.0
 10
132.275150
 20
131.257334
 30
0.0
  0
LWPOLYLINE
  5
204
100
AcDbEntity
  8
レイヤー_1
 62
1
100
AcDbPolyline
 90
2
 70
0
 10
118.433550
 20
133.371876
 30
0.0
 10
118.355150
 20
132.475180
 30
0.0
  0
LWPOLYLINE
  5
205
100
AcDbEntity
  8
レイヤー_1
 62
1
100
AcDbPolyline
 90
2
 70
0
 10
119.219980
 20
142.360104
 30
0.0
 10
118.708180
 20
136.510287
 30
0.0
  0
LWPOLYLINE
  5
206
100
AcDbEntity
  8
レイヤー_1
 62
1
100
AcDbPolyline
 90
2
 70
0
 10
119.573050
 20
146.395215
 30
0.0
 10
119.494650
 20
145.498525
 30
0.0
  0
LWPOLYLINE
  5
207
100
AcDbEntity
  8
レイヤー_1
 62
1
100
AcDbPolyline
 90
2
 70
0
 10
117.047720
 20
117.532889
 30
0.0
 10
116.773180
 20
114.394475
 30
0.0
  0
LWPOLYLINE
  5
208
100
AcDbEntity
  8
レイヤー_1
 62
1
100
AcDbPolyline
 90
2
 70
0
 10
117.834110
 20
126.521150
 30
0.0
 10
117.559530
 20
123.382689
 30
0.0
  0
LWPOLYLINE
  5
209
100
AcDbEntity
  8
レイヤー_1
 62
1
100
AcDbPolyline
 90
2
 70
0
 10
130.967800
 20
116.315033
 30
0.0
 10
130.693170
 20
113.176625
 30
0.0
  0
LWPOLYLINE
  5
20a
100
AcDbEntity
  8
レイヤー_1
 62
1
100
AcDbPolyline
 90
2
 70
0
 10
131.754180
 20
125.303304
 30
0.0
 10
131.479580
 20
122.164846
 30
0.0
  0
LWPOLYLINE
  5
20b
100
AcDbEntity
  8
レイヤー_1
 62
1
100
AcDbPolyline
 90
3
 70
0
 10
131.754180
 20
125.303304
 30
0.0
 10
131.832580
 20
126.199977
 30
0.0
 10
117.912520
 20
127.417825
 30
0.0
  0
LWPOLYLINE
  5
20c
100
AcDbEntity
  8
レイヤー_1
 62
1
100
AcDbPolyline
 90
2
 70
0
 10
130.967740
 20
116.315041
 30
0.0
 10
131.479540
 20
122.164841
 30
0.0
  0
LWPOLYLINE
  5
20d
100
AcDbEntity
  8
レイヤー_1
 62
1
100
AcDbPolyline
 90
2
 70
0
 10
130.614700
 20
112.279936
 30
0.0
 10
130.693100
 20
113.176622
 30
0.0
  0
LWPOLYLINE
  5
20e
100
AcDbEntity
  8
レイヤー_1
 62
1
100
AcDbPolyline
 90
2
 70
0
 10
116.694620
 20
113.497787
 30
0.0
 10
130.614660
 20
112.279939
 30
0.0
  0
LWPOLYLINE
  5
20f
100
AcDbEntity
  8
レイヤー_1
 62
1
100
AcDbPolyline
 90
2
 70
0
 10
116.773070
 20
114.394467
 30
0.0
 10
116.694570
 20
113.497781
 30
0.0
  0
LWPOLYLINE
  5
210
100
AcDbEntity
  8
レイヤー_1
 62
1
100
AcDbPolyline
 90
2
 70
0
 10
117.559430
 20
123.382683
 30
0.0
 10
117.047630
 20
117.532881
 30
0.0
  0
LWPOLYLINE
  5
211
100
AcDbEntity
  8
レイヤー_1
 62
1
100
AcDbPolyline
 90
2
 70
0
 10
117.912450
 20
127.417825
 30
0.0
 10
117.834050
 20
126.521147
 30
0.0
  0
LWPOLYLINE
  5
212
100
AcDbEntity
  8
レイヤー_1
 62
1
100
AcDbPolyline
 90
2
 70
0
 10
98.236434
 20
121.090910
 30
0.0
 10
97.961823
 20
117.952510
 30
0.0
  0
LWPOLYLINE
  5
213
100
AcDbEntity
  8
レイヤー_1
 62
1
100
AcDbPolyline
 90
2
 70
0
 10
99.022762
 20
130.079184
 30
0.0
 10
98.748194
 20
126.940742
 30
0.0
  0
LWPOLYLINE
  5
214
100
AcDbEntity
  8
レイヤー_1
 62
1
100
AcDbPolyline
 90
2
 70
0
 10
112.156430
 20
119.873062
 30
0.0
 10
111.881890
 20
116.734659
 30
0.0
  0
LWPOLYLINE
  5
215
100
AcDbEntity
  8
レイヤー_1
 62
1
100
AcDbPolyline
 90
2
 70
0
 10
112.942810
 20
128.861339
 30
0.0
 10
112.668220
 20
125.722899
 30
0.0
  0
LWPOLYLINE
  5
216
100
AcDbEntity
  8
レイヤー_1
 62
1
100
AcDbPolyline
 90
2
 70
0
 10
113.021260
 20
129.758025
 30
0.0
 10
99.101224
 20
130.975876
 30
0.0
  0
LWPOLYLINE
  5
217
100
AcDbEntity
  8
レイヤー_1
 62
1
100
AcDbPolyline
 90
2
 70
0
 10
112.942810
 20
128.861339
 30
0.0
 10
113.021210
 20
129.758028
 30
0.0
  0
LWPOLYLINE
  5
218
100
AcDbEntity
  8
レイヤー_1
 62
1
100
AcDbPolyline
 90
2
 70
0
 10
112.156370
 20
119.873060
 30
0.0
 10
112.668150
 20
125.722894
 30
0.0
  0
LWPOLYLINE
  5
219
100
AcDbEntity
  8
レイヤー_1
 62
1
100
AcDbPolyline
 90
2
 70
0
 10
111.803370
 20
115.837997
 30
0.0
 10
111.881770
 20
116.734665
 30
0.0
  0
LWPOLYLINE
  5
21a
100
AcDbEntity
  8
レイヤー_1
 62
1
100
AcDbPolyline
 90
2
 70
0
 10
97.883294
 20
117.055842
 30
0.0
 10
111.803340
 20
115.837997
 30
0.0
  0
LWPOLYLINE
  5
21b
100
AcDbEntity
  8
レイヤー_1
 62
1
100
AcDbPolyline
 90
2
 70
0
 10
97.961722
 20
117.952507
 30
0.0
 10
97.883222
 20
117.055842
 30
0.0
  0
LWPOLYLINE
  5
21c
100
AcDbEntity
  8
レイヤー_1
 62
1
100
AcDbPolyline
 90
2
 70
0
 10
98.748052
 20
126.940742
 30
0.0
 10
98.236303
 20
121.090905
 30
0.0
  0
LWPOLYLINE
  5
21d
100
AcDbEntity
  8
レイヤー_1
 62
1
100
AcDbPolyline
 90
2
 70
0
 10
99.101083
 20
130.975871
 30
0.0
 10
99.022683
 20
130.079184
 30
0.0
  0
LWPOLYLINE
  5
21e
100
AcDbEntity
  8
レイヤー_1
 62
1
100
AcDbPolyline
 90
2
 70
0
 10
79.425032
 20
124.648963
 30
0.0
 10
79.150514
 20
121.510561
 30
0.0
  0
LWPOLYLINE
  5
21f
100
AcDbEntity
  8
レイヤー_1
 62
1
100
AcDbPolyline
 90
2
 70
0
 10
80.211432
 20
133.637214
 30
0.0
 10
79.936842
 20
130.498814
 30
0.0
  0
LWPOLYLINE
  5
220
100
AcDbEntity
  8
レイヤー_1
 62
1
100
AcDbPolyline
 90
2
 70
0
 10
93.345092
 20
123.431121
 30
0.0
 10
93.070553
 20
120.292715
 30
0.0
  0
LWPOLYLINE
  5
221
100
AcDbEntity
  8
レイヤー_1
 62
1
100
AcDbPolyline
 90
2
 70
0
 10
94.131513
 20
132.419366
 30
0.0
 10
93.856873
 20
129.280960
 30
0.0
  0
LWPOLYLINE
  5
222
100
AcDbEntity
  8
レイヤー_1
 62
1
100
AcDbPolyline
 90
2
 70
0
 10
94.209923
 20
133.316062
 30
0.0
 10
80.289844
 20
134.533908
 30
0.0
  0
LWPOLYLINE
  5
223
100
AcDbEntity
  8
レイヤー_1
 62
1
100
AcDbPolyline
 90
2
 70
0
 10
94.131513
 20
132.419366
 30
0.0
 10
94.209913
 20
133.316060
 30
0.0
  0
LWPOLYLINE
  5
224
100
AcDbEntity
  8
レイヤー_1
 62
1
100
AcDbPolyline
 90
2
 70
0
 10
93.345093
 20
123.431115
 30
0.0
 10
93.856864
 20
129.280963
 30
0.0
  0
LWPOLYLINE
  5
225
100
AcDbEntity
  8
レイヤー_1
 62
1
100
AcDbPolyline
 90
2
 70
0
 10
92.992033
 20
119.396021
 30
0.0
 10
93.070433
 20
120.292715
 30
0.0
  0
LWPOLYLINE
  5
226
100
AcDbEntity
  8
レイヤー_1
 62
1
100
AcDbPolyline
 90
2
 70
0
 10
79.071954
 20
120.613866
 30
0.0
 10
92.991934
 20
119.396021
 30
0.0
  0
LWPOLYLINE
  5
227
100
AcDbEntity
  8
レイヤー_1
 62
1
100
AcDbPolyline
 90
2
 70
0
 10
79.150363
 20
121.510566
 30
0.0
 10
79.071963
 20
120.613872
 30
0.0
  0
LWPOLYLINE
  5
228
100
AcDbEntity
  8
レイヤー_1
 62
1
100
AcDbPolyline
 90
2
 70
0
 10
79.936764
 20
130.498806
 30
0.0
 10
79.424954
 20
124.648963
 30
0.0
  0
LWPOLYLINE
  5
229
100
AcDbEntity
  8
レイヤー_1
 62
1
100
AcDbPolyline
 90
2
 70
0
 10
80.289774
 20
134.533903
 30
0.0
 10
80.211274
 20
133.637214
 30
0.0
  0
LWPOLYLINE
  5
22a
100
AcDbEntity
  8
レイヤー_1
 62
1
100
AcDbPolyline
 90
2
 70
0
 10
60.281672
 20
124.411518
 30
0.0
 10
60.007092
 20
121.273113
 30
0.0
  0
LWPOLYLINE
  5
22b
100
AcDbEntity
  8
レイヤー_1
 62
1
100
AcDbPolyline
 90
2
 70
0
 10
61.067992
 20
133.399800
 30
0.0
 10
60.793452
 20
130.261355
 30
0.0
  0
LWPOLYLINE
  5
22c
100
AcDbEntity
  8
レイヤー_1
 62
1
100
AcDbPolyline
 90
2
 70
0
 10
74.201692
 20
123.193670
 30
0.0
 10
73.927134
 20
120.055270
 30
0.0
  0
LWPOLYLINE
  5
22d
100
AcDbEntity
  8
レイヤー_1
 62
1
100
AcDbPolyline
 90
2
 70
0
 10
74.988052
 20
132.181952
 30
0.0
 10
74.713462
 20
129.043507
 30
0.0
  0
LWPOLYLINE
  5
22e
100
AcDbEntity
  8
レイヤー_1
 62
1
100
AcDbPolyline
 90
2
 70
0
 10
75.066482
 20
133.078639
 30
0.0
 10
61.146483
 20
134.296483
 30
0.0
  0
LWPOLYLINE
  5
22f
100
AcDbEntity
  8
レイヤー_1
 62
1
100
AcDbPolyline
 90
2
 70
0
 10
74.988052
 20
132.181952
 30
0.0
 10
75.066552
 20
133.078633
 30
0.0
  0
LWPOLYLINE
  5
230
100
AcDbEntity
  8
レイヤー_1
 62
1
100
AcDbPolyline
 90
2
 70
0
 10
74.201751
 20
123.193673
 30
0.0
 10
74.713532
 20
129.043510
 30
0.0
  0
LWPOLYLINE
  5
231
100
AcDbEntity
  8
レイヤー_1
 62
1
100
AcDbPolyline
 90
2
 70
0
 10
73.848762
 20
119.158605
 30
0.0
 10
73.927162
 20
120.055273
 30
0.0
  0
LWPOLYLINE
  5
232
100
AcDbEntity
  8
レイヤー_1
 62
1
100
AcDbPolyline
 90
2
 70
0
 10
59.928682
 20
120.376456
 30
0.0
 10
73.848742
 20
119.158605
 30
0.0
  0
LWPOLYLINE
  5
233
100
AcDbEntity
  8
レイヤー_1
 62
1
100
AcDbPolyline
 90
2
 70
0
 10
60.007123
 20
121.273115
 30
0.0
 10
59.928723
 20
120.376448
 30
0.0
  0
LWPOLYLINE
  5
234
100
AcDbEntity
  8
レイヤー_1
 62
1
100
AcDbPolyline
 90
2
 70
0
 10
60.793492
 20
130.261358
 30
0.0
 10
60.281703
 20
124.411521
 30
0.0
  0
LWPOLYLINE
  5
235
100
AcDbEntity
  8
レイヤー_1
 62
1
100
AcDbPolyline
 90
2
 70
0
 10
61.146523
 20
134.296484
 30
0.0
 10
61.068123
 20
133.399798
 30
0.0
  0
LWPOLYLINE
  5
236
100
AcDbEntity
  8
レイヤー_1
 62
1
100
AcDbPolyline
 90
2
 70
0
 10
72.541402
 20
104.216320
 30
0.0
 10
72.266812
 20
101.077920
 30
0.0
  0
LWPOLYLINE
  5
237
100
AcDbEntity
  8
レイヤー_1
 62
1
100
AcDbPolyline
 90
2
 70
0
 10
73.327762
 20
113.204549
 30
0.0
 10
73.053173
 20
110.066135
 30
0.0
  0
LWPOLYLINE
  5
238
100
AcDbEntity
  8
レイヤー_1
 62
1
100
AcDbPolyline
 90
2
 70
0
 10
58.621364
 20
105.434160
 30
0.0
 10
58.346763
 20
102.295780
 30
0.0
  0
LWPOLYLINE
  5
239
100
AcDbEntity
  8
レイヤー_1
 62
1
100
AcDbPolyline
 90
2
 70
0
 10
59.407724
 20
114.422394
 30
0.0
 10
59.133174
 20
111.283981
 30
0.0
  0
LWPOLYLINE
  5
23a
100
AcDbEntity
  8
レイヤー_1
 62
1
100
AcDbPolyline
 90
2
 70
0
 10
73.406182
 20
114.101248
 30
0.0
 10
59.486194
 20
115.319091
 30
0.0
  0
LWPOLYLINE
  5
23b
100
AcDbEntity
  8
レイヤー_1
 62
1
100
AcDbPolyline
 90
2
 70
0
 10
73.327762
 20
113.204549
 30
0.0
 10
73.406162
 20
114.101243
 30
0.0
  0
LWPOLYLINE
  5
23c
100
AcDbEntity
  8
レイヤー_1
 62
1
100
AcDbPolyline
 90
2
 70
0
 10
72.541382
 20
104.216320
 30
0.0
 10
73.053152
 20
110.066146
 30
0.0
  0
LWPOLYLINE
  5
23d
100
AcDbEntity
  8
レイヤー_1
 62
1
100
AcDbPolyline
 90
2
 70
0
 10
72.188372
 20
100.181210
 30
0.0
 10
72.266772
 20
101.077940
 30
0.0
  0
LWPOLYLINE
  5
23e
100
AcDbEntity
  8
レイヤー_1
 62
1
100
AcDbPolyline
 90
2
 70
0
 10
58.268292
 20
101.399070
 30
0.0
 10
72.188341
 20
100.181220
 30
0.0
  0
LWPOLYLINE
  5
23f
100
AcDbEntity
  8
レイヤー_1
 62
1
100
AcDbPolyline
 90
2
 70
0
 10
58.346701
 20
102.295780
 30
0.0
 10
58.268201
 20
101.399070
 30
0.0
  0
LWPOLYLINE
  5
240
100
AcDbEntity
  8
レイヤー_1
 62
1
100
AcDbPolyline
 90
2
 70
0
 10
59.133050
 20
111.283986
 30
0.0
 10
58.621221
 20
105.434160
 30
0.0
  0
LWPOLYLINE
  5
241
100
AcDbEntity
  8
レイヤー_1
 62
1
100
AcDbPolyline
 90
2
 70
0
 10
59.486070
 20
115.319091
 30
0.0
 10
59.407670
 20
114.422397
 30
0.0
  0
LWPOLYLINE
  5
242
100
AcDbEntity
  8
レイヤー_1
 62
1
100
AcDbPolyline
 90
2
 70
0
 10
91.684763
 20
104.453740
 30
0.0
 10
91.410242
 20
101.315340
 30
0.0
  0
LWPOLYLINE
  5
243
100
AcDbEntity
  8
レイヤー_1
 62
1
100
AcDbPolyline
 90
2
 70
0
 10
92.471174
 20
113.441986
 30
0.0
 10
92.196594
 20
110.303586
 30
0.0
  0
LWPOLYLINE
  5
244
100
AcDbEntity
  8
レイヤー_1
 62
1
100
AcDbPolyline
 90
2
 70
0
 10
77.764732
 20
105.671590
 30
0.0
 10
77.490174
 20
102.533180
 30
0.0
  0
LWPOLYLINE
  5
245
100
AcDbEntity
  8
レイヤー_1
 62
1
100
AcDbPolyline
 90
2
 70
0
 10
78.551132
 20
114.659834
 30
0.0
 10
78.276524
 20
111.521434
 30
0.0
  0
LWPOLYLINE
  5
246
100
AcDbEntity
  8
レイヤー_1
 62
1
100
AcDbPolyline
 90
2
 70
0
 10
92.549593
 20
114.338680
 30
0.0
 10
78.629584
 20
115.556523
 30
0.0
  0
LWPOLYLINE
  5
247
100
AcDbEntity
  8
レイヤー_1
 62
1
100
AcDbPolyline
 90
2
 70
0
 10
92.471174
 20
113.441986
 30
0.0
 10
92.549674
 20
114.338680
 30
0.0
  0
LWPOLYLINE
  5
248
100
AcDbEntity
  8
レイヤー_1
 62
1
100
AcDbPolyline
 90
2
 70
0
 10
91.684833
 20
104.453750
 30
0.0
 10
92.196664
 20
110.303583
 30
0.0
  0
LWPOLYLINE
  5
249
100
AcDbEntity
  8
レイヤー_1
 62
1
100
AcDbPolyline
 90
2
 70
0
 10
91.331834
 20
100.418660
 30
0.0
 10
91.410334
 20
101.315340
 30
0.0
  0
LWPOLYLINE
  5
24a
100
AcDbEntity
  8
レイヤー_1
 62
1
100
AcDbPolyline
 90
2
 70
0
 10
77.411815
 20
101.636490
 30
0.0
 10
91.331824
 20
100.418660
 30
0.0
  0
LWPOLYLINE
  5
24b
100
AcDbEntity
  8
レイヤー_1
 62
1
100
AcDbPolyline
 90
2
 70
0
 10
77.490245
 20
102.533200
 30
0.0
 10
77.411845
 20
101.636520
 30
0.0
  0
LWPOLYLINE
  5
24c
100
AcDbEntity
  8
レイヤー_1
 62
1
100
AcDbPolyline
 90
2
 70
0
 10
78.276644
 20
111.521428
 30
0.0
 10
77.764874
 20
105.671580
 30
0.0
  0
LWPOLYLINE
  5
24d
100
AcDbEntity
  8
レイヤー_1
 62
1
100
AcDbPolyline
 90
2
 70
0
 10
78.629683
 20
115.556525
 30
0.0
 10
78.551283
 20
114.659829
 30
0.0
  0
LWPOLYLINE
  5
24e
100
AcDbEntity
  8
レイヤー_1
 62
1
100
AcDbPolyline
 90
2
 70
0
 10
110.496150
 20
100.895700
 30
0.0
 10
110.221550
 20
97.757320
 30
0.0
  0
LWPOLYLINE
  5
24f
100
AcDbEntity
  8
レイヤー_1
 62
1
100
AcDbPolyline
 90
2
 70
0
 10
111.282490
 20
109.883940
 30
0.0
 10
111.007910
 20
106.745530
 30
0.0
  0
LWPOLYLINE
  5
250
100
AcDbEntity
  8
レイヤー_1
 62
1
100
AcDbPolyline
 90
2
 70
0
 10
96.576113
 20
102.113580
 30
0.0
 10
96.301512
 20
98.975170
 30
0.0
  0
LWPOLYLINE
  5
251
100
AcDbEntity
  8
レイヤー_1
 62
1
100
AcDbPolyline
 90
2
 70
0
 10
97.362454
 20
111.101786
 30
0.0
 10
97.087923
 20
107.963390
 30
0.0
  0
LWPOLYLINE
  5
252
100
AcDbEntity
  8
レイヤー_1
 62
1
100
AcDbPolyline
 90
2
 70
0
 10
111.360940
 20
110.780635
 30
0.0
 10
97.440932
 20
111.998480
 30
0.0
  0
LWPOLYLINE
  5
253
100
AcDbEntity
  8
レイヤー_1
 62
1
100
AcDbPolyline
 90
2
 70
0
 10
111.282490
 20
109.883940
 30
0.0
 10
111.360990
 20
110.780632
 30
0.0
  0
LWPOLYLINE
  5
254
100
AcDbEntity
  8
レイヤー_1
 62
1
100
AcDbPolyline
 90
2
 70
0
 10
110.496190
 20
100.895730
 30
0.0
 10
111.007960
 20
106.745520
 30
0.0
  0
LWPOLYLINE
  5
255
100
AcDbEntity
  8
レイヤー_1
 62
1
100
AcDbPolyline
 90
2
 70
0
 10
110.143190
 20
96.860620
 30
0.0
 10
110.221690
 20
97.757300
 30
0.0
  0
LWPOLYLINE
  5
256
100
AcDbEntity
  8
レイヤー_1
 62
1
100
AcDbPolyline
 90
2
 70
0
 10
96.223215
 20
98.078450
 30
0.0
 10
110.143260
 20
96.860590
 30
0.0
  0
LWPOLYLINE
  5
257
100
AcDbEntity
  8
レイヤー_1
 62
1
100
AcDbPolyline
 90
2
 70
0
 10
96.301624
 20
98.975160
 30
0.0
 10
96.223224
 20
98.078460
 30
0.0
  0
LWPOLYLINE
  5
258
100
AcDbEntity
  8
レイヤー_1
 62
1
100
AcDbPolyline
 90
2
 70
0
 10
97.088065
 20
107.963390
 30
0.0
 10
96.576284
 20
102.113560
 30
0.0
  0
LWPOLYLINE
  5
259
100
AcDbEntity
  8
レイヤー_1
 62
1
100
AcDbPolyline
 90
2
 70
0
 10
97.441085
 20
111.998480
 30
0.0
 10
97.362685
 20
111.101783
 30
0.0
  0
LWPOLYLINE
  5
25a
100
AcDbEntity
  8
レイヤー_1
 62
1
100
AcDbPolyline
 90
2
 70
0
 10
129.307470
 20
97.337670
 30
0.0
 10
129.032890
 20
94.199260
 30
0.0
  0
LWPOLYLINE
  5
25b
100
AcDbEntity
  8
レイヤー_1
 62
1
100
AcDbPolyline
 90
2
 70
0
 10
130.093810
 20
106.325930
 30
0.0
 10
129.819270
 20
103.187520
 30
0.0
  0
LWPOLYLINE
  5
25c
100
AcDbEntity
  8
レイヤー_1
 62
1
100
AcDbPolyline
 90
2
 70
0
 10
115.387420
 20
98.555510
 30
0.0
 10
115.112880
 20
95.417110
 30
0.0
  0
LWPOLYLINE
  5
25d
100
AcDbEntity
  8
レイヤー_1
 62
1
100
AcDbPolyline
 90
2
 70
0
 10
116.173800
 20
107.543750
 30
0.0
 10
115.899230
 20
104.405350
 30
0.0
  0
LWPOLYLINE
  5
25e
100
AcDbEntity
  8
レイヤー_1
 62
1
100
AcDbPolyline
 90
2
 70
0
 10
130.172300
 20
107.222600
 30
0.0
 10
116.252250
 20
108.440440
 30
0.0
  0
LWPOLYLINE
  5
25f
100
AcDbEntity
  8
レイヤー_1
 62
1
100
AcDbPolyline
 90
2
 70
0
 10
130.093810
 20
106.325930
 30
0.0
 10
130.172310
 20
107.222600
 30
0.0
  0
LWPOLYLINE
  5
260
100
AcDbEntity
  8
レイヤー_1
 62
1
100
AcDbPolyline
 90
2
 70
0
 10
129.307450
 20
97.337680
 30
0.0
 10
129.819260
 20
103.187530
 30
0.0
  0
LWPOLYLINE
  5
261
100
AcDbEntity
  8
レイヤー_1
 62
1
100
AcDbPolyline
 90
2
 70
0
 10
128.954440
 20
93.302570
 30
0.0
 10
129.032840
 20
94.199280
 30
0.0
  0
LWPOLYLINE
  5
262
100
AcDbEntity
  8
レイヤー_1
 62
1
100
AcDbPolyline
 90
2
 70
0
 10
115.034350
 20
94.520390
 30
0.0
 10
128.954390
 20
93.302550
 30
0.0
  0
LWPOLYLINE
  5
263
100
AcDbEntity
  8
レイヤー_1
 62
1
100
AcDbPolyline
 90
2
 70
0
 10
115.112820
 20
95.417110
 30
0.0
 10
115.034420
 20
94.520410
 30
0.0
  0
LWPOLYLINE
  5
264
100
AcDbEntity
  8
レイヤー_1
 62
1
100
AcDbPolyline
 90
2
 70
0
 10
115.899250
 20
104.405340
 30
0.0
 10
115.387440
 20
98.555540
 30
0.0
  0
LWPOLYLINE
  5
265
100
AcDbEntity
  8
レイヤー_1
 62
1
100
AcDbPolyline
 90
2
 70
0
 10
116.252270
 20
108.440440
 30
0.0
 10
116.173870
 20
107.543760
 30
0.0
  0
LWPOLYLINE
  5
266
100
AcDbEntity
  8
レイヤー_1
 62
1
100
AcDbPolyline
 90
2
 70
0
 10
108.752740
 20
80.090210
 30
0.0
 10
108.478160
 20
76.951780
 30
0.0
  0
LWPOLYLINE
  5
267
100
AcDbEntity
  8
レイヤー_1
 62
1
100
AcDbPolyline
 90
2
 70
0
 10
109.539130
 20
89.078490
 30
0.0
 10
109.264530
 20
85.940020
 30
0.0
  0
LWPOLYLINE
  5
268
100
AcDbEntity
  8
レイヤー_1
 62
1
100
AcDbPolyline
 90
2
 70
0
 10
122.672790
 20
78.872360
 30
0.0
 10
122.398200
 20
75.733940
 30
0.0
  0
LWPOLYLINE
  5
269
100
AcDbEntity
  8
レイヤー_1
 62
1
100
AcDbPolyline
 90
2
 70
0
 10
123.459170
 20
87.860610
 30
0.0
 10
123.184560
 20
84.722210
 30
0.0
  0
LWPOLYLINE
  5
26a
100
AcDbEntity
  8
レイヤー_1
 62
1
100
AcDbPolyline
 90
2
 70
0
 10
109.617570
 20
89.975160
 30
0.0
 10
123.537630
 20
88.757330
 30
0.0
  0
LWPOLYLINE
  5
26b
100
AcDbEntity
  8
レイヤー_1
 62
1
100
AcDbPolyline
 90
2
 70
0
 10
109.539130
 20
89.078490
 30
0.0
 10
109.617630
 20
89.975140
 30
0.0
  0
LWPOLYLINE
  5
26c
100
AcDbEntity
  8
レイヤー_1
 62
1
100
AcDbPolyline
 90
2
 70
0
 10
108.752810
 20
80.090190
 30
0.0
 10
109.264600
 20
85.940020
 30
0.0
  0
LWPOLYLINE
  5
26d
100
AcDbEntity
  8
レイヤー_1
 62
1
100
AcDbPolyline
 90
2
 70
0
 10
108.399790
 20
76.055100
 30
0.0
 10
108.478190
 20
76.951780
 30
0.0
  0
LWPOLYLINE
  5
26e
100
AcDbEntity
  8
レイヤー_1
 62
1
100
AcDbPolyline
 90
2
 70
0
 10
122.319750
 20
74.837290
 30
0.0
 10
108.399760
 20
76.055080
 30
0.0
  0
LWPOLYLINE
  5
26f
100
AcDbEntity
  8
レイヤー_1
 62
1
100
AcDbPolyline
 90
2
 70
0
 10
122.398240
 20
75.733900
 30
0.0
 10
122.319840
 20
74.837220
 30
0.0
  0
LWPOLYLINE
  5
270
100
AcDbEntity
  8
レイヤー_1
 62
1
100
AcDbPolyline
 90
2
 70
0
 10
123.184660
 20
84.722160
 30
0.0
 10
122.672880
 20
78.872380
 30
0.0
  0
LWPOLYLINE
  5
271
100
AcDbEntity
  8
レイヤー_1
 62
1
100
AcDbPolyline
 90
2
 70
0
 10
123.537690
 20
88.757310
 30
0.0
 10
123.459290
 20
87.860600
 30
0.0
  0
LWPOLYLINE
  5
272
100
AcDbEntity
  8
レイヤー_1
 62
1
100
AcDbPolyline
 90
2
 70
0
 10
182.289110
 20
80.090250
 30
0.0
 10
182.563690
 20
76.951820
 30
0.0
  0
LWPOLYLINE
  5
273
100
AcDbEntity
  8
レイヤー_1
 62
1
100
AcDbPolyline
 90
2
 70
0
 10
181.502720
 20
89.078530
 30
0.0
 10
181.777320
 20
85.940060
 30
0.0
  0
LWPOLYLINE
  5
274
100
AcDbEntity
  8
レイヤー_1
 62
1
100
AcDbPolyline
 90
2
 70
0
 10
168.369060
 20
78.872400
 30
0.0
 10
168.643650
 20
75.733980
 30
0.0
  0
LWPOLYLINE
  5
275
100
AcDbEntity
  8
レイヤー_1
 62
1
100
AcDbPolyline
 90
2
 70
0
 10
167.582680
 20
87.860650
 30
0.0
 10
167.857290
 20
84.722250
 30
0.0
  0
LWPOLYLINE
  5
276
100
AcDbEntity
  8
レイヤー_1
 62
1
100
AcDbPolyline
 90
2
 70
0
 10
181.424280
 20
89.975200
 30
0.0
 10
167.504220
 20
88.757370
 30
0.0
  0
LWPOLYLINE
  5
277
100
AcDbEntity
  8
レイヤー_1
 62
1
100
AcDbPolyline
 90
2
 70
0
 10
181.502720
 20
89.078530
 30
0.0
 10
181.424220
 20
89.975180
 30
0.0
  0
LWPOLYLINE
  5
278
100
AcDbEntity
  8
レイヤー_1
 62
1
100
AcDbPolyline
 90
2
 70
0
 10
182.289040
 20
80.090230
 30
0.0
 10
181.777250
 20
85.940060
 30
0.0
  0
LWPOLYLINE
  5
279
100
AcDbEntity
  8
レイヤー_1
 62
1
100
AcDbPolyline
 90
2
 70
0
 10
182.642060
 20
76.055140
 30
0.0
 10
182.563660
 20
76.951820
 30
0.0
  0
LWPOLYLINE
  5
27a
100
AcDbEntity
  8
レイヤー_1
 62
1
100
AcDbPolyline
 90
2
 70
0
 10
168.722100
 20
74.837330
 30
0.0
 10
182.642090
 20
76.055120
 30
0.0
  0
LWPOLYLINE
  5
27b
100
AcDbEntity
  8
レイヤー_1
 62
1
100
AcDbPolyline
 90
2
 70
0
 10
168.643610
 20
75.733940
 30
0.0
 10
168.722010
 20
74.837260
 30
0.0
  0
LWPOLYLINE
  5
27c
100
AcDbEntity
  8
レイヤー_1
 62
1
100
AcDbPolyline
 90
2
 70
0
 10
167.857190
 20
84.722200
 30
0.0
 10
168.368970
 20
78.872420
 30
0.0
  0
LWPOLYLINE
  5
27d
100
AcDbEntity
  8
レイヤー_1
 62
1
100
AcDbPolyline
 90
2
 70
0
 10
167.504160
 20
88.757350
 30
0.0
 10
167.582560
 20
87.860640
 30
0.0
  0
SPLINE
  5
27e
100
AcDbEntity
  8
レイヤー_1
 62
1
100
AcDbSpline
 70
8
 71
3
 72
8
 73
4
 74
0
 40
0
 40
0
 40
0
 40
0
 40
1
 40
1
 40
1
 40
1
 10
261.903210
 20
78.802280
 30
0.0
 10
261.898210
 20
78.247520
 30
0.0
 10
261.675910
 20
77.697690
 30
0.0
 10
261.294760
 20
77.294570
 30
0.0
  0
SPLINE
  5
27f
100
AcDbEntity
  8
レイヤー_1
 62
1
100
AcDbSpline
 70
8
 71
3
 72
8
 73
4
 74
0
 40
0
 40
0
 40
0
 40
0
 40
1
 40
1
 40
1
 40
1
 10
261.294760
 20
77.294570
 30
0.0
 10
260.974100
 20
76.955430
 30
0.0
 10
260.544230
 20
76.721200
 30
0.0
 10
260.085420
 20
76.635620
 30
0.0
  0
SPLINE
  5
280
100
AcDbEntity
  8
レイヤー_1
 62
1
100
AcDbSpline
 70
8
 71
3
 72
8
 73
4
 74
0
 40
0
 40
0
 40
0
 40
0
 40
1
 40
1
 40
1
 40
1
 10
252.769050
 20
160.262869
 30
0.0
 10
253.305390
 20
160.189589
 30
0.0
 10
253.816670
 20
159.942969
 30
0.0
 10
254.207900
 20
159.568833
 30
0.0
  0
SPLINE
  5
281
100
AcDbEntity
  8
レイヤー_1
 62
1
100
AcDbSpline
 70
8
 71
3
 72
8
 73
4
 74
0
 40
0
 40
0
 40
0
 40
0
 40
1
 40
1
 40
1
 40
1
 10
254.207900
 20
159.568833
 30
0.0
 10
254.572550
 20
159.220113
 30
0.0
 10
254.831750
 20
158.762527
 30
0.0
 10
254.943370
 20
158.270472
 30
0.0
  0
LWPOLYLINE
  5
282
100
AcDbEntity
  8
レイヤー_1
 62
1
100
AcDbPolyline
 90
3
 70
0
 10
194.474320
 20
160.263017
 30
0.0
 10
238.742830
 20
160.263024
 30
0.0
 10
252.769050
 20
160.262869
 30
0.0
  0
LWPOLYLINE
  5
283
100
AcDbEntity
  8
レイヤー_1
 62
1
100
AcDbPolyline
 90
2
 70
0
 10
257.423120
 20
129.955915
 30
0.0
 10
261.903210
 20
78.802280
 30
0.0
  0
LWPOLYLINE
  5
284
100
AcDbEntity
  8
レイヤー_1
 62
1
100
AcDbPolyline
 90
2
 70
0
 10
254.943370
 20
158.270472
 30
0.0
 10
257.402730
 20
130.154858
 30
0.0
  0
SPLINE
  5
285
100
AcDbEntity
  8
レイヤー_1
 62
1
100
AcDbSpline
 70
8
 71
3
 72
8
 73
4
 74
0
 40
0
 40
0
 40
0
 40
0
 40
1
 40
1
 40
1
 40
1
 10
29.138452
 20
78.802290
 30
0.0
 10
29.143852
 20
78.247530
 30
0.0
 10
29.365748
 20
77.697700
 30
0.0
 10
29.746902
 20
77.294580
 30
0.0
  0
SPLINE
  5
286
100
AcDbEntity
  8
レイヤー_1
 62
1
100
AcDbSpline
 70
8
 71
3
 72
8
 73
4
 74
0
 40
0
 40
0
 40
0
 40
0
 40
1
 40
1
 40
1
 40
1
 10
29.746902
 20
77.294580
 30
0.0
 10
30.067559
 20
76.955440
 30
0.0
 10
30.497429
 20
76.721210
 30
0.0
 10
30.956242
 20
76.635630
 30
0.0
  0
SPLINE
  5
287
100
AcDbEntity
  8
レイヤー_1
 62
1
100
AcDbSpline
 70
8
 71
3
 72
8
 73
4
 74
0
 40
0
 40
0
 40
0
 40
0
 40
1
 40
1
 40
1
 40
1
 10
38.272612
 20
160.262880
 30
0.0
 10
37.736267
 20
160.189600
 30
0.0
 10
37.224989
 20
159.942980
 30
0.0
 10
36.833762
 20
159.568844
 30
0.0
  0
SPLINE
  5
288
100
AcDbEntity
  8
レイヤー_1
 62
1
100
AcDbSpline
 70
8
 71
3
 72
8
 73
4
 74
0
 40
0
 40
0
 40
0
 40
0
 40
1
 40
1
 40
1
 40
1
 10
36.833762
 20
159.568844
 30
0.0
 10
36.469111
 20
159.220124
 30
0.0
 10
36.209907
 20
158.762538
 30
0.0
 10
36.098292
 20
158.270483
 30
0.0
  0
LWPOLYLINE
  5
289
100
AcDbEntity
  8
レイヤー_1
 62
1
100
AcDbPolyline
 90
3
 70
0
 10
96.567344
 20
160.263028
 30
0.0
 10
52.298833
 20
160.263035
 30
0.0
 10
38.272612
 20
160.262880
 30
0.0
  0
LWPOLYLINE
  5
28a
100
AcDbEntity
  8
レイヤー_1
 62
1
100
AcDbPolyline
 90
2
 70
0
 10
33.618542
 20
129.955926
 30
0.0
 10
29.138452
 20
78.802290
 30
0.0
  0
LWPOLYLINE
  5
28b
100
AcDbEntity
  8
レイヤー_1
 62
1
100
AcDbPolyline
 90
2
 70
0
 10
36.098292
 20
158.270483
 30
0.0
 10
33.638933
 20
130.154868
 30
0.0
  0
LWPOLYLINE
  5
28c
100
AcDbEntity
  8
レイヤー_1
 62
1
100
AcDbPolyline
 90
2
 70
0
 10
156.343830
 20
160.263018
 30
0.0
 10
194.474310
 20
160.263018
 30
0.0
  0
LWPOLYLINE
  5
28d
100
AcDbEntity
  8
レイヤー_1
 62
1
100
AcDbPolyline
 90
2
 70
0
 10
134.697830
 20
160.263029
 30
0.0
 10
96.567352
 20
160.263029
 30
0.0
  0
SPLINE
  5
28e
100
AcDbEntity
  8
レイヤー_1
 62
1
100
AcDbSpline
 70
8
 71
3
 72
8
 73
4
 74
0
 40
0
 40
0
 40
0
 40
0
 40
1
 40
1
 40
1
 40
1
 10
251.680540
 20
157.863740
 30
0.0
 10
251.306974
 20
157.863740
 30
0.0
 10
250.970192
 20
157.638709
 30
0.0
 10
250.827234
 20
157.293579
 30
0.0
  0
SPLINE
  5
28f
100
AcDbEntity
  8
レイヤー_1
 62
1
100
AcDbSpline
 70
8
 71
3
 72
8
 73
4
 74
0
 40
0
 40
0
 40
0
 40
0
 40
1
 40
1
 40
1
 40
1
 10
250.827234
 20
157.293579
 30
0.0
 10
250.684277
 20
156.948449
 30
0.0
 10
250.763297
 20
156.551187
 30
0.0
 10
251.027448
 20
156.287036
 30
0.0
  0
SPLINE
  5
290
100
AcDbEntity
  8
レイヤー_1
 62
1
100
AcDbSpline
 70
8
 71
3
 72
8
 73
4
 74
0
 40
0
 40
0
 40
0
 40
0
 40
1
 40
1
 40
1
 40
1
 10
251.027448
 20
156.287036
 30
0.0
 10
251.291599
 20
156.022885
 30
0.0
 10
251.688861
 20
155.943865
 30
0.0
 10
252.033991
 20
156.086822
 30
0.0
  0
SPLINE
  5
291
100
AcDbEntity
  8
レイヤー_1
 62
1
100
AcDbSpline
 70
8
 71
3
 72
8
 73
4
 74
0
 40
0
 40
0
 40
0
 40
0
 40
1
 40
1
 40
1
 40
1
 10
252.033991
 20
156.086822
 30
0.0
 10
252.379121
 20
156.229780
 30
0.0
 10
252.604152
 20
156.566562
 30
0.0
 10
252.604152
 20
156.940128
 30
0.0
  0
SPLINE
  5
292
100
AcDbEntity
  8
レイヤー_1
 62
1
100
AcDbSpline
 70
8
 71
3
 72
8
 73
4
 74
0
 40
0
 40
0
 40
0
 40
0
 40
1
 40
1
 40
1
 40
1
 10
252.604152
 20
156.940128
 30
0.0
 10
252.604152
 20
157.185085
 30
0.0
 10
252.506843
 20
157.420009
 30
0.0
 10
252.333632
 20
157.593220
 30
0.0
  0
SPLINE
  5
293
100
AcDbEntity
  8
レイヤー_1
 62
1
100
AcDbSpline
 70
8
 71
3
 72
8
 73
4
 74
0
 40
0
 40
0
 40
0
 40
0
 40
1
 40
1
 40
1
 40
1
 10
252.333632
 20
157.593220
 30
0.0
 10
252.160421
 20
157.766431
 30
0.0
 10
251.925497
 20
157.863740
 30
0.0
 10
251.680540
 20
157.863740
 30
0.0
  0
LWPOLYLINE
  5
294
100
AcDbEntity
  8
レイヤー_1
 62
1
100
AcDbPolyline
 90
2
 70
0
 10
134.697810
 20
160.263031
 30
0.0
 10
156.343830
 20
160.263018
 30
0.0
  0
SPLINE
  5
295
100
AcDbEntity
  8
レイヤー_1
 62
1
100
AcDbSpline
 70
8
 71
3
 72
8
 73
4
 74
0
 40
0
 40
0
 40
0
 40
0
 40
1
 40
1
 40
1
 40
1
 10
258.484280
 20
80.609372
 30
0.0
 10
258.110714
 20
80.609372
 30
0.0
 10
257.773932
 20
80.384341
 30
0.0
 10
257.630974
 20
80.039211
 30
0.0
  0
SPLINE
  5
296
100
AcDbEntity
  8
レイヤー_1
 62
1
100
AcDbSpline
 70
8
 71
3
 72
8
 73
4
 74
0
 40
0
 40
0
 40
0
 40
0
 40
1
 40
1
 40
1
 40
1
 10
257.630974
 20
80.039211
 30
0.0
 10
257.488017
 20
79.694081
 30
0.0
 10
257.567037
 20
79.296819
 30
0.0
 10
257.831188
 20
79.032668
 30
0.0
  0
SPLINE
  5
297
100
AcDbEntity
  8
レイヤー_1
 62
1
100
AcDbSpline
 70
8
 71
3
 72
8
 73
4
 74
0
 40
0
 40
0
 40
0
 40
0
 40
1
 40
1
 40
1
 40
1
 10
257.831188
 20
79.032668
 30
0.0
 10
258.095339
 20
78.768517
 30
0.0
 10
258.492601
 20
78.689497
 30
0.0
 10
258.837731
 20
78.832454
 30
0.0
  0
SPLINE
  5
298
100
AcDbEntity
  8
レイヤー_1
 62
1
100
AcDbSpline
 70
8
 71
3
 72
8
 73
4
 74
0
 40
0
 40
0
 40
0
 40
0
 40
1
 40
1
 40
1
 40
1
 10
258.837731
 20
78.832454
 30
0.0
 10
259.182861
 20
78.975412
 30
0.0
 10
259.407892
 20
79.312194
 30
0.0
 10
259.407892
 20
79.685760
 30
0.0
  0
SPLINE
  5
299
100
AcDbEntity
  8
レイヤー_1
 62
1
100
AcDbSpline
 70
8
 71
3
 72
8
 73
4
 74
0
 40
0
 40
0
 40
0
 40
0
 40
1
 40
1
 40
1
 40
1
 10
259.407892
 20
79.685760
 30
0.0
 10
259.407892
 20
79.930717
 30
0.0
 10
259.310583
 20
80.165641
 30
0.0
 10
259.137372
 20
80.338852
 30
0.0
  0
SPLINE
  5
29a
100
AcDbEntity
  8
レイヤー_1
 62
1
100
AcDbSpline
 70
8
 71
3
 72
8
 73
4
 74
0
 40
0
 40
0
 40
0
 40
0
 40
1
 40
1
 40
1
 40
1
 10
259.137372
 20
80.338852
 30
0.0
 10
258.964161
 20
80.512063
 30
0.0
 10
258.729237
 20
80.609372
 30
0.0
 10
258.484280
 20
80.609372
 30
0.0
  0
LWPOLYLINE
  5
29b
100
AcDbEntity
  8
レイヤー_1
 62
1
100
AcDbPolyline
 90
1
 70
1
 10
251.680540
 20
157.863740
 30
0.0
  0
SPLINE
  5
29c
100
AcDbEntity
  8
レイヤー_1
 62
1
100
AcDbSpline
 70
8
 71
3
 72
8
 73
4
 74
0
 40
0
 40
0
 40
0
 40
0
 40
1
 40
1
 40
1
 40
1
 10
159.169890
 20
157.209360
 30
0.0
 10
158.796324
 20
157.209360
 30
0.0
 10
158.459542
 20
156.984329
 30
0.0
 10
158.316584
 20
156.639199
 30
0.0
  0
SPLINE
  5
29d
100
AcDbEntity
  8
レイヤー_1
 62
1
100
AcDbSpline
 70
8
 71
3
 72
8
 73
4
 74
0
 40
0
 40
0
 40
0
 40
0
 40
1
 40
1
 40
1
 40
1
 10
158.316584
 20
156.639199
 30
0.0
 10
158.173627
 20
156.294069
 30
0.0
 10
158.252647
 20
155.896807
 30
0.0
 10
158.516798
 20
155.632656
 30
0.0
  0
SPLINE
  5
29e
100
AcDbEntity
  8
レイヤー_1
 62
1
100
AcDbSpline
 70
8
 71
3
 72
8
 73
4
 74
0
 40
0
 40
0
 40
0
 40
0
 40
1
 40
1
 40
1
 40
1
 10
158.516798
 20
155.632656
 30
0.0
 10
158.780949
 20
155.368505
 30
0.0
 10
159.178211
 20
155.289485
 30
0.0
 10
159.523341
 20
155.432442
 30
0.0
  0
SPLINE
  5
29f
100
AcDbEntity
  8
レイヤー_1
 62
1
100
AcDbSpline
 70
8
 71
3
 72
8
 73
4
 74
0
 40
0
 40
0
 40
0
 40
0
 40
1
 40
1
 40
1
 40
1
 10
159.523341
 20
155.432442
 30
0.0
 10
159.868471
 20
155.575400
 30
0.0
 10
160.093502
 20
155.912182
 30
0.0
 10
160.093502
 20
156.285748
 30
0.0
  0
SPLINE
  5
2a0
100
AcDbEntity
  8
レイヤー_1
 62
1
100
AcDbSpline
 70
8
 71
3
 72
8
 73
4
 74
0
 40
0
 40
0
 40
0
 40
0
 40
1
 40
1
 40
1
 40
1
 10
160.093502
 20
156.285748
 30
0.0
 10
160.093502
 20
156.795845
 30
0.0
 10
159.679987
 20
157.209360
 30
0.0
 10
159.169890
 20
157.209360
 30
0.0
  0
LWPOLYLINE
  5
2a1
100
AcDbEntity
  8
レイヤー_1
 62
1
100
AcDbPolyline
 90
1
 70
1
 10
258.484280
 20
80.609372
 30
0.0
  0
SPLINE
  5
2a2
100
AcDbEntity
  8
レイヤー_1
 62
1
100
AcDbSpline
 70
8
 71
3
 72
8
 73
4
 74
0
 40
0
 40
0
 40
0
 40
0
 40
1
 40
1
 40
1
 40
1
 10
159.169940
 20
70.153902
 30
0.0
 10
158.796374
 20
70.153902
 30
0.0
 10
158.459592
 20
69.928871
 30
0.0
 10
158.316634
 20
69.583741
 30
0.0
  0
SPLINE
  5
2a3
100
AcDbEntity
  8
レイヤー_1
 62
1
100
AcDbSpline
 70
8
 71
3
 72
8
 73
4
 74
0
 40
0
 40
0
 40
0
 40
0
 40
1
 40
1
 40
1
 40
1
 10
158.316634
 20
69.583741
 30
0.0
 10
158.173677
 20
69.238611
 30
0.0
 10
158.252697
 20
68.841349
 30
0.0
 10
158.516848
 20
68.577198
 30
0.0
  0
SPLINE
  5
2a4
100
AcDbEntity
  8
レイヤー_1
 62
1
100
AcDbSpline
 70
8
 71
3
 72
8
 73
4
 74
0
 40
0
 40
0
 40
0
 40
0
 40
1
 40
1
 40
1
 40
1
 10
158.516848
 20
68.577198
 30
0.0
 10
158.780999
 20
68.313047
 30
0.0
 10
159.178261
 20
68.234027
 30
0.0
 10
159.523391
 20
68.376984
 30
0.0
  0
SPLINE
  5
2a5
100
AcDbEntity
  8
レイヤー_1
 62
1
100
AcDbSpline
 70
8
 71
3
 72
8
 73
4
 74
0
 40
0
 40
0
 40
0
 40
0
 40
1
 40
1
 40
1
 40
1
 10
159.523391
 20
68.376984
 30
0.0
 10
159.868521
 20
68.519942
 30
0.0
 10
160.093552
 20
68.856724
 30
0.0
 10
160.093552
 20
69.230290
 30
0.0
  0
SPLINE
  5
2a6
100
AcDbEntity
  8
レイヤー_1
 62
1
100
AcDbSpline
 70
8
 71
3
 72
8
 73
4
 74
0
 40
0
 40
0
 40
0
 40
0
 40
1
 40
1
 40
1
 40
1
 10
160.093552
 20
69.230290
 30
0.0
 10
160.093552
 20
69.475247
 30
0.0
 10
159.996243
 20
69.710171
 30
0.0
 10
159.823032
 20
69.883382
 30
0.0
  0
SPLINE
  5
2a7
100
AcDbEntity
  8
レイヤー_1
 62
1
100
AcDbSpline
 70
8
 71
3
 72
8
 73
4
 74
0
 40
0
 40
0
 40
0
 40
0
 40
1
 40
1
 40
1
 40
1
 10
159.823032
 20
69.883382
 30
0.0
 10
159.649821
 20
70.056593
 30
0.0
 10
159.414897
 20
70.153902
 30
0.0
 10
159.169940
 20
70.153902
 30
0.0
  0
LWPOLYLINE
  5
2a8
100
AcDbEntity
  8
レイヤー_1
 62
1
100
AcDbPolyline
 90
1
 70
1
 10
159.169890
 20
157.209360
 30
0.0
  0
SPLINE
  5
2a9
100
AcDbEntity
  8
レイヤー_1
 62
1
100
AcDbSpline
 70
8
 71
3
 72
8
 73
4
 74
0
 40
0
 40
0
 40
0
 40
0
 40
1
 40
1
 40
1
 40
1
 10
39.361149
 20
157.863737
 30
0.0
 10
39.734715
 20
157.863737
 30
0.0
 10
40.071497
 20
157.638706
 30
0.0
 10
40.214455
 20
157.293576
 30
0.0
  0
SPLINE
  5
2aa
100
AcDbEntity
  8
レイヤー_1
 62
1
100
AcDbSpline
 70
8
 71
3
 72
8
 73
4
 74
0
 40
0
 40
0
 40
0
 40
0
 40
1
 40
1
 40
1
 40
1
 10
40.214455
 20
157.293576
 30
0.0
 10
40.357412
 20
156.948446
 30
0.0
 10
40.278392
 20
156.551184
 30
0.0
 10
40.014241
 20
156.287033
 30
0.0
  0
SPLINE
  5
2ab
100
AcDbEntity
  8
レイヤー_1
 62
1
100
AcDbSpline
 70
8
 71
3
 72
8
 73
4
 74
0
 40
0
 40
0
 40
0
 40
0
 40
1
 40
1
 40
1
 40
1
 10
40.014241
 20
156.287033
 30
0.0
 10
39.750090
 20
156.022882
 30
0.0
 10
39.352828
 20
155.943862
 30
0.0
 10
39.007698
 20
156.086819
 30
0.0
  0
SPLINE
  5
2ac
100
AcDbEntity
  8
レイヤー_1
 62
1
100
AcDbSpline
 70
8
 71
3
 72
8
 73
4
 74
0
 40
0
 40
0
 40
0
 40
0
 40
1
 40
1
 40
1
 40
1
 10
39.007698
 20
156.086819
 30
0.0
 10
38.662568
 20
156.229777
 30
0.0
 10
38.437537
 20
156.566559
 30
0.0
 10
38.437537
 20
156.940125
 30
0.0
  0
SPLINE
  5
2ad
100
AcDbEntity
  8
レイヤー_1
 62
1
100
AcDbSpline
 70
8
 71
3
 72
8
 73
4
 74
0
 40
0
 40
0
 40
0
 40
0
 40
1
 40
1
 40
1
 40
1
 10
38.437537
 20
156.940125
 30
0.0
 10
38.437537
 20
157.185082
 30
0.0
 10
38.534846
 20
157.420006
 30
0.0
 10
38.708057
 20
157.593217
 30
0.0
  0
SPLINE
  5
2ae
100
AcDbEntity
  8
レイヤー_1
 62
1
100
AcDbSpline
 70
8
 71
3
 72
8
 73
4
 74
0
 40
0
 40
0
 40
0
 40
0
 40
1
 40
1
 40
1
 40
1
 10
38.708057
 20
157.593217
 30
0.0
 10
38.881268
 20
157.766428
 30
0.0
 10
39.116192
 20
157.863737
 30
0.0
 10
39.361149
 20
157.863737
 30
0.0
  0
LWPOLYLINE
  5
2af
100
AcDbEntity
  8
レイヤー_1
 62
1
100
AcDbPolyline
 90
1
 70
1
 10
159.169940
 20
70.153902
 30
0.0
  0
SPLINE
  5
2b0
100
AcDbEntity
  8
レイヤー_1
 62
1
100
AcDbSpline
 70
8
 71
3
 72
8
 73
4
 74
0
 40
0
 40
0
 40
0
 40
0
 40
1
 40
1
 40
1
 40
1
 10
32.557438
 20
80.609372
 30
0.0
 10
32.931004
 20
80.609372
 30
0.0
 10
33.267786
 20
80.384341
 30
0.0
 10
33.410744
 20
80.039211
 30
0.0
  0
SPLINE
  5
2b1
100
AcDbEntity
  8
レイヤー_1
 62
1
100
AcDbSpline
 70
8
 71
3
 72
8
 73
4
 74
0
 40
0
 40
0
 40
0
 40
0
 40
1
 40
1
 40
1
 40
1
 10
33.410744
 20
80.039211
 30
0.0
 10
33.553701
 20
79.694081
 30
0.0
 10
33.474681
 20
79.296819
 30
0.0
 10
33.210530
 20
79.032668
 30
0.0
  0
SPLINE
  5
2b2
100
AcDbEntity
  8
レイヤー_1
 62
1
100
AcDbSpline
 70
8
 71
3
 72
8
 73
4
 74
0
 40
0
 40
0
 40
0
 40
0
 40
1
 40
1
 40
1
 40
1
 10
33.210530
 20
79.032668
 30
0.0
 10
32.946379
 20
78.768517
 30
0.0
 10
32.549117
 20
78.689497
 30
0.0
 10
32.203987
 20
78.832454
 30
0.0
  0
SPLINE
  5
2b3
100
AcDbEntity
  8
レイヤー_1
 62
1
100
AcDbSpline
 70
8
 71
3
 72
8
 73
4
 74
0
 40
0
 40
0
 40
0
 40
0
 40
1
 40
1
 40
1
 40
1
 10
32.203987
 20
78.832454
 30
0.0
 10
31.858857
 20
78.975412
 30
0.0
 10
31.633826
 20
79.312194
 30
0.0
 10
31.633826
 20
79.685760
 30
0.0
  0
SPLINE
  5
2b4
100
AcDbEntity
  8
レイヤー_1
 62
1
100
AcDbSpline
 70
8
 71
3
 72
8
 73
4
 74
0
 40
0
 40
0
 40
0
 40
0
 40
1
 40
1
 40
1
 40
1
 10
31.633826
 20
79.685760
 30
0.0
 10
31.633826
 20
79.930717
 30
0.0
 10
31.731135
 20
80.165641
 30
0.0
 10
31.904346
 20
80.338852
 30
0.0
  0
SPLINE
  5
2b5
100
AcDbEntity
  8
レイヤー_1
 62
1
100
AcDbSpline
 70
8
 71
3
 72
8
 73
4
 74
0
 40
0
 40
0
 40
0
 40
0
 40
1
 40
1
 40
1
 40
1
 10
31.904346
 20
80.338852
 30
0.0
 10
32.077557
 20
80.512063
 30
0.0
 10
32.312481
 20
80.609372
 30
0.0
 10
32.557438
 20
80.609372
 30
0.0
  0
LWPOLYLINE
  5
2b6
100
AcDbEntity
  8
レイヤー_1
 62
1
100
AcDbPolyline
 90
1
 70
1
 10
39.361149
 20
157.863737
 30
0.0
  0
SPLINE
  5
2b7
100
AcDbEntity
  8
レイヤー_1
 62
1
100
AcDbSpline
 70
8
 71
3
 72
8
 73
4
 74
0
 40
0
 40
0
 40
0
 40
0
 40
1
 40
1
 40
1
 40
1
 10
131.871800
 20
157.209356
 30
0.0
 10
132.245366
 20
157.209356
 30
0.0
 10
132.582148
 20
156.984325
 30
0.0
 10
132.725106
 20
156.639195
 30
0.0
  0
SPLINE
  5
2b8
100
AcDbEntity
  8
レイヤー_1
 62
1
100
AcDbSpline
 70
8
 71
3
 72
8
 73
4
 74
0
 40
0
 40
0
 40
0
 40
0
 40
1
 40
1
 40
1
 40
1
 10
132.725106
 20
156.639195
 30
0.0
 10
132.868063
 20
156.294065
 30
0.0
 10
132.789043
 20
155.896803
 30
0.0
 10
132.524892
 20
155.632652
 30
0.0
  0
SPLINE
  5
2b9
100
AcDbEntity
  8
レイヤー_1
 62
1
100
AcDbSpline
 70
8
 71
3
 72
8
 73
4
 74
0
 40
0
 40
0
 40
0
 40
0
 40
1
 40
1
 40
1
 40
1
 10
132.524892
 20
155.632652
 30
0.0
 10
132.260741
 20
155.368501
 30
0.0
 10
131.863479
 20
155.289481
 30
0.0
 10
131.518349
 20
155.432438
 30
0.0
  0
SPLINE
  5
2ba
100
AcDbEntity
  8
レイヤー_1
 62
1
100
AcDbSpline
 70
8
 71
3
 72
8
 73
4
 74
0
 40
0
 40
0
 40
0
 40
0
 40
1
 40
1
 40
1
 40
1
 10
131.518349
 20
155.432438
 30
0.0
 10
131.173219
 20
155.575396
 30
0.0
 10
130.948188
 20
155.912178
 30
0.0
 10
130.948188
 20
156.285744
 30
0.0
  0
SPLINE
  5
2bb
100
AcDbEntity
  8
レイヤー_1
 62
1
100
AcDbSpline
 70
8
 71
3
 72
8
 73
4
 74
0
 40
0
 40
0
 40
0
 40
0
 40
1
 40
1
 40
1
 40
1
 10
130.948188
 20
156.285744
 30
0.0
 10
130.948188
 20
156.530701
 30
0.0
 10
131.045497
 20
156.765625
 30
0.0
 10
131.218708
 20
156.938836
 30
0.0
  0
SPLINE
  5
2bc
100
AcDbEntity
  8
レイヤー_1
 62
1
100
AcDbSpline
 70
8
 71
3
 72
8
 73
4
 74
0
 40
0
 40
0
 40
0
 40
0
 40
1
 40
1
 40
1
 40
1
 10
131.218708
 20
156.938836
 30
0.0
 10
131.391919
 20
157.112047
 30
0.0
 10
131.626843
 20
157.209356
 30
0.0
 10
131.871800
 20
157.209356
 30
0.0
  0
LWPOLYLINE
  5
2bd
100
AcDbEntity
  8
レイヤー_1
 62
1
100
AcDbPolyline
 90
1
 70
1
 10
32.557438
 20
80.609372
 30
0.0
  0
SPLINE
  5
2be
100
AcDbEntity
  8
レイヤー_1
 62
1
100
AcDbSpline
 70
8
 71
3
 72
8
 73
4
 74
0
 40
0
 40
0
 40
0
 40
0
 40
1
 40
1
 40
1
 40
1
 10
131.871780
 20
70.153902
 30
0.0
 10
132.245346
 20
70.153902
 30
0.0
 10
132.582128
 20
69.928871
 30
0.0
 10
132.725086
 20
69.583741
 30
0.0
  0
SPLINE
  5
2bf
100
AcDbEntity
  8
レイヤー_1
 62
1
100
AcDbSpline
 70
8
 71
3
 72
8
 73
4
 74
0
 40
0
 40
0
 40
0
 40
0
 40
1
 40
1
 40
1
 40
1
 10
132.725086
 20
69.583741
 30
0.0
 10
132.868043
 20
69.238611
 30
0.0
 10
132.789023
 20
68.841349
 30
0.0
 10
132.524872
 20
68.577198
 30
0.0
  0
SPLINE
  5
2c0
100
AcDbEntity
  8
レイヤー_1
 62
1
100
AcDbSpline
 70
8
 71
3
 72
8
 73
4
 74
0
 40
0
 40
0
 40
0
 40
0
 40
1
 40
1
 40
1
 40
1
 10
132.524872
 20
68.577198
 30
0.0
 10
132.260721
 20
68.313047
 30
0.0
 10
131.863459
 20
68.234027
 30
0.0
 10
131.518329
 20
68.376984
 30
0.0
  0
SPLINE
  5
2c1
100
AcDbEntity
  8
レイヤー_1
 62
1
100
AcDbSpline
 70
8
 71
3
 72
8
 73
4
 74
0
 40
0
 40
0
 40
0
 40
0
 40
1
 40
1
 40
1
 40
1
 10
131.518329
 20
68.376984
 30
0.0
 10
131.173199
 20
68.519942
 30
0.0
 10
130.948168
 20
68.856724
 30
0.0
 10
130.948168
 20
69.230290
 30
0.0
  0
SPLINE
  5
2c2
100
AcDbEntity
  8
レイヤー_1
 62
1
100
AcDbSpline
 70
8
 71
3
 72
8
 73
4
 74
0
 40
0
 40
0
 40
0
 40
0
 40
1
 40
1
 40
1
 40
1
 10
130.948168
 20
69.230290
 30
0.0
 10
130.948168
 20
69.475247
 30
0.0
 10
131.045477
 20
69.710171
 30
0.0
 10
131.218688
 20
69.883382
 30
0.0
  0
SPLINE
  5
2c3
100
AcDbEntity
  8
レイヤー_1
 62
1
100
AcDbSpline
 70
8
 71
3
 72
8
 73
4
 74
0
 40
0
 40
0
 40
0
 40
0
 40
1
 40
1
 40
1
 40
1
 10
131.218688
 20
69.883382
 30
0.0
 10
131.391899
 20
70.056593
 30
0.0
 10
131.626823
 20
70.153902
 30
0.0
 10
131.871780
 20
70.153902
 30
0.0
  0
LWPOLYLINE
  5
2c4
100
AcDbEntity
  8
レイヤー_1
 62
1
100
AcDbPolyline
 90
1
 70
1
 10
131.871800
 20
157.209356
 30
0.0
  0
LWPOLYLINE
  5
2c5
100
AcDbEntity
  8
レイヤー_1
 62
1
100
AcDbPolyline
 90
1
 70
1
 10
131.871780
 20
70.153902
 30
0.0
  0
LWPOLYLINE
  5
2c6
100
AcDbEntity
  8
レイヤー_1
 62
1
100
AcDbPolyline
 90
3
 70
0
 10
237.659810
 20
74.673410
 30
0.0
 10
240.188630
 20
74.894640
 30
0.0
 10
260.085460
 20
76.635620
 30
0.0
  0
LWPOLYLINE
  5
2c7
100
AcDbEntity
  8
レイヤー_1
 62
1
100
AcDbPolyline
 90
3
 70
0
 10
161.909020
 20
66.213160
 30
0.0
 10
190.771540
 20
68.738230
 30
0.0
 10
237.659810
 20
74.673410
 30
0.0
  0
LWPOLYLINE
  5
2c8
100
AcDbEntity
  8
レイヤー_1
 62
1
100
AcDbPolyline
 90
2
 70
0
 10
100.269930
 20
68.738240
 30
0.0
 10
53.381663
 20
74.673420
 30
0.0
  0
LWPOLYLINE
  5
2c9
100
AcDbEntity
  8
レイヤー_1
 62
1
100
AcDbPolyline
 90
2
 70
0
 10
129.132450
 20
66.213170
 30
0.0
 10
100.269930
 20
68.738240
 30
0.0
  0
LWPOLYLINE
  5
2ca
100
AcDbEntity
  8
レイヤー_1
 62
1
100
AcDbPolyline
 90
2
 70
0
 10
50.852843
 20
74.894650
 30
0.0
 10
30.956012
 20
76.635630
 30
0.0
  0
LWPOLYLINE
  5
2cb
100
AcDbEntity
  8
レイヤー_1
 62
1
100
AcDbPolyline
 90
2
 70
0
 10
53.381663
 20
74.673420
 30
0.0
 10
50.852843
 20
74.894650
 30
0.0
  0
LWPOLYLINE
  5
2cc
100
AcDbEntity
  8
レイヤー_1
 62
1
100
AcDbPolyline
 90
2
 70
0
 10
129.132440
 20
66.213170
 30
0.0
 10
161.909020
 20
66.213160
 30
0.0
  0
ENDSEC
  0
SECTION
  2
OBJECTS
  0
DICTIONARY
  5
C
330
0
100
AcDbDictionary
  3
ACAD_GROUP
350
D
  3
ACAD_MLINESTYLE
350
17
  0
DICTIONARY
  5
D
330
C
100
AcDbDictionary
  0
DICTIONARY
  5
1A
330
C
100
AcDbDictionary
  0
DICTIONARY
  5
17
330
C
100
AcDbDictionary
  3
STANDARD
350
18
  0
DICTIONARY
  5
19
330
C
100
AcDbDictionary
  0
ENDSEC
  0
EOF
