<?xml version="1.0" encoding="UTF-8" standalone="no"?>
<svg
   xmlns:dc="http://purl.org/dc/elements/1.1/"
   xmlns:cc="http://creativecommons.org/ns#"
   xmlns:rdf="http://www.w3.org/1999/02/22-rdf-syntax-ns#"
   xmlns:svg="http://www.w3.org/2000/svg"
   xmlns="http://www.w3.org/2000/svg"
   xmlns:sodipodi="http://sodipodi.sourceforge.net/DTD/sodipodi-0.dtd"
   xmlns:inkscape="http://www.inkscape.org/namespaces/inkscape"
   width="297mm"
   height="210mm"
   viewBox="0 0 297 210"
   version="1.1"
   id="svg6925"
   inkscape:version="1.0.1 (3bc2e813f5, 2020-09-07)"
   sodipodi:docname="マウントプレート.svg">
  <defs
     id="defs6919">
    <inkscape:path-effect
       effect="spiro"
       id="path-effect4356"
       is_visible="true"
       lpeversion="1" />
    <inkscape:path-effect
       effect="spiro"
       id="path-effect4369"
       is_visible="true"
       lpeversion="1" />
    <inkscape:path-effect
       effect="spiro"
       id="path-effect4373"
       is_visible="true"
       lpeversion="1" />
    <inkscape:path-effect
       effect="spiro"
       id="path-effect4431"
       is_visible="true"
       lpeversion="1" />
    <inkscape:path-effect
       effect="spiro"
       id="path-effect4439"
       is_visible="true"
       lpeversion="1" />
    <inkscape:path-effect
       effect="spiro"
       id="path-effect4492"
       is_visible="true"
       lpeversion="1" />
    <inkscape:path-effect
       effect="spiro"
       id="path-effect4496"
       is_visible="true"
       lpeversion="1" />
    <inkscape:path-effect
       effect="spiro"
       id="path-effect4500"
       is_visible="true"
       lpeversion="1" />
    <inkscape:path-effect
       effect="spiro"
       id="path-effect4561"
       is_visible="true"
       lpeversion="1" />
    <inkscape:path-effect
       effect="spiro"
       id="path-effect4570"
       is_visible="true"
       lpeversion="1" />
    <inkscape:path-effect
       effect="spiro"
       id="path-effect4589"
       is_visible="true"
       lpeversion="1" />
    <inkscape:path-effect
       effect="spiro"
       id="path-effect4603"
       is_visible="true"
       lpeversion="1" />
    <inkscape:path-effect
       effect="spiro"
       id="path-effect4706"
       is_visible="true"
       lpeversion="1" />
    <inkscape:path-effect
       effect="spiro"
       id="path-effect5375"
       is_visible="true"
       lpeversion="1" />
    <inkscape:path-effect
       effect="spiro"
       id="path-effect5379"
       is_visible="true"
       lpeversion="1" />
    <inkscape:path-effect
       effect="spiro"
       id="path-effect5383"
       is_visible="true"
       lpeversion="1" />
    <inkscape:path-effect
       effect="spiro"
       id="path-effect5387"
       is_visible="true"
       lpeversion="1" />
    <inkscape:path-effect
       effect="spiro"
       id="path-effect5393"
       is_visible="true"
       lpeversion="1" />
  </defs>
  <sodipodi:namedview
     id="base"
     pagecolor="#ffffff"
     bordercolor="#666666"
     borderopacity="1.0"
     inkscape:pageopacity="0.0"
     inkscape:pageshadow="2"
     inkscape:zoom="0.7"
     inkscape:cx="365.68542"
     inkscape:cy="410.77314"
     inkscape:document-units="mm"
     inkscape:current-layer="layer1"
     inkscape:document-rotation="0"
     showgrid="false"
     inkscape:window-width="2249"
     inkscape:window-height="1228"
     inkscape:window-x="5912"
     inkscape:window-y="937"
     inkscape:window-maximized="0" />
  <metadata
     id="metadata6922">
    <rdf:RDF>
      <cc:Work
         rdf:about="">
        <dc:format>image/svg+xml</dc:format>
        <dc:type
           rdf:resource="http://purl.org/dc/dcmitype/StillImage" />
        <dc:title></dc:title>
      </cc:Work>
    </rdf:RDF>
  </metadata>
  <g
     inkscape:label="レイヤー 1"
     inkscape:groupmode="layer"
     id="layer1">
    <path
       id="path3670"
       style="display:inline;fill:none;stroke:#ff0000;stroke-width:0.352777;stroke-linecap:butt;stroke-miterlimit:3.76316;stroke-dasharray:none;stroke-opacity:1"
       d="m 239.13853,123.10068 0.27453,3.13844 m -1.06089,-12.1267 0.27456,3.13845 m 14.43184,4.63197 0.27453,3.13843 m -1.06088,-12.12665 0.27454,3.13838 m -14.27303,-2.81725 13.92,-1.21786 m -13.84156,2.11453 -0.0784,-0.89667 m 0.86482,9.88494 -0.51183,-5.84982 m 0.86481,9.88492 -0.0785,-0.89666 m 13.99847,-0.32119 -13.92,1.21788 m 13.84157,-2.11453 0.0785,0.89668 m -0.86482,-9.88494 0.5118,5.8498 m -0.8648,-9.88494 0.0785,0.8967" />
    <path
       id="path3672"
       style="display:inline;fill:none;stroke:#ff0000;stroke-width:0.352777;stroke-linecap:butt;stroke-miterlimit:3.76316;stroke-dasharray:none;stroke-opacity:1"
       d="m 237.47822,104.12335 0.27457,3.13841 m -1.06098,-12.12668 0.27461,3.138421 m 14.43182,4.631999 0.27463,3.1384 m -1.06101,-12.126655 0.27461,3.138408 m -14.27308,-2.817228 13.92002,-1.217856 m -13.8416,2.114511 -0.0784,-0.89666 m 0.86482,9.88492 -0.51178,-5.849844 m 0.86481,9.884954 -0.0785,-0.89669 m 13.99851,-0.32116 -13.92006,1.21783 m 13.84163,-2.11453 0.0784,0.8967 m -0.86484,-9.884952 0.51176,5.849852 m -0.86483,-9.884933 0.0784,0.896667" />
    <path
       id="path3674"
       style="display:inline;fill:none;stroke:#ff0000;stroke-width:0.352777;stroke-linecap:butt;stroke-miterlimit:3.76316;stroke-dasharray:none;stroke-opacity:1"
       d="m 235.81791,85.145966 0.27455,3.138406 m -1.06091,-12.126651 0.27454,3.138403 m 14.43187,4.631997 0.27453,3.138403 m -1.0609,-12.126652 0.27454,3.138404 m -14.27302,-2.817254 13.92003,-1.217848 m -13.84159,2.114547 -0.0784,-0.896697 m 0.86482,9.884947 -0.51181,-5.849845 m 0.86484,9.884937 -0.0785,-0.896691 m 13.9985,-0.321154 -13.92004,1.217848 m 13.84157,-2.114542 0.0785,0.896696 m -0.86484,-9.884939 0.51184,5.84984 m -0.86482,-9.884941 0.0785,0.896693" />
    <path
       id="path3676"
       style="display:inline;fill:none;stroke:#ff0000;stroke-width:0.352777;stroke-linecap:butt;stroke-miterlimit:3.76316;stroke-dasharray:none;stroke-opacity:1"
       d="m 215.17997,67.828925 0.27459,3.138407 m -1.06095,-12.126676 0.27457,3.138414 m 14.43181,4.632009 0.27461,3.13841 m -1.06099,-12.126675 0.27464,3.138406 m -14.27309,-2.817227 13.92001,-1.217848 m -13.84156,2.114511 -0.0785,-0.896661 m 0.86482,9.884926 -0.51181,-5.849853 m 0.8648,9.884964 -0.0785,-0.896698 m 13.99849,-0.321151 -13.92005,1.217844 m 13.84162,-2.11454 0.0784,0.896693 m -0.86484,-9.884957 0.51177,5.849858 m -0.86481,-9.884936 0.0784,0.896662" />
    <path
       id="path3678"
       style="display:inline;fill:none;stroke:#ff0000;stroke-width:0.352777;stroke-linecap:butt;stroke-miterlimit:3.76316;stroke-dasharray:none;stroke-opacity:1"
       d="m 196.03659,67.591478 0.27453,3.138442 m -1.06092,-12.12668 0.2746,3.138408 m 14.43179,4.631981 0.2746,3.138444 m -1.06096,-12.126677 0.2746,3.138415 m -14.27307,-2.817266 13.92,-1.217841 m -13.84156,2.114536 -0.0785,-0.896694 m 0.86481,9.884932 -0.5118,-5.849825 m 0.86483,9.884932 -0.0785,-0.896664 m 13.99854,-0.32118 -13.92006,1.217844 m 13.84159,-2.114512 0.0784,0.896667 m -0.86484,-9.884927 0.51176,5.849821 m -0.86482,-9.88493 0.0785,0.896693" />
    <path
       id="path3680"
       style="display:inline;fill:none;stroke:#ff0000;stroke-width:0.352777;stroke-linecap:butt;stroke-miterlimit:3.76316;stroke-dasharray:none;stroke-opacity:1"
       d="m 177.22524,71.14953 0.27452,3.138418 m -1.06089,-12.126682 0.27456,3.138412 m 14.43182,4.632009 c 0,0 0.27459,3.138415 0.27459,3.138415 m -1.06097,-12.126679 0.27462,3.138408 m -14.27306,-2.81723 13.92001,-1.217843 m -13.84157,2.114508 -0.0785,-0.896666 m 0.8648,9.88493 -0.51183,-5.849848 m 0.86481,9.884959 -0.0785,-0.896695 m 13.9985,-0.32115 -13.92008,1.217848 m 13.84162,-2.11454 0.0784,0.896694 m -0.86479,-9.884963 0.51174,5.84986 m -0.86478,-9.884934 0.0784,0.896666" />
    <path
       id="path3682"
       style="display:inline;fill:none;stroke:#ff0000;stroke-width:0.352777;stroke-linecap:butt;stroke-miterlimit:3.76316;stroke-dasharray:none;stroke-opacity:1"
       d="m 158.4139,74.707554 0.27455,3.138418 m -1.0609,-12.126656 0.27454,3.138428 m 14.43182,4.631972 0.2746,3.138408 m -1.06095,-12.126647 0.27457,3.13842 m -14.27304,-2.817272 13.92003,-1.217842 m -13.84157,2.114533 -0.0785,-0.896691 m 0.86484,9.884926 -0.51183,-5.849807 m 0.86481,9.884919 -0.0785,-0.896697 m 13.9985,-0.321151 -13.92008,1.217848 m 13.84162,-2.114539 0.0784,0.896694 m -0.86483,-9.884924 0.51179,5.849814 m -0.86484,-9.884927 0.0784,0.896692" />
    <path
       id="path3684"
       style="display:inline;fill:none;stroke:#ff0000;stroke-width:0.352777;stroke-linecap:butt;stroke-miterlimit:3.76316;stroke-dasharray:none;stroke-opacity:1"
       d="m 173.99424,92.467109 0.27458,3.138413 m -1.06095,-12.126674 0.27458,3.138461 m -13.40827,7.067656 0.27461,3.138408 m -1.06099,-12.12668 0.2746,3.138458 m -0.2746,-3.138458 -0.0784,-0.896673 m 0,0 13.92005,-1.217848 m -13.05522,11.102787 -0.51181,-5.849802 m 0.86484,9.884904 -0.0784,-0.896688 m 13.9985,-0.321165 -13.92007,1.217851 m 13.84162,-2.114529 0.0785,0.896683 m -0.86486,-9.884899 0.51178,5.849803 m -0.86482,-9.884942 0.0784,0.896678" />
    <path
       id="path3687"
       style="display:inline;fill:none;stroke:#ff0000;stroke-width:0.352777;stroke-linecap:butt;stroke-miterlimit:3.76316;stroke-dasharray:none;stroke-opacity:1"
       d="m 192.80555,88.909087 0.27461,3.1384 m -1.06096,-12.126671 0.27461,3.13844 m -13.40828,7.067677 0.27456,3.138405 m -1.06094,-12.126682 0.27459,3.13844 m -0.35304,-4.035126 13.92006,-1.217848 m -13.84161,2.114534 -0.0784,-0.896686 m 0.86486,9.884965 -0.51181,-5.849832 m 0.86483,9.884897 -0.0784,-0.896665 m 13.9985,-0.32118 L 179.2387,94.162 m 13.8416,-2.11451 0.0785,0.896665 m -0.86481,-9.884899 0.51173,5.849839 m -0.86478,-9.884966 0.0784,0.896684" />
    <path
       id="path3690"
       style="display:inline;fill:none;stroke:#ff0000;stroke-width:0.352777;stroke-linecap:butt;stroke-miterlimit:3.76316;stroke-dasharray:none;stroke-opacity:1"
       d="m 211.61693,85.351034 0.27455,3.138403 m -1.06093,-12.126653 0.27456,3.1384 m -13.40824,7.067693 0.27458,3.138405 m -1.06098,-12.12665 0.27464,3.138405 m -0.35307,-4.035102 13.92008,-1.217845 m -13.84165,2.114542 -0.0784,-0.896694 m 0.86481,9.884944 -0.51175,-5.849848 m 0.86484,9.88494 -0.0784,-0.896694 m 13.99848,-0.321149 -13.92,1.217843 m 13.84157,-2.114542 0.0784,0.896694 m -0.86483,-9.884934 0.51179,5.849842 m -0.86482,-9.88494 0.0785,0.89669" />
    <path
       id="path3693"
       style="display:inline;fill:none;stroke:#ff0000;stroke-width:0.352777;stroke-linecap:butt;stroke-miterlimit:3.76316;stroke-dasharray:none;stroke-opacity:1"
       d="m 230.76031,85.588479 0.27458,3.138403 m -1.0609,-12.126685 0.27454,3.138445 m -13.40826,7.067682 0.2746,3.138401 m -1.06096,-12.12668 0.27459,3.138445 m -0.35303,-4.035131 13.92005,-1.217845 m -13.84161,2.114531 -0.0785,-0.896684 m 0.8648,9.884963 -0.51176,-5.849837 m 0.86479,9.884905 -0.0784,-0.896667 m 13.99844,-0.321181 -13.92002,1.217848 m 13.8416,-2.11451 0.0784,0.896667 m -0.86477,-9.884912 0.51179,5.849839 m -0.8648,-9.884962 0.0784,0.896686" />
    <path
       id="path3695"
       style="display:inline;fill:none;stroke:#ff0000;stroke-width:0.352777;stroke-linecap:butt;stroke-miterlimit:3.76316;stroke-dasharray:none;stroke-opacity:1"
       d="m 218.50059,105.78366 0.27455,3.13842 m -1.06091,-12.126626 0.27456,3.138413 m 14.43185,4.631973 0.27458,3.13838 m -1.06096,-12.126619 0.27455,3.138421 m -14.27301,-2.817273 13.92001,-1.217845 m -13.84158,2.11455 -0.0784,-0.8967 m 0.8648,9.884926 -0.51181,-5.849826 m 0.8648,9.884936 -0.0784,-0.89671 m 13.9985,-0.32115 -13.92005,1.21784 m 13.84162,-2.11454 0.0785,0.8967 m -0.86483,-9.884911 0.51185,5.849801 m -0.86485,-9.884908 0.0784,0.896689" />
    <path
       id="path3697"
       style="display:inline;fill:none;stroke:#ff0000;stroke-width:0.352777;stroke-linecap:butt;stroke-miterlimit:3.76316;stroke-dasharray:none;stroke-opacity:1"
       d="m 199.35722,105.54624 0.27452,3.13842 m -1.06091,-12.126643 0.27454,3.138397 m 14.43187,4.631996 0.27457,3.13841 m -1.06095,-12.126657 0.27458,3.138401 M 198.49239,95.661323 212.4124,94.44348 m -13.84157,2.114537 -0.0785,-0.8967 m 0.86484,9.884933 -0.51185,-5.849833 m 0.86483,9.884953 -0.0785,-0.89671 m 13.99852,-0.32116 -13.92004,1.21784 m 13.8416,-2.11454 0.0784,0.8967 m -0.86482,-9.884934 0.51179,5.849834 m -0.86483,-9.884928 0.0784,0.896697" />
    <path
       id="path3699"
       style="display:inline;fill:none;stroke:#ff0000;stroke-width:0.352777;stroke-linecap:butt;stroke-miterlimit:3.76316;stroke-dasharray:none;stroke-opacity:1"
       d="m 180.54584,109.10428 0.27457,3.13838 m -1.06094,-12.12661 0.2746,3.13843 m 14.43181,4.63196 0.27457,3.13839 m -1.06092,-12.126621 0.27453,3.138391 m -14.27302,-2.81724 13.92002,-1.217845 m -13.84159,2.114535 -0.0785,-0.896685 m 0.86482,9.884925 -0.51179,-5.84982 m 0.86477,9.88492 -0.0785,-0.89671 m 13.9985,-0.32114 -13.92005,1.21785 m 13.84162,-2.11455 0.0784,0.8967 m -0.86482,-9.88493 0.5118,5.84983 m -0.86481,-9.884923 0.0784,0.8967" />
    <path
       id="path3701"
       style="display:inline;fill:none;stroke:#ff0000;stroke-width:0.352777;stroke-linecap:butt;stroke-miterlimit:3.76316;stroke-dasharray:none;stroke-opacity:1"
       d="m 161.73452,112.66232 0.27456,3.13842 m -1.06093,-12.12663 0.27456,3.13837 m 14.43185,4.632 0.27454,3.1384 m -1.0609,-12.12663 0.27453,3.1384 m -14.27303,-2.81725 13.92003,-1.21784 m -13.84158,2.11455 -0.0785,-0.89671 m 0.86484,9.88491 -0.51183,-5.84982 m 0.86482,9.88494 -0.0784,-0.89672 m 13.99848,-0.3211 -13.92003,1.21781 m 13.84157,-2.11454 0.0784,0.89669 m -0.86483,-9.88493 0.51183,5.84983 m -0.86483,-9.88493 0.0784,0.8967" />
    <path
       id="path3703"
       style="display:inline;fill:none;stroke:#ff0000;stroke-width:0.352777;stroke-linecap:butt;stroke-miterlimit:3.76316;stroke-dasharray:none;stroke-opacity:1"
       d="m 51.903453,123.10069 -0.27455,3.13844 m 1.06093,-12.1267 -0.27456,3.13845 m -14.431861,4.63195 -0.27455,3.13847 m 1.06092,-12.12667 -0.27458,3.13838 m 14.273071,-2.81724 -13.920041,-1.21789 m 13.841601,2.11455 0.0784,-0.89667 m -0.86482,9.88494 0.51185,-5.84982 m -0.86485,9.88492 0.0785,-0.89666 m -13.998471,-0.32122 13.920001,1.21791 m -13.841581,-2.11452 -0.0785,0.89669 m 0.86482,-9.88496 -0.51179,5.8498 m 0.86481,-9.88493 -0.0785,0.89671" />
    <path
       id="path3705"
       style="display:inline;fill:none;stroke:#ff0000;stroke-width:0.352777;stroke-linecap:butt;stroke-miterlimit:3.76316;stroke-dasharray:none;stroke-opacity:1"
       d="m 53.563783,104.12335 -0.27461,3.13841 m 1.061,-12.12668 -0.27463,3.138416 m -14.43182,4.632004 -0.27459,3.1384 m 1.06099,-12.12666 -0.27461,3.13841 m 14.2731,-2.81723 -13.92004,-1.217848 m 13.8416,2.114508 0.0784,-0.896663 m -0.86483,9.884933 0.51176,-5.84986 m -0.86482,9.88495 0.0785,-0.89668 m -13.998491,-0.32116 13.920041,1.21785 m -13.84159,-2.11455 -0.0784,0.8967 m 0.864841,-9.884955 -0.511781,5.849855 m 0.864851,-9.884933 -0.0784,0.89667" />
    <path
       id="path3707"
       style="display:inline;fill:none;stroke:#ff0000;stroke-width:0.352777;stroke-linecap:butt;stroke-miterlimit:3.76316;stroke-dasharray:none;stroke-opacity:1"
       d="m 55.224073,85.145966 -0.27457,3.138411 m 1.06091,-12.126653 -0.274521,3.138402 m -14.431869,4.632 -0.27453,3.1384 m 1.06092,-12.12665 -0.27458,3.138402 M 56.088894,75.261025 42.168843,74.043178 m 13.84157,2.114546 0.0784,-0.896699 m -0.864819,9.884946 0.51183,-5.849842 m -0.86486,9.884939 0.0785,-0.896691 m -13.9985,-0.321157 13.92005,1.217846 m -13.84156,-2.114542 -0.0785,0.896699 m 0.86484,-9.884939 -0.51182,5.849842 m 0.86484,-9.884942 -0.0785,0.896693" />
    <path
       id="path3709"
       style="display:inline;fill:none;stroke:#ff0000;stroke-width:0.352777;stroke-linecap:butt;stroke-miterlimit:3.76316;stroke-dasharray:none;stroke-opacity:1"
       d="m 75.862002,67.828929 -0.274579,3.138406 m 1.060929,-12.126675 -0.27455,3.138413 m -14.431809,4.632008 -0.27463,3.13841 m 1.06099,-12.126674 -0.2746,3.138407 M 76.726822,57.943997 62.806794,56.726149 m 13.841558,2.114511 0.0785,-0.896662 m -0.86482,9.884928 0.51181,-5.849858 m -0.864822,9.884969 0.0785,-0.896701 m -13.998491,-0.32115 13.92005,1.217842 m -13.841615,-2.114538 -0.0784,0.896693 m 0.864841,-9.884958 -0.511791,5.849858 m 0.864791,-9.884934 -0.0784,0.896662" />
    <path
       id="path3711"
       style="display:inline;fill:none;stroke:#ff0000;stroke-width:0.352777;stroke-linecap:butt;stroke-miterlimit:3.76316;stroke-dasharray:none;stroke-opacity:1"
       d="m 95.005392,67.59148 -0.27455,3.138443 m 1.06095,-12.12668 -0.274629,3.138408 m -14.43177,4.631979 -0.274611,3.138444 m 1.060972,-12.126675 -0.274622,3.138415 m 14.273091,-2.817265 -13.92002,-1.21784 m 13.841589,2.114534 0.0785,-0.896695 m -0.86482,9.884932 0.511789,-5.849825 m -0.86483,9.884934 0.0785,-0.896665 m -13.998497,-0.321182 13.92002,1.217847 m -13.841571,-2.114515 -0.0784,0.896669 m 0.864799,-9.88493 -0.51176,5.849825 m 0.86482,-9.884932 -0.0785,0.896694" />
    <path
       id="path3713"
       style="display:inline;fill:none;stroke:#ff0000;stroke-width:0.352777;stroke-linecap:butt;stroke-miterlimit:3.76316;stroke-dasharray:none;stroke-opacity:1"
       d="m 113.81674,71.14954 -0.27452,3.138416 m 1.06089,-12.126682 -0.27456,3.13841 m -14.431805,4.632011 c 0,0 -0.274633,3.138415 -0.274633,3.138415 m 1.060978,-12.126679 -0.27458,3.138409 m 14.27304,-2.81723 -13.92002,-1.217842 m 13.84158,2.114506 0.0785,-0.896666 m -0.8648,9.884931 0.51182,-5.84985 m -0.86482,9.884961 0.0785,-0.896697 m -13.998495,-0.32115 13.920055,1.21785 m -13.841616,-2.114541 -0.0784,0.896692 m 0.864806,-9.884961 -0.511757,5.849859 m 0.864777,-9.884933 -0.0784,0.896666" />
    <path
       id="path3715"
       style="display:inline;fill:none;stroke:#ff0000;stroke-width:0.352777;stroke-linecap:butt;stroke-miterlimit:3.76316;stroke-dasharray:none;stroke-opacity:1"
       d="m 132.62808,74.707557 -0.27457,3.138417 m 1.06092,-12.126654 -0.27454,3.138427 m -14.43184,4.631972 -0.27458,3.138407 m 1.06097,-12.126647 -0.27461,3.138421 m 14.27308,-2.817273 -13.92005,-1.217842 m 13.84157,2.114535 0.0785,-0.896691 m -0.86487,9.884925 0.51183,-5.849808 m -0.86483,9.88492 0.0785,-0.896697 m -13.99849,-0.321151 13.92008,1.217848 m -13.8416,-2.114542 -0.0784,0.896696 m 0.86483,-9.884924 -0.5118,5.849817 m 0.86487,-9.884928 -0.0784,0.89669" />
    <path
       id="path3717"
       style="display:inline;fill:none;stroke:#ff0000;stroke-width:0.352777;stroke-linecap:butt;stroke-miterlimit:3.76316;stroke-dasharray:none;stroke-opacity:1"
       d="m 117.04772,92.467111 -0.27454,3.138414 m 1.06093,-12.126675 -0.27458,3.138461 m 13.40827,7.067656 -0.27463,3.138408 m 1.06101,-12.126679 -0.2746,3.138458 m 0.2746,-3.138458 0.0784,-0.896673 m 0,0 -13.92006,-1.217848 m 13.05522,11.102784 0.5118,-5.8498 m -0.86484,9.884905 0.0784,-0.896686 m -13.99848,-0.321165 13.92004,1.217848 m -13.84159,-2.114528 -0.0785,0.896686 m 0.86486,-9.884902 -0.5118,5.849802 m 0.86482,-9.884944 -0.0784,0.896678" />
    <path
       id="path3719"
       style="display:inline;fill:none;stroke:#ff0000;stroke-width:0.352777;stroke-linecap:butt;stroke-miterlimit:3.76316;stroke-dasharray:none;stroke-opacity:1"
       d="m 98.236434,88.90909 -0.274611,3.1384 m 1.060939,-12.126674 -0.274568,3.138442 m 13.408236,7.06768 -0.27454,3.138403 m 1.06092,-12.12668 -0.27459,3.13844 m 0.35304,-4.035126 -13.920036,-1.217851 m 13.841586,2.114537 0.0784,-0.896689 m -0.86484,9.884968 0.51178,-5.849834 m -0.86478,9.884897 0.0784,-0.896668 m -13.998476,-0.321177 13.920046,1.217845 m -13.841618,-2.11451 -0.0785,0.896665 m 0.86483,-9.8849 -0.511749,5.849837 m 0.86478,-9.884966 -0.0784,0.896687" />
    <path
       id="path3721"
       style="display:inline;fill:none;stroke:#ff0000;stroke-width:0.352777;stroke-linecap:butt;stroke-miterlimit:3.76316;stroke-dasharray:none;stroke-opacity:1"
       d="m 79.425032,85.351037 -0.274518,3.138402 m 1.060918,-12.126653 -0.27459,3.1384 m 13.40825,7.067693 -0.274539,3.138406 m 1.06096,-12.126651 -0.27464,3.138406 m 0.35305,-4.035102 -13.920079,-1.217846 m 13.841669,2.114542 0.0784,-0.896694 m -0.86482,9.884945 0.511771,-5.849848 m -0.864831,9.884942 0.0784,-0.896694 m -13.998479,-0.321151 13.91998,1.217845 m -13.841571,-2.114545 -0.0784,0.896694 m 0.864801,-9.884934 -0.51181,5.849843 m 0.86482,-9.88494 -0.0785,0.896689" />
    <path
       id="path3723"
       style="display:inline;fill:none;stroke:#ff0000;stroke-width:0.352777;stroke-linecap:butt;stroke-miterlimit:3.76316;stroke-dasharray:none;stroke-opacity:1"
       d="m 60.281672,85.588482 -0.27458,3.138405 m 1.0609,-12.126687 -0.27454,3.138445 m 13.40824,7.067685 -0.274558,3.1384 m 1.060918,-12.126682 -0.27459,3.138445 m 0.35302,-4.035132 -13.919999,-1.217844 m 13.841569,2.114531 0.0785,-0.896681 m -0.864801,9.88496 0.511781,-5.849837 m -0.86477,9.884905 0.0784,-0.896668 m -13.99848,-0.321183 13.92006,1.217851 m -13.841619,-2.11451 -0.0784,0.896667 m 0.864769,-9.88491 -0.511789,5.849837 m 0.86482,-9.884963 -0.0784,0.896686" />
    <path
       id="path3725"
       style="display:inline;fill:none;stroke:#ff0000;stroke-width:0.352777;stroke-linecap:butt;stroke-miterlimit:3.76316;stroke-dasharray:none;stroke-opacity:1"
       d="m 72.541402,105.78368 -0.27459,3.1384 m 1.06095,-12.126629 -0.274589,3.138414 m -14.431809,4.631975 -0.274601,3.13838 m 1.060961,-12.126614 -0.27455,3.138413 M 73.406182,95.898752 59.486194,94.680909 m 13.841568,2.114542 0.0784,-0.896694 m -0.86478,9.884923 0.51177,-5.849826 m -0.86478,9.884936 0.0784,-0.89673 m -13.99848,-0.32113 13.920049,1.21785 m -13.84164,-2.11456 -0.0785,0.89671 m 0.864849,-9.884916 -0.511829,5.849826 m 0.864849,-9.884931 -0.0784,0.896694" />
    <path
       id="path3727"
       style="display:inline;fill:none;stroke:#ff0000;stroke-width:0.352777;stroke-linecap:butt;stroke-miterlimit:3.76316;stroke-dasharray:none;stroke-opacity:1"
       d="m 91.684763,105.54626 -0.274521,3.1384 m 1.060932,-12.126646 -0.27458,3.1384 m -14.431862,4.631996 -0.274558,3.13841 m 1.060958,-12.126654 -0.274608,3.1384 M 92.549593,95.66132 78.629584,94.443477 m 13.84159,2.114537 0.0785,-0.896694 m -0.864841,9.88493 0.511831,-5.849833 m -0.86483,9.884923 0.0785,-0.89668 m -13.998519,-0.32115 13.920009,1.21783 m -13.841579,-2.11454 -0.0784,0.89668 m 0.864799,-9.884908 -0.51177,5.849848 m 0.864809,-9.884945 -0.0784,0.896696" />
    <path
       id="path3729"
       style="display:inline;fill:none;stroke:#ff0000;stroke-width:0.352777;stroke-linecap:butt;stroke-miterlimit:3.76316;stroke-dasharray:none;stroke-opacity:1"
       d="m 110.49615,109.1043 -0.2746,3.13838 m 1.06094,-12.12662 -0.27458,3.13841 m -14.431797,4.63195 -0.274601,3.13841 m 1.060942,-12.126616 -0.274531,3.138396 M 111.36094,99.219365 97.440932,98.00152 m 13.841558,2.11454 0.0785,-0.896692 m -0.8648,9.884902 0.51177,-5.84979 m -0.86477,9.8849 0.0785,-0.89668 m -13.998475,-0.32115 13.920045,1.21786 m -13.841636,-2.11457 -0.0784,0.8967 m 0.864841,-9.88493 -0.511781,5.84983 m 0.864801,-9.88492 -0.0784,0.896697" />
    <path
       id="path3731"
       style="display:inline;fill:none;stroke:#ff0000;stroke-width:0.352777;stroke-linecap:butt;stroke-miterlimit:3.76316;stroke-dasharray:none;stroke-opacity:1"
       d="m 129.30747,112.66233 -0.27458,3.13841 m 1.06092,-12.12667 -0.27454,3.13841 m -14.43185,4.63201 -0.27454,3.1384 m 1.06092,-12.12664 -0.27457,3.1384 m 14.27307,-2.81725 -13.92005,-1.21784 m 13.84156,2.11451 0.0785,-0.89667 m -0.86486,9.88492 0.51181,-5.84985 m -0.86482,9.88496 0.0784,-0.89671 m -13.99849,-0.32111 13.92004,1.21784 m -13.84157,-2.11456 -0.0784,0.8967 m 0.86483,-9.88493 -0.51181,5.8498 m 0.86483,-9.8849 -0.0784,0.89668" />
    <path
       id="path3747"
       style="display:inline;fill:none;stroke:#ff0000;stroke-width:0.352777;stroke-linecap:butt;stroke-miterlimit:3.76316;stroke-dasharray:none;stroke-opacity:1"
       d="m 108.75274,129.90979 -0.27458,3.13843 m 1.06097,-12.12671 -0.2746,3.13847 m 13.40826,7.06766 -0.27459,3.13842 m 1.06097,-12.12667 -0.27461,3.1384 m -13.56699,-5.25295 13.92006,1.21783 m -13.9985,-0.32116 0.0785,-0.89665 m -0.86482,9.88495 0.51179,-5.84983 m -0.86481,9.88492 0.0784,-0.89668 m 13.84156,2.11449 -13.91999,-1.21779 m 13.99848,0.32118 -0.0784,0.89668 m 0.86482,-9.88494 -0.51178,5.84978 m 0.86481,-9.88493 -0.0784,0.89671" />
    <path
       id="path3758"
       style="display:inline;fill:none;stroke:#ff0000;stroke-width:0.352777;stroke-linecap:butt;stroke-miterlimit:3.76316;stroke-dasharray:none;stroke-opacity:1"
       d="m 182.28911,129.90975 0.27458,3.13843 m -1.06097,-12.12671 0.2746,3.13847 m -13.40826,7.06766 0.27459,3.13842 m -1.06097,-12.12667 0.27461,3.1384 m 13.56699,-5.25295 -13.92006,1.21783 m 13.9985,-0.32116 -0.0785,-0.89665 m 0.86482,9.88495 -0.51179,-5.84983 m 0.86481,9.88492 -0.0784,-0.89668 m -13.84156,2.11449 13.91999,-1.21779 m -13.99848,0.32118 0.0784,0.89668 m -0.86482,-9.88494 0.51178,5.84978 m -0.86481,-9.88493 0.0784,0.89671" />
    <path
       id="path4308"
       style="display:inline;fill:none;fill-opacity:1;stroke:#ff0000;stroke-width:0.352777;stroke-linecap:butt;stroke-miterlimit:3.76316;stroke-dasharray:none;stroke-opacity:1"
       d="m 194.47432,49.736983 44.26851,-7e-6" />
    <path
       style="display:inline;fill:none;stroke:#ff0000;stroke-width:0.352777;stroke-linecap:round;stroke-miterlimit:3.76316;stroke-dasharray:none;stroke-opacity:1"
       d="m 261.90321,131.19772 c -0.005,0.55476 -0.2273,1.10459 -0.60845,1.50771 -0.32066,0.33914 -0.75053,0.57337 -1.20934,0.65895"
       id="path4354"
       inkscape:path-effect="#path-effect4356"
       inkscape:original-d="m 261.90321,131.19772 c -0.15433,0.52948 -0.28762,1.95587 -0.60845,1.50771 -1.39076,-1.94285 -0.75775,0.46621 -1.20934,0.65895"
       sodipodi:nodetypes="csc" />
    <path
       style="display:inline;fill:none;stroke:#ff0000;stroke-width:0.352777;stroke-linecap:butt;stroke-miterlimit:3.76316;stroke-dasharray:none;stroke-opacity:1"
       d="m 238.74283,49.736974 14.02622,1.57e-4"
       id="path4366"
       inkscape:path-effect="#path-effect4369"
       inkscape:original-d="m 238.74283,49.736974 c 4.67566,2.65e-4 9.35109,2.65e-4 14.02622,1.57e-4" />
    <path
       style="display:inline;fill:none;stroke:#ff0000;stroke-width:0.352777;stroke-linecap:round;stroke-linejoin:miter;stroke-miterlimit:3.76316;stroke-dasharray:none;stroke-opacity:1"
       d="m 252.76905,49.737131 c 0.53634,0.07328 1.04762,0.3199 1.43885,0.694036 0.36465,0.34872 0.62385,0.806306 0.73547,1.298361"
       id="path4371"
       inkscape:path-effect="#path-effect4373"
       inkscape:original-d="m 252.76905,49.737131 c 0.42199,0.343283 1.0174,0.351282 1.43885,0.694036 0.42146,0.342757 0.43268,0.977511 0.73547,1.298361"
       sodipodi:nodetypes="csc" />
    <path
       style="display:inline;fill:none;stroke:#ff000d;stroke-width:0.352999;stroke-miterlimit:3.76316;stroke-dasharray:none;stroke-opacity:1"
       d="m 257.42312,80.044085 4.48009,51.153635"
       id="path4429"
       inkscape:path-effect="#path-effect4431"
       inkscape:original-d="m 257.42312,80.044085 c 1.49363,17.051478 2.98699,34.102685 4.48009,51.153635" />
    <path
       style="display:inline;fill:none;stroke:#ff000d;stroke-width:0.352999;stroke-miterlimit:3.76316;stroke-dasharray:none;stroke-opacity:1"
       d="m 254.94337,51.729528 2.45936,28.115614"
       id="path4437"
       inkscape:path-effect="#path-effect4439"
       inkscape:original-d="m 254.94337,51.729528 c 0.82005,9.372137 1.63984,18.744009 2.45936,28.115614" />
    <path
       id="path4447"
       style="display:inline;fill:none;fill-opacity:1;stroke:#ff0000;stroke-width:0.352777;stroke-linecap:butt;stroke-miterlimit:3.76316;stroke-dasharray:none;stroke-opacity:1"
       d="m 96.567344,49.736972 -44.268511,-7e-6" />
    <path
       style="display:inline;fill:none;stroke:#ff0000;stroke-width:0.352777;stroke-linecap:round;stroke-miterlimit:3.76316;stroke-dasharray:none;stroke-opacity:1"
       d="m 29.138452,131.19771 c 0.0054,0.55476 0.227296,1.10459 0.60845,1.50771 0.320657,0.33914 0.750527,0.57337 1.20934,0.65895"
       id="path4489"
       inkscape:path-effect="#path-effect4492"
       inkscape:original-d="m 29.138452,131.19771 c 0.15433,0.52948 0.28762,1.95587 0.60845,1.50771 1.39076,-1.94285 0.75775,0.46621 1.20934,0.65895"
       sodipodi:nodetypes="csc" />
    <path
       style="display:inline;fill:none;stroke:#ff0000;stroke-width:0.352777;stroke-linecap:butt;stroke-miterlimit:3.76316;stroke-dasharray:none;stroke-opacity:1"
       d="M 52.298833,49.736963 38.272612,49.73712"
       id="path4494"
       inkscape:path-effect="#path-effect4496"
       inkscape:original-d="m 52.298833,49.736963 c -4.67566,2.65e-4 -9.35109,2.65e-4 -14.026221,1.57e-4" />
    <path
       style="display:inline;fill:none;stroke:#ff0000;stroke-width:0.352777;stroke-linecap:round;stroke-linejoin:miter;stroke-miterlimit:3.76316;stroke-dasharray:none;stroke-opacity:1"
       d="m 38.272612,49.73712 c -0.536345,0.07328 -1.047623,0.3199 -1.43885,0.694036 -0.364651,0.34872 -0.623855,0.806306 -0.73547,1.298361"
       id="path4498"
       inkscape:path-effect="#path-effect4500"
       inkscape:original-d="m 38.272612,49.73712 c -0.42199,0.343283 -1.0174,0.351282 -1.43885,0.694036 -0.42146,0.342757 -0.43268,0.977511 -0.73547,1.298361"
       sodipodi:nodetypes="csc" />
    <path
       style="display:inline;fill:none;stroke:#ff000d;stroke-width:0.352999;stroke-miterlimit:3.76316;stroke-dasharray:none;stroke-opacity:1"
       d="m 33.618542,80.044074 -4.48009,51.153636"
       id="path4558"
       inkscape:path-effect="#path-effect4561"
       inkscape:original-d="m 33.618542,80.044074 c -1.49363,17.051478 -2.98699,34.102686 -4.48009,51.153636" />
    <path
       style="display:inline;fill:none;stroke:#ff000d;stroke-width:0.352999;stroke-miterlimit:3.76316;stroke-dasharray:none;stroke-opacity:1"
       d="M 36.098292,51.729517 33.638933,79.845132"
       id="path4568"
       inkscape:path-effect="#path-effect4570"
       inkscape:original-d="m 36.098292,51.729517 c -0.82005,9.372137 -1.63984,18.744009 -2.459359,28.115615" />
    <path
       style="display:inline;fill:none;stroke:#ff000d;stroke-width:0.352777;stroke-miterlimit:3.76316;stroke-dasharray:none;stroke-opacity:1"
       d="m 156.34383,49.736982 h 38.13048"
       id="path4587"
       inkscape:path-effect="#path-effect4589"
       inkscape:original-d="m 156.34383,49.736982 c 12.71042,2.65e-4 25.42058,2.65e-4 38.13048,0" />
    <path
       style="display:inline;fill:none;stroke:#ff000d;stroke-width:0.352777;stroke-miterlimit:3.76316;stroke-dasharray:none;stroke-opacity:1"
       d="M 134.69783,49.736971 H 96.567352"
       id="path4601"
       inkscape:path-effect="#path-effect4603"
       inkscape:original-d="m 134.69783,49.736971 c -12.71042,2.65e-4 -25.42058,2.65e-4 -38.130478,0" />
    <path
       style="display:inline;fill:none;stroke:#ff0000;stroke-width:0.352777;stroke-miterlimit:3.76316;stroke-dasharray:none;stroke-opacity:1"
       d="m 134.69781,49.736969 21.64602,1.3e-5"
       id="path4704"
       inkscape:path-effect="#path-effect4706"
       inkscape:original-d="m 134.69781,49.736969 c 7.21561,2.65e-4 14.43093,2.65e-4 21.64602,1.3e-5" />
    <circle
       style="display:inline;fill:none;stroke:#ff0000;stroke-width:0.352777;stroke-miterlimit:3.76316;stroke-dasharray:none;stroke-opacity:1"
       id="circle5264"
       cx="251.68054"
       cy="53.059872"
       r="0.92361152" />
    <circle
       style="display:inline;fill:none;stroke:#ff0000;stroke-width:0.352777;stroke-miterlimit:3.76316;stroke-dasharray:none;stroke-opacity:1"
       id="circle5266"
       cx="258.48428"
       cy="130.31424"
       r="0.92361152" />
    <circle
       style="display:inline;fill:none;stroke:#ff0000;stroke-width:0.352777;stroke-miterlimit:3.76316;stroke-dasharray:none;stroke-opacity:1"
       id="circle5268"
       cx="159.16989"
       cy="53.714252"
       r="0.92361152" />
    <circle
       style="display:inline;fill:none;stroke:#ff0000;stroke-width:0.352777;stroke-miterlimit:3.76316;stroke-dasharray:none;stroke-opacity:1"
       id="circle5270"
       cx="159.16994"
       cy="140.76971"
       r="0.92361152" />
    <circle
       style="display:inline;fill:none;stroke:#ff0000;stroke-width:0.352777;stroke-miterlimit:3.76316;stroke-dasharray:none;stroke-opacity:1"
       id="circle5272"
       cx="-39.361149"
       cy="53.059875"
       r="0.92361152"
       transform="scale(-1,1)" />
    <circle
       style="display:inline;fill:none;stroke:#ff0000;stroke-width:0.352777;stroke-miterlimit:3.76316;stroke-dasharray:none;stroke-opacity:1"
       id="circle5274"
       cx="-32.557438"
       cy="130.31424"
       r="0.92361152"
       transform="scale(-1,1)" />
    <circle
       style="display:inline;fill:none;stroke:#ff0000;stroke-width:0.352777;stroke-miterlimit:3.76316;stroke-dasharray:none;stroke-opacity:1"
       id="circle5276"
       cx="-131.8718"
       cy="53.714256"
       r="0.92361152"
       transform="scale(-1,1)" />
    <circle
       style="display:inline;fill:none;stroke:#ff0000;stroke-width:0.352777;stroke-miterlimit:3.76316;stroke-dasharray:none;stroke-opacity:1"
       id="circle5278"
       cx="-131.87178"
       cy="140.76971"
       r="0.92361152"
       transform="scale(-1,1)" />
    <path
       style="display:inline;fill:none;stroke:#ff0000;stroke-width:0.352777;stroke-miterlimit:3.76316;stroke-dasharray:none;stroke-opacity:1"
       d="m 237.65981,135.32659 2.52882,-0.22123"
       id="path5373"
       inkscape:path-effect="#path-effect5375"
       inkscape:original-d="m 237.65981,135.32659 c 0.8431,-0.0735 1.68603,-0.14721 2.52882,-0.22123" />
    <path
       style="display:inline;fill:none;stroke:#ff0000;stroke-width:0.352777;stroke-miterlimit:3.76316;stroke-dasharray:none;stroke-opacity:1"
       d="m 240.18863,135.10536 19.89683,-1.74098"
       id="path5377"
       inkscape:path-effect="#path-effect5379"
       inkscape:original-d="m 240.18863,135.10536 c 7.29667,-0.63816 12.6007,-1.10229 19.89683,-1.74098"
       sodipodi:nodetypes="cc" />
    <path
       style="display:inline;fill:none;stroke:#ff0000;stroke-width:0.352777;stroke-miterlimit:3.76316;stroke-dasharray:none;stroke-opacity:1"
       d="m 161.90902,143.78684 28.86252,-2.52507"
       id="path5381"
       inkscape:path-effect="#path-effect5383"
       inkscape:original-d="m 161.90902,143.78684 c 9.62112,-0.84143 19.24195,-1.68312 28.86252,-2.52507" />
    <path
       style="display:inline;fill:none;stroke:#ff0000;stroke-width:0.352777;stroke-miterlimit:3.76316;stroke-dasharray:none;stroke-opacity:1"
       d="m 190.77154,141.26177 46.88827,-5.93518"
       id="path5385"
       inkscape:path-effect="#path-effect5387"
       inkscape:original-d="m 190.77154,141.26177 c 15.62968,-1.97813 31.25912,-3.95652 46.88827,-5.93518" />
    <path
       id="path5389"
       style="display:inline;fill:none;stroke:#ff0000;stroke-width:0.352777;stroke-miterlimit:3.76316;stroke-dasharray:none;stroke-opacity:1"
       d="m 100.26993,141.26176 -46.888267,-5.93518 m 75.750787,8.46025 -28.86252,-2.52507 m -49.417087,-6.15641 -19.896831,-1.74098 m 22.425651,1.96221 -2.52882,-0.22123" />
    <path
       style="display:inline;fill:none;stroke:#ff0000;stroke-width:0.352777;stroke-miterlimit:3.76316;stroke-dasharray:none;stroke-opacity:1"
       d="m 129.13244,143.78683 32.77658,1e-5"
       id="path5391"
       inkscape:path-effect="#path-effect5393"
       inkscape:original-d="m 129.13244,143.78683 c 10.92581,2.6e-4 21.85132,2.6e-4 32.77658,1e-5" />
  </g>
</svg>
